<?xml version="1.0" standalone="no"?>
 <!DOCTYPE svg PUBLIC "-//W3C//DTD SVG 1.1//EN" 
 "http://www.w3.org/Graphics/SVG/1.1/DTD/svg11.dtd"> 
<svg
  xmlns:svg="http://www.w3.org/2000/svg"
  xmlns="http://www.w3.org/2000/svg"
  xmlns:xlink="http://www.w3.org/1999/xlink"
  version="1.1"
  width="11.219180cm" height="8.249920cm" viewBox="0 0 44170 32480">
<title>SVG Picture created as OFICINA-TELE-ENCHUFES-INTERFAZ-F_SilkS.svg date 2021/07/27 03:07:18 </title>
  <desc>Picture generated by PCBNEW </desc>
<g style="fill:#000000; fill-opacity:1;stroke:#000000; stroke-opacity:1;
stroke-linecap:round; stroke-linejoin:round;"
 transform="translate(0 0) scale(1 1)">
</g>
<g style="fill:#000000; fill-opacity:0.0; 
stroke:#000000; stroke-width:-0.000393701; stroke-opacity:1; 
stroke-linecap:round; stroke-linejoin:round;">
</g>
<g style="fill:#000000; fill-opacity:0.0; 
stroke:#000000; stroke-width:59.0551; stroke-opacity:1; 
stroke-linecap:round; stroke-linejoin:round;">
<text x="7095.05" y="19458.2"
textLength="3451.35" font-size="524.934" lengthAdjust="spacingAndGlyphs"
text-anchor="middle" opacity="0">-        +</text>
<path d="M5501 19289
L5801 19289
" />
<path d="M8388 19289
L8688 19289
" />
<path d="M8538 19439
L8538 19139
" />
<text x="15495.1" y="19458.2"
textLength="3451.35" font-size="524.934" lengthAdjust="spacingAndGlyphs"
text-anchor="middle" opacity="0">-        +</text>
<path d="M13901 19289
L14201 19289
" />
<path d="M16788 19289
L17088 19289
" />
<path d="M16938 19439
L16938 19139
" />
<text x="24095.1" y="19458.2"
textLength="3451.35" font-size="524.934" lengthAdjust="spacingAndGlyphs"
text-anchor="middle" opacity="0">-        +</text>
<path d="M22501 19289
L22801 19289
" />
<path d="M25388 19289
L25688 19289
" />
<path d="M25538 19439
L25538 19139
" />
<text x="32195.1" y="9308.16"
textLength="3451.35" font-size="524.934" lengthAdjust="spacingAndGlyphs"
text-anchor="middle" opacity="0">+        -</text>
<path d="M30601 9139
L30901 9139
" />
<path d="M30751 9289
L30751 8989
" />
<path d="M33488 9139
L33788 9139
" />
<text x="24145.1" y="9308.16"
textLength="3451.35" font-size="524.934" lengthAdjust="spacingAndGlyphs"
text-anchor="middle" opacity="0">+        -</text>
<path d="M22551 9139
L22851 9139
" />
<path d="M22701 9289
L22701 8989
" />
<path d="M25438 9139
L25738 9139
" />
<text x="15695.1" y="9308.16"
textLength="3451.35" font-size="524.934" lengthAdjust="spacingAndGlyphs"
text-anchor="middle" opacity="0">+        -</text>
<path d="M14101 9139
L14401 9139
" />
<path d="M14251 9289
L14251 8989
" />
<path d="M16988 9139
L17288 9139
" />
<text x="7245.05" y="9308.16"
textLength="3451.35" font-size="524.934" lengthAdjust="spacingAndGlyphs"
text-anchor="middle" opacity="0">+        -</text>
<path d="M5651 9139
L5951 9139
" />
<path d="M5801 9289
L5801 8989
" />
<path d="M8538 9139
L8838 9139
" />
<g transform="rotate(-90 34114.7 23471.2)">
<text x="34114.7" y="23668"
textLength="6338.49" font-size="524.934" lengthAdjust="spacingAndGlyphs"
text-anchor="middle" opacity="0">INTERFAZ-CONECTOR</text>
</g>
<path d="M34292 26508
L33899 26508
" />
<path d="M34292 26320
L33899 26320
L34292 26095
L33899 26095
" />
<path d="M33899 25964
L33899 25739
" />
<path d="M34292 25852
L33899 25852
" />
<path d="M34086 25608
L34086 25477
" />
<path d="M34292 25420
L34292 25608
L33899 25608
L33899 25420
" />
<path d="M34292 25027
L34105 25158
" />
<path d="M34292 25252
L33899 25252
L33899 25102
L33917 25064
L33936 25045
L33974 25027
L34030 25027
L34067 25045
L34086 25064
L34105 25102
L34105 25252
" />
<path d="M34086 24727
L34086 24858
" />
<path d="M34292 24858
L33899 24858
L33899 24671
" />
<path d="M34180 24539
L34180 24352
" />
<path d="M34292 24577
L33899 24446
L34292 24314
" />
<path d="M33899 24221
L33899 23958
L34292 24221
L34292 23958
" />
<path d="M34142 23808
L34142 23508
" />
<path d="M34255 23096
L34274 23114
L34292 23171
L34292 23208
L34274 23264
L34236 23302
L34199 23321
L34124 23339
L34067 23339
L33992 23321
L33955 23302
L33917 23264
L33899 23208
L33899 23171
L33917 23114
L33936 23096
" />
<path d="M33899 22852
L33899 22777
L33917 22739
L33955 22702
L34030 22683
L34161 22683
L34236 22702
L34274 22739
L34292 22777
L34292 22852
L34274 22889
L34236 22927
L34161 22946
L34030 22946
L33955 22927
L33917 22889
L33899 22852
" />
<path d="M34292 22515
L33899 22515
L34292 22290
L33899 22290
" />
<path d="M34086 22102
L34086 21971
" />
<path d="M34292 21915
L34292 22102
L33899 22102
L33899 21915
" />
<path d="M34255 21521
L34274 21540
L34292 21596
L34292 21633
L34274 21690
L34236 21727
L34199 21746
L34124 21765
L34067 21765
L33992 21746
L33955 21727
L33917 21690
L33899 21633
L33899 21596
L33917 21540
L33936 21521
" />
<path d="M33899 21408
L33899 21183
" />
<path d="M34292 21296
L33899 21296
" />
<path d="M33899 20977
L33899 20902
L33917 20865
L33955 20827
L34030 20808
L34161 20808
L34236 20827
L34274 20865
L34292 20902
L34292 20977
L34274 21015
L34236 21052
L34161 21071
L34030 21071
L33955 21052
L33917 21015
L33899 20977
" />
<path d="M34292 20415
L34105 20546
" />
<path d="M34292 20640
L33899 20640
L33899 20490
L33917 20452
L33936 20434
L33974 20415
L34030 20415
L34067 20434
L34086 20452
L34105 20490
L34105 20640
" />
</g>
<g style="fill:#000000; fill-opacity:0.0; 
stroke:#000000; stroke-width:147.638; stroke-opacity:1; 
stroke-linecap:round; stroke-linejoin:round;">
<g transform="rotate(90 3051.55 25166.4)">
<text x="3051.55" y="25461.7"
textLength="3310.74" font-size="787.402" lengthAdjust="spacingAndGlyphs"
text-anchor="middle" opacity="0">FRENTE</text>
</g>
<path d="M3093 23886
L3093 23690
" />
<path d="M2784 23690
L3374 23690
L3374 23971
" />
<path d="M2784 24533
L3065 24336
" />
<path d="M2784 24196
L3374 24196
L3374 24421
L3346 24477
L3318 24505
L3262 24533
L3178 24533
L3121 24505
L3093 24477
L3065 24421
L3065 24196
" />
<path d="M3093 24786
L3093 24983
" />
<path d="M2784 25068
L2784 24786
L3374 24786
L3374 25068
" />
<path d="M2784 25321
L3374 25321
L2784 25658
L3374 25658
" />
<path d="M3374 25855
L3374 26192
" />
<path d="M2784 26024
L3374 26024
" />
<path d="M3093 26389
L3093 26586
" />
<path d="M2784 26670
L2784 26389
L3374 26389
L3374 26670
" />
<g transform="rotate(90 2018.09 25166.4)">
<text x="2018.09" y="25461.7"
textLength="4241.42" font-size="787.402" lengthAdjust="spacingAndGlyphs"
text-anchor="middle" opacity="0">INTERFAZ</text>
</g>
<path d="M1750 23282
L2341 23282
" />
<path d="M1750 23563
L2341 23563
L1750 23900
L2341 23900
" />
<path d="M2341 24097
L2341 24435
" />
<path d="M1750 24266
L2341 24266
" />
<path d="M2060 24632
L2060 24828
" />
<path d="M1750 24913
L1750 24632
L2341 24632
L2341 24913
" />
<path d="M1750 25503
L2032 25307
" />
<path d="M1750 25166
L2341 25166
L2341 25391
L2313 25447
L2285 25475
L2228 25503
L2144 25503
L2088 25475
L2060 25447
L2032 25391
L2032 25166
" />
<path d="M2060 25953
L2060 25756
" />
<path d="M1750 25756
L2341 25756
L2341 26038
" />
<path d="M1919 26235
L1919 26516
" />
<path d="M1750 26178
L2341 26375
L1750 26572
" />
<path d="M2341 26713
L2341 27106
L1750 26713
L1750 27106
" />
</g>
<g style="fill:#000000; fill-opacity:0.0; 
stroke:#000000; stroke-width:118.11; stroke-opacity:1; 
stroke-linecap:round; stroke-linejoin:round;">
<text x="7421.65" y="23312.5"
textLength="5422.53" font-size="787.402" lengthAdjust="spacingAndGlyphs"
text-anchor="middle" opacity="0">SW_ALL_OFF</text>
<path d="M4918 23256
L5003 23284
L5143 23284
L5200 23256
L5228 23228
L5256 23171
L5256 23115
L5228 23059
L5200 23031
L5143 23003
L5031 22975
L4975 22946
L4946 22918
L4918 22862
L4918 22806
L4946 22750
L4975 22721
L5031 22693
L5171 22693
L5256 22721
" />
<path d="M5453 22693
L5593 23284
L5706 22862
L5818 23284
L5959 22693
" />
<path d="M6043 23340
L6493 23340
" />
<path d="M6606 23115
L6887 23115
" />
<path d="M6549 23284
L6746 22693
L6943 23284
" />
<path d="M7421 23284
L7140 23284
L7140 22693
" />
<path d="M7899 23284
L7618 23284
L7618 22693
" />
<path d="M7955 23340
L8405 23340
" />
<path d="M8658 22693
L8771 22693
L8827 22721
L8883 22778
L8912 22890
L8912 23087
L8883 23200
L8827 23256
L8771 23284
L8658 23284
L8602 23256
L8546 23200
L8518 23087
L8518 22890
L8546 22778
L8602 22721
L8658 22693
" />
<path d="M9362 22975
L9165 22975
" />
<path d="M9165 23284
L9165 22693
L9446 22693
" />
<path d="M9868 22975
L9671 22975
" />
<path d="M9671 23284
L9671 22693
L9952 22693
" />
<text x="26647.2" y="13131.4"
textLength="1953.32" font-size="787.402" lengthAdjust="spacingAndGlyphs"
text-anchor="middle" opacity="0">SW7</text>
<path d="M25859 13075
L25944 13103
L26084 13103
L26141 13075
L26169 13047
L26197 12990
L26197 12934
L26169 12878
L26141 12850
L26084 12822
L25972 12793
L25916 12765
L25887 12737
L25859 12681
L25859 12625
L25887 12568
L25916 12540
L25972 12512
L26112 12512
L26197 12540
" />
<path d="M26394 12512
L26534 13103
L26647 12681
L26759 13103
L26900 12512
" />
<path d="M27069 12512
L27462 12512
L27209 13103
" />
<text x="18242.5" y="13131.4"
textLength="1953.32" font-size="787.402" lengthAdjust="spacingAndGlyphs"
text-anchor="middle" opacity="0">SW6</text>
<path d="M17455 13075
L17539 13103
L17680 13103
L17736 13075
L17764 13047
L17792 12990
L17792 12934
L17764 12878
L17736 12850
L17680 12822
L17567 12793
L17511 12765
L17483 12737
L17455 12681
L17455 12625
L17483 12568
L17511 12540
L17567 12512
L17708 12512
L17792 12540
" />
<path d="M17989 12512
L18130 13103
L18242 12681
L18355 13103
L18495 12512
" />
<path d="M18973 12512
L18861 12512
L18804 12540
L18776 12568
L18720 12653
L18692 12765
L18692 12990
L18720 13047
L18748 13075
L18804 13103
L18917 13103
L18973 13075
L19001 13047
L19029 12990
L19029 12850
L19001 12793
L18973 12765
L18917 12737
L18804 12737
L18748 12765
L18720 12793
L18692 12850
" />
<text x="10040.2" y="13184.5"
textLength="1953.32" font-size="787.402" lengthAdjust="spacingAndGlyphs"
text-anchor="middle" opacity="0">SW5</text>
<path d="M9252 13128
L9337 13156
L9477 13156
L9533 13128
L9562 13100
L9590 13043
L9590 12987
L9562 12931
L9533 12903
L9477 12875
L9365 12847
L9308 12818
L9280 12790
L9252 12734
L9252 12678
L9280 12622
L9308 12593
L9365 12565
L9505 12565
L9590 12593
" />
<path d="M9787 12565
L9927 13156
L10040 12734
L10152 13156
L10293 12565
" />
<path d="M10799 12565
L10518 12565
L10490 12847
L10518 12818
L10574 12790
L10715 12790
L10771 12818
L10799 12847
L10827 12903
L10827 13043
L10799 13100
L10771 13128
L10715 13156
L10574 13156
L10518 13128
L10490 13100
" />
<text x="35113.8" y="8862.1"
textLength="1953.32" font-size="787.402" lengthAdjust="spacingAndGlyphs"
text-anchor="middle" opacity="0">SW4</text>
<path d="M34326 8805
L34410 8833
L34551 8833
L34607 8805
L34635 8777
L34663 8721
L34663 8665
L34635 8609
L34607 8580
L34551 8552
L34438 8524
L34382 8496
L34354 8468
L34326 8412
L34326 8355
L34354 8299
L34382 8271
L34438 8243
L34579 8243
L34663 8271
" />
<path d="M34860 8243
L35001 8833
L35113 8412
L35226 8833
L35366 8243
" />
<path d="M35844 8440
L35844 8833
" />
<path d="M35704 8215
L35563 8637
L35929 8637
" />
<text x="26863.8" y="8862.1"
textLength="1953.32" font-size="787.402" lengthAdjust="spacingAndGlyphs"
text-anchor="middle" opacity="0">SW3</text>
<path d="M26076 8805
L26160 8833
L26301 8833
L26357 8805
L26385 8777
L26413 8721
L26413 8665
L26385 8609
L26357 8580
L26301 8552
L26188 8524
L26132 8496
L26104 8468
L26076 8412
L26076 8355
L26104 8299
L26132 8271
L26188 8243
L26329 8243
L26413 8271
" />
<path d="M26610 8243
L26751 8833
L26863 8412
L26976 8833
L27116 8243
" />
<path d="M27285 8243
L27651 8243
L27454 8468
L27538 8468
L27594 8496
L27623 8524
L27651 8580
L27651 8721
L27623 8777
L27594 8805
L27538 8833
L27369 8833
L27313 8805
L27285 8777
" />
<text x="18463.8" y="8862.1"
textLength="1953.32" font-size="787.402" lengthAdjust="spacingAndGlyphs"
text-anchor="middle" opacity="0">SW2</text>
<path d="M17676 8805
L17760 8833
L17901 8833
L17957 8805
L17985 8777
L18013 8721
L18013 8665
L17985 8609
L17957 8580
L17901 8552
L17788 8524
L17732 8496
L17704 8468
L17676 8412
L17676 8355
L17704 8299
L17732 8271
L17788 8243
L17929 8243
L18013 8271
" />
<path d="M18210 8243
L18351 8833
L18463 8412
L18576 8833
L18716 8243
" />
<path d="M18913 8299
L18941 8271
L18998 8243
L19138 8243
L19194 8271
L19223 8299
L19251 8355
L19251 8412
L19223 8496
L18885 8833
L19251 8833
" />
<text x="10253.5" y="8907.38"
textLength="1953.32" font-size="787.402" lengthAdjust="spacingAndGlyphs"
text-anchor="middle" opacity="0">SW1</text>
<path d="M9466 8851
L9550 8879
L9691 8879
L9747 8851
L9775 8823
L9803 8766
L9803 8710
L9775 8654
L9747 8626
L9691 8598
L9578 8569
L9522 8541
L9494 8513
L9466 8457
L9466 8401
L9494 8344
L9522 8316
L9578 8288
L9719 8288
L9803 8316
" />
<path d="M10000 8288
L10141 8879
L10253 8457
L10366 8879
L10506 8288
" />
<path d="M11040 8879
L10703 8879
" />
<path d="M10872 8879
L10872 8288
L10815 8373
L10759 8429
L10703 8457
" />
</g>
<g style="fill:#000000; fill-opacity:0.0; 
stroke:#000000; stroke-width:47.2441; stroke-opacity:1; 
stroke-linecap:round; stroke-linejoin:round;">
<path d="M12731 8810
L12158 8810
" />
<path d="M12731 9527
L12158 9527
" />
<path d="M6550 9616
L8079 9616
" />
<path d="M8079 9616
L8079 8722
" />
<path d="M8079 8722
L6550 8722
" />
<path d="M18511 19627
L19083 19627
" />
<path d="M18511 18910
L19083 18910
" />
<path d="M9761 3232
L9761 4303
" />
<path d="M9761 7003
L9761 8074
" />
<path d="M4919 6271
L4919 5035
" />
<path d="M4919 8074
L4919 7003
" />
<circle cx="7379.92" cy="5669.19" r="1802.78" /> 
<path d="M4919 4303
L4919 3232
" />
<path d="M9761 8074
L4919 8074
" />
<path d="M9761 5035
L9761 6271
" />
<path d="M4919 3232
L9761 3232
" />
<path d="M15566 25495
L14993 25495
" />
<path d="M15566 26212
L14993 26212
" />
<path d="M15566 24495
L14993 24495
" />
<path d="M15566 25212
L14993 25212
" />
<path d="M15566 26495
L14993 26495
" />
<path d="M15566 27212
L14993 27212
" />
<path d="M15566 28212
L14993 28212
" />
<path d="M15566 27495
L14993 27495
" />
<path d="M18561 29584
L18561 29011
" />
<path d="M17845 29584
L17845 29011
" />
<path d="M19561 29584
L19561 29011
" />
<path d="M18845 29584
L18845 29011
" />
<path d="M20561 29584
L20561 29011
" />
<path d="M19845 29584
L19845 29011
" />
<path d="M21561 29584
L21561 29011
" />
<path d="M20845 29584
L20845 29011
" />
<path d="M9508 30619
L10081 30619
" />
<path d="M9508 29903
L10081 29903
" />
<path d="M26772 19627
L27345 19627
" />
<path d="M26772 18910
L27345 18910
" />
<path d="M10208 19619
L10781 19619
" />
<path d="M10208 18903
L10781 18903
" />
<path d="M29531 8810
L28958 8810
" />
<path d="M29531 9527
L28958 9527
" />
<path d="M21131 8810
L20558 8810
" />
<path d="M21131 9527
L20558 9527
" />
<path d="M4481 8810
L3908 8810
" />
<path d="M4481 9527
L3908 9527
" />
<path d="M24609 18822
L23080 18822
" />
<path d="M23080 18822
L23080 19716
" />
<path d="M23080 19716
L24609 19716
" />
<path d="M16209 18822
L14680 18822
" />
<path d="M14680 18822
L14680 19716
" />
<path d="M14680 19716
L16209 19716
" />
<path d="M7809 18822
L6280 18822
" />
<path d="M6280 18822
L6280 19716
" />
<path d="M6280 19716
L7809 19716
" />
<path d="M31550 9616
L33079 9616
" />
<path d="M33079 9616
L33079 8722
" />
<path d="M33079 8722
L31550 8722
" />
<path d="M23350 9616
L24879 9616
" />
<path d="M24879 9616
L24879 8722
" />
<path d="M24879 8722
L23350 8722
" />
<path d="M14950 9616
L16479 9616
" />
<path d="M16479 9616
L16479 8722
" />
<path d="M16479 8722
L14950 8722
" />
<path d="M4913 29148
L4913 28077
" />
<path d="M4913 25376
L4913 24305
" />
<path d="M9755 26108
L9755 27345
" />
<path d="M9755 24305
L9755 25376
" />
<circle cx="7295.05" cy="26711.3" r="1802.78" /> 
<path d="M9755 28077
L9755 29148
" />
<path d="M4913 24305
L9755 24305
" />
<path d="M4913 27345
L4913 26108
" />
<path d="M9755 29148
L4913 29148
" />
<path d="M21519 13332
L26361 13332
" />
<path d="M26361 15135
L26361 16371
" />
<path d="M26361 18174
L21519 18174
" />
<path d="M21519 14403
L21519 13332
" />
<circle cx="23979.9" cy="15769.2" r="1802.78" /> 
<path d="M21519 18174
L21519 17103
" />
<path d="M21519 16371
L21519 15135
" />
<path d="M26361 17103
L26361 18174
" />
<path d="M26361 13332
L26361 14403
" />
<path d="M17961 13332
L17961 14403
" />
<path d="M17961 17103
L17961 18174
" />
<path d="M13119 16371
L13119 15135
" />
<path d="M13119 18174
L13119 17103
" />
<circle cx="15579.9" cy="15769.2" r="1802.78" /> 
<path d="M13119 14403
L13119 13332
" />
<path d="M17961 18174
L13119 18174
" />
<path d="M17961 15135
L17961 16371
" />
<path d="M13119 13332
L17961 13332
" />
<path d="M9761 13332
L9761 14403
" />
<path d="M9761 17103
L9761 18174
" />
<path d="M4919 16371
L4919 15135
" />
<path d="M4919 18174
L4919 17103
" />
<circle cx="7379.92" cy="15769.2" r="1802.78" /> 
<path d="M4919 14403
L4919 13332
" />
<path d="M9761 18174
L4919 18174
" />
<path d="M9761 15135
L9761 16371
" />
<path d="M4919 13332
L9761 13332
" />
<path d="M34561 3232
L34561 4303
" />
<path d="M34561 7003
L34561 8074
" />
<path d="M29719 6271
L29719 5035
" />
<path d="M29719 8074
L29719 7003
" />
<circle cx="32179.9" cy="5669.19" r="1802.78" /> 
<path d="M29719 4303
L29719 3232
" />
<path d="M34561 8074
L29719 8074
" />
<path d="M34561 5035
L34561 6271
" />
<path d="M29719 3232
L34561 3232
" />
<path d="M21519 3232
L26361 3232
" />
<path d="M26361 5035
L26361 6271
" />
<path d="M26361 8074
L21519 8074
" />
<path d="M21519 4303
L21519 3232
" />
<circle cx="23979.9" cy="5669.19" r="1802.78" /> 
<path d="M21519 8074
L21519 7003
" />
<path d="M21519 6271
L21519 5035
" />
<path d="M26361 7003
L26361 8074
" />
<path d="M26361 3232
L26361 4303
" />
<path d="M17961 3232
L17961 4303
" />
<path d="M17961 7003
L17961 8074
" />
<path d="M13119 6271
L13119 5035
" />
<path d="M13119 8074
L13119 7003
" />
<circle cx="15579.9" cy="5669.19" r="1802.78" /> 
<path d="M13119 4303
L13119 3232
" />
<path d="M17961 8074
L13119 8074
" />
<path d="M17961 5035
L17961 6271
" />
<path d="M13119 3232
L17961 3232
" />
</g>
<g style="fill:#000000; fill-opacity:0.0; 
stroke:#000000; stroke-width:59.0551; stroke-opacity:1; 
stroke-linecap:round; stroke-linejoin:round;">
<text x="12545.1" y="10240.4"
textLength="1315.9" font-size="524.934" lengthAdjust="spacingAndGlyphs"
text-anchor="middle" opacity="0">RD2</text>
<path d="M12282 10221
L12151 10034
" />
<path d="M12057 10221
L12057 9827
L12207 9827
L12245 9846
L12263 9865
L12282 9902
L12282 9959
L12263 9996
L12245 10015
L12207 10034
L12057 10034
" />
<path d="M12451 10221
L12451 9827
L12545 9827
L12601 9846
L12638 9884
L12657 9921
L12676 9996
L12676 10052
L12657 10127
L12638 10165
L12601 10202
L12545 10221
L12451 10221
" />
<path d="M12826 9865
L12845 9846
L12882 9827
L12976 9827
L13013 9846
L13032 9865
L13051 9902
L13051 9940
L13032 9996
L12807 10221
L13051 10221
" />
<g transform="rotate(-90 14945.1 10219.2)">
<text x="14945.1" y="10416"
textLength="1201.63" font-size="524.934" lengthAdjust="spacingAndGlyphs"
text-anchor="middle" opacity="0">250</text>
</g>
<path d="M14766 10706
L14748 10687
L14729 10650
L14729 10556
L14748 10519
L14766 10500
L14804 10481
L14841 10481
L14898 10500
L15123 10725
L15123 10481
" />
<path d="M14729 10125
L14729 10312
L14916 10331
L14898 10312
L14879 10275
L14879 10181
L14898 10144
L14916 10125
L14954 10106
L15048 10106
L15085 10125
L15104 10144
L15123 10181
L15123 10275
L15104 10312
L15085 10331
" />
<path d="M14729 9862
L14729 9825
L14748 9787
L14766 9769
L14804 9750
L14879 9731
L14973 9731
L15048 9750
L15085 9769
L15104 9787
L15123 9825
L15123 9862
L15104 9900
L15085 9919
L15048 9937
L14973 9956
L14879 9956
L14804 9937
L14766 9919
L14748 9900
L14729 9862
" />
<text x="7179.92" y="10182.6"
textLength="845.426" font-size="524.934" lengthAdjust="spacingAndGlyphs"
text-anchor="middle" opacity="0">D1</text>
<path d="M6889 10163
L6889 9770
L6983 9770
L7039 9788
L7076 9826
L7095 9863
L7114 9938
L7114 9995
L7095 10070
L7076 10107
L7039 10145
L6983 10163
L6889 10163
" />
<path d="M7489 10163
L7264 10163
" />
<path d="M7376 10163
L7376 9770
L7339 9826
L7301 9863
L7264 9882
" />
<text x="7179.92" y="9449.5"
textLength="1145.39" font-size="524.934" lengthAdjust="spacingAndGlyphs"
text-anchor="middle" opacity="0">LED</text>
<path d="M6926 9430
L6739 9430
L6739 9037
" />
<path d="M7058 9224
L7189 9224
" />
<path d="M7245 9430
L7058 9430
L7058 9037
L7245 9037
" />
<path d="M7414 9430
L7414 9037
L7508 9037
L7564 9055
L7601 9093
L7620 9130
L7639 9205
L7639 9262
L7620 9337
L7601 9374
L7564 9412
L7508 9430
L7414 9430
" />
<text x="18805.5" y="20240.1"
textLength="1239.13" font-size="524.934" lengthAdjust="spacingAndGlyphs"
text-anchor="middle" opacity="0">RD6</text>
<path d="M18543 20221
L18411 20033
" />
<path d="M18318 20221
L18318 19827
L18468 19827
L18505 19846
L18524 19865
L18543 19902
L18543 19958
L18524 19996
L18505 20015
L18468 20033
L18318 20033
" />
<path d="M18711 20221
L18711 19827
L18805 19827
L18861 19846
L18899 19883
L18917 19921
L18936 19996
L18936 20052
L18917 20127
L18899 20165
L18861 20202
L18805 20221
L18711 20221
" />
<path d="M19274 19827
L19199 19827
L19161 19846
L19142 19865
L19105 19921
L19086 19996
L19086 20146
L19105 20183
L19124 20202
L19161 20221
L19236 20221
L19274 20202
L19292 20183
L19311 20146
L19311 20052
L19292 20015
L19274 19996
L19236 19977
L19161 19977
L19124 19996
L19105 20015
L19086 20052
" />
<text x="18843.7" y="18763.7"
textLength="1201.63" font-size="524.934" lengthAdjust="spacingAndGlyphs"
text-anchor="middle" opacity="0">250</text>
<path d="M18356 18388
L18375 18369
L18412 18351
L18506 18351
L18543 18369
L18562 18388
L18581 18426
L18581 18463
L18562 18519
L18337 18744
L18581 18744
" />
<path d="M18937 18351
L18749 18351
L18731 18538
L18749 18519
L18787 18501
L18881 18501
L18918 18519
L18937 18538
L18956 18576
L18956 18669
L18937 18707
L18918 18726
L18881 18744
L18787 18744
L18749 18726
L18731 18707
" />
<path d="M19199 18351
L19237 18351
L19274 18369
L19293 18388
L19312 18426
L19331 18501
L19331 18594
L19312 18669
L19293 18707
L19274 18726
L19237 18744
L19199 18744
L19162 18726
L19143 18707
L19124 18669
L19106 18594
L19106 18501
L19124 18426
L19143 18388
L19162 18369
L19199 18351
" />
<text x="15321.4" y="24312.1"
textLength="1220.38" font-size="524.934" lengthAdjust="spacingAndGlyphs"
text-anchor="middle" opacity="0">4K7</text>
<path d="M15012 24030
L15012 24293
" />
<path d="M14918 23880
L14824 24162
L15068 24162
" />
<path d="M15218 24293
L15218 23899
" />
<path d="M15443 24293
L15274 24068
" />
<path d="M15443 23899
L15218 24124
" />
<path d="M15574 23899
L15836 23899
L15668 24293
" />
<g transform="rotate(-90 18210 31106.4)">
<text x="18210" y="31303.3"
textLength="1670.32" font-size="524.934" lengthAdjust="spacingAndGlyphs"
text-anchor="middle" opacity="0">SWR4</text>
</g>
<path d="M18369 31828
L18388 31771
L18388 31678
L18369 31640
L18350 31621
L18313 31603
L18275 31603
L18238 31621
L18219 31640
L18200 31678
L18181 31753
L18163 31790
L18144 31809
L18106 31828
L18069 31828
L18031 31809
L18013 31790
L17994 31753
L17994 31659
L18013 31603
" />
<path d="M17994 31471
L18388 31378
L18106 31303
L18388 31228
L17994 31134
" />
<path d="M18388 30759
L18200 30890
" />
<path d="M18388 30984
L17994 30984
L17994 30834
L18013 30797
L18031 30778
L18069 30759
L18125 30759
L18163 30778
L18181 30797
L18200 30834
L18200 30984
" />
<path d="M18125 30422
L18388 30422
" />
<path d="M17975 30515
L18256 30609
L18256 30365
" />
<g transform="rotate(-90 19212.4 31106.4)">
<text x="19212.4" y="31303.3"
textLength="1670.32" font-size="524.934" lengthAdjust="spacingAndGlyphs"
text-anchor="middle" opacity="0">SWR3</text>
</g>
<path d="M19371 31828
L19390 31771
L19390 31678
L19371 31640
L19352 31621
L19315 31603
L19277 31603
L19240 31621
L19221 31640
L19203 31678
L19184 31753
L19165 31790
L19146 31809
L19109 31828
L19071 31828
L19034 31809
L19015 31790
L18996 31753
L18996 31659
L19015 31603
" />
<path d="M18996 31471
L19390 31378
L19109 31303
L19390 31228
L18996 31134
" />
<path d="M19390 30759
L19203 30890
" />
<path d="M19390 30984
L18996 30984
L18996 30834
L19015 30797
L19034 30778
L19071 30759
L19128 30759
L19165 30778
L19184 30797
L19203 30834
L19203 30984
" />
<path d="M18996 30628
L18996 30384
L19146 30515
L19146 30459
L19165 30422
L19184 30403
L19221 30384
L19315 30384
L19352 30403
L19371 30422
L19390 30459
L19390 30572
L19371 30609
L19352 30628
" />
<g transform="rotate(-90 20230.1 31106.4)">
<text x="20230.1" y="31303.3"
textLength="1670.32" font-size="524.934" lengthAdjust="spacingAndGlyphs"
text-anchor="middle" opacity="0">SWR2</text>
</g>
<path d="M20389 31828
L20408 31771
L20408 31678
L20389 31640
L20370 31621
L20333 31603
L20295 31603
L20258 31621
L20239 31640
L20220 31678
L20201 31753
L20183 31790
L20164 31809
L20126 31828
L20089 31828
L20051 31809
L20033 31790
L20014 31753
L20014 31659
L20033 31603
" />
<path d="M20014 31471
L20408 31378
L20126 31303
L20408 31228
L20014 31134
" />
<path d="M20408 30759
L20220 30890
" />
<path d="M20408 30984
L20014 30984
L20014 30834
L20033 30797
L20051 30778
L20089 30759
L20145 30759
L20183 30778
L20201 30797
L20220 30834
L20220 30984
" />
<path d="M20051 30609
L20033 30590
L20014 30553
L20014 30459
L20033 30422
L20051 30403
L20089 30384
L20126 30384
L20183 30403
L20408 30628
L20408 30384
" />
<g transform="rotate(-90 21200.2 31106.4)">
<text x="21200.2" y="31303.3"
textLength="1670.32" font-size="524.934" lengthAdjust="spacingAndGlyphs"
text-anchor="middle" opacity="0">SWR1</text>
</g>
<path d="M21359 31828
L21378 31771
L21378 31678
L21359 31640
L21340 31621
L21303 31603
L21265 31603
L21228 31621
L21209 31640
L21190 31678
L21172 31753
L21153 31790
L21134 31809
L21097 31828
L21059 31828
L21022 31809
L21003 31790
L20984 31753
L20984 31659
L21003 31603
" />
<path d="M20984 31471
L21378 31378
L21097 31303
L21378 31228
L20984 31134
" />
<path d="M21378 30759
L21190 30890
" />
<path d="M21378 30984
L20984 30984
L20984 30834
L21003 30797
L21022 30778
L21059 30759
L21115 30759
L21153 30778
L21172 30797
L21190 30834
L21190 30984
" />
<path d="M21378 30384
L21378 30609
" />
<path d="M21378 30497
L20984 30497
L21040 30534
L21078 30572
L21097 30609
" />
<g transform="rotate(-90 21995.1 29311.3)">
<text x="21995.1" y="29508.2"
textLength="1220.38" font-size="524.934" lengthAdjust="spacingAndGlyphs"
text-anchor="middle" opacity="0">4K7</text>
</g>
<path d="M21910 29620
L22173 29620
" />
<path d="M21760 29714
L22041 29808
L22041 29564
" />
<path d="M22173 29414
L21779 29414
" />
<path d="M22173 29189
L21948 29358
" />
<path d="M21779 29189
L22004 29414
" />
<path d="M21779 29058
L21779 28795
L22173 28964
" />
<text x="9773.4" y="31797"
textLength="2214" font-size="524.934" lengthAdjust="spacingAndGlyphs"
text-anchor="middle" opacity="0">RDATA1</text>
<path d="M9023 31778
L8892 31590
" />
<path d="M8798 31778
L8798 31384
L8948 31384
L8985 31403
L9004 31422
L9023 31459
L9023 31515
L9004 31553
L8985 31571
L8948 31590
L8798 31590
" />
<path d="M9192 31778
L9192 31384
L9285 31384
L9342 31403
L9379 31440
L9398 31478
L9417 31553
L9417 31609
L9398 31684
L9379 31721
L9342 31759
L9285 31778
L9192 31778
" />
<path d="M9567 31665
L9754 31665
" />
<path d="M9529 31778
L9660 31384
L9792 31778
" />
<path d="M9867 31384
L10092 31384
" />
<path d="M9979 31778
L9979 31384
" />
<path d="M10204 31665
L10392 31665
" />
<path d="M10167 31778
L10298 31384
L10429 31778
" />
<path d="M10767 31778
L10542 31778
" />
<path d="M10654 31778
L10654 31384
L10617 31440
L10579 31478
L10542 31497
" />
<text x="9787.18" y="31216.3"
textLength="1220.38" font-size="524.934" lengthAdjust="spacingAndGlyphs"
text-anchor="middle" opacity="0">4K7</text>
<path d="M9477 30935
L9477 31197
" />
<path d="M9384 30785
L9290 31066
L9534 31066
" />
<path d="M9684 31197
L9684 30803
" />
<path d="M9909 31197
L9740 30972
" />
<path d="M9909 30803
L9684 31028
" />
<path d="M10040 30803
L10302 30803
L10134 31197
" />
<text x="27076.8" y="20227.5"
textLength="1239.13" font-size="524.934" lengthAdjust="spacingAndGlyphs"
text-anchor="middle" opacity="0">RD7</text>
<path d="M26814 20208
L26683 20021
" />
<path d="M26589 20208
L26589 19815
L26739 19815
L26776 19833
L26795 19852
L26814 19889
L26814 19946
L26795 19983
L26776 20002
L26739 20021
L26589 20021
" />
<path d="M26983 20208
L26983 19815
L27076 19815
L27133 19833
L27170 19871
L27189 19908
L27208 19983
L27208 20039
L27189 20114
L27170 20152
L27133 20189
L27076 20208
L26983 20208
" />
<path d="M27339 19815
L27601 19815
L27432 20208
" />
<text x="27052.8" y="18730.6"
textLength="1201.63" font-size="524.934" lengthAdjust="spacingAndGlyphs"
text-anchor="middle" opacity="0">250</text>
<path d="M26565 18355
L26584 18336
L26621 18318
L26715 18318
L26752 18336
L26771 18355
L26790 18393
L26790 18430
L26771 18486
L26546 18711
L26790 18711
" />
<path d="M27146 18318
L26959 18318
L26940 18505
L26959 18486
L26996 18468
L27090 18468
L27127 18486
L27146 18505
L27165 18543
L27165 18636
L27146 18674
L27127 18693
L27090 18711
L26996 18711
L26959 18693
L26940 18674
" />
<path d="M27408 18318
L27446 18318
L27483 18336
L27502 18355
L27521 18393
L27540 18468
L27540 18561
L27521 18636
L27502 18674
L27483 18693
L27446 18711
L27408 18711
L27371 18693
L27352 18674
L27333 18636
L27315 18561
L27315 18468
L27333 18393
L27352 18355
L27371 18336
L27408 18318
" />
<text x="8889.94" y="19499.5"
textLength="1239.13" font-size="524.934" lengthAdjust="spacingAndGlyphs"
text-anchor="middle" opacity="0">RD5</text>
<path d="M8627 19480
L8496 19293
" />
<path d="M8402 19480
L8402 19087
L8552 19087
L8589 19105
L8608 19124
L8627 19162
L8627 19218
L8608 19255
L8589 19274
L8552 19293
L8402 19293
" />
<path d="M8796 19480
L8796 19087
L8889 19087
L8946 19105
L8983 19143
L9002 19180
L9021 19255
L9021 19312
L9002 19387
L8983 19424
L8946 19462
L8889 19480
L8796 19480
" />
<path d="M9377 19087
L9189 19087
L9171 19274
L9189 19255
L9227 19237
L9321 19237
L9358 19255
L9377 19274
L9396 19312
L9396 19405
L9377 19443
L9358 19462
L9321 19480
L9227 19480
L9189 19462
L9171 19443
" />
<text x="11970.6" y="19455.8"
textLength="1201.63" font-size="524.934" lengthAdjust="spacingAndGlyphs"
text-anchor="middle" opacity="0">250</text>
<path d="M11483 19080
L11501 19062
L11539 19043
L11633 19043
L11670 19062
L11689 19080
L11708 19118
L11708 19155
L11689 19212
L11464 19437
L11708 19437
" />
<path d="M12064 19043
L11876 19043
L11858 19230
L11876 19212
L11914 19193
L12008 19193
L12045 19212
L12064 19230
L12083 19268
L12083 19362
L12064 19399
L12045 19418
L12008 19437
L11914 19437
L11876 19418
L11858 19399
" />
<path d="M12326 19043
L12364 19043
L12401 19062
L12420 19080
L12439 19118
L12458 19193
L12458 19287
L12439 19362
L12420 19399
L12401 19418
L12364 19437
L12326 19437
L12289 19418
L12270 19399
L12251 19362
L12233 19287
L12233 19193
L12251 19118
L12270 19080
L12289 19062
L12326 19043
" />
<text x="29395.1" y="10182.6"
textLength="1239.13" font-size="524.934" lengthAdjust="spacingAndGlyphs"
text-anchor="middle" opacity="0">RD4</text>
<path d="M29132 10163
L29001 9976
" />
<path d="M28907 10163
L28907 9770
L29057 9770
L29095 9788
L29113 9807
L29132 9845
L29132 9901
L29113 9938
L29095 9957
L29057 9976
L28907 9976
" />
<path d="M29301 10163
L29301 9770
L29395 9770
L29451 9788
L29488 9826
L29507 9863
L29526 9938
L29526 9995
L29507 10070
L29488 10107
L29451 10145
L29395 10163
L29301 10163
" />
<path d="M29863 9901
L29863 10163
" />
<path d="M29770 9751
L29676 10032
L29919 10032
" />
<text x="20845.1" y="10240.4"
textLength="1239.13" font-size="524.934" lengthAdjust="spacingAndGlyphs"
text-anchor="middle" opacity="0">RD3</text>
<path d="M20582 10221
L20451 10034
" />
<path d="M20357 10221
L20357 9827
L20507 9827
L20545 9846
L20563 9865
L20582 9902
L20582 9959
L20563 9996
L20545 10015
L20507 10034
L20357 10034
" />
<path d="M20751 10221
L20751 9827
L20845 9827
L20901 9846
L20938 9884
L20957 9921
L20976 9996
L20976 10052
L20957 10127
L20938 10165
L20901 10202
L20845 10221
L20751 10221
" />
<path d="M21107 9827
L21351 9827
L21220 9977
L21276 9977
L21313 9996
L21332 10015
L21351 10052
L21351 10146
L21332 10184
L21313 10202
L21276 10221
L21163 10221
L21126 10202
L21107 10184
" />
<text x="4275.76" y="10182.6"
textLength="1239.13" font-size="524.934" lengthAdjust="spacingAndGlyphs"
text-anchor="middle" opacity="0">RD1</text>
<path d="M4013 10163
L3882 9976
" />
<path d="M3788 10163
L3788 9770
L3938 9770
L3975 9788
L3994 9807
L4013 9845
L4013 9901
L3994 9938
L3975 9957
L3938 9976
L3788 9976
" />
<path d="M4182 10163
L4182 9770
L4275 9770
L4332 9788
L4369 9826
L4388 9863
L4406 9938
L4406 9995
L4388 10070
L4369 10107
L4332 10145
L4275 10163
L4182 10163
" />
<path d="M4781 10163
L4556 10163
" />
<path d="M4669 10163
L4669 9770
L4631 9826
L4594 9863
L4556 9882
" />
<text x="4288.14" y="8650.68"
textLength="1201.63" font-size="524.934" lengthAdjust="spacingAndGlyphs"
text-anchor="middle" opacity="0">250</text>
<path d="M3800 8275
L3819 8256
L3856 8238
L3950 8238
L3988 8256
L4006 8275
L4025 8313
L4025 8350
L4006 8406
L3781 8631
L4025 8631
" />
<path d="M4381 8238
L4194 8238
L4175 8425
L4194 8406
L4231 8388
L4325 8388
L4363 8406
L4381 8425
L4400 8463
L4400 8556
L4381 8594
L4363 8613
L4325 8631
L4231 8631
L4194 8613
L4175 8594
" />
<path d="M4644 8238
L4681 8238
L4719 8256
L4738 8275
L4756 8313
L4775 8388
L4775 8481
L4756 8556
L4738 8594
L4719 8613
L4681 8631
L4644 8631
L4606 8613
L4588 8594
L4569 8556
L4550 8481
L4550 8388
L4569 8313
L4588 8275
L4606 8256
L4644 8238
" />
<text x="23979.9" y="20295.6"
textLength="845.426" font-size="524.934" lengthAdjust="spacingAndGlyphs"
text-anchor="middle" opacity="0">D7</text>
<path d="M23689 20276
L23689 19883
L23783 19883
L23839 19901
L23876 19939
L23895 19976
L23914 20051
L23914 20108
L23895 20183
L23876 20220
L23839 20258
L23783 20276
L23689 20276
" />
<path d="M24045 19883
L24308 19883
L24139 20276
" />
<text x="15513" y="20295.6"
textLength="845.426" font-size="524.934" lengthAdjust="spacingAndGlyphs"
text-anchor="middle" opacity="0">D6</text>
<path d="M15222 20276
L15222 19883
L15316 19883
L15372 19901
L15409 19939
L15428 19976
L15447 20051
L15447 20108
L15428 20183
L15409 20220
L15372 20258
L15316 20276
L15222 20276
" />
<path d="M15784 19883
L15709 19883
L15672 19901
L15653 19920
L15616 19976
L15597 20051
L15597 20201
L15616 20239
L15634 20258
L15672 20276
L15747 20276
L15784 20258
L15803 20239
L15822 20201
L15822 20108
L15803 20070
L15784 20051
L15747 20033
L15672 20033
L15634 20051
L15616 20070
L15597 20108
" />
<text x="7179.92" y="20295.6"
textLength="845.426" font-size="524.934" lengthAdjust="spacingAndGlyphs"
text-anchor="middle" opacity="0">D5</text>
<path d="M6889 20276
L6889 19883
L6983 19883
L7039 19901
L7076 19939
L7095 19976
L7114 20051
L7114 20108
L7095 20183
L7076 20220
L7039 20258
L6983 20276
L6889 20276
" />
<path d="M7470 19883
L7283 19883
L7264 20070
L7283 20051
L7320 20033
L7414 20033
L7451 20051
L7470 20070
L7489 20108
L7489 20201
L7470 20239
L7451 20258
L7414 20276
L7320 20276
L7283 20258
L7264 20239
" />
<text x="32179.9" y="10182.6"
textLength="845.426" font-size="524.934" lengthAdjust="spacingAndGlyphs"
text-anchor="middle" opacity="0">D4</text>
<path d="M31889 10163
L31889 9770
L31983 9770
L32039 9788
L32076 9826
L32095 9863
L32114 9938
L32114 9995
L32095 10070
L32076 10107
L32039 10145
L31983 10163
L31889 10163
" />
<path d="M32451 9901
L32451 10163
" />
<path d="M32358 9751
L32264 10032
L32508 10032
" />
<text x="23979.9" y="10182.6"
textLength="845.426" font-size="524.934" lengthAdjust="spacingAndGlyphs"
text-anchor="middle" opacity="0">D3</text>
<path d="M23689 10163
L23689 9770
L23783 9770
L23839 9788
L23876 9826
L23895 9863
L23914 9938
L23914 9995
L23895 10070
L23876 10107
L23839 10145
L23783 10163
L23689 10163
" />
<path d="M24045 9770
L24289 9770
L24158 9920
L24214 9920
L24251 9938
L24270 9957
L24289 9995
L24289 10088
L24270 10126
L24251 10145
L24214 10163
L24101 10163
L24064 10145
L24045 10126
" />
<text x="15579.9" y="10182.6"
textLength="845.426" font-size="524.934" lengthAdjust="spacingAndGlyphs"
text-anchor="middle" opacity="0">D2</text>
<path d="M15289 10163
L15289 9770
L15383 9770
L15439 9788
L15476 9826
L15495 9863
L15514 9938
L15514 9995
L15495 10070
L15476 10107
L15439 10145
L15383 10163
L15289 10163
" />
<path d="M15664 9807
L15683 9788
L15720 9770
L15814 9770
L15851 9788
L15870 9807
L15889 9845
L15889 9882
L15870 9938
L15645 10163
L15889 10163
" />
<g >
</g>
</g>
<g style="fill:#000000; fill-opacity:0.0; 
stroke:#000000; stroke-width:59.0551; stroke-opacity:1; 
stroke-linecap:round; stroke-linejoin:round;">
</g>
<g style="fill:#000000; fill-opacity:0.0; 
stroke:#000000; stroke-width:39.3701; stroke-opacity:1; 
stroke-linecap:round; stroke-linejoin:round;">
<circle cx="19695.1" cy="17711.3" r="131.233" /> 
<path d="M19498 17711
L19891 17711
" />
<path d="M19695 17514
L19695 17908
" />
</g>
<g style="fill:#000000; fill-opacity:0.0; 
stroke:#000000; stroke-width:19.685; stroke-opacity:1; 
stroke-linecap:round; stroke-linejoin:round;">
<circle cx="36967.3" cy="30098.7" r="590.551" /> 
<circle cx="2386.22" cy="30098.7" r="590.551" /> 
<circle cx="37026.8" cy="5358.16" r="590.551" /> 
<circle cx="2376.77" cy="5308.16" r="590.551" /> 
<path d="M9 2947
L9 32475
" />
<path d="M39379 32475
L9 32475
" />
<path d="M39379 2947
L39379 32475
" />
<path d="M9 2947
L39379 2947
" />
<g >
</g>
<g >
</g>
<g >
</g>
<g >
</g>
<g >
</g>
<g >
</g>
<g >
</g>
<g >
</g>
<g >
</g>
<g >
</g>
<g >
</g>
<g >
</g>
<g >
</g>
<g >
</g>
<g >
</g>
<g >
</g>
<g >
</g>
<g >
</g>
<g >
</g>
<g >
</g>
<g >
</g>
<g >
</g>
<g >
</g>
<g >
</g>
<g >
</g>
<g >
</g>
<g >
</g>
<g >
</g>
<g >
</g>
<g >
</g>
<g >
</g>
<g >
</g>
<g >
</g>
<g >
</g>
<g >
</g>
</g> 
</svg>
