<?xml version="1.0" standalone="no"?>
 <!DOCTYPE svg PUBLIC "-//W3C//DTD SVG 1.1//EN" 
 "http://www.w3.org/Graphics/SVG/1.1/DTD/svg11.dtd"> 
<svg
  xmlns:svg="http://www.w3.org/2000/svg"
  xmlns="http://www.w3.org/2000/svg"
  xmlns:xlink="http://www.w3.org/1999/xlink"
  version="1.1"
  width="11.219180cm" height="8.249920cm" viewBox="0 0 44170 32480">
<title>SVG Picture created as OFICINA-TELE-ENCHUFES-INTERFAZ-B_Mask.svg date 2021/07/27 03:07:18 </title>
  <desc>Picture generated by PCBNEW </desc>
<g style="fill:#000000; fill-opacity:1;stroke:#000000; stroke-opacity:1;
stroke-linecap:round; stroke-linejoin:round;"
 transform="translate(0 0) scale(1 1)">
</g>
<g style="fill:#000000; fill-opacity:0.0; 
stroke:#000000; stroke-width:-0.000393701; stroke-opacity:1; 
stroke-linecap:round; stroke-linejoin:round;">
<g >
</g>
<g >
</g>
<g style="fill:#000000; fill-opacity:0.0; 
stroke:#000000; stroke-width:-0.000393701; stroke-opacity:1; 
stroke-linecap:round; stroke-linejoin:round;">
</g>
<g style="fill:#000000; fill-opacity:1.0; 
stroke:#000000; stroke-width:0; stroke-opacity:1; 
stroke-linecap:round; stroke-linejoin:round;">
<circle cx="16745.1" cy="29854.2" r="314.961" /> 
<circle cx="13745.1" cy="22854.2" r="314.961" /> 
<circle cx="16745.1" cy="28854.2" r="314.961" /> 
<circle cx="13745.1" cy="23854.2" r="314.961" /> 
<circle cx="16745.1" cy="27854.2" r="314.961" /> 
<circle cx="13745.1" cy="24854.2" r="314.961" /> 
<circle cx="16745.1" cy="26854.2" r="314.961" /> 
<circle cx="13745.1" cy="25854.2" r="314.961" /> 
<circle cx="16745.1" cy="25854.2" r="314.961" /> 
<circle cx="13745.1" cy="26854.2" r="314.961" /> 
<circle cx="16745.1" cy="24854.2" r="314.961" /> 
<circle cx="13745.1" cy="27854.2" r="314.961" /> 
<circle cx="16745.1" cy="23854.2" r="314.961" /> 
<circle cx="13745.1" cy="28854.2" r="314.961" /> 
<circle cx="16745.1" cy="22854.2" r="314.961" /> 
<path style="fill:#000000; fill-opacity:1.0; 
stroke:#000000; stroke-width:0; stroke-opacity:1; 
stroke-linecap:round; stroke-linejoin:round;fill-rule:evenodd;"
d="M 13430.1,30169.2
13430.1,29539.3
14060,29539.3
14060,30169.2
Z" /> 
</g>
<g >
</g>
<g style="fill:#000000; fill-opacity:1.0; 
stroke:#000000; stroke-width:0; stroke-opacity:1; 
stroke-linecap:round; stroke-linejoin:round;">
<circle cx="28204.7" cy="29854.2" r="314.961" /> 
<circle cx="25204.7" cy="22854.2" r="314.961" /> 
<circle cx="28204.7" cy="28854.2" r="314.961" /> 
<circle cx="25204.7" cy="23854.2" r="314.961" /> 
<circle cx="28204.7" cy="27854.2" r="314.961" /> 
<circle cx="25204.7" cy="24854.2" r="314.961" /> 
<circle cx="28204.7" cy="26854.2" r="314.961" /> 
<circle cx="25204.7" cy="25854.2" r="314.961" /> 
<circle cx="28204.7" cy="25854.2" r="314.961" /> 
<circle cx="25204.7" cy="26854.2" r="314.961" /> 
<circle cx="28204.7" cy="24854.2" r="314.961" /> 
<circle cx="25204.7" cy="27854.2" r="314.961" /> 
<circle cx="28204.7" cy="23854.2" r="314.961" /> 
<circle cx="25204.7" cy="28854.2" r="314.961" /> 
<circle cx="28204.7" cy="22854.2" r="314.961" /> 
<path style="fill:#000000; fill-opacity:1.0; 
stroke:#000000; stroke-width:0; stroke-opacity:1; 
stroke-linecap:round; stroke-linejoin:round;fill-rule:evenodd;"
d="M 24889.8,30169.2
24889.8,29539.3
25519.7,29539.3
25519.7,30169.2
Z" /> 
</g>
<g >
</g>
<g >
</g>
<g >
</g>
<g style="fill:#000000; fill-opacity:1.0; 
stroke:#000000; stroke-width:0; stroke-opacity:1; 
stroke-linecap:round; stroke-linejoin:round;">
</g>
<g style="fill:#000000; fill-opacity:1.0; 
stroke:#000000; stroke-width:728.346; stroke-opacity:1; 
stroke-linecap:round; stroke-linejoin:round;">
</g>
<g style="fill:#000000; fill-opacity:0.0; 
stroke:#000000; stroke-width:728.346; stroke-opacity:1; 
stroke-linecap:round; stroke-linejoin:round;">
<path d="M9565 4669
L10037 4669
" />
<path d="M9565 6637
L10037 6637
" />
<path d="M4644 4669
L5115 4669
" />
<path d="M4644 6637
L5115 6637
" />
</g>
<g >
</g>
<g >
</g>
<g style="fill:#000000; fill-opacity:0.0; 
stroke:#000000; stroke-width:728.346; stroke-opacity:1; 
stroke-linecap:round; stroke-linejoin:round;">
</g>
<g style="fill:#000000; fill-opacity:0.0; 
stroke:#000000; stroke-width:669.291; stroke-opacity:1; 
stroke-linecap:round; stroke-linejoin:round;">
<path d="M35622 26077
L35523 26077
" />
<path d="M35622 25093
L35523 25093
" />
<path d="M35622 24108
L35523 24108
" />
<path d="M35622 23124
L35523 23124
" />
<path d="M35622 22140
L35523 22140
" />
</g>
<g style="fill:#000000; fill-opacity:0.0; 
stroke:#000000; stroke-width:0; stroke-opacity:1; 
stroke-linecap:round; stroke-linejoin:round;">
</g>
<g style="fill:#000000; fill-opacity:1.0; 
stroke:#000000; stroke-width:0; stroke-opacity:1; 
stroke-linecap:round; stroke-linejoin:round;">
<path style="fill:#000000; fill-opacity:1.0; 
stroke:#000000; stroke-width:0; stroke-opacity:1; 
stroke-linecap:round; stroke-linejoin:round;fill-rule:evenodd;"
d="M 35867.9,20822
35877.5,20823.4
35886.8,20825.8
35895.9,20829
35904.7,20833.2
35913,20838.1
35920.7,20843.9
35927.9,20850.4
35934.4,20857.5
35940.1,20865.3
35945.1,20873.6
35949.2,20882.3
35952.5,20891.4
35954.8,20900.8
35956.2,20910.3
35956.7,20920
35956.7,21392.4
35956.2,21402.1
35954.8,21411.6
35952.5,21421
35949.2,21430.1
35945.1,21438.8
35940.1,21447.1
35934.4,21454.9
35927.9,21462
35920.7,21468.5
35913,21474.3
35904.7,21479.2
35895.9,21483.3
35886.8,21486.6
35877.5,21489
35867.9,21490.4
35858.3,21490.8
35287.4,21490.8
35277.8,21490.4
35268.2,21489
35258.8,21486.6
35249.7,21483.3
35241,21479.2
35232.7,21474.3
35225,21468.5
35217.8,21462
35211.3,21454.9
35205.6,21447.1
35200.6,21438.8
35196.5,21430.1
35193.2,21421
35190.9,21411.6
35189.5,21402.1
35189,21392.4
35189,20920
35189.5,20910.3
35190.9,20900.8
35193.2,20891.4
35196.5,20882.3
35200.6,20873.6
35205.6,20865.3
35211.3,20857.5
35217.8,20850.4
35225,20843.9
35232.7,20838.1
35241,20833.2
35249.7,20829
35258.8,20825.8
35268.2,20823.4
35277.8,20822
35287.4,20821.6
35858.3,20821.6
Z" /> 
</g>
<g >
</g>
<g >
</g>
<g >
</g>
<g >
</g>
<g >
</g>
<g >
</g>
<g >
</g>
<g >
</g>
<g >
</g>
<g >
</g>
<g >
</g>
<g >
</g>
<g >
</g>
<g >
</g>
<g >
</g>
<g >
</g>
<g >
</g>
<g >
</g>
<g >
</g>
<g >
</g>
<g style="fill:#000000; fill-opacity:1.0; 
stroke:#000000; stroke-width:0; stroke-opacity:1; 
stroke-linecap:round; stroke-linejoin:round;">
</g>
<g style="fill:#000000; fill-opacity:1.0; 
stroke:#000000; stroke-width:728.346; stroke-opacity:1; 
stroke-linecap:round; stroke-linejoin:round;">
</g>
<g style="fill:#000000; fill-opacity:0.0; 
stroke:#000000; stroke-width:728.346; stroke-opacity:1; 
stroke-linecap:round; stroke-linejoin:round;">
<path d="M5109 27711
L4637 27711
" />
<path d="M5109 25742
L4637 25742
" />
<path d="M10030 27711
L9559 27711
" />
<path d="M10030 25742
L9559 25742
" />
</g>
<g >
</g>
<g style="fill:#000000; fill-opacity:0.0; 
stroke:#000000; stroke-width:728.346; stroke-opacity:1; 
stroke-linecap:round; stroke-linejoin:round;">
<path d="M21244 16737
L21715 16737
" />
<path d="M21244 14769
L21715 14769
" />
<path d="M26165 16737
L26637 16737
" />
<path d="M26165 14769
L26637 14769
" />
</g>
<g >
</g>
<g style="fill:#000000; fill-opacity:0.0; 
stroke:#000000; stroke-width:728.346; stroke-opacity:1; 
stroke-linecap:round; stroke-linejoin:round;">
<path d="M17765 14769
L18237 14769
" />
<path d="M17765 16737
L18237 16737
" />
<path d="M12844 14769
L13315 14769
" />
<path d="M12844 16737
L13315 16737
" />
</g>
<g >
</g>
<g style="fill:#000000; fill-opacity:0.0; 
stroke:#000000; stroke-width:728.346; stroke-opacity:1; 
stroke-linecap:round; stroke-linejoin:round;">
<path d="M9565 14769
L10037 14769
" />
<path d="M9565 16737
L10037 16737
" />
<path d="M4644 14769
L5115 14769
" />
<path d="M4644 16737
L5115 16737
" />
</g>
<g >
</g>
<g style="fill:#000000; fill-opacity:0.0; 
stroke:#000000; stroke-width:728.346; stroke-opacity:1; 
stroke-linecap:round; stroke-linejoin:round;">
<path d="M34365 4669
L34837 4669
" />
<path d="M34365 6637
L34837 6637
" />
<path d="M29444 4669
L29915 4669
" />
<path d="M29444 6637
L29915 6637
" />
</g>
<g >
</g>
<g style="fill:#000000; fill-opacity:0.0; 
stroke:#000000; stroke-width:728.346; stroke-opacity:1; 
stroke-linecap:round; stroke-linejoin:round;">
<path d="M21244 6637
L21715 6637
" />
<path d="M21244 4669
L21715 4669
" />
<path d="M26165 6637
L26637 6637
" />
<path d="M26165 4669
L26637 4669
" />
</g>
<g >
</g>
<g style="fill:#000000; fill-opacity:0.0; 
stroke:#000000; stroke-width:728.346; stroke-opacity:1; 
stroke-linecap:round; stroke-linejoin:round;">
<path d="M17765 4669
L18237 4669
" />
<path d="M17765 6637
L18237 6637
" />
<path d="M12844 4669
L13315 4669
" />
<path d="M12844 6637
L13315 6637
" />
</g>
<g >
</g>
<g >
</g>
<g >
</g>
</g>
<g style="fill:#000000; fill-opacity:0.0; 
stroke:#000000; stroke-width:728.346; stroke-opacity:1; 
stroke-linecap:round; stroke-linejoin:round;">
</g>
<g style="fill:#000000; fill-opacity:0.0; 
stroke:#000000; stroke-width:39.3701; stroke-opacity:1; 
stroke-linecap:round; stroke-linejoin:round;">
<circle cx="19695.1" cy="17711.3" r="131.233" /> 
<path d="M19498 17711
L19891 17711
" />
<path d="M19695 17514
L19695 17908
" />
</g>
<g style="fill:#000000; fill-opacity:0.0; 
stroke:#000000; stroke-width:19.685; stroke-opacity:1; 
stroke-linecap:round; stroke-linejoin:round;">
<circle cx="36967.3" cy="30098.7" r="590.551" /> 
<circle cx="2386.22" cy="30098.7" r="590.551" /> 
<circle cx="37026.8" cy="5358.16" r="590.551" /> 
<circle cx="2376.77" cy="5308.16" r="590.551" /> 
<path d="M9 2947
L9 32475
" />
<path d="M39379 32475
L9 32475
" />
<path d="M39379 2947
L39379 32475
" />
<path d="M9 2947
L39379 2947
" />
<g >
</g>
<g >
</g>
<g >
</g>
<g >
</g>
<g >
</g>
<g >
</g>
<g >
</g>
<g >
</g>
<g >
</g>
<g >
</g>
<g >
</g>
<g >
</g>
<g >
</g>
<g >
</g>
<g >
</g>
<g >
</g>
<g >
</g>
<g >
</g>
<g >
</g>
<g >
</g>
<g >
</g>
<g >
</g>
<g >
</g>
<g >
</g>
<g >
</g>
<g >
</g>
<g >
</g>
<g >
</g>
<g >
</g>
<g >
</g>
<g >
</g>
<g >
</g>
<g >
</g>
<g >
</g>
<g >
</g>
</g> 
</svg>
