<?xml version="1.0" standalone="no"?>
 <!DOCTYPE svg PUBLIC "-//W3C//DTD SVG 1.1//EN" 
 "http://www.w3.org/Graphics/SVG/1.1/DTD/svg11.dtd"> 
<svg
  xmlns:svg="http://www.w3.org/2000/svg"
  xmlns="http://www.w3.org/2000/svg"
  xmlns:xlink="http://www.w3.org/1999/xlink"
  version="1.1"
  width="11.219180cm" height="8.249920cm" viewBox="0 0 44170 32480">
<title>SVG Picture created as OFICINA-TELE-ENCHUFES-INTERFAZ-B_SilkS.svg date 2021/07/27 03:07:18 </title>
  <desc>Picture generated by PCBNEW </desc>
<g style="fill:#000000; fill-opacity:1;stroke:#000000; stroke-opacity:1;
stroke-linecap:round; stroke-linejoin:round;"
 transform="translate(0 0) scale(1 1)">
</g>
<g style="fill:#000000; fill-opacity:0.0; 
stroke:#000000; stroke-width:-0.000393701; stroke-opacity:1; 
stroke-linecap:round; stroke-linejoin:round;">
</g>
<g style="fill:#000000; fill-opacity:0.0; 
stroke:#000000; stroke-width:59.0551; stroke-opacity:1; 
stroke-linecap:round; stroke-linejoin:round;">
<text x="36695.1" y="26308.2"
transform="scale(-1 1) translate(-73390.107874 0)"
textLength="932.93" font-size="524.934" lengthAdjust="spacingAndGlyphs"
text-anchor="end" opacity="0">VCC</text>
<path d="M37820 25895
L37689 26289
L37558 25895
" />
<path d="M37202 26251
L37220 26270
L37277 26289
L37314 26289
L37370 26270
L37408 26233
L37427 26195
L37445 26120
L37445 26064
L37427 25989
L37408 25951
L37370 25914
L37314 25895
L37277 25895
L37220 25914
L37202 25933
" />
<path d="M36808 26251
L36827 26270
L36883 26289
L36920 26289
L36977 26270
L37014 26233
L37033 26195
L37052 26120
L37052 26064
L37033 25989
L37014 25951
L36977 25914
L36920 25895
L36883 25895
L36827 25914
L36808 25933
" />
<text x="36695.1" y="25308.2"
transform="scale(-1 1) translate(-73390.107874 0)"
textLength="1123.08" font-size="524.934" lengthAdjust="spacingAndGlyphs"
text-anchor="end" opacity="0">GND</text>
<path d="M37633 24914
L37670 24895
L37727 24895
L37783 24914
L37820 24951
L37839 24989
L37858 25064
L37858 25120
L37839 25195
L37820 25233
L37783 25270
L37727 25289
L37689 25289
L37633 25270
L37614 25251
L37614 25120
L37689 25120
" />
<path d="M37445 25289
L37445 24895
L37220 25289
L37220 24895
" />
<path d="M37033 25289
L37033 24895
L36939 24895
L36883 24914
L36845 24951
L36827 24989
L36808 25064
L36808 25120
L36827 25195
L36845 25233
L36883 25270
L36939 25289
L37033 25289
" />
<text x="36695.1" y="24308.2"
transform="scale(-1 1) translate(-73390.107874 0)"
textLength="1835.49" font-size="524.934" lengthAdjust="spacingAndGlyphs"
text-anchor="end" opacity="0">CLOCK</text>
<path d="M38326 24251
L38345 24270
L38401 24289
L38439 24289
L38495 24270
L38533 24233
L38551 24195
L38570 24120
L38570 24064
L38551 23989
L38533 23951
L38495 23914
L38439 23895
L38401 23895
L38345 23914
L38326 23933
" />
<path d="M37970 24289
L38158 24289
L38158 23895
" />
<path d="M37764 23895
L37689 23895
L37652 23914
L37614 23951
L37595 24026
L37595 24158
L37614 24233
L37652 24270
L37689 24289
L37764 24289
L37802 24270
L37839 24233
L37858 24158
L37858 24026
L37839 23951
L37802 23914
L37764 23895
" />
<path d="M37202 24251
L37220 24270
L37277 24289
L37314 24289
L37370 24270
L37408 24233
L37427 24195
L37445 24120
L37445 24064
L37427 23989
L37408 23951
L37370 23914
L37314 23895
L37277 23895
L37220 23914
L37202 23933
" />
<path d="M37033 24289
L37033 23895
" />
<path d="M36808 24289
L36977 24064
" />
<path d="M36808 23895
L37033 24120
" />
<text x="36695.1" y="23308.2"
transform="scale(-1 1) translate(-73390.107874 0)"
textLength="1291.81" font-size="524.934" lengthAdjust="spacingAndGlyphs"
text-anchor="end" opacity="0">DATA</text>
<path d="M38008 23289
L38008 22895
L37914 22895
L37858 22914
L37820 22951
L37802 22989
L37783 23064
L37783 23120
L37802 23195
L37820 23233
L37858 23270
L37914 23289
L38008 23289
" />
<path d="M37633 23176
L37445 23176
" />
<path d="M37670 23289
L37539 22895
L37408 23289
" />
<path d="M37333 22895
L37108 22895
" />
<path d="M37220 23289
L37220 22895
" />
<path d="M36995 23176
L36808 23176
" />
<path d="M37033 23289
L36902 22895
L36770 23289
" />
<text x="36695.1" y="22308.2"
transform="scale(-1 1) translate(-73390.107874 0)"
textLength="1685.51" font-size="524.934" lengthAdjust="spacingAndGlyphs"
text-anchor="end" opacity="0">LATCH</text>
<path d="M38214 22289
L38401 22289
L38401 21895
" />
<path d="M38102 22176
L37914 22176
" />
<path d="M38139 22289
L38008 21895
L37877 22289
" />
<path d="M37802 21895
L37577 21895
" />
<path d="M37689 22289
L37689 21895
" />
<path d="M37220 22251
L37239 22270
L37295 22289
L37333 22289
L37389 22270
L37427 22233
L37445 22195
L37464 22120
L37464 22064
L37445 21989
L37427 21951
L37389 21914
L37333 21895
L37295 21895
L37239 21914
L37220 21933
" />
<path d="M37052 22289
L37052 21895
" />
<path d="M37052 22083
L36827 22083
" />
<path d="M36827 22289
L36827 21895
" />
<text x="36695.1" y="21389.3"
transform="scale(-1 1) translate(-73390.107874 0)"
textLength="1385.55" font-size="524.934" lengthAdjust="spacingAndGlyphs"
text-anchor="end" opacity="0">LOAD</text>
<path d="M37914 21370
L38102 21370
L38102 20976
" />
<path d="M37708 20976
L37633 20976
L37595 20995
L37558 21033
L37539 21108
L37539 21239
L37558 21314
L37595 21351
L37633 21370
L37708 21370
L37745 21351
L37783 21314
L37802 21239
L37802 21108
L37783 21033
L37745 20995
L37708 20976
" />
<path d="M37389 21258
L37202 21258
" />
<path d="M37427 21370
L37295 20976
L37164 21370
" />
<path d="M37033 21370
L37033 20976
L36939 20976
L36883 20995
L36845 21033
L36827 21070
L36808 21145
L36808 21201
L36827 21276
L36845 21314
L36883 21351
L36939 21370
L37033 21370
" />
</g>
<g style="fill:#000000; fill-opacity:0.0; 
stroke:#000000; stroke-width:147.638; stroke-opacity:1; 
stroke-linecap:round; stroke-linejoin:round;">
<text x="7292.69" y="29828"
transform="scale(-1 1) translate(-14585.383465 0)"
textLength="2538.53" font-size="787.402" lengthAdjust="spacingAndGlyphs"
text-anchor="middle" opacity="0">ATRÁS</text>
<path d="M8487 29631
L8206 29631
" />
<path d="M8544 29799
L8347 29209
L8150 29799
" />
<path d="M8037 29209
L7700 29209
" />
<path d="M7869 29799
L7869 29209
" />
<path d="M7166 29799
L7362 29518
" />
<path d="M7503 29799
L7503 29209
L7278 29209
L7222 29237
L7194 29265
L7166 29321
L7166 29406
L7194 29462
L7222 29490
L7278 29518
L7503 29518
" />
<path d="M6941 29631
L6659 29631
" />
<path d="M6997 29799
L6800 29209
L6603 29799
" />
<path d="M6744 28984
L6828 29068
" />
<path d="M6434 29771
L6350 29799
L6210 29799
L6153 29771
L6125 29743
L6097 29687
L6097 29631
L6125 29574
L6153 29546
L6210 29518
L6322 29490
L6378 29462
L6406 29434
L6434 29378
L6434 29321
L6406 29265
L6378 29237
L6322 29209
L6181 29209
L6097 29237
" />
<text x="7292.69" y="30861.5"
transform="scale(-1 1) translate(-14585.383465 0)"
textLength="6219.77" font-size="787.402" lengthAdjust="spacingAndGlyphs"
text-anchor="middle" opacity="0">COMPONENTES</text>
<path d="M10020 30777
L10048 30805
L10132 30833
L10189 30833
L10273 30805
L10329 30749
L10357 30692
L10386 30580
L10386 30495
L10357 30383
L10329 30327
L10273 30270
L10189 30242
L10132 30242
L10048 30270
L10020 30299
" />
<path d="M9654 30242
L9542 30242
L9486 30270
L9429 30327
L9401 30439
L9401 30636
L9429 30749
L9486 30805
L9542 30833
L9654 30833
L9711 30805
L9767 30749
L9795 30636
L9795 30439
L9767 30327
L9711 30270
L9654 30242
" />
<path d="M9148 30833
L9148 30242
L8951 30664
L8755 30242
L8755 30833
" />
<path d="M8473 30833
L8473 30242
L8248 30242
L8192 30270
L8164 30299
L8136 30355
L8136 30439
L8164 30495
L8192 30524
L8248 30552
L8473 30552
" />
<path d="M7770 30242
L7658 30242
L7602 30270
L7545 30327
L7517 30439
L7517 30636
L7545 30749
L7602 30805
L7658 30833
L7770 30833
L7826 30805
L7883 30749
L7911 30636
L7911 30439
L7883 30327
L7826 30270
L7770 30242
" />
<path d="M7264 30833
L7264 30242
L6927 30833
L6927 30242
" />
<path d="M6645 30524
L6449 30524
" />
<path d="M6364 30833
L6645 30833
L6645 30242
L6364 30242
" />
<path d="M6111 30833
L6111 30242
L5774 30833
L5774 30242
" />
<path d="M5577 30242
L5239 30242
" />
<path d="M5408 30833
L5408 30242
" />
<path d="M5042 30524
L4846 30524
" />
<path d="M4761 30833
L5042 30833
L5042 30242
L4761 30242
" />
<path d="M4536 30805
L4452 30833
L4311 30833
L4255 30805
L4227 30777
L4199 30720
L4199 30664
L4227 30608
L4255 30580
L4311 30552
L4424 30524
L4480 30495
L4508 30467
L4536 30411
L4536 30355
L4508 30299
L4480 30270
L4424 30242
L4283 30242
L4199 30270
" />
</g>
<g style="fill:#000000; fill-opacity:0.0; 
stroke:#000000; stroke-width:59.0551; stroke-opacity:1; 
stroke-linecap:round; stroke-linejoin:round;">
<g transform="rotate(-90 34106.5 23468)">
<text x="34106.5" y="23664.9"
transform="scale(-1 1) translate(-68212.942520 0)"
textLength="6069.79" font-size="524.934" lengthAdjust="spacingAndGlyphs"
text-anchor="middle" opacity="0">INTERFAZ-CONECTOR</text>
</g>
<path d="M34284 20430
L33890 20430
" />
<path d="M34284 20618
L33890 20618
L34284 20843
L33890 20843
" />
<path d="M33890 20974
L33890 21199
" />
<path d="M34284 21087
L33890 21087
" />
<path d="M34078 21330
L34078 21462
" />
<path d="M34284 21518
L34284 21330
L33890 21330
L33890 21518
" />
<path d="M34284 21911
L34097 21780
" />
<path d="M34284 21686
L33890 21686
L33890 21836
L33909 21874
L33928 21893
L33965 21911
L34022 21911
L34059 21893
L34078 21874
L34097 21836
L34097 21686
" />
<path d="M34078 22211
L34078 22080
" />
<path d="M34284 22080
L33890 22080
L33890 22268
" />
<path d="M34172 22399
L34172 22586
" />
<path d="M34284 22361
L33890 22493
L34284 22624
" />
<path d="M33890 22718
L33890 22980
L34284 22718
L34284 22980
" />
<path d="M34134 23130
L34134 23430
" />
<path d="M34247 23842
L34265 23824
L34284 23767
L34284 23730
L34265 23674
L34228 23636
L34190 23617
L34115 23599
L34059 23599
L33984 23617
L33947 23636
L33909 23674
L33890 23730
L33890 23767
L33909 23824
L33928 23842
" />
<path d="M33890 24086
L33890 24161
L33909 24199
L33947 24236
L34022 24255
L34153 24255
L34228 24236
L34265 24199
L34284 24161
L34284 24086
L34265 24049
L34228 24011
L34153 23992
L34022 23992
L33947 24011
L33909 24049
L33890 24086
" />
<path d="M34284 24424
L33890 24424
L34284 24649
L33890 24649
" />
<path d="M34078 24836
L34078 24967
" />
<path d="M34284 25024
L34284 24836
L33890 24836
L33890 25024
" />
<path d="M34247 25417
L34265 25399
L34284 25342
L34284 25305
L34265 25249
L34228 25211
L34190 25192
L34115 25174
L34059 25174
L33984 25192
L33947 25211
L33909 25249
L33890 25305
L33890 25342
L33909 25399
L33928 25417
" />
<path d="M33890 25530
L33890 25755
" />
<path d="M34284 25642
L33890 25642
" />
<path d="M33890 25961
L33890 26036
L33909 26073
L33947 26111
L34022 26130
L34153 26130
L34228 26111
L34265 26073
L34284 26036
L34284 25961
L34265 25923
L34228 25886
L34153 25867
L34022 25867
L33947 25886
L33909 25923
L33890 25961
" />
<path d="M34284 26523
L34097 26392
" />
<path d="M34284 26298
L33890 26298
L33890 26448
L33909 26486
L33928 26505
L33965 26523
L34022 26523
L34059 26505
L34078 26486
L34097 26448
L34097 26298
" />
</g>
<g style="fill:#000000; fill-opacity:0.0; 
stroke:#000000; stroke-width:47.2441; stroke-opacity:1; 
stroke-linecap:round; stroke-linejoin:round;">
<path d="M25966 21355
L31144 21355
" />
<path d="M25962 30513
L25966 21355
" />
<path d="M31140 30509
L25966 30509
" />
<path d="M31144 21355
L31140 30509
" />
<path d="M14120 30477
L14124 21319
" />
<path d="M14124 21319
L19301 21319
" />
<path d="M19301 21319
L19297 30473
" />
<path d="M19297 30473
L14124 30473
" />
</g>
<g style="fill:#000000; fill-opacity:0.0; 
stroke:#000000; stroke-width:118.11; stroke-opacity:1; 
stroke-linecap:round; stroke-linejoin:round;">
<text x="23949.2" y="14135.3"
transform="scale(-1 1) translate(-47898.425984 0)"
textLength="1723" font-size="787.402" lengthAdjust="spacingAndGlyphs"
text-anchor="middle" opacity="0">SW7</text>
<path d="M24736 14079
L24652 14107
L24511 14107
L24455 14079
L24427 14050
L24399 13994
L24399 13938
L24427 13882
L24455 13854
L24511 13825
L24624 13797
L24680 13769
L24708 13741
L24736 13685
L24736 13629
L24708 13572
L24680 13544
L24624 13516
L24483 13516
L24399 13544
" />
<path d="M24202 13516
L24061 14107
L23949 13685
L23836 14107
L23696 13516
" />
<path d="M23527 13516
L23133 13516
L23386 14107
" />
<text x="15549.2" y="14135.3"
transform="scale(-1 1) translate(-31098.425984 0)"
textLength="1646.23" font-size="787.402" lengthAdjust="spacingAndGlyphs"
text-anchor="middle" opacity="0">SW6</text>
<path d="M16336 14079
L16252 14107
L16111 14107
L16055 14079
L16027 14050
L15999 13994
L15999 13938
L16027 13882
L16055 13854
L16111 13825
L16224 13797
L16280 13769
L16308 13741
L16336 13685
L16336 13629
L16308 13572
L16280 13544
L16224 13516
L16083 13516
L15999 13544
" />
<path d="M15802 13516
L15661 14107
L15549 13685
L15436 14107
L15296 13516
" />
<path d="M14818 13516
L14930 13516
L14986 13544
L15014 13572
L15071 13657
L15099 13769
L15099 13994
L15071 14050
L15043 14079
L14986 14107
L14874 14107
L14818 14079
L14789 14050
L14761 13994
L14761 13854
L14789 13797
L14818 13769
L14874 13741
L14986 13741
L15043 13769
L15071 13797
L15099 13854
" />
<text x="7349.21" y="14185.3"
transform="scale(-1 1) translate(-14698.425984 0)"
textLength="1646.23" font-size="787.402" lengthAdjust="spacingAndGlyphs"
text-anchor="middle" opacity="0">SW5</text>
<path d="M8136 14129
L8052 14157
L7911 14157
L7855 14129
L7827 14100
L7799 14044
L7799 13988
L7827 13932
L7855 13904
L7911 13875
L8024 13847
L8080 13819
L8108 13791
L8136 13735
L8136 13679
L8108 13622
L8080 13594
L8024 13566
L7883 13566
L7799 13594
" />
<path d="M7602 13566
L7461 14157
L7349 13735
L7236 14157
L7096 13566
" />
<path d="M6589 13566
L6871 13566
L6899 13847
L6871 13819
L6814 13791
L6674 13791
L6618 13819
L6589 13847
L6561 13904
L6561 14044
L6589 14100
L6618 14129
L6674 14157
L6814 14157
L6871 14129
L6899 14100
" />
<text x="7429.92" y="23314.5"
transform="scale(-1 1) translate(-14859.843307 0)"
textLength="5077.05" font-size="787.402" lengthAdjust="spacingAndGlyphs"
text-anchor="middle" opacity="0">SW_ALL_OFF</text>
<path d="M9932 23258
L9848 23286
L9707 23286
L9651 23258
L9623 23230
L9595 23173
L9595 23117
L9623 23061
L9651 23033
L9707 23005
L9820 22977
L9876 22948
L9904 22920
L9932 22864
L9932 22808
L9904 22752
L9876 22723
L9820 22695
L9679 22695
L9595 22723
" />
<path d="M9398 22695
L9257 23286
L9145 22864
L9032 23286
L8892 22695
" />
<path d="M8807 23342
L8357 23342
" />
<path d="M8245 23117
L7964 23117
" />
<path d="M8301 23286
L8104 22695
L7907 23286
" />
<path d="M7429 23286
L7711 23286
L7711 22695
" />
<path d="M6951 23286
L7233 23286
L7233 22695
" />
<path d="M6895 23342
L6445 23342
" />
<path d="M6192 22695
L6080 22695
L6023 22723
L5967 22780
L5939 22892
L5939 23089
L5967 23201
L6023 23258
L6080 23286
L6192 23286
L6248 23258
L6305 23201
L6333 23089
L6333 22892
L6305 22780
L6248 22723
L6192 22695
" />
<path d="M5489 22977
L5686 22977
" />
<path d="M5686 23286
L5686 22695
L5405 22695
" />
<path d="M4983 22977
L5180 22977
" />
<path d="M5180 23286
L5180 22695
L4898 22695
" />
<text x="32313.8" y="4062.1"
transform="scale(-1 1) translate(-64627.559843 0)"
textLength="1646.23" font-size="787.402" lengthAdjust="spacingAndGlyphs"
text-anchor="middle" opacity="0">SW4</text>
<path d="M33101 4005
L33016 4033
L32876 4033
L32819 4005
L32791 3977
L32763 3921
L32763 3865
L32791 3809
L32819 3780
L32876 3752
L32988 3724
L33044 3696
L33073 3668
L33101 3612
L33101 3555
L33073 3499
L33044 3471
L32988 3443
L32848 3443
L32763 3471
" />
<path d="M32566 3443
L32426 4033
L32313 3612
L32201 4033
L32060 3443
" />
<path d="M31582 3640
L31582 4033
" />
<path d="M31723 3415
L31863 3837
L31498 3837
" />
<text x="24063.8" y="4062.1"
transform="scale(-1 1) translate(-48127.559843 0)"
textLength="1646.23" font-size="787.402" lengthAdjust="spacingAndGlyphs"
text-anchor="middle" opacity="0">SW3</text>
<path d="M24851 4005
L24766 4033
L24626 4033
L24569 4005
L24541 3977
L24513 3921
L24513 3865
L24541 3809
L24569 3780
L24626 3752
L24738 3724
L24794 3696
L24823 3668
L24851 3612
L24851 3555
L24823 3499
L24794 3471
L24738 3443
L24598 3443
L24513 3471
" />
<path d="M24316 3443
L24176 4033
L24063 3612
L23951 4033
L23810 3443
" />
<path d="M23641 3443
L23276 3443
L23473 3668
L23388 3668
L23332 3696
L23304 3724
L23276 3780
L23276 3921
L23304 3977
L23332 4005
L23388 4033
L23557 4033
L23613 4005
L23641 3977
" />
<text x="15663.8" y="4062.1"
transform="scale(-1 1) translate(-31327.559843 0)"
textLength="1646.23" font-size="787.402" lengthAdjust="spacingAndGlyphs"
text-anchor="middle" opacity="0">SW2</text>
<path d="M16451 4005
L16366 4033
L16226 4033
L16169 4005
L16141 3977
L16113 3921
L16113 3865
L16141 3809
L16169 3780
L16226 3752
L16338 3724
L16394 3696
L16423 3668
L16451 3612
L16451 3555
L16423 3499
L16394 3471
L16338 3443
L16198 3443
L16113 3471
" />
<path d="M15916 3443
L15776 4033
L15663 3612
L15551 4033
L15410 3443
" />
<path d="M15213 3499
L15185 3471
L15129 3443
L14988 3443
L14932 3471
L14904 3499
L14876 3555
L14876 3612
L14904 3696
L15241 4033
L14876 4033
" />
<text x="7463.78" y="4112.1"
transform="scale(-1 1) translate(-14927.559843 0)"
textLength="1646.23" font-size="787.402" lengthAdjust="spacingAndGlyphs"
text-anchor="middle" opacity="0">SW1</text>
<path d="M8251 4055
L8166 4083
L8026 4083
L7969 4055
L7941 4027
L7913 3971
L7913 3915
L7941 3859
L7969 3830
L8026 3802
L8138 3774
L8194 3746
L8223 3718
L8251 3662
L8251 3605
L8223 3549
L8194 3521
L8138 3493
L7998 3493
L7913 3521
" />
<path d="M7716 3493
L7576 4083
L7463 3662
L7351 4083
L7210 3493
" />
<path d="M6676 4083
L7013 4083
" />
<path d="M6845 4083
L6845 3493
L6901 3577
L6957 3634
L7013 3662
" />
</g>
<g style="fill:#000000; fill-opacity:0.0; 
stroke:#000000; stroke-width:59.0551; stroke-opacity:1; 
stroke-linecap:round; stroke-linejoin:round;">
<text x="28587.4" y="21929.4"
transform="scale(-1 1) translate(-57174.803937 0)"
textLength="2527.37" font-size="524.934" lengthAdjust="spacingAndGlyphs"
text-anchor="middle" opacity="0">74HC595</text>
<path d="M29871 21516
L29609 21516
L29777 21910
" />
<path d="M29290 21648
L29290 21910
" />
<path d="M29384 21498
L29477 21779
L29234 21779
" />
<path d="M29084 21910
L29084 21516
" />
<path d="M29084 21704
L28859 21704
" />
<path d="M28859 21910
L28859 21516
" />
<path d="M28446 21873
L28465 21891
L28521 21910
L28559 21910
L28615 21891
L28653 21854
L28671 21816
L28690 21741
L28690 21685
L28671 21610
L28653 21573
L28615 21535
L28559 21516
L28521 21516
L28465 21535
L28446 21554
" />
<path d="M28090 21516
L28278 21516
L28296 21704
L28278 21685
L28240 21666
L28146 21666
L28109 21685
L28090 21704
L28071 21741
L28071 21835
L28090 21873
L28109 21891
L28146 21910
L28240 21910
L28278 21891
L28296 21873
" />
<path d="M27884 21910
L27809 21910
L27771 21891
L27753 21873
L27715 21816
L27696 21741
L27696 21591
L27715 21554
L27734 21535
L27771 21516
L27846 21516
L27884 21535
L27903 21554
L27921 21591
L27921 21685
L27903 21723
L27884 21741
L27846 21760
L27771 21760
L27734 21741
L27715 21723
L27696 21685
" />
<path d="M27340 21516
L27528 21516
L27546 21704
L27528 21685
L27490 21666
L27396 21666
L27359 21685
L27340 21704
L27321 21741
L27321 21835
L27340 21873
L27359 21891
L27396 21910
L27490 21910
L27528 21891
L27546 21873
" />
<text x="31787" y="27031.8"
transform="scale(-1 1) translate(-63574.016535 0)"
textLength="1123.08" font-size="524.934" lengthAdjust="spacingAndGlyphs"
text-anchor="middle" opacity="0">GND</text>
<path d="M32086 26638
L32124 26619
L32180 26619
L32236 26638
L32274 26675
L32293 26713
L32311 26788
L32311 26844
L32293 26919
L32274 26956
L32236 26994
L32180 27013
L32143 27013
L32086 26994
L32068 26975
L32068 26844
L32143 26844
" />
<path d="M31899 27013
L31899 26619
L31674 27013
L31674 26619
" />
<path d="M31487 27013
L31487 26619
L31393 26619
L31337 26638
L31299 26675
L31280 26713
L31262 26788
L31262 26844
L31280 26919
L31299 26956
L31337 26994
L31393 27013
L31487 27013
" />
<text x="31787" y="24031.8"
transform="scale(-1 1) translate(-63574.016535 0)"
textLength="1048.09" font-size="524.934" lengthAdjust="spacingAndGlyphs"
text-anchor="middle" opacity="0">VCC</text>
<path d="M32311 23619
L32180 24013
L32049 23619
" />
<path d="M31693 23975
L31712 23994
L31768 24013
L31805 24013
L31861 23994
L31899 23956
L31918 23919
L31936 23844
L31936 23788
L31918 23713
L31899 23675
L31861 23638
L31805 23619
L31768 23619
L31712 23638
L31693 23656
" />
<path d="M31299 23975
L31318 23994
L31374 24013
L31412 24013
L31468 23994
L31505 23956
L31524 23919
L31543 23844
L31543 23788
L31524 23713
L31505 23675
L31468 23638
L31412 23619
L31374 23619
L31318 23638
L31299 23656
" />
<text x="31787" y="30081.8"
transform="scale(-1 1) translate(-63574.016535 0)"
textLength="1048.09" font-size="524.934" lengthAdjust="spacingAndGlyphs"
text-anchor="middle" opacity="0">VCC</text>
<path d="M32311 29669
L32180 30063
L32049 29669
" />
<path d="M31693 30025
L31712 30044
L31768 30063
L31805 30063
L31861 30044
L31899 30006
L31918 29969
L31936 29894
L31936 29838
L31918 29763
L31899 29725
L31861 29688
L31805 29669
L31768 29669
L31712 29688
L31693 29706
" />
<path d="M31299 30025
L31318 30044
L31374 30063
L31412 30063
L31468 30044
L31505 30006
L31524 29969
L31543 29894
L31543 29838
L31524 29763
L31505 29725
L31468 29688
L31412 29669
L31374 29669
L31318 29688
L31299 29706
" />
<text x="25337" y="23031.8"
transform="scale(-1 1) translate(-50674.016535 0)"
textLength="1123.08" font-size="524.934" lengthAdjust="spacingAndGlyphs"
text-anchor="middle" opacity="0">GND</text>
<path d="M25636 22638
L25674 22619
L25730 22619
L25786 22638
L25824 22675
L25843 22713
L25861 22788
L25861 22844
L25843 22919
L25824 22956
L25786 22994
L25730 23013
L25693 23013
L25636 22994
L25618 22975
L25618 22844
L25693 22844
" />
<path d="M25449 23013
L25449 22619
L25224 23013
L25224 22619
" />
<path d="M25037 23013
L25037 22619
L24943 22619
L24887 22638
L24849 22675
L24830 22713
L24812 22788
L24812 22844
L24830 22919
L24849 22956
L24887 22994
L24943 23013
L25037 23013
" />
<text x="19929.9" y="30100.7"
transform="scale(-1 1) translate(-39859.843307 0)"
textLength="1048.09" font-size="524.934" lengthAdjust="spacingAndGlyphs"
text-anchor="middle" opacity="0">VCC</text>
<path d="M20454 29688
L20323 30081
L20192 29688
" />
<path d="M19836 30044
L19854 30063
L19911 30081
L19948 30081
L20004 30063
L20042 30025
L20061 29988
L20079 29913
L20079 29856
L20061 29781
L20042 29744
L20004 29706
L19948 29688
L19911 29688
L19854 29706
L19836 29725
" />
<path d="M19442 30044
L19461 30063
L19517 30081
L19554 30081
L19611 30063
L19648 30025
L19667 29988
L19686 29913
L19686 29856
L19667 29781
L19648 29744
L19611 29706
L19554 29688
L19517 29688
L19461 29706
L19442 29725
" />
<text x="13479.9" y="23100.7"
transform="scale(-1 1) translate(-26959.843307 0)"
textLength="1123.08" font-size="524.934" lengthAdjust="spacingAndGlyphs"
text-anchor="middle" opacity="0">GND</text>
<path d="M13779 22706
L13817 22688
L13873 22688
L13929 22706
L13967 22744
L13986 22781
L14004 22856
L14004 22913
L13986 22988
L13967 23025
L13929 23063
L13873 23081
L13836 23081
L13779 23063
L13761 23044
L13761 22913
L13836 22913
" />
<path d="M13592 23081
L13592 22688
L13367 23081
L13367 22688
" />
<path d="M13179 23081
L13179 22688
L13086 22688
L13029 22706
L12992 22744
L12973 22781
L12954 22856
L12954 22913
L12973 22988
L12992 23025
L13029 23063
L13086 23081
L13179 23081
" />
<text x="16720.5" y="21912.9"
transform="scale(-1 1) translate(-33440.945669 0)"
textLength="2604.14" font-size="524.934" lengthAdjust="spacingAndGlyphs"
text-anchor="middle" opacity="0">74HC165</text>
<path d="M18004 21500
L17742 21500
L17910 21894
" />
<path d="M17423 21631
L17423 21894
" />
<path d="M17517 21481
L17610 21762
L17367 21762
" />
<path d="M17217 21894
L17217 21500
" />
<path d="M17217 21687
L16992 21687
" />
<path d="M16992 21894
L16992 21500
" />
<path d="M16579 21856
L16598 21875
L16654 21894
L16692 21894
L16748 21875
L16786 21837
L16804 21800
L16823 21725
L16823 21669
L16804 21594
L16786 21556
L16748 21519
L16692 21500
L16654 21500
L16598 21519
L16579 21537
" />
<path d="M16204 21894
L16429 21894
" />
<path d="M16317 21894
L16317 21500
L16354 21556
L16392 21594
L16429 21612
" />
<path d="M15867 21500
L15942 21500
L15979 21519
L15998 21537
L16036 21594
L16054 21669
L16054 21819
L16036 21856
L16017 21875
L15979 21894
L15904 21894
L15867 21875
L15848 21856
L15829 21819
L15829 21725
L15848 21687
L15867 21669
L15904 21650
L15979 21650
L16017 21669
L16036 21687
L16054 21725
" />
<path d="M15473 21500
L15661 21500
L15679 21687
L15661 21669
L15623 21650
L15529 21650
L15492 21669
L15473 21687
L15455 21725
L15455 21819
L15473 21856
L15492 21875
L15529 21894
L15623 21894
L15661 21875
L15679 21856
" />
</g>
<g style="fill:#000000; fill-opacity:0.0; 
stroke:#000000; stroke-width:47.2441; stroke-opacity:1; 
stroke-linecap:round; stroke-linejoin:round;">
<path d="M15638.8 30377.8 A393.701 393.701 0.0 0 0 14851.4 30377.8" />
<path d="M14851 30377
L14201 30377
" />
<path d="M14201 30377
L14201 22330
" />
<path d="M14201 22330
L16288 22330
" />
<path d="M16288 22330
L16288 30377
" />
<path d="M16288 30377
L15638 30377
" />
<path d="M27098.4 30377.8 A393.701 393.701 0.0 0 0 26311 30377.8" />
<path d="M26311 30377
L25661 30377
" />
<path d="M25661 30377
L25661 22330
" />
<path d="M25661 22330
L27748 22330
" />
<path d="M27748 22330
L27748 30377
" />
<path d="M27748 30377
L27098 30377
" />
<path d="M34899 20128
L36482 20128
" />
<path d="M36482 20128
L36482 27105
" />
<path d="M36482 27105
L34899 27105
" />
<path d="M34899 27105
L34899 20128
" />
<path d="M35572 20128
L35572 20325
" />
<path d="M35572 20325
L35096 20325
" />
<path d="M35096 20325
L35096 26908
" />
<path d="M35096 26908
L35572 26908
" />
<path d="M35572 26908
L35572 27105
" />
<path d="M35891 20128
L35891 20522
" />
<path d="M35891 20522
L36482 20522
" />
<path d="M35891 27105
L35891 26711
" />
<path d="M35891 26711
L36482 26711
" />
<path d="M35616 20010
L36600 20010
" />
<path d="M36600 20010
L36600 20994
" />
</g>
<g style="fill:#000000; fill-opacity:0.0; 
stroke:#000000; stroke-width:59.0551; stroke-opacity:1; 
stroke-linecap:round; stroke-linejoin:round;">
<text x="15745.1" y="30968.4"
transform="scale(-1 1) translate(-31490.107874 0)"
textLength="710.63" font-size="524.934" lengthAdjust="spacingAndGlyphs"
text-anchor="middle" opacity="0">U1</text>
<path d="M16045 30555
L16045 30874
L16026 30912
L16007 30930
L15970 30949
L15895 30949
L15857 30930
L15838 30912
L15820 30874
L15820 30555
" />
<path d="M15426 30949
L15651 30949
" />
<path d="M15538 30949
L15538 30555
L15576 30612
L15613 30649
L15651 30668
" />
<text x="27204.7" y="30968.4"
transform="scale(-1 1) translate(-54409.449606 0)"
textLength="710.63" font-size="524.934" lengthAdjust="spacingAndGlyphs"
text-anchor="middle" opacity="0">U2</text>
<path d="M27504 30555
L27504 30874
L27485 30912
L27467 30930
L27429 30949
L27354 30949
L27317 30930
L27298 30912
L27279 30874
L27279 30555
" />
<path d="M27110 30593
L27092 30574
L27054 30555
L26961 30555
L26923 30574
L26904 30593
L26886 30630
L26886 30668
L26904 30724
L27129 30949
L26886 30949
" />
<g >
</g>
</g>
<g style="fill:#000000; fill-opacity:0.0; 
stroke:#000000; stroke-width:59.0551; stroke-opacity:1; 
stroke-linecap:round; stroke-linejoin:round;">
</g>
<g style="fill:#000000; fill-opacity:0.0; 
stroke:#000000; stroke-width:39.3701; stroke-opacity:1; 
stroke-linecap:round; stroke-linejoin:round;">
<circle cx="19695.1" cy="17711.3" r="131.233" /> 
<path d="M19498 17711
L19891 17711
" />
<path d="M19695 17514
L19695 17908
" />
</g>
<g style="fill:#000000; fill-opacity:0.0; 
stroke:#000000; stroke-width:19.685; stroke-opacity:1; 
stroke-linecap:round; stroke-linejoin:round;">
<circle cx="36967.3" cy="30098.7" r="590.551" /> 
<circle cx="2386.22" cy="30098.7" r="590.551" /> 
<circle cx="37026.8" cy="5358.16" r="590.551" /> 
<circle cx="2376.77" cy="5308.16" r="590.551" /> 
<path d="M9 2947
L9 32475
" />
<path d="M39379 32475
L9 32475
" />
<path d="M39379 2947
L39379 32475
" />
<path d="M9 2947
L39379 2947
" />
<g >
</g>
<g >
</g>
<g >
</g>
<g >
</g>
<g >
</g>
<g >
</g>
<g >
</g>
<g >
</g>
<g >
</g>
<g >
</g>
<g >
</g>
<g >
</g>
<g >
</g>
<g >
</g>
<g >
</g>
<g >
</g>
<g >
</g>
<g >
</g>
<g >
</g>
<g >
</g>
<g >
</g>
<g >
</g>
<g >
</g>
<g >
</g>
<g >
</g>
<g >
</g>
<g >
</g>
<g >
</g>
<g >
</g>
<g >
</g>
<g >
</g>
<g >
</g>
<g >
</g>
<g >
</g>
<g >
</g>
</g> 
</svg>
