<?xml version="1.0" standalone="no"?>
 <!DOCTYPE svg PUBLIC "-//W3C//DTD SVG 1.1//EN" 
 "http://www.w3.org/Graphics/SVG/1.1/DTD/svg11.dtd"> 
<svg
  xmlns:svg="http://www.w3.org/2000/svg"
  xmlns="http://www.w3.org/2000/svg"
  xmlns:xlink="http://www.w3.org/1999/xlink"
  version="1.1"
  width="9.867900cm" height="7.564120cm" viewBox="0 0 38850 29780">
<title>SVG Picture created as OFICINA-TELE-ENCHUFES-RELES-F_SilkS.svg date 2021/07/26 19:49:23 </title>
  <desc>Picture generated by PCBNEW </desc>
<g style="fill:#000000; fill-opacity:1;stroke:#000000; stroke-opacity:1;
stroke-linecap:round; stroke-linejoin:round;"
 transform="translate(0 0) scale(1 1)">
</g>
<g style="fill:#000000; fill-opacity:0.0; 
stroke:#000000; stroke-width:-0.000393701; stroke-opacity:1; 
stroke-linecap:round; stroke-linejoin:round;">
</g>
<g style="fill:#000000; fill-opacity:0.0; 
stroke:#000000; stroke-width:98.4252; stroke-opacity:1; 
stroke-linecap:round; stroke-linejoin:round;">
<text x="19479.3" y="23861.5"
textLength="3500.75" font-size="839.895" lengthAdjust="spacingAndGlyphs"
text-anchor="middle" opacity="0">FRENTE</text>
<path d="M18114 23501
L17904 23501
" />
<path d="M17904 23831
L17904 23201
L18204 23201
" />
<path d="M18804 23831
L18594 23531
" />
<path d="M18444 23831
L18444 23201
L18684 23201
L18744 23231
L18774 23261
L18804 23321
L18804 23411
L18774 23471
L18744 23501
L18684 23531
L18444 23531
" />
<path d="M19074 23501
L19284 23501
" />
<path d="M19374 23831
L19074 23831
L19074 23201
L19374 23201
" />
<path d="M19644 23831
L19644 23201
L20004 23831
L20004 23201
" />
<path d="M20214 23201
L20574 23201
" />
<path d="M20394 23831
L20394 23201
" />
<path d="M20784 23501
L20994 23501
" />
<path d="M21084 23831
L20784 23831
L20784 23201
L21084 23201
" />
<text x="19479.3" y="24904.8"
textLength="6967.1" font-size="839.895" lengthAdjust="spacingAndGlyphs"
text-anchor="middle" opacity="0">COMPONENTES</text>
<path d="M16569 24814
L16539 24844
L16449 24874
L16389 24874
L16299 24844
L16239 24784
L16209 24724
L16179 24604
L16179 24514
L16209 24394
L16239 24334
L16299 24274
L16389 24244
L16449 24244
L16539 24274
L16569 24304
" />
<path d="M16959 24244
L17079 24244
L17139 24274
L17199 24334
L17229 24454
L17229 24664
L17199 24784
L17139 24844
L17079 24874
L16959 24874
L16899 24844
L16839 24784
L16809 24664
L16809 24454
L16839 24334
L16899 24274
L16959 24244
" />
<path d="M17499 24874
L17499 24244
L17709 24694
L17919 24244
L17919 24874
" />
<path d="M18219 24874
L18219 24244
L18459 24244
L18519 24274
L18549 24304
L18579 24364
L18579 24454
L18549 24514
L18519 24544
L18459 24574
L18219 24574
" />
<path d="M18969 24244
L19089 24244
L19149 24274
L19209 24334
L19239 24454
L19239 24664
L19209 24784
L19149 24844
L19089 24874
L18969 24874
L18909 24844
L18849 24784
L18819 24664
L18819 24454
L18849 24334
L18909 24274
L18969 24244
" />
<path d="M19509 24874
L19509 24244
L19869 24874
L19869 24244
" />
<path d="M20169 24544
L20379 24544
" />
<path d="M20469 24874
L20169 24874
L20169 24244
L20469 24244
" />
<path d="M20739 24874
L20739 24244
L21099 24874
L21099 24244
" />
<path d="M21309 24244
L21668 24244
" />
<path d="M21489 24874
L21489 24244
" />
<path d="M21878 24544
L22088 24544
" />
<path d="M22178 24874
L21878 24874
L21878 24244
L22178 24244
" />
<path d="M22418 24844
L22508 24874
L22658 24874
L22718 24844
L22748 24814
L22778 24754
L22778 24694
L22748 24634
L22718 24604
L22658 24574
L22538 24544
L22478 24514
L22448 24484
L22418 24424
L22418 24364
L22448 24304
L22478 24274
L22538 24244
L22688 24244
L22778 24274
" />
</g>
<g style="fill:#000000; fill-opacity:0.0; 
stroke:#000000; stroke-width:147.638; stroke-opacity:1; 
stroke-linecap:round; stroke-linejoin:round;">
<text x="13487.5" y="18849.3"
textLength="1927.73" font-size="787.402" lengthAdjust="spacingAndGlyphs"
text-anchor="middle" opacity="0">GND</text>
<path d="M13037 18258
L12981 18230
L12896 18230
L12812 18258
L12756 18314
L12728 18371
L12700 18483
L12700 18568
L12728 18680
L12756 18736
L12812 18793
L12896 18821
L12953 18821
L13037 18793
L13065 18764
L13065 18568
L12953 18568
" />
<path d="M13318 18821
L13318 18230
L13656 18821
L13656 18230
" />
<path d="M13937 18821
L13937 18230
L14078 18230
L14162 18258
L14218 18314
L14246 18371
L14274 18483
L14274 18568
L14246 18680
L14218 18736
L14162 18793
L14078 18821
L13937 18821
" />
<text x="13487.5" y="16841.4"
textLength="1879.22" font-size="787.402" lengthAdjust="spacingAndGlyphs"
text-anchor="middle" opacity="0">VCC</text>
<path d="M12700 16222
L12896 16813
L13093 16222
" />
<path d="M13628 16757
L13600 16785
L13515 16813
L13459 16813
L13375 16785
L13318 16728
L13290 16672
L13262 16560
L13262 16475
L13290 16363
L13318 16307
L13375 16250
L13459 16222
L13515 16222
L13600 16250
L13628 16278
" />
<path d="M14218 16757
L14190 16785
L14106 16813
L14049 16813
L13965 16785
L13909 16728
L13881 16672
L13853 16560
L13853 16475
L13881 16363
L13909 16307
L13965 16250
L14049 16222
L14106 16222
L14190 16250
L14218 16278
" />
</g>
<g style="fill:#000000; fill-opacity:0.0; 
stroke:#000000; stroke-width:137.795; stroke-opacity:1; 
stroke-linecap:round; stroke-linejoin:round;">
<text x="9226.51" y="3611.85"
textLength="3420.28" font-size="734.908" lengthAdjust="spacingAndGlyphs"
text-anchor="middle" opacity="0">BUZZER</text>
<path d="M7927 3296
L8006 3323
L8032 3349
L8058 3401
L8058 3480
L8032 3533
L8006 3559
L7953 3585
L7743 3585
L7743 3034
L7927 3034
L7979 3060
L8006 3086
L8032 3139
L8032 3191
L8006 3244
L7979 3270
L7927 3296
L7743 3296
" />
<path d="M8294 3034
L8294 3480
L8320 3533
L8347 3559
L8399 3585
L8504 3585
L8557 3559
L8583 3533
L8609 3480
L8609 3034
" />
<path d="M8819 3034
L9187 3034
L8819 3585
L9187 3585
" />
<path d="M9344 3034
L9712 3034
L9344 3585
L9712 3585
" />
<path d="M9922 3296
L10105 3296
" />
<path d="M10184 3585
L9922 3585
L9922 3034
L10184 3034
" />
<path d="M10735 3585
L10551 3323
" />
<path d="M10420 3585
L10420 3034
L10630 3034
L10683 3060
L10709 3086
L10735 3139
L10735 3218
L10709 3270
L10683 3296
L10630 3323
L10420 3323
" />
<g transform="rotate(-90 25302.9 7053.58)">
<text x="25302.9" y="7329.17"
textLength="2173.88" font-size="734.908" lengthAdjust="spacingAndGlyphs"
text-anchor="middle" opacity="0">RELÉ</text>
</g>
<path d="M25552 7604
L25289 7788
" />
<path d="M25552 7919
L25001 7919
L25001 7709
L25027 7657
L25053 7631
L25106 7604
L25184 7604
L25237 7631
L25263 7657
L25289 7709
L25289 7919
" />
<path d="M25263 7368
L25263 7184
" />
<path d="M25552 7106
L25552 7368
L25001 7368
L25001 7106
" />
<path d="M25552 6607
L25552 6869
L25001 6869
" />
<path d="M25263 6423
L25263 6239
" />
<path d="M25552 6161
L25552 6423
L25001 6423
L25001 6161
" />
<path d="M24791 6239
L24869 6318
" />
<g transform="rotate(-90 26267.5 7053.58)">
<text x="26267.5" y="7329.17"
textLength="2908.79" font-size="734.908" lengthAdjust="spacingAndGlyphs"
text-anchor="middle" opacity="0">7 - +</text>
</g>
<path d="M25965 8339
L25965 7972
L26516 8208
" />
<path d="M26306 7342
L26306 6922
" />
<path d="M26306 6239
L26306 5819
" />
<path d="M26516 6029
L26096 6029
" />
<g transform="rotate(-90 25302.9 11053.6)">
<text x="25302.9" y="11329.2"
textLength="2173.88" font-size="734.908" lengthAdjust="spacingAndGlyphs"
text-anchor="middle" opacity="0">RELÉ</text>
</g>
<path d="M25552 11604
L25289 11788
" />
<path d="M25552 11919
L25001 11919
L25001 11709
L25027 11657
L25053 11631
L25106 11604
L25184 11604
L25237 11631
L25263 11657
L25289 11709
L25289 11919
" />
<path d="M25263 11368
L25263 11184
" />
<path d="M25552 11106
L25552 11368
L25001 11368
L25001 11106
" />
<path d="M25552 10607
L25552 10869
L25001 10869
" />
<path d="M25263 10423
L25263 10239
" />
<path d="M25552 10161
L25552 10423
L25001 10423
L25001 10161
" />
<path d="M24791 10239
L24869 10318
" />
<g transform="rotate(-90 26267.5 11053.6)">
<text x="26267.5" y="11329.2"
textLength="3853.67" font-size="734.908" lengthAdjust="spacingAndGlyphs"
text-anchor="middle" opacity="0">5 6 - +</text>
</g>
<path d="M25965 12497
L25965 12759
L26228 12785
L26201 12759
L26175 12707
L26175 12575
L26201 12523
L26228 12497
L26280 12470
L26411 12470
L26464 12497
L26490 12523
L26516 12575
L26516 12707
L26490 12759
L26464 12785
" />
<path d="M25965 11578
L25965 11683
L25991 11735
L26018 11762
L26096 11814
L26201 11840
L26411 11840
L26464 11814
L26490 11788
L26516 11735
L26516 11631
L26490 11578
L26464 11552
L26411 11526
L26280 11526
L26228 11552
L26201 11578
L26175 11631
L26175 11735
L26201 11788
L26228 11814
L26280 11840
" />
<path d="M26306 10869
L26306 10449
" />
<path d="M26306 9767
L26306 9347
" />
<path d="M26516 9557
L26096 9557
" />
<g transform="rotate(-90 25302.9 15453.6)">
<text x="25302.9" y="15729.2"
textLength="2173.88" font-size="734.908" lengthAdjust="spacingAndGlyphs"
text-anchor="middle" opacity="0">RELÉ</text>
</g>
<path d="M25552 16004
L25289 16188
" />
<path d="M25552 16319
L25001 16319
L25001 16109
L25027 16057
L25053 16031
L25106 16004
L25184 16004
L25237 16031
L25263 16057
L25289 16109
L25289 16319
" />
<path d="M25263 15768
L25263 15584
" />
<path d="M25552 15506
L25552 15768
L25001 15768
L25001 15506
" />
<path d="M25552 15007
L25552 15269
L25001 15269
" />
<path d="M25263 14823
L25263 14639
" />
<path d="M25552 14561
L25552 14823
L25001 14823
L25001 14561
" />
<path d="M24791 14639
L24869 14718
" />
<g transform="rotate(-90 26267.5 15453.6)">
<text x="26267.5" y="15729.2"
textLength="3853.67" font-size="734.908" lengthAdjust="spacingAndGlyphs"
text-anchor="middle" opacity="0">3 4 - +</text>
</g>
<path d="M25965 17212
L25965 16870
L26175 17054
L26175 16975
L26201 16923
L26228 16897
L26280 16870
L26411 16870
L26464 16897
L26490 16923
L26516 16975
L26516 17133
L26490 17185
L26464 17212
" />
<path d="M26149 15978
L26516 15978
" />
<path d="M25939 16109
L26333 16240
L26333 15899
" />
<path d="M26306 15269
L26306 14849
" />
<path d="M26306 14167
L26306 13747
" />
<path d="M26516 13957
L26096 13957
" />
<g transform="rotate(-90 25302.9 20053.6)">
<text x="25302.9" y="20329.2"
textLength="2173.88" font-size="734.908" lengthAdjust="spacingAndGlyphs"
text-anchor="middle" opacity="0">RELÉ</text>
</g>
<path d="M25552 20604
L25289 20788
" />
<path d="M25552 20919
L25001 20919
L25001 20709
L25027 20657
L25053 20631
L25106 20604
L25184 20604
L25237 20631
L25263 20657
L25289 20709
L25289 20919
" />
<path d="M25263 20368
L25263 20184
" />
<path d="M25552 20106
L25552 20368
L25001 20368
L25001 20106
" />
<path d="M25552 19607
L25552 19869
L25001 19869
" />
<path d="M25263 19423
L25263 19239
" />
<path d="M25552 19161
L25552 19423
L25001 19423
L25001 19161
" />
<path d="M24791 19239
L24869 19318
" />
<g transform="rotate(-90 26267.5 20053.6)">
<text x="26267.5" y="20329.2"
textLength="3853.67" font-size="734.908" lengthAdjust="spacingAndGlyphs"
text-anchor="middle" opacity="0">1 2 - +</text>
</g>
<path d="M26516 21470
L26516 21785
" />
<path d="M26516 21628
L25965 21628
L26044 21680
L26096 21733
L26123 21785
" />
<path d="M26018 20840
L25991 20814
L25965 20762
L25965 20631
L25991 20578
L26018 20552
L26070 20526
L26123 20526
L26201 20552
L26516 20867
L26516 20526
" />
<path d="M26306 19869
L26306 19449
" />
<path d="M26306 18767
L26306 18347
" />
<path d="M26516 18557
L26096 18557
" />
<g transform="rotate(-90 9787.93 15140.6)">
<text x="9787.93" y="15416.2"
textLength="8945.54" font-size="734.908" lengthAdjust="spacingAndGlyphs"
text-anchor="middle" opacity="0">INTERFAZ-CONECTOR</text>
</g>
<path d="M10037 19392
L9486 19392
" />
<path d="M10037 19130
L9486 19130
L10037 18815
L9486 18815
" />
<path d="M9486 18631
L9486 18316
" />
<path d="M10037 18473
L9486 18473
" />
<path d="M9748 18132
L9748 17948
" />
<path d="M10037 17870
L10037 18132
L9486 18132
L9486 17870
" />
<path d="M10037 17319
L9774 17502
" />
<path d="M10037 17634
L9486 17634
L9486 17424
L9512 17371
L9538 17345
L9591 17319
L9669 17319
L9722 17345
L9748 17371
L9774 17424
L9774 17634
" />
<path d="M9748 16899
L9748 17082
" />
<path d="M10037 17082
L9486 17082
L9486 16820
" />
<path d="M9879 16636
L9879 16374
" />
<path d="M10037 16689
L9486 16505
L10037 16321
" />
<path d="M9486 16190
L9486 15823
L10037 16190
L10037 15823
" />
<path d="M9827 15613
L9827 15193
" />
<path d="M9984 14615
L10011 14641
L10037 14720
L10037 14773
L10011 14851
L9958 14904
L9906 14930
L9801 14956
L9722 14956
L9617 14930
L9564 14904
L9512 14851
L9486 14773
L9486 14720
L9512 14641
L9538 14615
" />
<path d="M9486 14274
L9486 14169
L9512 14116
L9564 14064
L9669 14038
L9853 14038
L9958 14064
L10011 14116
L10037 14169
L10037 14274
L10011 14326
L9958 14379
L9853 14405
L9669 14405
L9564 14379
L9512 14326
L9486 14274
" />
<path d="M10037 13802
L9486 13802
L10037 13487
L9486 13487
" />
<path d="M9748 13224
L9748 13040
" />
<path d="M10037 12962
L10037 13224
L9486 13224
L9486 12962
" />
<path d="M9984 12410
L10011 12437
L10037 12515
L10037 12568
L10011 12647
L9958 12699
L9906 12725
L9801 12752
L9722 12752
L9617 12725
L9564 12699
L9512 12647
L9486 12568
L9486 12515
L9512 12437
L9538 12410
" />
<path d="M9486 12253
L9486 11938
" />
<path d="M10037 12095
L9486 12095
" />
<path d="M9486 11649
L9486 11544
L9512 11492
L9564 11439
L9669 11413
L9853 11413
L9958 11439
L10011 11492
L10037 11544
L10037 11649
L10011 11702
L9958 11754
L9853 11781
L9669 11781
L9564 11754
L9512 11702
L9486 11649
" />
<path d="M10037 10862
L9774 11046
" />
<path d="M10037 11177
L9486 11177
L9486 10967
L9512 10914
L9538 10888
L9591 10862
L9669 10862
L9722 10888
L9748 10914
L9774 10967
L9774 11177
" />
</g>
<g style="fill:#000000; fill-opacity:0.0; 
stroke:#000000; stroke-width:147.638; stroke-opacity:1; 
stroke-linecap:round; stroke-linejoin:round;">
<text x="6947.38" y="12815.2"
textLength="2372.61" font-size="787.402" lengthAdjust="spacingAndGlyphs"
text-anchor="end" opacity="0">LOAD</text>
<path d="M5079 12787
L4798 12787
L4798 12196
" />
<path d="M5389 12196
L5501 12196
L5557 12224
L5614 12280
L5642 12393
L5642 12590
L5614 12702
L5557 12758
L5501 12787
L5389 12787
L5332 12758
L5276 12702
L5248 12590
L5248 12393
L5276 12280
L5332 12224
L5389 12196
" />
<path d="M5867 12618
L6148 12618
" />
<path d="M5810 12787
L6007 12196
L6204 12787
" />
<path d="M6401 12787
L6401 12196
L6542 12196
L6626 12224
L6682 12280
L6710 12337
L6738 12449
L6738 12533
L6710 12646
L6682 12702
L6626 12758
L6542 12787
L6401 12787
" />
<text x="6947.38" y="13848.7"
textLength="2835.35" font-size="787.402" lengthAdjust="spacingAndGlyphs"
text-anchor="end" opacity="0">LATCH</text>
<path d="M4629 13820
L4348 13820
L4348 13229
" />
<path d="M4798 13651
L5079 13651
" />
<path d="M4742 13820
L4939 13229
L5136 13820
" />
<path d="M5248 13229
L5585 13229
" />
<path d="M5417 13820
L5417 13229
" />
<path d="M6120 13764
L6092 13792
L6007 13820
L5951 13820
L5867 13792
L5810 13736
L5782 13679
L5754 13567
L5754 13483
L5782 13370
L5810 13314
L5867 13258
L5951 13229
L6007 13229
L6092 13258
L6120 13286
" />
<path d="M6373 13820
L6373 13229
" />
<path d="M6373 13511
L6710 13511
" />
<path d="M6710 13820
L6710 13229
" />
<text x="6947.38" y="14882.1"
textLength="2244.8" font-size="787.402" lengthAdjust="spacingAndGlyphs"
text-anchor="end" opacity="0">DATA</text>
<path d="M4939 14854
L4939 14263
L5079 14263
L5164 14291
L5220 14347
L5248 14404
L5276 14516
L5276 14600
L5248 14713
L5220 14769
L5164 14825
L5079 14854
L4939 14854
" />
<path d="M5501 14685
L5782 14685
" />
<path d="M5445 14854
L5642 14263
L5839 14854
" />
<path d="M5951 14263
L6288 14263
" />
<path d="M6120 14854
L6120 14263
" />
<path d="M6457 14685
L6738 14685
" />
<path d="M6401 14854
L6598 14263
L6795 14854
" />
<text x="6947.38" y="15915.6"
textLength="3060.32" font-size="787.402" lengthAdjust="spacingAndGlyphs"
text-anchor="end" opacity="0">CLOCK</text>
<path d="M4461 15831
L4432 15859
L4348 15887
L4292 15887
L4207 15859
L4151 15803
L4123 15746
L4095 15634
L4095 15550
L4123 15437
L4151 15381
L4207 15325
L4292 15296
L4348 15296
L4432 15325
L4461 15353
" />
<path d="M4995 15887
L4714 15887
L4714 15296
" />
<path d="M5304 15296
L5417 15296
L5473 15325
L5529 15381
L5557 15493
L5557 15690
L5529 15803
L5473 15859
L5417 15887
L5304 15887
L5248 15859
L5192 15803
L5164 15690
L5164 15493
L5192 15381
L5248 15325
L5304 15296
" />
<path d="M6148 15831
L6120 15859
L6035 15887
L5979 15887
L5895 15859
L5839 15803
L5810 15746
L5782 15634
L5782 15550
L5810 15437
L5839 15381
L5895 15325
L5979 15296
L6035 15296
L6120 15325
L6148 15353
" />
<path d="M6401 15887
L6401 15296
" />
<path d="M6738 15887
L6485 15550
" />
<path d="M6738 15296
L6401 15634
" />
<text x="6947.38" y="16949.1"
textLength="1991.7" font-size="787.402" lengthAdjust="spacingAndGlyphs"
text-anchor="end" opacity="0">GND</text>
<path d="M5501 16358
L5445 16330
L5360 16330
L5276 16358
L5220 16414
L5192 16470
L5164 16583
L5164 16667
L5192 16780
L5220 16836
L5276 16892
L5360 16920
L5417 16920
L5501 16892
L5529 16864
L5529 16667
L5417 16667
" />
<path d="M5782 16920
L5782 16330
L6120 16920
L6120 16330
" />
<path d="M6401 16920
L6401 16330
L6542 16330
L6626 16358
L6682 16414
L6710 16470
L6738 16583
L6738 16667
L6710 16780
L6682 16836
L6626 16892
L6542 16920
L6401 16920
" />
<text x="6947.38" y="17982.5"
textLength="1879.22" font-size="787.402" lengthAdjust="spacingAndGlyphs"
text-anchor="end" opacity="0">VCC</text>
<path d="M5220 17363
L5417 17954
L5614 17363
" />
<path d="M6148 17898
L6120 17926
L6035 17954
L5979 17954
L5895 17926
L5839 17870
L5810 17813
L5782 17701
L5782 17616
L5810 17504
L5839 17448
L5895 17391
L5979 17363
L6035 17363
L6120 17391
L6148 17420
" />
<path d="M6738 17898
L6710 17926
L6626 17954
L6570 17954
L6485 17926
L6429 17870
L6401 17813
L6373 17701
L6373 17616
L6401 17504
L6429 17448
L6485 17391
L6570 17363
L6626 17363
L6710 17391
L6738 17420
" />
</g>
<g style="fill:#000000; fill-opacity:0.0; 
stroke:#000000; stroke-width:59.0551; stroke-opacity:1; 
stroke-linecap:round; stroke-linejoin:round;">
<path d="M32480 17868
L26980 17868
" />
<path d="M32480 13372
L26980 13372
" />
<path d="M26980 8868
L32480 8868
" />
<path d="M32480 22418
L32480 4500
" />
<path d="M26980 22418
L32480 22418
" />
<path d="M26980 4493
L26980 22418
" />
</g>
<g style="fill:#000000; fill-opacity:0.0; 
stroke:#000000; stroke-width:39.3701; stroke-opacity:1; 
stroke-linecap:round; stroke-linejoin:round;">
<text x="29937.9" y="4860.28"
textLength="3071.57" font-size="839.895" lengthAdjust="spacingAndGlyphs"
text-anchor="middle" opacity="0">RELES</text>
<path d="M29008 4830
L28798 4530
" />
<path d="M28648 4830
L28648 4200
L28888 4200
L28948 4230
L28978 4260
L29008 4320
L29008 4410
L28978 4470
L28948 4500
L28888 4530
L28648 4530
" />
<path d="M29278 4500
L29487 4500
" />
<path d="M29577 4830
L29278 4830
L29278 4200
L29577 4200
" />
<path d="M30147 4830
L29847 4830
L29847 4200
" />
<path d="M30357 4500
L30567 4500
" />
<path d="M30657 4830
L30357 4830
L30357 4200
L30657 4200
" />
<path d="M30897 4800
L30987 4830
L31137 4830
L31197 4800
L31227 4770
L31257 4710
L31257 4650
L31227 4590
L31197 4560
L31137 4530
L31017 4500
L30957 4470
L30927 4440
L30897 4380
L30897 4320
L30927 4260
L30957 4230
L31017 4200
L31167 4200
L31257 4230
" />
</g>
<g style="fill:#000000; fill-opacity:0.0; 
stroke:#000000; stroke-width:59.0551; stroke-opacity:1; 
stroke-linecap:round; stroke-linejoin:round;">
<path d="M31736 4498
L32480 4500
" />
<path d="M28211 4493
L26980 4493
" />
</g>
<g style="fill:#000000; fill-opacity:0.0; 
stroke:#000000; stroke-width:147.638; stroke-opacity:1; 
stroke-linecap:round; stroke-linejoin:round;">
<text x="14871.4" y="5568.74"
textLength="3875.7" font-size="787.402" lengthAdjust="spacingAndGlyphs"
text-anchor="middle" opacity="0">ARDUINO</text>
<path d="M13071 5371
L13352 5371
" />
<path d="M13015 5540
L13212 4950
L13409 5540
" />
<path d="M13943 5540
L13746 5259
" />
<path d="M13605 5540
L13605 4950
L13830 4950
L13887 4978
L13915 5006
L13943 5062
L13943 5146
L13915 5203
L13887 5231
L13830 5259
L13605 5259
" />
<path d="M14196 5540
L14196 4950
L14337 4950
L14421 4978
L14477 5034
L14505 5090
L14533 5203
L14533 5287
L14505 5400
L14477 5456
L14421 5512
L14337 5540
L14196 5540
" />
<path d="M14787 4950
L14787 5428
L14815 5484
L14843 5512
L14899 5540
L15011 5540
L15068 5512
L15096 5484
L15124 5428
L15124 4950
" />
<path d="M15405 5540
L15405 4950
" />
<path d="M15686 5540
L15686 4950
L16024 5540
L16024 4950
" />
<path d="M16418 4950
L16530 4950
L16586 4978
L16643 5034
L16671 5146
L16671 5343
L16643 5456
L16586 5512
L16530 5540
L16418 5540
L16361 5512
L16305 5456
L16277 5343
L16277 5146
L16305 5034
L16361 4978
L16418 4950
" />
<text x="14871.4" y="6602.21"
textLength="4297.67" font-size="787.402" lengthAdjust="spacingAndGlyphs"
text-anchor="middle" opacity="0">MINI PRO</text>
<path d="M12959 6574
L12959 5983
L13155 6405
L13352 5983
L13352 6574
" />
<path d="M13634 6574
L13634 5983
" />
<path d="M13915 6574
L13915 5983
L14252 6574
L14252 5983
" />
<path d="M14533 6574
L14533 5983
" />
<path d="M15265 6574
L15265 5983
L15490 5983
L15546 6011
L15574 6039
L15602 6096
L15602 6180
L15574 6236
L15546 6264
L15490 6292
L15265 6292
" />
<path d="M16193 6574
L15996 6292
" />
<path d="M15855 6574
L15855 5983
L16080 5983
L16136 6011
L16164 6039
L16193 6096
L16193 6180
L16164 6236
L16136 6264
L16080 6292
L15855 6292
" />
<path d="M16558 5983
L16671 5983
L16727 6011
L16783 6067
L16811 6180
L16811 6377
L16783 6489
L16727 6545
L16671 6574
L16558 6574
L16502 6545
L16446 6489
L16418 6377
L16418 6180
L16446 6067
L16502 6011
L16558 5983
" />
</g>
<g style="fill:#000000; fill-opacity:0.0; 
stroke:#000000; stroke-width:137.795; stroke-opacity:1; 
stroke-linecap:round; stroke-linejoin:round;">
<g transform="rotate(-180 6814.3 4799.65)">
<text x="6814.3" y="5075.24"
textLength="1871.72" font-size="734.908" lengthAdjust="spacingAndGlyphs"
text-anchor="middle" opacity="0">GND</text>
</g>
<path d="M7234 5075
L7286 5101
L7365 5101
L7444 5075
L7496 5022
L7522 4970
L7549 4865
L7549 4786
L7522 4681
L7496 4629
L7444 4576
L7365 4550
L7312 4550
L7234 4576
L7208 4602
L7208 4786
L7312 4786
" />
<path d="M6971 4550
L6971 5101
L6656 4550
L6656 5101
" />
<path d="M6394 4550
L6394 5101
L6263 5101
L6184 5075
L6131 5022
L6105 4970
L6079 4865
L6079 4786
L6105 4681
L6131 4629
L6184 4576
L6263 4550
L6394 4550
" />
</g>
<g style="fill:#000000; fill-opacity:0.0; 
stroke:#000000; stroke-width:39.3701; stroke-opacity:1; 
stroke-linecap:round; stroke-linejoin:round;">
<g transform="rotate(-180 7014.3 7399.65)">
<text x="7014.3" y="7793.35"
textLength="1154.01" font-size="1049.87" lengthAdjust="spacingAndGlyphs"
text-anchor="middle" opacity="0">+</text>
</g>
<path d="M7314 7343
L6714 7343
" />
<path d="M7014 7043
L7014 7643
" />
</g>
<g style="fill:#000000; fill-opacity:0.0; 
stroke:#000000; stroke-width:47.2441; stroke-opacity:1; 
stroke-linecap:round; stroke-linejoin:round;">
<path d="M27619 5618
L28119 5618
" />
<path d="M27619 6118
L27619 5618
" />
<path d="M28530 8267
L28686 8267
" />
<path d="M28530 7968
L28686 7968
" />
<path d="M32095 8267
L29733 8267
" />
<path d="M32095 7968
L32095 8267
" />
<path d="M29733 7968
L32095 7968
" />
<path d="M28686 7618
L29733 7618
" />
<path d="M28530 7267
L28686 7267
" />
<path d="M28530 6968
L28686 6968
" />
<path d="M32095 7267
L29733 7267
" />
<path d="M32095 6968
L32095 7267
" />
<path d="M29733 6968
L32095 6968
" />
<path d="M28686 6618
L29733 6618
" />
<path d="M28556 6267
L28686 6267
" />
<path d="M28556 5968
L28686 5968
" />
<path d="M29733 6228
L32095 6228
" />
<path d="M29733 6181
L32095 6181
" />
<path d="M29733 6133
L32095 6133
" />
<path d="M29733 6086
L32095 6086
" />
<path d="M29733 6039
L32095 6039
" />
<path d="M29733 5992
L32095 5992
" />
<path d="M32095 6267
L29733 6267
" />
<path d="M32095 5968
L32095 6267
" />
<path d="M29733 5968
L32095 5968
" />
<path d="M29733 5594
L28686 5594
" />
<path d="M29733 8641
L29733 5594
" />
<path d="M28686 8641
L29733 8641
" />
<path d="M28686 5594
L28686 8641
" />
<path d="M17859 20055
L17335 20055
" />
<path d="M17335 20055
L17335 19532
" />
<path d="M17335 19032
L17335 7008
" />
<path d="M18383 7008
L17335 7008
" />
<path d="M18383 19032
L18383 7008
" />
<path d="M18383 19032
L17335 19032
" />
<path d="M27619 18118
L28119 18118
" />
<path d="M27619 18618
L27619 18118
" />
<path d="M28530 21767
L28686 21767
" />
<path d="M28530 21468
L28686 21468
" />
<path d="M32095 21767
L29733 21767
" />
<path d="M32095 21468
L32095 21767
" />
<path d="M29733 21468
L32095 21468
" />
<path d="M28686 21118
L29733 21118
" />
<path d="M28530 20767
L28686 20767
" />
<path d="M28530 20468
L28686 20468
" />
<path d="M32095 20767
L29733 20767
" />
<path d="M32095 20468
L32095 20767
" />
<path d="M29733 20468
L32095 20468
" />
<path d="M28686 20118
L29733 20118
" />
<path d="M28530 19767
L28686 19767
" />
<path d="M28530 19468
L28686 19468
" />
<path d="M32095 19767
L29733 19767
" />
<path d="M32095 19468
L32095 19767
" />
<path d="M29733 19468
L32095 19468
" />
<path d="M28686 19118
L29733 19118
" />
<path d="M28556 18767
L28686 18767
" />
<path d="M28556 18468
L28686 18468
" />
<path d="M29733 18728
L32095 18728
" />
<path d="M29733 18681
L32095 18681
" />
<path d="M29733 18633
L32095 18633
" />
<path d="M29733 18586
L32095 18586
" />
<path d="M29733 18539
L32095 18539
" />
<path d="M29733 18492
L32095 18492
" />
<path d="M32095 18767
L29733 18767
" />
<path d="M32095 18468
L32095 18767
" />
<path d="M29733 18468
L32095 18468
" />
<path d="M29733 18094
L28686 18094
" />
<path d="M29733 22141
L29733 18094
" />
<path d="M28686 22141
L29733 22141
" />
<path d="M28686 18094
L28686 22141
" />
<path d="M9090 11542
L7507 11542
" />
<path d="M7507 11542
L7507 18518
" />
<path d="M7507 18518
L9090 18518
" />
<path d="M9090 18518
L9090 11542
" />
<path d="M8417 11542
L8417 11739
" />
<path d="M8417 11739
L8893 11739
" />
<path d="M8893 11739
L8893 18322
" />
<path d="M8893 18322
L8417 18322
" />
<path d="M8417 18322
L8417 18518
" />
<path d="M8098 11542
L8098 11936
" />
<path d="M8098 11936
L7507 11936
" />
<path d="M8098 18518
L8098 18125
" />
<path d="M8098 18125
L7507 18125
" />
<path d="M8373 11424
L7389 11424
" />
<path d="M7389 11424
L7389 12408
" />
<path d="M28686 13594
L28686 17641
" />
<path d="M28686 17641
L29733 17641
" />
<path d="M29733 17641
L29733 13594
" />
<path d="M29733 13594
L28686 13594
" />
<path d="M29733 13968
L32095 13968
" />
<path d="M32095 13968
L32095 14267
" />
<path d="M32095 14267
L29733 14267
" />
<path d="M29733 13992
L32095 13992
" />
<path d="M29733 14039
L32095 14039
" />
<path d="M29733 14086
L32095 14086
" />
<path d="M29733 14133
L32095 14133
" />
<path d="M29733 14181
L32095 14181
" />
<path d="M29733 14228
L32095 14228
" />
<path d="M28556 13968
L28686 13968
" />
<path d="M28556 14267
L28686 14267
" />
<path d="M28686 14618
L29733 14618
" />
<path d="M29733 14968
L32095 14968
" />
<path d="M32095 14968
L32095 15267
" />
<path d="M32095 15267
L29733 15267
" />
<path d="M28530 14968
L28686 14968
" />
<path d="M28530 15267
L28686 15267
" />
<path d="M28686 15618
L29733 15618
" />
<path d="M29733 15968
L32095 15968
" />
<path d="M32095 15968
L32095 16267
" />
<path d="M32095 16267
L29733 16267
" />
<path d="M28530 15968
L28686 15968
" />
<path d="M28530 16267
L28686 16267
" />
<path d="M28686 16618
L29733 16618
" />
<path d="M29733 16968
L32095 16968
" />
<path d="M32095 16968
L32095 17267
" />
<path d="M32095 17267
L29733 17267
" />
<path d="M28530 16968
L28686 16968
" />
<path d="M28530 17267
L28686 17267
" />
<path d="M27619 14118
L27619 13618
" />
<path d="M27619 13618
L28119 13618
" />
<path d="M28686 9094
L28686 13141
" />
<path d="M28686 13141
L29733 13141
" />
<path d="M29733 13141
L29733 9094
" />
<path d="M29733 9094
L28686 9094
" />
<path d="M29733 9468
L32095 9468
" />
<path d="M32095 9468
L32095 9767
" />
<path d="M32095 9767
L29733 9767
" />
<path d="M29733 9492
L32095 9492
" />
<path d="M29733 9539
L32095 9539
" />
<path d="M29733 9586
L32095 9586
" />
<path d="M29733 9633
L32095 9633
" />
<path d="M29733 9681
L32095 9681
" />
<path d="M29733 9728
L32095 9728
" />
<path d="M28556 9468
L28686 9468
" />
<path d="M28556 9767
L28686 9767
" />
<path d="M28686 10118
L29733 10118
" />
<path d="M29733 10468
L32095 10468
" />
<path d="M32095 10468
L32095 10767
" />
<path d="M32095 10767
L29733 10767
" />
<path d="M28530 10468
L28686 10468
" />
<path d="M28530 10767
L28686 10767
" />
<path d="M28686 11118
L29733 11118
" />
<path d="M29733 11468
L32095 11468
" />
<path d="M32095 11468
L32095 11767
" />
<path d="M32095 11767
L29733 11767
" />
<path d="M28530 11468
L28686 11468
" />
<path d="M28530 11767
L28686 11767
" />
<path d="M28686 12118
L29733 12118
" />
<path d="M29733 12468
L32095 12468
" />
<path d="M32095 12468
L32095 12767
" />
<path d="M32095 12767
L29733 12767
" />
<path d="M28530 12468
L28686 12468
" />
<path d="M28530 12767
L28686 12767
" />
<path d="M27619 9618
L27619 9118
" />
<path d="M27619 9118
L28119 9118
" />
<path d="M12383 19040
L11335 19040
" />
<path d="M12383 19040
L12383 7016
" />
<path d="M12383 7016
L11335 7016
" />
<path d="M11335 19040
L11335 7016
" />
<path d="M11335 20063
L11335 19540
" />
<path d="M11859 20063
L11335 20063
" />
<circle cx="8114.3" cy="6095.71" r="2401.57" /> 
<g >
</g>
</g>
<g style="fill:#000000; fill-opacity:0.0; 
stroke:#000000; stroke-width:47.2441; stroke-opacity:1; 
stroke-linecap:round; stroke-linejoin:round;">
</g>
<g style="fill:#000000; fill-opacity:0.0; 
stroke:#000000; stroke-width:39.3701; stroke-opacity:1; 
stroke-linecap:round; stroke-linejoin:round;">
<circle cx="21079.3" cy="13819.7" r="131.233" /> 
<path d="M20882 13819
L21276 13819
" />
<path d="M21079 13622
L21079 14016
" />
</g>
<g style="fill:#000000; fill-opacity:0.0; 
stroke:#000000; stroke-width:78.7402; stroke-opacity:1; 
stroke-linecap:round; stroke-linejoin:round;">
<path d="M3346 27598
L3346 39
" />
<path d="M38814 39
L3346 39
" />
<path d="M38814 27598
L38814 39
" />
<path d="M3346 27598
L38814 27598
" />
<circle cx="35923.4" cy="25529.2" r="590.551" /> 
<circle cx="35923.4" cy="2385.87" r="590.551" /> 
<circle cx="6314.3" cy="2385.87" r="590.551" /> 
<circle cx="6314.3" cy="25529.2" r="590.551" /> 
<g >
</g>
<g >
</g>
<g >
</g>
<g >
</g>
<g >
</g>
<g >
</g>
<g >
</g>
<g >
</g>
<g >
</g>
</g> 
</svg>
