<?xml version="1.0" standalone="no"?>
 <!DOCTYPE svg PUBLIC "-//W3C//DTD SVG 1.1//EN" 
 "http://www.w3.org/Graphics/SVG/1.1/DTD/svg11.dtd"> 
<svg
  xmlns:svg="http://www.w3.org/2000/svg"
  xmlns="http://www.w3.org/2000/svg"
  xmlns:xlink="http://www.w3.org/1999/xlink"
  version="1.1"
  width="9.867900cm" height="7.564120cm" viewBox="0 0 38850 29780">
<title>SVG Picture created as OFICINA-TELE-ENCHUFES-RELES-F_Mask.svg date 2021/07/26 19:49:23 </title>
  <desc>Picture generated by PCBNEW </desc>
<g style="fill:#000000; fill-opacity:1;stroke:#000000; stroke-opacity:1;
stroke-linecap:round; stroke-linejoin:round;"
 transform="translate(0 0) scale(1 1)">
</g>
<g style="fill:#000000; fill-opacity:0.0; 
stroke:#000000; stroke-width:-0.000393701; stroke-opacity:1; 
stroke-linecap:round; stroke-linejoin:round;">
<g >
</g>
<g style="fill:#000000; fill-opacity:1.0; 
stroke:#000000; stroke-width:0; stroke-opacity:1; 
stroke-linecap:round; stroke-linejoin:round;">
<circle cx="28119.4" cy="8118.15" r="492.126" /> 
<circle cx="28119.4" cy="7118.15" r="492.126" /> 
<path style="fill:#000000; fill-opacity:1.0; 
stroke:#000000; stroke-width:0; stroke-opacity:1; 
stroke-linecap:round; stroke-linejoin:round;fill-rule:evenodd;"
d="M 28469.5,5626.78
28484.8,5629.05
28499.8,5632.81
28514.3,5638.01
28528.3,5644.62
28541.6,5652.56
28554,5661.77
28565.4,5672.15
28575.8,5683.6
28585,5696.01
28593,5709.27
28599.6,5723.24
28604.8,5737.79
28608.5,5752.78
28610.8,5768.07
28611.5,5783.5
28611.5,6452.8
28610.8,6468.23
28608.5,6483.52
28604.8,6498.51
28599.6,6513.06
28593,6527.03
28585,6540.29
28575.8,6552.7
28565.4,6564.15
28554,6574.53
28541.6,6583.74
28528.3,6591.68
28514.3,6598.29
28499.8,6603.49
28484.8,6607.25
28469.5,6609.52
28454.1,6610.28
27784.8,6610.28
27769.3,6609.52
27754.1,6607.25
27739.1,6603.49
27724.5,6598.29
27710.5,6591.68
27697.3,6583.74
27684.9,6574.53
27673.4,6564.15
27663,6552.7
27653.8,6540.29
27645.9,6527.03
27639.3,6513.06
27634.1,6498.51
27630.3,6483.52
27628.1,6468.23
27627.3,6452.8
27627.3,5783.5
27628.1,5768.07
27630.3,5752.78
27634.1,5737.79
27639.3,5723.24
27645.9,5709.27
27653.8,5696.01
27663,5683.6
27673.4,5672.15
27684.9,5661.77
27697.3,5652.56
27710.5,5644.62
27724.5,5638.01
27739.1,5632.81
27754.1,5629.05
27769.3,5626.78
27784.8,5626.02
28454.1,5626.02
Z" /> 
</g>
<g >
</g>
<g style="fill:#000000; fill-opacity:1.0; 
stroke:#000000; stroke-width:0; stroke-opacity:1; 
stroke-linecap:round; stroke-linejoin:round;">
<circle cx="17859.5" cy="15532.2" r="492.126" /> 
<circle cx="17859.5" cy="14532.2" r="492.126" /> 
<circle cx="17859.5" cy="13532.2" r="492.126" /> 
<circle cx="17859.5" cy="12532.2" r="492.126" /> 
<circle cx="17859.5" cy="11532.2" r="492.126" /> 
<circle cx="17859.5" cy="10532.2" r="492.126" /> 
<circle cx="17859.5" cy="9532.21" r="492.126" /> 
<circle cx="17859.5" cy="8532.21" r="492.126" /> 
<circle cx="17859.5" cy="16532.2" r="492.126" /> 
</g>
<g >
</g>
<g style="fill:#000000; fill-opacity:1.0; 
stroke:#000000; stroke-width:0; stroke-opacity:1; 
stroke-linecap:round; stroke-linejoin:round;">
<circle cx="28119.4" cy="21618.2" r="492.126" /> 
<circle cx="28119.4" cy="20618.2" r="492.126" /> 
<circle cx="28119.4" cy="19618.2" r="492.126" /> 
<path style="fill:#000000; fill-opacity:1.0; 
stroke:#000000; stroke-width:0; stroke-opacity:1; 
stroke-linecap:round; stroke-linejoin:round;fill-rule:evenodd;"
d="M 28469.5,18126.8
28484.8,18129
28499.8,18132.8
28514.3,18138
28528.3,18144.6
28541.6,18152.6
28554,18161.8
28565.4,18172.1
28575.8,18183.6
28585,18196
28593,18209.3
28599.6,18223.2
28604.8,18237.8
28608.5,18252.8
28610.8,18268.1
28611.5,18283.5
28611.5,18952.8
28610.8,18968.2
28608.5,18983.5
28604.8,18998.5
28599.6,19013.1
28593,19027
28585,19040.3
28575.8,19052.7
28565.4,19064.2
28554,19074.5
28541.6,19083.7
28528.3,19091.7
28514.3,19098.3
28499.8,19103.5
28484.8,19107.2
28469.5,19109.5
28454.1,19110.3
27784.8,19110.3
27769.3,19109.5
27754.1,19107.2
27739.1,19103.5
27724.5,19098.3
27710.5,19091.7
27697.3,19083.7
27684.9,19074.5
27673.4,19064.2
27663,19052.7
27653.8,19040.3
27645.9,19027
27639.3,19013.1
27634.1,18998.5
27630.3,18983.5
27628.1,18968.2
27627.3,18952.8
27627.3,18283.5
27628.1,18268.1
27630.3,18252.8
27634.1,18237.8
27639.3,18223.2
27645.9,18209.3
27653.8,18196
27663,18183.6
27673.4,18172.1
27684.9,18161.8
27697.3,18152.6
27710.5,18144.6
27724.5,18138
27739.1,18132.8
27754.1,18129
27769.3,18126.8
27784.8,18126
28454.1,18126
Z" /> 
</g>
<g >
</g>
<g style="fill:#000000; fill-opacity:1.0; 
stroke:#000000; stroke-width:0; stroke-opacity:1; 
stroke-linecap:round; stroke-linejoin:round;">
<path style="fill:#000000; fill-opacity:1.0; 
stroke:#000000; stroke-width:0; stroke-opacity:1; 
stroke-linecap:round; stroke-linejoin:round;fill-rule:evenodd;"
d="M 8827.84,12078.7
8841.89,12080.8
8855.67,12084.2
8869.05,12089
8881.89,12095.1
8894.07,12102.4
8905.48,12110.8
8916,12120.4
8925.54,12130.9
8934.01,12142.3
8941.31,12154.5
8947.38,12167.3
8952.17,12180.7
8955.62,12194.5
8957.7,12208.5
8958.4,12222.7
8958.4,12917.5
8957.7,12931.7
8955.62,12945.7
8952.17,12959.5
8947.38,12972.9
8941.31,12985.7
8934.01,12997.9
8925.54,13009.3
8916,13019.9
8905.48,13029.4
8894.07,13037.9
8881.89,13045.2
8869.05,13051.2
8855.67,13056
8841.89,13059.5
8827.84,13061.5
8813.66,13062.2
8020.46,13062.2
8006.28,13061.5
7992.23,13059.5
7978.45,13056
7965.07,13051.2
7952.23,13045.2
7940.05,13037.9
7928.64,13029.4
7918.12,13019.9
7908.58,13009.3
7900.12,12997.9
7892.81,12985.7
7886.74,12972.9
7881.95,12959.5
7878.5,12945.7
7876.42,12931.7
7875.72,12917.5
7875.72,12222.7
7876.42,12208.5
7878.5,12194.5
7881.95,12180.7
7886.74,12167.3
7892.81,12154.5
7900.12,12142.3
7908.58,12130.9
7918.12,12120.4
7928.64,12110.8
7940.05,12102.4
7952.23,12095.1
7965.07,12089
7978.45,12084.2
7992.23,12080.8
8006.28,12078.7
8020.46,12078
8813.66,12078
Z" /> 
</g>
<g style="fill:#000000; fill-opacity:1.0; 
stroke:#000000; stroke-width:984.252; stroke-opacity:1; 
stroke-linecap:round; stroke-linejoin:round;">
</g>
<g style="fill:#000000; fill-opacity:0.0; 
stroke:#000000; stroke-width:984.252; stroke-opacity:1; 
stroke-linecap:round; stroke-linejoin:round;">
<path d="M8466 13554
L8367 13554
" />
<path d="M8466 14538
L8367 14538
" />
<path d="M8466 15522
L8367 15522
" />
<path d="M8466 16507
L8367 16507
" />
<path d="M8466 17491
L8367 17491
" />
</g>
<g >
</g>
<g style="fill:#000000; fill-opacity:0.0; 
stroke:#000000; stroke-width:984.252; stroke-opacity:1; 
stroke-linecap:round; stroke-linejoin:round;">
</g>
<g style="fill:#000000; fill-opacity:0.0; 
stroke:#000000; stroke-width:0; stroke-opacity:1; 
stroke-linecap:round; stroke-linejoin:round;">
</g>
<g style="fill:#000000; fill-opacity:1.0; 
stroke:#000000; stroke-width:0; stroke-opacity:1; 
stroke-linecap:round; stroke-linejoin:round;">
<path style="fill:#000000; fill-opacity:1.0; 
stroke:#000000; stroke-width:0; stroke-opacity:1; 
stroke-linecap:round; stroke-linejoin:round;fill-rule:evenodd;"
d="M 28469.5,13626.8
28484.8,13629
28499.8,13632.8
28514.3,13638
28528.3,13644.6
28541.6,13652.6
28554,13661.8
28565.4,13672.1
28575.8,13683.6
28585,13696
28593,13709.3
28599.6,13723.2
28604.8,13737.8
28608.5,13752.8
28610.8,13768.1
28611.5,13783.5
28611.5,14452.8
28610.8,14468.2
28608.5,14483.5
28604.8,14498.5
28599.6,14513.1
28593,14527
28585,14540.3
28575.8,14552.7
28565.4,14564.2
28554,14574.5
28541.6,14583.7
28528.3,14591.7
28514.3,14598.3
28499.8,14603.5
28484.8,14607.2
28469.5,14609.5
28454.1,14610.3
27784.8,14610.3
27769.3,14609.5
27754.1,14607.2
27739.1,14603.5
27724.5,14598.3
27710.5,14591.7
27697.3,14583.7
27684.9,14574.5
27673.4,14564.2
27663,14552.7
27653.8,14540.3
27645.9,14527
27639.3,14513.1
27634.1,14498.5
27630.3,14483.5
27628.1,14468.2
27627.3,14452.8
27627.3,13783.5
27628.1,13768.1
27630.3,13752.8
27634.1,13737.8
27639.3,13723.2
27645.9,13709.3
27653.8,13696
27663,13683.6
27673.4,13672.1
27684.9,13661.8
27697.3,13652.6
27710.5,13644.6
27724.5,13638
27739.1,13632.8
27754.1,13629
27769.3,13626.8
27784.8,13626
28454.1,13626
Z" /> 
<circle cx="28119.4" cy="15118.1" r="492.126" /> 
<circle cx="28119.4" cy="16118.1" r="492.126" /> 
<circle cx="28119.4" cy="17118.2" r="492.126" /> 
</g>
<g >
</g>
<g style="fill:#000000; fill-opacity:1.0; 
stroke:#000000; stroke-width:0; stroke-opacity:1; 
stroke-linecap:round; stroke-linejoin:round;">
<path style="fill:#000000; fill-opacity:1.0; 
stroke:#000000; stroke-width:0; stroke-opacity:1; 
stroke-linecap:round; stroke-linejoin:round;fill-rule:evenodd;"
d="M 28469.5,9126.78
28484.8,9129.05
28499.8,9132.81
28514.3,9138.01
28528.3,9144.62
28541.6,9152.56
28554,9161.77
28565.4,9172.15
28575.8,9183.6
28585,9196.01
28593,9209.27
28599.6,9223.24
28604.8,9237.79
28608.5,9252.78
28610.8,9268.07
28611.5,9283.5
28611.5,9952.8
28610.8,9968.23
28608.5,9983.52
28604.8,9998.51
28599.6,10013.1
28593,10027
28585,10040.3
28575.8,10052.7
28565.4,10064.2
28554,10074.5
28541.6,10083.7
28528.3,10091.7
28514.3,10098.3
28499.8,10103.5
28484.8,10107.2
28469.5,10109.5
28454.1,10110.3
27784.8,10110.3
27769.3,10109.5
27754.1,10107.2
27739.1,10103.5
27724.5,10098.3
27710.5,10091.7
27697.3,10083.7
27684.9,10074.5
27673.4,10064.2
27663,10052.7
27653.8,10040.3
27645.9,10027
27639.3,10013.1
27634.1,9998.51
27630.3,9983.52
27628.1,9968.23
27627.3,9952.8
27627.3,9283.5
27628.1,9268.07
27630.3,9252.78
27634.1,9237.79
27639.3,9223.24
27645.9,9209.27
27653.8,9196.01
27663,9183.6
27673.4,9172.15
27684.9,9161.77
27697.3,9152.56
27710.5,9144.62
27724.5,9138.01
27739.1,9132.81
27754.1,9129.05
27769.3,9126.78
27784.8,9126.02
28454.1,9126.02
Z" /> 
<circle cx="28119.4" cy="10618.1" r="492.126" /> 
<circle cx="28119.4" cy="11618.1" r="492.126" /> 
<circle cx="28119.4" cy="12618.1" r="492.126" /> 
</g>
<g >
</g>
<g style="fill:#000000; fill-opacity:1.0; 
stroke:#000000; stroke-width:0; stroke-opacity:1; 
stroke-linecap:round; stroke-linejoin:round;">
<circle cx="11859.5" cy="8540.08" r="492.126" /> 
<circle cx="11859.5" cy="9540.08" r="492.126" /> 
<circle cx="11859.5" cy="10540.1" r="492.126" /> 
<circle cx="11859.5" cy="11540.1" r="492.126" /> 
<circle cx="11859.5" cy="12540.1" r="492.126" /> 
<circle cx="11859.5" cy="13540.1" r="492.126" /> 
<circle cx="11859.5" cy="14540.1" r="492.126" /> 
<circle cx="11859.5" cy="15540.1" r="492.126" /> 
<circle cx="11859.5" cy="16540.1" r="492.126" /> 
<circle cx="11859.5" cy="17540.1" r="492.126" /> 
<circle cx="11859.5" cy="18540.1" r="492.126" /> 
<path style="fill:#000000; fill-opacity:1.0; 
stroke:#000000; stroke-width:0; stroke-opacity:1; 
stroke-linecap:round; stroke-linejoin:round;fill-rule:evenodd;"
d="M 12209.5,19048.7
12224.8,19051
12239.8,19054.7
12254.4,19059.9
12268.3,19066.5
12281.6,19074.5
12294,19083.7
12305.5,19094.1
12315.8,19105.5
12325,19117.9
12333,19131.2
12339.6,19145.2
12344.8,19159.7
12348.6,19174.7
12350.8,19190
12351.6,19205.4
12351.6,19874.7
12350.8,19890.2
12348.6,19905.4
12344.8,19920.4
12339.6,19935
12333,19949
12325,19962.2
12315.8,19974.6
12305.5,19986.1
12294,19996.5
12281.6,20005.7
12268.3,20013.6
12254.4,20020.2
12239.8,20025.4
12224.8,20029.2
12209.5,20031.4
12194.1,20032.2
11524.8,20032.2
11509.4,20031.4
11494.1,20029.2
11479.1,20025.4
11464.6,20020.2
11450.6,20013.6
11437.3,20005.7
11424.9,19996.5
11413.5,19986.1
11403.1,19974.6
11393.9,19962.2
11385.9,19949
11379.3,19935
11374.1,19920.4
11370.4,19905.4
11368.1,19890.2
11367.3,19874.7
11367.3,19205.4
11368.1,19190
11370.4,19174.7
11374.1,19159.7
11379.3,19145.2
11385.9,19131.2
11393.9,19117.9
11403.1,19105.5
11413.5,19094.1
11424.9,19083.7
11437.3,19074.5
11450.6,19066.5
11464.6,19059.9
11479.1,19054.7
11494.1,19051
11509.4,19048.7
11524.8,19048
12194.1,19048
Z" /> 
</g>
<g >
</g>
<g style="fill:#000000; fill-opacity:1.0; 
stroke:#000000; stroke-width:0; stroke-opacity:1; 
stroke-linecap:round; stroke-linejoin:round;">
<path style="fill:#000000; fill-opacity:1.0; 
stroke:#000000; stroke-width:0; stroke-opacity:1; 
stroke-linecap:round; stroke-linejoin:round;fill-rule:evenodd;"
d="M 8523.44,4049.22
8538.73,4051.49
8553.72,4055.25
8568.27,4060.45
8582.24,4067.06
8595.5,4075.01
8607.91,4084.21
8619.36,4094.59
8629.74,4106.04
8638.95,4118.45
8646.89,4131.71
8653.5,4145.68
8658.7,4160.23
8662.46,4175.22
8664.73,4190.51
8665.49,4205.95
8665.49,4993.35
8664.73,5008.78
8662.46,5024.07
8658.7,5039.06
8653.5,5053.61
8646.89,5067.58
8638.95,5080.84
8629.74,5093.25
8619.36,5104.7
8607.91,5115.08
8595.5,5124.29
8582.24,5132.23
8568.27,5138.84
8553.72,5144.05
8538.73,5147.8
8523.44,5150.07
8508.01,5150.83
7720.6,5150.83
7705.17,5150.07
7689.88,5147.8
7674.89,5144.05
7660.34,5138.84
7646.37,5132.23
7633.11,5124.29
7620.7,5115.08
7609.25,5104.7
7598.87,5093.25
7589.66,5080.84
7581.72,5067.58
7575.11,5053.61
7569.9,5039.06
7566.15,5024.07
7563.88,5008.78
7563.12,4993.35
7563.12,4205.95
7563.88,4190.51
7566.15,4175.22
7569.9,4160.23
7575.11,4145.68
7581.72,4131.71
7589.66,4118.45
7598.87,4106.04
7609.25,4094.59
7620.7,4084.21
7633.11,4075.01
7646.37,4067.06
7660.34,4060.45
7674.89,4055.25
7689.88,4051.49
7705.17,4049.22
7720.6,4048.46
8508.01,4048.46
Z" /> 
<circle cx="8114.3" cy="7591.77" r="551.181" /> 
</g>
<g style="fill:#000000; fill-opacity:1.0; 
stroke:#000000; stroke-width:39.3701; stroke-opacity:1; 
stroke-linecap:round; stroke-linejoin:round;">
</g>
<g >
</g>
<g >
</g>
<g >
</g>
</g>
<g style="fill:#000000; fill-opacity:1.0; 
stroke:#000000; stroke-width:39.3701; stroke-opacity:1; 
stroke-linecap:round; stroke-linejoin:round;">
<path style="fill:#000000; fill-opacity:1.0; 
stroke:#000000; stroke-width:39.3701; stroke-opacity:1; 
stroke-linecap:round; stroke-linejoin:round;fill-rule:evenodd;"
d="M 28299.6,21073.2
28299.9,21073.9
28299.5,21074.5
28293.2,21077.9
28285.8,21083.9
28279.8,21091.2
28275.4,21099.6
28272.6,21108.7
28271.7,21118.2
28272.6,21127.6
28275.4,21136.7
28279.8,21145.1
28285.8,21152.4
28293.2,21158.4
28299.5,21161.8
28299.9,21162.5
28299.5,21163.1
28298.8,21163.2
28262,21148
28167.6,21129.2
28071.3,21129.2
27976.8,21148
27940,21163.2
27939.2,21163.1
27938.9,21162.4
27939.3,21161.8
27945.7,21158.4
27953,21152.4
27959,21145.1
27963.5,21136.7
27966.2,21127.6
27967.2,21118.2
27966.2,21108.7
27963.5,21099.6
27959,21091.2
27953,21083.9
27945.7,21077.9
27939.3,21074.5
27938.9,21073.8
27939.3,21073.2
27940,21073.1
27976.8,21088.3
28071.3,21107.1
28167.6,21107.1
28262,21088.3
28298.8,21073.1
Z" /> 
<path style="fill:#000000; fill-opacity:1.0; 
stroke:#000000; stroke-width:39.3701; stroke-opacity:1; 
stroke-linecap:round; stroke-linejoin:round;fill-rule:evenodd;"
d="M 28299.6,20073.2
28299.9,20073.9
28299.5,20074.5
28293.2,20077.9
28285.8,20083.9
28279.8,20091.2
28275.4,20099.6
28272.6,20108.7
28271.7,20118.2
28272.6,20127.6
28275.4,20136.7
28279.8,20145.1
28285.8,20152.4
28293.2,20158.4
28299.5,20161.8
28299.9,20162.5
28299.5,20163.1
28298.8,20163.2
28262,20148
28167.6,20129.2
28071.3,20129.2
27976.8,20148
27940,20163.2
27939.2,20163.1
27938.9,20162.4
27939.3,20161.8
27945.7,20158.4
27953,20152.4
27959,20145.1
27963.5,20136.7
27966.2,20127.6
27967.2,20118.2
27966.2,20108.7
27963.5,20099.6
27959,20091.2
27953,20083.9
27945.7,20077.9
27939.3,20074.5
27938.9,20073.8
27939.3,20073.2
27940,20073.1
27976.8,20088.3
28071.3,20107.1
28167.6,20107.1
28262,20088.3
28298.8,20073.1
Z" /> 
<path style="fill:#000000; fill-opacity:1.0; 
stroke:#000000; stroke-width:39.3701; stroke-opacity:1; 
stroke-linecap:round; stroke-linejoin:round;fill-rule:evenodd;"
d="M 28403.4,19109.9
28403.4,19110.7
28402.8,19111.1
28393.2,19112
28384.1,19114.8
28375.8,19119.2
28368.4,19125.2
28362.4,19132.6
28357.9,19141
28355.2,19150
28354.3,19159.5
28355.2,19168.9
28357.9,19178
28362.4,19186.4
28368.4,19193.7
28374,19198.3
28374.2,19199
28373.7,19199.6
28373,19199.5
28351,19184.8
28262,19148
28167.6,19129.2
28071.3,19129.2
27976.8,19148
27887.8,19184.8
27865.8,19199.5
27865,19199.6
27864.6,19198.9
27864.9,19198.3
27870.4,19193.7
27876.4,19186.4
27880.9,19178
27883.7,19168.9
27884.6,19159.5
27883.7,19150
27880.9,19141
27876.4,19132.6
27870.4,19125.2
27863.1,19119.2
27854.7,19114.8
27845.6,19112
27836.1,19111.1
27835.5,19110.6
27835.5,19109.8
27836.2,19109.5
28402.7,19109.5
Z" /> 
<path style="fill:#000000; fill-opacity:1.0; 
stroke:#000000; stroke-width:39.3701; stroke-opacity:1; 
stroke-linecap:round; stroke-linejoin:round;fill-rule:evenodd;"
d="M 11605.9,18958.7
11627.8,18973.4
11716.8,19010.3
11811.3,19029
11907.6,19029
12002.1,19010.3
12091.1,18973.4
12113.1,18958.7
12113.9,18958.7
12114.3,18959.3
12114,18960
12108.5,18964.5
12102.5,18971.8
12098,18980.2
12095.2,18989.3
12094.3,18998.7
12095.2,19008.2
12098,19017.3
12102.5,19025.6
12108.5,19033
12115.8,19039
12124.2,19043.5
12133.3,19046.2
12142.8,19047.2
12143.4,19047.6
12143.4,19048.4
12142.7,19048.7
11576.2,19048.7
11575.5,19048.3
11575.5,19047.6
11576.1,19047.2
11585.7,19046.2
11594.7,19043.5
11603.1,19039
11610.4,19033
11616.5,19025.6
11620.9,19017.3
11623.7,19008.2
11624.6,18998.7
11623.7,18989.3
11620.9,18980.2
11616.5,18971.8
11610.4,18964.5
11604.9,18960
11604.6,18959.2
11605.1,18958.6
Z" /> 
<path style="fill:#000000; fill-opacity:1.0; 
stroke:#000000; stroke-width:39.3701; stroke-opacity:1; 
stroke-linecap:round; stroke-linejoin:round;fill-rule:evenodd;"
d="M 12039.6,17995.1
12039.9,17995.9
12039.5,17996.4
12033.2,17999.8
12025.9,18005.8
12019.9,18013.2
12015.4,18021.5
12012.6,18030.6
12011.7,18040.1
12012.6,18049.5
12015.4,18058.6
12019.9,18067
12025.9,18074.3
12033.2,18080.3
12039.5,18083.7
12040,18084.4
12039.6,18085.1
12038.9,18085.1
12002.1,18069.9
11907.6,18051.1
11811.3,18051.1
11716.8,18069.9
11680.1,18085.1
11679.3,18085
11679,18084.3
11679.4,18083.7
11685.7,18080.3
11693,18074.3
11699.1,18067
11703.5,18058.6
11706.3,18049.5
11707.2,18040.1
11706.3,18030.6
11703.5,18021.5
11699.1,18013.2
11693,18005.8
11685.7,17999.8
11679.4,17996.4
11679,17995.8
11679.3,17995.1
11680.1,17995
11716.8,18010.3
11811.3,18029
11907.6,18029
12002.1,18010.3
12038.9,17995
Z" /> 
<path style="fill:#000000; fill-opacity:1.0; 
stroke:#000000; stroke-width:39.3701; stroke-opacity:1; 
stroke-linecap:round; stroke-linejoin:round;fill-rule:evenodd;"
d="M 12039.6,16995.1
12039.9,16995.9
12039.5,16996.4
12033.2,16999.8
12025.9,17005.8
12019.9,17013.2
12015.4,17021.5
12012.6,17030.6
12011.7,17040.1
12012.6,17049.5
12015.4,17058.6
12019.9,17067
12025.9,17074.3
12033.2,17080.3
12039.5,17083.7
12040,17084.4
12039.6,17085.1
12038.9,17085.1
12002.1,17069.9
11907.6,17051.1
11811.3,17051.1
11716.8,17069.9
11680.1,17085.1
11679.3,17085
11679,17084.3
11679.4,17083.7
11685.7,17080.3
11693,17074.3
11699.1,17067
11703.5,17058.6
11706.3,17049.5
11707.2,17040.1
11706.3,17030.6
11703.5,17021.5
11699.1,17013.2
11693,17005.8
11685.7,16999.8
11679.4,16996.4
11679,16995.8
11679.3,16995.1
11680.1,16995
11716.8,17010.3
11811.3,17029
11907.6,17029
12002.1,17010.3
12038.9,16995
Z" /> 
<path style="fill:#000000; fill-opacity:1.0; 
stroke:#000000; stroke-width:39.3701; stroke-opacity:1; 
stroke-linecap:round; stroke-linejoin:round;fill-rule:evenodd;"
d="M 8663.62,16956.5
8663.99,16957.2
8663.64,16957.8
8657.69,16961.8
8650.98,16968.5
8645.71,16976.4
8642.08,16985.2
8640.22,16994.5
8640.22,17004
8642.07,17013.3
8645.71,17022.1
8650.98,17030
8657.69,17036.7
8663.64,17040.7
8663.99,17041.4
8663.55,17042
8662.83,17042
8654.3,17037.4
8562.13,17009.5
8466.2,17000
8465.56,16999.6
8465.63,16998.8
8466.2,16998.5
8562.13,16989
8654.3,16961.1
8662.83,16956.5
Z" /> 
<path style="fill:#000000; fill-opacity:1.0; 
stroke:#000000; stroke-width:39.3701; stroke-opacity:1; 
stroke-linecap:round; stroke-linejoin:round;fill-rule:evenodd;"
d="M 8171.29,16956.5
8179.82,16961.1
8271.99,16989
8367.92,16998.5
8368.56,16998.9
8368.49,16999.7
8367.92,17000
8271.99,17009.5
8179.82,17037.4
8171.29,17042
8170.5,17042
8170.13,17041.3
8170.48,17040.7
8176.43,17036.7
8183.14,17030
8188.41,17022.1
8192.05,17013.3
8193.9,17004
8193.9,16994.5
8192.05,16985.2
8188.41,16976.4
8183.14,16968.5
8176.43,16961.8
8170.48,16957.8
8170.13,16957.1
8170.57,16956.5
Z" /> 
<path style="fill:#000000; fill-opacity:1.0; 
stroke:#000000; stroke-width:39.3701; stroke-opacity:1; 
stroke-linecap:round; stroke-linejoin:round;fill-rule:evenodd;"
d="M 28299.6,16573.2
28299.9,16573.9
28299.5,16574.5
28293.2,16577.9
28285.8,16583.9
28279.8,16591.2
28275.4,16599.6
28272.6,16608.7
28271.7,16618.2
28272.6,16627.6
28275.4,16636.7
28279.8,16645.1
28285.8,16652.4
28293.2,16658.4
28299.5,16661.8
28299.9,16662.5
28299.5,16663.1
28298.8,16663.2
28262,16648
28167.6,16629.2
28071.3,16629.2
27976.8,16648
27940,16663.2
27939.2,16663.1
27938.9,16662.4
27939.3,16661.8
27945.7,16658.4
27953,16652.4
27959,16645.1
27963.5,16636.7
27966.2,16627.6
27967.2,16618.2
27966.2,16608.7
27963.5,16599.6
27959,16591.2
27953,16583.9
27945.7,16577.9
27939.3,16574.5
27938.9,16573.8
27939.3,16573.2
27940,16573.1
27976.8,16588.3
28071.3,16607.1
28167.6,16607.1
28262,16588.3
28298.8,16573.1
Z" /> 
<path style="fill:#000000; fill-opacity:1.0; 
stroke:#000000; stroke-width:39.3701; stroke-opacity:1; 
stroke-linecap:round; stroke-linejoin:round;fill-rule:evenodd;"
d="M 12039.6,15995.1
12039.9,15995.9
12039.5,15996.4
12033.2,15999.8
12025.9,16005.8
12019.9,16013.2
12015.4,16021.5
12012.6,16030.6
12011.7,16040.1
12012.6,16049.5
12015.4,16058.6
12019.9,16067
12025.9,16074.3
12033.2,16080.3
12039.5,16083.7
12040,16084.4
12039.6,16085.1
12038.9,16085.1
12002.1,16069.9
11907.6,16051.1
11811.3,16051.1
11716.8,16069.9
11680.1,16085.1
11679.3,16085
11679,16084.3
11679.4,16083.7
11685.7,16080.3
11693,16074.3
11699.1,16067
11703.5,16058.6
11706.3,16049.5
11707.2,16040.1
11706.3,16030.6
11703.5,16021.5
11699.1,16013.2
11693,16005.8
11685.7,15999.8
11679.4,15996.4
11679,15995.8
11679.3,15995.1
11680.1,15995
11716.8,16010.3
11811.3,16029
11907.6,16029
12002.1,16010.3
12038.9,15995
Z" /> 
<path style="fill:#000000; fill-opacity:1.0; 
stroke:#000000; stroke-width:39.3701; stroke-opacity:1; 
stroke-linecap:round; stroke-linejoin:round;fill-rule:evenodd;"
d="M 18039.6,15987.3
18039.9,15988
18039.5,15988.6
18033.2,15991.9
18025.9,15998
18019.9,16005.3
18015.4,16013.7
18012.6,16022.8
18011.7,16032.2
18012.6,16041.7
18015.4,16050.7
18019.9,16059.1
18025.9,16066.4
18033.2,16072.5
18039.5,16075.8
18040,16076.5
18039.6,16077.2
18038.9,16077.3
18002.1,16062
17907.6,16043.2
17811.3,16043.2
17716.8,16062
17680.1,16077.3
17679.3,16077.2
17679,16076.4
17679.4,16075.8
17685.7,16072.5
17693,16066.4
17699.1,16059.1
17703.5,16050.7
17706.3,16041.7
17707.2,16032.2
17706.3,16022.8
17703.5,16013.7
17699.1,16005.3
17693,15998
17685.7,15991.9
17679.4,15988.6
17679,15987.9
17679.3,15987.2
17680.1,15987.2
17716.8,16002.4
17811.3,16021.2
17907.6,16021.2
18002.1,16002.4
18038.9,15987.2
Z" /> 
<path style="fill:#000000; fill-opacity:1.0; 
stroke:#000000; stroke-width:39.3701; stroke-opacity:1; 
stroke-linecap:round; stroke-linejoin:round;fill-rule:evenodd;"
d="M 8663.62,15972.3
8663.99,15973
8663.64,15973.6
8657.69,15977.6
8650.98,15984.3
8645.71,15992.2
8642.08,16000.9
8640.22,16010.3
8640.22,16019.7
8642.07,16029.1
8645.71,16037.8
8650.98,16045.7
8657.69,16052.4
8663.64,16056.4
8663.99,16057.1
8663.55,16057.8
8662.83,16057.8
8654.3,16053.2
8562.13,16025.2
8466.2,16015.8
8465.56,16015.3
8465.63,16014.5
8466.2,16014.2
8562.13,16004.8
8654.3,15976.8
8662.83,15972.2
Z" /> 
<path style="fill:#000000; fill-opacity:1.0; 
stroke:#000000; stroke-width:39.3701; stroke-opacity:1; 
stroke-linecap:round; stroke-linejoin:round;fill-rule:evenodd;"
d="M 8171.29,15972.2
8179.82,15976.8
8271.99,16004.8
8367.92,16014.2
8368.56,16014.7
8368.49,16015.5
8367.92,16015.8
8271.99,16025.2
8179.82,16053.2
8171.29,16057.8
8170.5,16057.7
8170.13,16057
8170.48,16056.4
8176.43,16052.4
8183.14,16045.7
8188.41,16037.8
8192.05,16029.1
8193.9,16019.7
8193.9,16010.3
8192.05,16000.9
8188.41,15992.2
8183.14,15984.3
8176.43,15977.6
8170.48,15973.6
8170.13,15972.9
8170.57,15972.2
Z" /> 
<path style="fill:#000000; fill-opacity:1.0; 
stroke:#000000; stroke-width:39.3701; stroke-opacity:1; 
stroke-linecap:round; stroke-linejoin:round;fill-rule:evenodd;"
d="M 28299.6,15573.2
28299.9,15573.9
28299.5,15574.5
28293.2,15577.9
28285.8,15583.9
28279.8,15591.2
28275.4,15599.6
28272.6,15608.7
28271.7,15618.1
28272.6,15627.6
28275.4,15636.7
28279.8,15645.1
28285.8,15652.4
28293.2,15658.4
28299.5,15661.8
28299.9,15662.5
28299.5,15663.1
28298.8,15663.2
28262,15648
28167.6,15629.2
28071.3,15629.2
27976.8,15648
27940,15663.2
27939.2,15663.1
27938.9,15662.4
27939.3,15661.8
27945.7,15658.4
27953,15652.4
27959,15645.1
27963.5,15636.7
27966.2,15627.6
27967.2,15618.1
27966.2,15608.7
27963.5,15599.6
27959,15591.2
27953,15583.9
27945.7,15577.9
27939.3,15574.5
27938.9,15573.8
27939.3,15573.2
27940,15573.1
27976.8,15588.3
28071.3,15607.1
28167.6,15607.1
28262,15588.3
28298.8,15573.1
Z" /> 
<path style="fill:#000000; fill-opacity:1.0; 
stroke:#000000; stroke-width:39.3701; stroke-opacity:1; 
stroke-linecap:round; stroke-linejoin:round;fill-rule:evenodd;"
d="M 12039.6,14995.1
12039.9,14995.9
12039.5,14996.4
12033.2,14999.8
12025.9,15005.8
12019.9,15013.2
12015.4,15021.5
12012.6,15030.6
12011.7,15040.1
12012.6,15049.5
12015.4,15058.6
12019.9,15067
12025.9,15074.3
12033.2,15080.3
12039.5,15083.7
12040,15084.4
12039.6,15085.1
12038.9,15085.1
12002.1,15069.9
11907.6,15051.1
11811.3,15051.1
11716.8,15069.9
11680.1,15085.1
11679.3,15085
11679,15084.3
11679.4,15083.7
11685.7,15080.3
11693,15074.3
11699.1,15067
11703.5,15058.6
11706.3,15049.5
11707.2,15040.1
11706.3,15030.6
11703.5,15021.5
11699.1,15013.2
11693,15005.8
11685.7,14999.8
11679.4,14996.4
11679,14995.8
11679.3,14995.1
11680.1,14995
11716.8,15010.3
11811.3,15029
11907.6,15029
12002.1,15010.3
12038.9,14995
Z" /> 
<path style="fill:#000000; fill-opacity:1.0; 
stroke:#000000; stroke-width:39.3701; stroke-opacity:1; 
stroke-linecap:round; stroke-linejoin:round;fill-rule:evenodd;"
d="M 18039.6,14987.3
18039.9,14988
18039.5,14988.6
18033.2,14991.9
18025.9,14998
18019.9,15005.3
18015.4,15013.7
18012.6,15022.8
18011.7,15032.2
18012.6,15041.7
18015.4,15050.7
18019.9,15059.1
18025.9,15066.4
18033.2,15072.5
18039.5,15075.8
18040,15076.5
18039.6,15077.2
18038.9,15077.3
18002.1,15062
17907.6,15043.2
17811.3,15043.2
17716.8,15062
17680.1,15077.3
17679.3,15077.2
17679,15076.4
17679.4,15075.8
17685.7,15072.5
17693,15066.4
17699.1,15059.1
17703.5,15050.7
17706.3,15041.7
17707.2,15032.2
17706.3,15022.8
17703.5,15013.7
17699.1,15005.3
17693,14998
17685.7,14991.9
17679.4,14988.6
17679,14987.9
17679.3,14987.2
17680.1,14987.2
17716.8,15002.4
17811.3,15021.2
17907.6,15021.2
18002.1,15002.4
18038.9,14987.2
Z" /> 
<path style="fill:#000000; fill-opacity:1.0; 
stroke:#000000; stroke-width:39.3701; stroke-opacity:1; 
stroke-linecap:round; stroke-linejoin:round;fill-rule:evenodd;"
d="M 8663.62,14988
8663.99,14988.7
8663.64,14989.3
8657.69,14993.3
8650.98,15000
8645.71,15007.9
8642.08,15016.7
8640.22,15026
8640.22,15035.5
8642.07,15044.8
8645.71,15053.6
8650.98,15061.5
8657.69,15068.2
8663.64,15072.2
8663.99,15072.9
8663.55,15073.5
8662.83,15073.5
8654.3,15068.9
8562.13,15041
8466.2,15031.5
8465.56,15031.1
8465.63,15030.3
8466.2,15030
8562.13,15020.5
8654.3,14992.6
8662.83,14988
Z" /> 
<path style="fill:#000000; fill-opacity:1.0; 
stroke:#000000; stroke-width:39.3701; stroke-opacity:1; 
stroke-linecap:round; stroke-linejoin:round;fill-rule:evenodd;"
d="M 8171.29,14988
8179.82,14992.6
8271.99,15020.5
8367.92,15030
8368.56,15030.4
8368.49,15031.2
8367.92,15031.5
8271.99,15041
8179.82,15068.9
8171.29,15073.5
8170.5,15073.5
8170.13,15072.8
8170.48,15072.2
8176.43,15068.2
8183.14,15061.5
8188.41,15053.6
8192.05,15044.8
8193.9,15035.5
8193.9,15026
8192.05,15016.7
8188.41,15007.9
8183.14,15000
8176.43,14993.3
8170.48,14989.3
8170.13,14988.6
8170.57,14988
Z" /> 
<path style="fill:#000000; fill-opacity:1.0; 
stroke:#000000; stroke-width:39.3701; stroke-opacity:1; 
stroke-linecap:round; stroke-linejoin:round;fill-rule:evenodd;"
d="M 28403.4,14609.9
28403.4,14610.7
28402.8,14611.1
28393.2,14612
28384.1,14614.8
28375.8,14619.2
28368.4,14625.2
28362.4,14632.6
28357.9,14641
28355.2,14650
28354.3,14659.5
28355.2,14668.9
28357.9,14678
28362.4,14686.4
28368.4,14693.7
28374,14698.3
28374.2,14699
28373.7,14699.6
28373,14699.5
28351,14684.8
28262,14648
28167.6,14629.2
28071.3,14629.2
27976.8,14648
27887.8,14684.8
27865.8,14699.5
27865,14699.6
27864.6,14698.9
27864.9,14698.3
27870.4,14693.7
27876.4,14686.4
27880.9,14678
27883.7,14668.9
27884.6,14659.5
27883.7,14650
27880.9,14641
27876.4,14632.6
27870.4,14625.2
27863.1,14619.2
27854.7,14614.8
27845.6,14612
27836.1,14611.1
27835.5,14610.6
27835.5,14609.8
27836.2,14609.5
28402.7,14609.5
Z" /> 
<path style="fill:#000000; fill-opacity:1.0; 
stroke:#000000; stroke-width:39.3701; stroke-opacity:1; 
stroke-linecap:round; stroke-linejoin:round;fill-rule:evenodd;"
d="M 8663.62,14003.8
8663.99,14004.5
8663.64,14005.1
8657.69,14009.1
8650.98,14015.8
8645.71,14023.7
8642.08,14032.4
8640.22,14041.8
8640.22,14051.2
8642.07,14060.6
8645.71,14069.3
8650.98,14077.2
8657.69,14083.9
8663.64,14087.9
8663.99,14088.6
8663.55,14089.3
8662.83,14089.2
8654.3,14084.7
8562.13,14056.7
8466.2,14047.3
8465.56,14046.8
8465.63,14046
8466.2,14045.7
8562.13,14036.3
8654.3,14008.3
8662.83,14003.7
Z" /> 
<path style="fill:#000000; fill-opacity:1.0; 
stroke:#000000; stroke-width:39.3701; stroke-opacity:1; 
stroke-linecap:round; stroke-linejoin:round;fill-rule:evenodd;"
d="M 8171.29,14003.7
8179.82,14008.3
8271.99,14036.3
8367.92,14045.7
8368.56,14046.2
8368.49,14047
8367.92,14047.3
8271.99,14056.7
8179.82,14084.7
8171.29,14089.2
8170.5,14089.2
8170.13,14088.5
8170.48,14087.9
8176.43,14083.9
8183.14,14077.2
8188.41,14069.3
8192.05,14060.6
8193.9,14051.2
8193.9,14041.8
8192.05,14032.4
8188.41,14023.7
8183.14,14015.8
8176.43,14009.1
8170.48,14005.1
8170.13,14004.4
8170.57,14003.7
Z" /> 
<path style="fill:#000000; fill-opacity:1.0; 
stroke:#000000; stroke-width:39.3701; stroke-opacity:1; 
stroke-linecap:round; stroke-linejoin:round;fill-rule:evenodd;"
d="M 12039.6,13995.1
12039.9,13995.9
12039.5,13996.4
12033.2,13999.8
12025.9,14005.8
12019.9,14013.2
12015.4,14021.5
12012.6,14030.6
12011.7,14040.1
12012.6,14049.5
12015.4,14058.6
12019.9,14067
12025.9,14074.3
12033.2,14080.3
12039.5,14083.7
12040,14084.4
12039.6,14085.1
12038.9,14085.1
12002.1,14069.9
11907.6,14051.1
11811.3,14051.1
11716.8,14069.9
11680.1,14085.1
11679.3,14085
11679,14084.3
11679.4,14083.7
11685.7,14080.3
11693,14074.3
11699.1,14067
11703.5,14058.6
11706.3,14049.5
11707.2,14040.1
11706.3,14030.6
11703.5,14021.5
11699.1,14013.2
11693,14005.8
11685.7,13999.8
11679.4,13996.4
11679,13995.8
11679.3,13995.1
11680.1,13995
11716.8,14010.3
11811.3,14029
11907.6,14029
12002.1,14010.3
12038.9,13995
Z" /> 
<path style="fill:#000000; fill-opacity:1.0; 
stroke:#000000; stroke-width:39.3701; stroke-opacity:1; 
stroke-linecap:round; stroke-linejoin:round;fill-rule:evenodd;"
d="M 18039.6,13987.3
18039.9,13988
18039.5,13988.6
18033.2,13991.9
18025.9,13998
18019.9,14005.3
18015.4,14013.7
18012.6,14022.8
18011.7,14032.2
18012.6,14041.7
18015.4,14050.7
18019.9,14059.1
18025.9,14066.4
18033.2,14072.5
18039.5,14075.8
18040,14076.5
18039.6,14077.2
18038.9,14077.3
18002.1,14062
17907.6,14043.2
17811.3,14043.2
17716.8,14062
17680.1,14077.3
17679.3,14077.2
17679,14076.4
17679.4,14075.8
17685.7,14072.5
17693,14066.4
17699.1,14059.1
17703.5,14050.7
17706.3,14041.7
17707.2,14032.2
17706.3,14022.8
17703.5,14013.7
17699.1,14005.3
17693,13998
17685.7,13991.9
17679.4,13988.6
17679,13987.9
17679.3,13987.2
17680.1,13987.2
17716.8,14002.4
17811.3,14021.2
17907.6,14021.2
18002.1,14002.4
18038.9,13987.2
Z" /> 
<path style="fill:#000000; fill-opacity:1.0; 
stroke:#000000; stroke-width:39.3701; stroke-opacity:1; 
stroke-linecap:round; stroke-linejoin:round;fill-rule:evenodd;"
d="M 8776.47,13061.9
8776.47,13062.6
8775.87,13063
8766.34,13064
8757.26,13066.7
8748.89,13071.2
8741.55,13077.2
8735.53,13084.6
8731.05,13092.9
8728.3,13102
8727.37,13111.5
8728.3,13120.9
8731.05,13130
8735.52,13138.3
8744.07,13147.8
8744.23,13148.5
8743.65,13149.1
8742.99,13148.9
8739.24,13145.8
8654.3,13100.4
8562.13,13072.5
8466.2,13063
8465.56,13062.6
8465.63,13061.8
8466.27,13061.5
8775.79,13061.5
Z" /> 
<path style="fill:#000000; fill-opacity:1.0; 
stroke:#000000; stroke-width:39.3701; stroke-opacity:1; 
stroke-linecap:round; stroke-linejoin:round;fill-rule:evenodd;"
d="M 8368.53,13061.9
8368.53,13062.6
8367.92,13063
8271.99,13072.5
8179.82,13100.4
8094.88,13145.8
8091.76,13148.4
8090.98,13148.5
8090.48,13147.9
8090.7,13147.2
8095.76,13142.2
8101.04,13134.3
8104.67,13125.5
8106.52,13116.2
8106.52,13106.7
8104.67,13097.4
8101.04,13088.6
8095.76,13080.7
8089.05,13074
8081.16,13068.8
8072.41,13065.1
8058.22,13063
8057.6,13062.5
8057.71,13061.8
8058.33,13061.5
8367.85,13061.5
Z" /> 
<path style="fill:#000000; fill-opacity:1.0; 
stroke:#000000; stroke-width:39.3701; stroke-opacity:1; 
stroke-linecap:round; stroke-linejoin:round;fill-rule:evenodd;"
d="M 12039.6,12995.1
12039.9,12995.9
12039.5,12996.4
12033.2,12999.8
12025.9,13005.8
12019.9,13013.2
12015.4,13021.5
12012.6,13030.6
12011.7,13040.1
12012.6,13049.5
12015.4,13058.6
12019.9,13067
12025.9,13074.3
12033.2,13080.3
12039.5,13083.7
12040,13084.4
12039.6,13085.1
12038.9,13085.1
12002.1,13069.9
11907.6,13051.1
11811.3,13051.1
11716.8,13069.9
11680.1,13085.1
11679.3,13085
11679,13084.3
11679.4,13083.7
11685.7,13080.3
11693,13074.3
11699.1,13067
11703.5,13058.6
11706.3,13049.5
11707.2,13040.1
11706.3,13030.6
11703.5,13021.5
11699.1,13013.2
11693,13005.8
11685.7,12999.8
11679.4,12996.4
11679,12995.8
11679.3,12995.1
11680.1,12995
11716.8,13010.3
11811.3,13029
11907.6,13029
12002.1,13010.3
12038.9,12995
Z" /> 
<path style="fill:#000000; fill-opacity:1.0; 
stroke:#000000; stroke-width:39.3701; stroke-opacity:1; 
stroke-linecap:round; stroke-linejoin:round;fill-rule:evenodd;"
d="M 18039.6,12987.3
18039.9,12988
18039.5,12988.6
18033.2,12991.9
18025.9,12998
18019.9,13005.3
18015.4,13013.7
18012.6,13022.8
18011.7,13032.2
18012.6,13041.7
18015.4,13050.7
18019.9,13059.1
18025.9,13066.4
18033.2,13072.5
18039.5,13075.8
18040,13076.5
18039.6,13077.2
18038.9,13077.3
18002.1,13062
17907.6,13043.2
17811.3,13043.2
17716.8,13062
17680.1,13077.3
17679.3,13077.2
17679,13076.4
17679.4,13075.8
17685.7,13072.5
17693,13066.4
17699.1,13059.1
17703.5,13050.7
17706.3,13041.7
17707.2,13032.2
17706.3,13022.8
17703.5,13013.7
17699.1,13005.3
17693,12998
17685.7,12991.9
17679.4,12988.6
17679,12987.9
17679.3,12987.2
17680.1,12987.2
17716.8,13002.4
17811.3,13021.2
17907.6,13021.2
18002.1,13002.4
18038.9,12987.2
Z" /> 
<path style="fill:#000000; fill-opacity:1.0; 
stroke:#000000; stroke-width:39.3701; stroke-opacity:1; 
stroke-linecap:round; stroke-linejoin:round;fill-rule:evenodd;"
d="M 7876.51,12917.4
7879.28,12945.6
7887.47,12972.6
7900.77,12997.5
7918.68,13019.3
7940.49,13037.2
7965.38,13050.5
7992.38,13058.7
8020.54,13061.5
8021.18,13061.9
8021.1,13062.7
8020.46,13063
7988.14,13063
7988.07,13063
7964.24,13060.7
7964.08,13060.7
7943.49,13054.4
7943.35,13054.3
7924.37,13044.2
7924.24,13044.1
7907.61,13030.5
7907.5,13030.4
7893.85,13013.7
7893.76,13013.6
7883.62,12994.6
7883.56,12994.5
7877.32,12973.9
7877.29,12973.7
7874.94,12949.9
7874.93,12949.8
7874.93,12917.5
7875.33,12916.8
7876.12,12916.8
Z" /> 
<path style="fill:#000000; fill-opacity:1.0; 
stroke:#000000; stroke-width:39.3701; stroke-opacity:1; 
stroke-linecap:round; stroke-linejoin:round;fill-rule:evenodd;"
d="M 8958.86,12916.9
8959.19,12917.5
8959.19,12949.8
8959.18,12949.9
8956.84,12973.7
8956.81,12973.9
8950.56,12994.5
8950.5,12994.6
8940.36,13013.6
8940.27,13013.7
8926.62,13030.4
8926.51,13030.5
8909.88,13044.1
8909.75,13044.2
8890.77,13054.3
8890.63,13054.4
8870.04,13060.7
8869.89,13060.7
8846.05,13063
8845.98,13063
8813.66,13063
8812.97,13062.6
8812.97,13061.9
8813.58,13061.5
8841.74,13058.7
8868.74,13050.5
8893.63,13037.2
8915.45,13019.3
8933.35,12997.5
8946.65,12972.6
8954.84,12945.6
8957.62,12917.4
8958.07,12916.8
Z" /> 
<path style="fill:#000000; fill-opacity:1.0; 
stroke:#000000; stroke-width:39.3701; stroke-opacity:1; 
stroke-linecap:round; stroke-linejoin:round;fill-rule:evenodd;"
d="M 8021.15,12077.6
8021.15,12078.4
8020.54,12078.8
7992.38,12081.5
7965.38,12089.7
7940.49,12103
7918.68,12120.9
7900.77,12142.8
7887.47,12167.6
7879.28,12194.7
7876.51,12222.8
7876.05,12223.5
7875.26,12223.4
7874.93,12222.7
7874.93,12190.4
7874.94,12190.3
7877.29,12166.5
7877.32,12166.4
7883.56,12145.8
7883.62,12145.6
7893.76,12126.6
7893.85,12126.5
7907.5,12109.9
7907.61,12109.8
7924.24,12096.1
7924.37,12096
7943.35,12085.9
7943.49,12085.8
7964.08,12079.6
7964.24,12079.6
7988.07,12077.2
7988.14,12077.2
8020.46,12077.2
Z" /> 
<path style="fill:#000000; fill-opacity:1.0; 
stroke:#000000; stroke-width:39.3701; stroke-opacity:1; 
stroke-linecap:round; stroke-linejoin:round;fill-rule:evenodd;"
d="M 8846.05,12077.2
8869.89,12079.6
8870.04,12079.6
8890.63,12085.8
8890.77,12085.9
8909.75,12096
8909.88,12096.1
8926.51,12109.8
8926.62,12109.9
8940.27,12126.5
8940.36,12126.6
8950.5,12145.6
8950.56,12145.8
8956.81,12166.4
8956.84,12166.5
8959.18,12190.3
8959.19,12190.4
8959.19,12222.7
8958.79,12223.4
8958.01,12223.4
8957.62,12222.8
8954.84,12194.7
8946.65,12167.6
8933.35,12142.8
8915.45,12120.9
8893.63,12103
8868.74,12089.7
8841.74,12081.5
8813.58,12078.8
8812.94,12078.3
8813.02,12077.5
8813.66,12077.2
8845.98,12077.2
Z" /> 
<path style="fill:#000000; fill-opacity:1.0; 
stroke:#000000; stroke-width:39.3701; stroke-opacity:1; 
stroke-linecap:round; stroke-linejoin:round;fill-rule:evenodd;"
d="M 28299.6,12073.2
28299.9,12073.9
28299.5,12074.5
28293.2,12077.9
28285.8,12083.9
28279.8,12091.2
28275.4,12099.6
28272.6,12108.7
28271.7,12118.1
28272.6,12127.6
28275.4,12136.7
28279.8,12145.1
28285.8,12152.4
28293.2,12158.4
28299.5,12161.8
28299.9,12162.5
28299.5,12163.1
28298.8,12163.2
28262,12148
28167.6,12129.2
28071.3,12129.2
27976.8,12148
27940,12163.2
27939.2,12163.1
27938.9,12162.4
27939.3,12161.8
27945.7,12158.4
27953,12152.4
27959,12145.1
27963.5,12136.7
27966.2,12127.6
27967.2,12118.1
27966.2,12108.7
27963.5,12099.6
27959,12091.2
27953,12083.9
27945.7,12077.9
27939.3,12074.5
27938.9,12073.8
27939.3,12073.2
27940,12073.1
27976.8,12088.3
28071.3,12107.1
28167.6,12107.1
28262,12088.3
28298.8,12073.1
Z" /> 
<path style="fill:#000000; fill-opacity:1.0; 
stroke:#000000; stroke-width:39.3701; stroke-opacity:1; 
stroke-linecap:round; stroke-linejoin:round;fill-rule:evenodd;"
d="M 12039.6,11995.1
12039.9,11995.9
12039.5,11996.4
12033.2,11999.8
12025.9,12005.8
12019.9,12013.2
12015.4,12021.5
12012.6,12030.6
12011.7,12040.1
12012.6,12049.5
12015.4,12058.6
12019.9,12067
12025.9,12074.3
12033.2,12080.3
12039.5,12083.7
12040,12084.4
12039.6,12085.1
12038.9,12085.1
12002.1,12069.9
11907.6,12051.1
11811.3,12051.1
11716.8,12069.9
11680.1,12085.1
11679.3,12085
11679,12084.3
11679.4,12083.7
11685.7,12080.3
11693,12074.3
11699.1,12067
11703.5,12058.6
11706.3,12049.5
11707.2,12040.1
11706.3,12030.6
11703.5,12021.5
11699.1,12013.2
11693,12005.8
11685.7,11999.8
11679.4,11996.4
11679,11995.8
11679.3,11995.1
11680.1,11995
11716.8,12010.3
11811.3,12029
11907.6,12029
12002.1,12010.3
12038.9,11995
Z" /> 
<path style="fill:#000000; fill-opacity:1.0; 
stroke:#000000; stroke-width:39.3701; stroke-opacity:1; 
stroke-linecap:round; stroke-linejoin:round;fill-rule:evenodd;"
d="M 18039.6,11987.3
18039.9,11988
18039.5,11988.6
18033.2,11991.9
18025.9,11998
18019.9,12005.3
18015.4,12013.7
18012.6,12022.8
18011.7,12032.2
18012.6,12041.7
18015.4,12050.7
18019.9,12059.1
18025.9,12066.4
18033.2,12072.5
18039.5,12075.8
18040,12076.5
18039.6,12077.2
18038.9,12077.3
18002.1,12062
17907.6,12043.2
17811.3,12043.2
17716.8,12062
17680.1,12077.3
17679.3,12077.2
17679,12076.4
17679.4,12075.8
17685.7,12072.5
17693,12066.4
17699.1,12059.1
17703.5,12050.7
17706.3,12041.7
17707.2,12032.2
17706.3,12022.8
17703.5,12013.7
17699.1,12005.3
17693,11998
17685.7,11991.9
17679.4,11988.6
17679,11987.9
17679.3,11987.2
17680.1,11987.2
17716.8,12002.4
17811.3,12021.2
17907.6,12021.2
18002.1,12002.4
18038.9,11987.2
Z" /> 
<path style="fill:#000000; fill-opacity:1.0; 
stroke:#000000; stroke-width:39.3701; stroke-opacity:1; 
stroke-linecap:round; stroke-linejoin:round;fill-rule:evenodd;"
d="M 28299.6,11073.2
28299.9,11073.9
28299.5,11074.5
28293.2,11077.9
28285.8,11083.9
28279.8,11091.2
28275.4,11099.6
28272.6,11108.7
28271.7,11118.1
28272.6,11127.6
28275.4,11136.7
28279.8,11145.1
28285.8,11152.4
28293.2,11158.4
28299.5,11161.8
28299.9,11162.5
28299.5,11163.1
28298.8,11163.2
28262,11148
28167.6,11129.2
28071.3,11129.2
27976.8,11148
27940,11163.2
27939.2,11163.1
27938.9,11162.4
27939.3,11161.8
27945.7,11158.4
27953,11152.4
27959,11145.1
27963.5,11136.7
27966.2,11127.6
27967.2,11118.1
27966.2,11108.7
27963.5,11099.6
27959,11091.2
27953,11083.9
27945.7,11077.9
27939.3,11074.5
27938.9,11073.8
27939.3,11073.2
27940,11073.1
27976.8,11088.3
28071.3,11107.1
28167.6,11107.1
28262,11088.3
28298.8,11073.1
Z" /> 
<path style="fill:#000000; fill-opacity:1.0; 
stroke:#000000; stroke-width:39.3701; stroke-opacity:1; 
stroke-linecap:round; stroke-linejoin:round;fill-rule:evenodd;"
d="M 12039.6,10995.1
12039.9,10995.9
12039.5,10996.4
12033.2,10999.8
12025.9,11005.8
12019.9,11013.2
12015.4,11021.5
12012.6,11030.6
12011.7,11040.1
12012.6,11049.5
12015.4,11058.6
12019.9,11067
12025.9,11074.3
12033.2,11080.3
12039.5,11083.7
12040,11084.4
12039.6,11085.1
12038.9,11085.1
12002.1,11069.9
11907.6,11051.1
11811.3,11051.1
11716.8,11069.9
11680.1,11085.1
11679.3,11085
11679,11084.3
11679.4,11083.7
11685.7,11080.3
11693,11074.3
11699.1,11067
11703.5,11058.6
11706.3,11049.5
11707.2,11040.1
11706.3,11030.6
11703.5,11021.5
11699.1,11013.2
11693,11005.8
11685.7,10999.8
11679.4,10996.4
11679,10995.8
11679.3,10995.1
11680.1,10995
11716.8,11010.3
11811.3,11029
11907.6,11029
12002.1,11010.3
12038.9,10995
Z" /> 
<path style="fill:#000000; fill-opacity:1.0; 
stroke:#000000; stroke-width:39.3701; stroke-opacity:1; 
stroke-linecap:round; stroke-linejoin:round;fill-rule:evenodd;"
d="M 18039.6,10987.3
18039.9,10988
18039.5,10988.6
18033.2,10991.9
18025.9,10998
18019.9,11005.3
18015.4,11013.7
18012.6,11022.8
18011.7,11032.2
18012.6,11041.7
18015.4,11050.7
18019.9,11059.1
18025.9,11066.4
18033.2,11072.5
18039.5,11075.8
18040,11076.5
18039.6,11077.2
18038.9,11077.3
18002.1,11062
17907.6,11043.2
17811.3,11043.2
17716.8,11062
17680.1,11077.3
17679.3,11077.2
17679,11076.4
17679.4,11075.8
17685.7,11072.5
17693,11066.4
17699.1,11059.1
17703.5,11050.7
17706.3,11041.7
17707.2,11032.2
17706.3,11022.8
17703.5,11013.7
17699.1,11005.3
17693,10998
17685.7,10991.9
17679.4,10988.6
17679,10987.9
17679.3,10987.2
17680.1,10987.2
17716.8,11002.4
17811.3,11021.2
17907.6,11021.2
18002.1,11002.4
18038.9,10987.2
Z" /> 
<path style="fill:#000000; fill-opacity:1.0; 
stroke:#000000; stroke-width:39.3701; stroke-opacity:1; 
stroke-linecap:round; stroke-linejoin:round;fill-rule:evenodd;"
d="M 28403.4,10109.9
28403.4,10110.7
28402.8,10111.1
28393.2,10112
28384.1,10114.8
28375.8,10119.2
28368.4,10125.2
28362.4,10132.6
28357.9,10141
28355.2,10150
28354.3,10159.5
28355.2,10168.9
28357.9,10178
28362.4,10186.4
28368.4,10193.7
28374,10198.3
28374.2,10199
28373.7,10199.6
28373,10199.5
28351,10184.8
28262,10148
28167.6,10129.2
28071.3,10129.2
27976.8,10148
27887.8,10184.8
27865.8,10199.5
27865,10199.6
27864.6,10198.9
27864.9,10198.3
27870.4,10193.7
27876.4,10186.4
27880.9,10178
27883.7,10168.9
27884.6,10159.5
27883.7,10150
27880.9,10141
27876.4,10132.6
27870.4,10125.2
27863.1,10119.2
27854.7,10114.8
27845.6,10112
27836.1,10111.1
27835.5,10110.6
27835.5,10109.8
27836.2,10109.5
28402.7,10109.5
Z" /> 
<path style="fill:#000000; fill-opacity:1.0; 
stroke:#000000; stroke-width:39.3701; stroke-opacity:1; 
stroke-linecap:round; stroke-linejoin:round;fill-rule:evenodd;"
d="M 12039.6,9995.13
12039.9,9995.86
12039.5,9996.45
12033.2,9999.82
12025.9,10005.8
12019.9,10013.2
12015.4,10021.5
12012.6,10030.6
12011.7,10040.1
12012.6,10049.5
12015.4,10058.6
12019.9,10067
12025.9,10074.3
12033.2,10080.3
12039.5,10083.7
12040,10084.4
12039.6,10085.1
12038.9,10085.1
12002.1,10069.9
11907.6,10051.1
11811.3,10051.1
11716.8,10069.9
11680.1,10085.1
11679.3,10085
11679,10084.3
11679.4,10083.7
11685.7,10080.3
11693,10074.3
11699.1,10067
11703.5,10058.6
11706.3,10049.5
11707.2,10040.1
11706.3,10030.6
11703.5,10021.5
11699.1,10013.2
11693,10005.8
11685.7,9999.82
11679.4,9996.45
11679,9995.78
11679.3,9995.08
11680.1,9995.02
11716.8,10010.3
11811.3,10029
11907.6,10029
12002.1,10010.3
12038.9,9995.02
Z" /> 
<path style="fill:#000000; fill-opacity:1.0; 
stroke:#000000; stroke-width:39.3701; stroke-opacity:1; 
stroke-linecap:round; stroke-linejoin:round;fill-rule:evenodd;"
d="M 18039.6,9987.25
18039.9,9987.98
18039.5,9988.57
18033.2,9991.94
18025.9,9997.97
18019.9,10005.3
18015.4,10013.7
18012.6,10022.8
18011.7,10032.2
18012.6,10041.7
18015.4,10050.7
18019.9,10059.1
18025.9,10066.4
18033.2,10072.5
18039.5,10075.8
18040,10076.5
18039.6,10077.2
18038.9,10077.3
18002.1,10062
17907.6,10043.2
17811.3,10043.2
17716.8,10062
17680.1,10077.3
17679.3,10077.2
17679,10076.4
17679.4,10075.8
17685.7,10072.5
17693,10066.4
17699.1,10059.1
17703.5,10050.7
17706.3,10041.7
17707.2,10032.2
17706.3,10022.8
17703.5,10013.7
17699.1,10005.3
17693,9997.97
17685.7,9991.94
17679.4,9988.57
17679,9987.9
17679.3,9987.21
17680.1,9987.15
17716.8,10002.4
17811.3,10021.2
17907.6,10021.2
18002.1,10002.4
18038.9,9987.15
Z" /> 
<path style="fill:#000000; fill-opacity:1.0; 
stroke:#000000; stroke-width:39.3701; stroke-opacity:1; 
stroke-linecap:round; stroke-linejoin:round;fill-rule:evenodd;"
d="M 12039.6,8995.13
12039.9,8995.86
12039.5,8996.45
12033.2,8999.82
12025.9,9005.84
12019.9,9013.18
12015.4,9021.55
12012.6,9030.63
12011.7,9040.08
12012.6,9049.52
12015.4,9058.61
12019.9,9066.98
12025.9,9074.32
12033.2,9080.34
12039.5,9083.71
12040,9084.38
12039.6,9085.07
12038.9,9085.13
12002.1,9069.9
11907.6,9051.11
11811.3,9051.11
11716.8,9069.9
11680.1,9085.13
11679.3,9085.03
11679,9084.3
11679.4,9083.71
11685.7,9080.34
11693,9074.32
11699.1,9066.98
11703.5,9058.61
11706.3,9049.52
11707.2,9040.08
11706.3,9030.63
11703.5,9021.55
11699.1,9013.18
11693,9005.84
11685.7,8999.82
11679.4,8996.45
11679,8995.78
11679.3,8995.08
11680.1,8995.02
11716.8,9010.26
11811.3,9029.05
11907.6,9029.05
12002.1,9010.26
12038.9,8995.02
Z" /> 
<path style="fill:#000000; fill-opacity:1.0; 
stroke:#000000; stroke-width:39.3701; stroke-opacity:1; 
stroke-linecap:round; stroke-linejoin:round;fill-rule:evenodd;"
d="M 18039.6,8987.25
18039.9,8987.98
18039.5,8988.57
18033.2,8991.94
18025.9,8997.97
18019.9,9005.3
18015.4,9013.68
18012.6,9022.76
18011.7,9032.21
18012.6,9041.65
18015.4,9050.74
18019.9,9059.11
18025.9,9066.44
18033.2,9072.47
18039.5,9075.84
18040,9076.51
18039.6,9077.2
18038.9,9077.26
18002.1,9062.03
17907.6,9043.24
17811.3,9043.24
17716.8,9062.03
17680.1,9077.26
17679.3,9077.16
17679,9076.43
17679.4,9075.84
17685.7,9072.47
17693,9066.44
17699.1,9059.11
17703.5,9050.74
17706.3,9041.65
17707.2,9032.21
17706.3,9022.76
17703.5,9013.68
17699.1,9005.3
17693,8997.97
17685.7,8991.94
17679.4,8988.57
17679,8987.9
17679.3,8987.21
17680.1,8987.15
17716.8,9002.38
17811.3,9021.17
17907.6,9021.17
18002.1,9002.38
18038.9,8987.15
Z" /> 
<path style="fill:#000000; fill-opacity:1.0; 
stroke:#000000; stroke-width:39.3701; stroke-opacity:1; 
stroke-linecap:round; stroke-linejoin:round;fill-rule:evenodd;"
d="M 28299.6,7573.2
28299.9,7573.93
28299.5,7574.52
28293.2,7577.89
28285.8,7583.91
28279.8,7591.25
28275.4,7599.62
28272.6,7608.7
28271.7,7618.15
28272.6,7627.6
28275.4,7636.68
28279.8,7645.05
28285.8,7652.39
28293.2,7658.41
28299.5,7661.78
28299.9,7662.45
28299.5,7663.15
28298.8,7663.2
28262,7647.97
28167.6,7629.18
28071.3,7629.18
27976.8,7647.97
27940,7663.2
27939.2,7663.1
27938.9,7662.37
27939.3,7661.78
27945.7,7658.41
27953,7652.39
27959,7645.05
27963.5,7636.68
27966.2,7627.6
27967.2,7618.15
27966.2,7608.7
27963.5,7599.62
27959,7591.25
27953,7583.91
27945.7,7577.89
27939.3,7574.52
27938.9,7573.85
27939.3,7573.15
27940,7573.1
27976.8,7588.33
28071.3,7607.12
28167.6,7607.12
28262,7588.33
28298.8,7573.1
Z" /> 
<path style="fill:#000000; fill-opacity:1.0; 
stroke:#000000; stroke-width:39.3701; stroke-opacity:1; 
stroke-linecap:round; stroke-linejoin:round;fill-rule:evenodd;"
d="M 28403.4,6609.88
28403.4,6610.67
28402.8,6611.06
28393.2,6612
28384.1,6614.75
28375.8,6619.23
28368.4,6625.25
28362.4,6632.59
28357.9,6640.96
28355.2,6650.04
28354.3,6659.49
28355.2,6668.93
28357.9,6678.02
28362.4,6686.39
28368.4,6693.73
28374,6698.26
28374.2,6699
28373.7,6699.61
28373,6699.53
28351,6684.83
28262,6647.97
28167.6,6629.18
28071.3,6629.18
27976.8,6647.97
27887.8,6684.83
27865.8,6699.53
27865,6699.58
27864.6,6698.92
27864.9,6698.26
27870.4,6693.73
27876.4,6686.39
27880.9,6678.02
27883.7,6668.93
27884.6,6659.49
27883.7,6650.04
27880.9,6640.96
27876.4,6632.59
27870.4,6625.25
27863.1,6619.23
27854.7,6614.75
27845.6,6612
27836.1,6611.06
27835.5,6610.6
27835.5,6609.82
27836.2,6609.49
28402.7,6609.49
Z" /> 
</g>
<g style="fill:#000000; fill-opacity:0.0; 
stroke:#000000; stroke-width:39.3701; stroke-opacity:1; 
stroke-linecap:round; stroke-linejoin:round;">
<circle cx="21079.3" cy="13819.7" r="131.233" /> 
<path d="M20882 13819
L21276 13819
" />
<path d="M21079 13622
L21079 14016
" />
</g>
<g style="fill:#000000; fill-opacity:0.0; 
stroke:#000000; stroke-width:78.7402; stroke-opacity:1; 
stroke-linecap:round; stroke-linejoin:round;">
<path d="M3346 27598
L3346 39
" />
<path d="M38814 39
L3346 39
" />
<path d="M38814 27598
L38814 39
" />
<path d="M3346 27598
L38814 27598
" />
<circle cx="35923.4" cy="25529.2" r="590.551" /> 
<circle cx="35923.4" cy="2385.87" r="590.551" /> 
<circle cx="6314.3" cy="2385.87" r="590.551" /> 
<circle cx="6314.3" cy="25529.2" r="590.551" /> 
<g >
</g>
<g >
</g>
<g >
</g>
<g >
</g>
<g >
</g>
<g >
</g>
<g >
</g>
<g >
</g>
<g >
</g>
</g> 
</svg>
