<?xml version="1.0" standalone="no"?>
 <!DOCTYPE svg PUBLIC "-//W3C//DTD SVG 1.1//EN" 
 "http://www.w3.org/Graphics/SVG/1.1/DTD/svg11.dtd"> 
<svg
  xmlns:svg="http://www.w3.org/2000/svg"
  xmlns="http://www.w3.org/2000/svg"
  xmlns:xlink="http://www.w3.org/1999/xlink"
  version="1.1"
  width="9.867900cm" height="7.564120cm" viewBox="0 0 38850 29780">
<title>SVG Picture created as OFICINA-TELE-ENCHUFES-RELES-B_SilkS.svg date 2021/07/26 19:49:23 </title>
  <desc>Picture generated by PCBNEW </desc>
<g style="fill:#000000; fill-opacity:1;stroke:#000000; stroke-opacity:1;
stroke-linecap:round; stroke-linejoin:round;"
 transform="translate(0 0) scale(1 1)">
</g>
<g style="fill:#000000; fill-opacity:0.0; 
stroke:#000000; stroke-width:-0.000393701; stroke-opacity:1; 
stroke-linecap:round; stroke-linejoin:round;">
</g>
<g style="fill:#000000; fill-opacity:0.0; 
stroke:#000000; stroke-width:98.4252; stroke-opacity:1; 
stroke-linecap:round; stroke-linejoin:round;">
<text x="19427.7" y="23855.9"
transform="scale(-1 1) translate(-38855.380315 0)"
textLength="2661.7" font-size="839.895" lengthAdjust="spacingAndGlyphs"
text-anchor="middle" opacity="0">ATRÁS</text>
<path d="M20702 23645
L20402 23645
" />
<path d="M20762 23825
L20552 23196
L20342 23825
" />
<path d="M20222 23196
L19862 23196
" />
<path d="M20042 23825
L20042 23196
" />
<path d="M19292 23825
L19502 23525
" />
<path d="M19652 23825
L19652 23196
L19412 23196
L19352 23226
L19322 23256
L19292 23316
L19292 23406
L19322 23465
L19352 23495
L19412 23525
L19652 23525
" />
<path d="M19052 23645
L18752 23645
" />
<path d="M19112 23825
L18902 23196
L18692 23825
" />
<path d="M18842 22956
L18932 23046
" />
<path d="M18512 23795
L18422 23825
L18272 23825
L18212 23795
L18182 23765
L18152 23705
L18152 23645
L18182 23585
L18212 23555
L18272 23525
L18392 23495
L18452 23465
L18482 23435
L18512 23376
L18512 23316
L18482 23256
L18452 23226
L18392 23196
L18242 23196
L18152 23226
" />
</g>
<g style="fill:#000000; fill-opacity:0.0; 
stroke:#000000; stroke-width:147.638; stroke-opacity:1; 
stroke-linecap:round; stroke-linejoin:round;">
<text x="6952.77" y="12821.1"
transform="scale(-1 1) translate(-13905.548819 0)"
textLength="2065.52" font-size="787.402" lengthAdjust="spacingAndGlyphs"
text-anchor="start" opacity="0">LOAD</text>
<path d="M6434 12792
L6716 12792
L6716 12202
" />
<path d="M6125 12202
L6013 12202
L5956 12230
L5900 12286
L5872 12399
L5872 12596
L5900 12708
L5956 12764
L6013 12792
L6125 12792
L6181 12764
L6238 12708
L6266 12596
L6266 12399
L6238 12286
L6181 12230
L6125 12202
" />
<path d="M5647 12624
L5366 12624
" />
<path d="M5703 12792
L5506 12202
L5310 12792
" />
<path d="M5113 12792
L5113 12202
L4972 12202
L4888 12230
L4832 12286
L4803 12343
L4775 12455
L4775 12539
L4803 12652
L4832 12708
L4888 12764
L4972 12792
L5113 12792
" />
<text x="6952.77" y="13854.6"
transform="scale(-1 1) translate(-13905.548819 0)"
textLength="2451.49" font-size="787.402" lengthAdjust="spacingAndGlyphs"
text-anchor="start" opacity="0">LATCH</text>
<path d="M6434 13826
L6716 13826
L6716 13235
" />
<path d="M6266 13657
L5985 13657
" />
<path d="M6322 13826
L6125 13235
L5928 13826
" />
<path d="M5816 13235
L5478 13235
" />
<path d="M5647 13826
L5647 13235
" />
<path d="M4944 13770
L4972 13798
L5057 13826
L5113 13826
L5197 13798
L5253 13742
L5282 13685
L5310 13573
L5310 13488
L5282 13376
L5253 13320
L5197 13264
L5113 13235
L5057 13235
L4972 13264
L4944 13292
" />
<path d="M4691 13826
L4691 13235
" />
<path d="M4691 13517
L4353 13517
" />
<path d="M4353 13826
L4353 13235
" />
<text x="6952.77" y="14888"
transform="scale(-1 1) translate(-13905.548819 0)"
textLength="1860.94" font-size="787.402" lengthAdjust="spacingAndGlyphs"
text-anchor="start" opacity="0">DATA</text>
<path d="M6716 14859
L6716 14269
L6575 14269
L6491 14297
L6434 14353
L6406 14409
L6378 14522
L6378 14606
L6406 14719
L6434 14775
L6491 14831
L6575 14859
L6716 14859
" />
<path d="M6153 14691
L5872 14691
" />
<path d="M6210 14859
L6013 14269
L5816 14859
" />
<path d="M5703 14269
L5366 14269
" />
<path d="M5535 14859
L5535 14269
" />
<path d="M5197 14691
L4916 14691
" />
<path d="M5253 14859
L5057 14269
L4860 14859
" />
<text x="6952.77" y="15921.5"
transform="scale(-1 1) translate(-13905.548819 0)"
textLength="2676.46" font-size="787.402" lengthAdjust="spacingAndGlyphs"
text-anchor="start" opacity="0">CLOCK</text>
<path d="M6378 15837
L6406 15865
L6491 15893
L6547 15893
L6631 15865
L6688 15809
L6716 15752
L6744 15640
L6744 15555
L6716 15443
L6688 15387
L6631 15330
L6547 15302
L6491 15302
L6406 15330
L6378 15359
" />
<path d="M5844 15893
L6125 15893
L6125 15302
" />
<path d="M5535 15302
L5422 15302
L5366 15330
L5310 15387
L5282 15499
L5282 15696
L5310 15809
L5366 15865
L5422 15893
L5535 15893
L5591 15865
L5647 15809
L5675 15696
L5675 15499
L5647 15387
L5591 15330
L5535 15302
" />
<path d="M4691 15837
L4719 15865
L4803 15893
L4860 15893
L4944 15865
L5000 15809
L5028 15752
L5057 15640
L5057 15555
L5028 15443
L5000 15387
L4944 15330
L4860 15302
L4803 15302
L4719 15330
L4691 15359
" />
<path d="M4438 15893
L4438 15302
" />
<path d="M4100 15893
L4353 15555
" />
<path d="M4100 15302
L4438 15640
" />
<text x="6952.77" y="16955"
transform="scale(-1 1) translate(-13905.548819 0)"
textLength="1607.85" font-size="787.402" lengthAdjust="spacingAndGlyphs"
text-anchor="start" opacity="0">GND</text>
<path d="M6406 16364
L6463 16336
L6547 16336
L6631 16364
L6688 16420
L6716 16476
L6744 16589
L6744 16673
L6716 16786
L6688 16842
L6631 16898
L6547 16926
L6491 16926
L6406 16898
L6378 16870
L6378 16673
L6491 16673
" />
<path d="M6125 16926
L6125 16336
L5788 16926
L5788 16336
" />
<path d="M5506 16926
L5506 16336
L5366 16336
L5282 16364
L5225 16420
L5197 16476
L5169 16589
L5169 16673
L5197 16786
L5225 16842
L5282 16898
L5366 16926
L5506 16926
" />
<text x="6952.77" y="17988.4"
transform="scale(-1 1) translate(-13905.548819 0)"
textLength="1495.36" font-size="787.402" lengthAdjust="spacingAndGlyphs"
text-anchor="start" opacity="0">VCC</text>
<path d="M6800 17369
L6603 17960
L6406 17369
" />
<path d="M5872 17904
L5900 17932
L5985 17960
L6041 17960
L6125 17932
L6181 17875
L6210 17819
L6238 17707
L6238 17622
L6210 17510
L6181 17454
L6125 17397
L6041 17369
L5985 17369
L5900 17397
L5872 17425
" />
<path d="M5282 17904
L5310 17932
L5394 17960
L5450 17960
L5535 17932
L5591 17875
L5619 17819
L5647 17707
L5647 17622
L5619 17510
L5591 17454
L5535 17397
L5450 17369
L5394 17369
L5310 17397
L5282 17425
" />
</g>
<g style="fill:#000000; fill-opacity:0.0; 
stroke:#000000; stroke-width:137.795; stroke-opacity:1; 
stroke-linecap:round; stroke-linejoin:round;">
<text x="9226.51" y="3605.95"
transform="scale(-1 1) translate(-18453.018110 0)"
textLength="3036.42" font-size="734.908" lengthAdjust="spacingAndGlyphs"
text-anchor="middle" opacity="0">BUZZER</text>
<path d="M10525 3290
L10446 3317
L10420 3343
L10394 3395
L10394 3474
L10420 3527
L10446 3553
L10499 3579
L10709 3579
L10709 3028
L10525 3028
L10473 3054
L10446 3081
L10420 3133
L10420 3185
L10446 3238
L10473 3264
L10525 3290
L10709 3290
" />
<path d="M10158 3028
L10158 3474
L10132 3527
L10105 3553
L10053 3579
L9948 3579
L9895 3553
L9869 3527
L9843 3474
L9843 3028
" />
<path d="M9633 3028
L9265 3028
L9633 3579
L9265 3579
" />
<path d="M9108 3028
L8740 3028
L9108 3579
L8740 3579
" />
<path d="M8530 3290
L8347 3290
" />
<path d="M8268 3579
L8530 3579
L8530 3028
L8268 3028
" />
<path d="M7717 3579
L7901 3317
" />
<path d="M8032 3579
L8032 3028
L7822 3028
L7769 3054
L7743 3081
L7717 3133
L7717 3212
L7743 3264
L7769 3290
L7822 3317
L8032 3317
" />
</g>
<g style="fill:#000000; fill-opacity:0.0; 
stroke:#000000; stroke-width:147.638; stroke-opacity:1; 
stroke-linecap:round; stroke-linejoin:round;">
<text x="13473.4" y="18844.5"
transform="scale(-1 1) translate(-26946.718898 0)"
textLength="1620.64" font-size="787.402" lengthAdjust="spacingAndGlyphs"
text-anchor="middle" opacity="0">GND</text>
<path d="M13923 18253
L13979 18225
L14063 18225
L14148 18253
L14204 18310
L14232 18366
L14260 18478
L14260 18563
L14232 18675
L14204 18732
L14148 18788
L14063 18816
L14007 18816
L13923 18788
L13895 18760
L13895 18563
L14007 18563
" />
<path d="M13642 18816
L13642 18225
L13304 18816
L13304 18225
" />
<path d="M13023 18816
L13023 18225
L12882 18225
L12798 18253
L12742 18310
L12714 18366
L12685 18478
L12685 18563
L12714 18675
L12742 18732
L12798 18788
L12882 18816
L13023 18816
" />
<text x="13473.4" y="16834.3"
transform="scale(-1 1) translate(-26946.718898 0)"
textLength="1495.36" font-size="787.402" lengthAdjust="spacingAndGlyphs"
text-anchor="middle" opacity="0">VCC</text>
<path d="M14260 16215
L14063 16806
L13867 16215
" />
<path d="M13332 16749
L13360 16778
L13445 16806
L13501 16806
L13585 16778
L13642 16721
L13670 16665
L13698 16553
L13698 16468
L13670 16356
L13642 16299
L13585 16243
L13501 16215
L13445 16215
L13360 16243
L13332 16271
" />
<path d="M12742 16749
L12770 16778
L12854 16806
L12910 16806
L12995 16778
L13051 16721
L13079 16665
L13107 16553
L13107 16468
L13079 16356
L13051 16299
L12995 16243
L12910 16215
L12854 16215
L12770 16243
L12742 16271
" />
</g>
<g style="fill:#000000; fill-opacity:0.0; 
stroke:#000000; stroke-width:137.795; stroke-opacity:1; 
stroke-linecap:round; stroke-linejoin:round;">
<g transform="rotate(-90 9787.93 15126)">
<text x="9787.93" y="15401.6"
transform="scale(-1 1) translate(-19575.852756 0)"
textLength="8574.48" font-size="734.908" lengthAdjust="spacingAndGlyphs"
text-anchor="middle" opacity="0">INTERFAZ-CONECTOR</text>
</g>
<path d="M10037 10874
L9486 10874
" />
<path d="M10037 11136
L9486 11136
L10037 11451
L9486 11451
" />
<path d="M9486 11635
L9486 11950
" />
<path d="M10037 11792
L9486 11792
" />
<path d="M9748 12133
L9748 12317
" />
<path d="M10037 12396
L10037 12133
L9486 12133
L9486 12396
" />
<path d="M10037 12947
L9774 12763
" />
<path d="M10037 12632
L9486 12632
L9486 12842
L9512 12895
L9538 12921
L9591 12947
L9669 12947
L9722 12921
L9748 12895
L9774 12842
L9774 12632
" />
<path d="M9748 13367
L9748 13183
" />
<path d="M10037 13183
L9486 13183
L9486 13446
" />
<path d="M9879 13629
L9879 13892
" />
<path d="M10037 13577
L9486 13761
L10037 13944
" />
<path d="M9486 14076
L9486 14443
L10037 14076
L10037 14443
" />
<path d="M9827 14653
L9827 15073
" />
<path d="M9984 15650
L10011 15624
L10037 15545
L10037 15493
L10011 15414
L9958 15362
L9906 15335
L9801 15309
L9722 15309
L9617 15335
L9564 15362
L9512 15414
L9486 15493
L9486 15545
L9512 15624
L9538 15650
" />
<path d="M9486 15992
L9486 16097
L9512 16149
L9564 16202
L9669 16228
L9853 16228
L9958 16202
L10011 16149
L10037 16097
L10037 15992
L10011 15939
L9958 15887
L9853 15860
L9669 15860
L9564 15887
L9512 15939
L9486 15992
" />
<path d="M10037 16464
L9486 16464
L10037 16779
L9486 16779
" />
<path d="M9748 17042
L9748 17225
" />
<path d="M10037 17304
L10037 17042
L9486 17042
L9486 17304
" />
<path d="M9984 17855
L10011 17829
L10037 17750
L10037 17698
L10011 17619
L9958 17566
L9906 17540
L9801 17514
L9722 17514
L9617 17540
L9564 17566
L9512 17619
L9486 17698
L9486 17750
L9512 17829
L9538 17855
" />
<path d="M9486 18013
L9486 18328
" />
<path d="M10037 18170
L9486 18170
" />
<path d="M9486 18616
L9486 18721
L9512 18774
L9564 18826
L9669 18853
L9853 18853
L9958 18826
L10011 18774
L10037 18721
L10037 18616
L10011 18564
L9958 18511
L9853 18485
L9669 18485
L9564 18511
L9512 18564
L9486 18616
" />
<path d="M10037 19404
L9774 19220
" />
<path d="M10037 19089
L9486 19089
L9486 19299
L9512 19351
L9538 19377
L9591 19404
L9669 19404
L9722 19377
L9748 19351
L9774 19299
L9774 19089
" />
<g transform="rotate(90 26257.6 20049.6)">
<text x="26257.6" y="20325.2"
transform="scale(-1 1) translate(-52515.222835 0)"
textLength="1815.62" font-size="734.908" lengthAdjust="spacingAndGlyphs"
text-anchor="middle" opacity="0">RELÉ</text>
</g>
<path d="M26008 20600
L26270 20784
" />
<path d="M26008 20915
L26559 20915
L26559 20705
L26533 20653
L26506 20627
L26454 20600
L26375 20600
L26323 20627
L26296 20653
L26270 20705
L26270 20915
" />
<path d="M26296 20364
L26296 20180
" />
<path d="M26008 20102
L26008 20364
L26559 20364
L26559 20102
" />
<path d="M26008 19603
L26008 19865
L26559 19865
" />
<path d="M26296 19419
L26296 19235
" />
<path d="M26008 19157
L26008 19419
L26559 19419
L26559 19157
" />
<path d="M26769 19235
L26690 19314
" />
<g transform="rotate(90 25293 20049.6)">
<text x="25293" y="20325.2"
transform="scale(-1 1) translate(-50586.088976 0)"
textLength="3495.41" font-size="734.908" lengthAdjust="spacingAndGlyphs"
text-anchor="middle" opacity="0">1 2 - +</text>
</g>
<path d="M25043 21466
L25043 21781
" />
<path d="M25043 21624
L25594 21624
L25516 21676
L25463 21729
L25437 21781
" />
<path d="M25542 20837
L25568 20810
L25594 20758
L25594 20627
L25568 20574
L25542 20548
L25489 20522
L25437 20522
L25358 20548
L25043 20863
L25043 20522
" />
<path d="M25253 19865
L25253 19445
" />
<path d="M25253 18763
L25253 18343
" />
<path d="M25043 18553
L25463 18553
" />
<g transform="rotate(90 26257.6 15446.5)">
<text x="26257.6" y="15722.1"
transform="scale(-1 1) translate(-52515.222835 0)"
textLength="1815.62" font-size="734.908" lengthAdjust="spacingAndGlyphs"
text-anchor="middle" opacity="0">RELÉ</text>
</g>
<path d="M26008 15997
L26270 16181
" />
<path d="M26008 16312
L26559 16312
L26559 16102
L26533 16050
L26506 16023
L26454 15997
L26375 15997
L26323 16023
L26296 16050
L26270 16102
L26270 16312
" />
<path d="M26296 15761
L26296 15577
" />
<path d="M26008 15498
L26008 15761
L26559 15761
L26559 15498
" />
<path d="M26008 15000
L26008 15262
L26559 15262
" />
<path d="M26296 14816
L26296 14632
" />
<path d="M26008 14554
L26008 14816
L26559 14816
L26559 14554
" />
<path d="M26769 14632
L26690 14711
" />
<g transform="rotate(90 25293 15446.5)">
<text x="25293" y="15722.1"
transform="scale(-1 1) translate(-50586.088976 0)"
textLength="3495.41" font-size="734.908" lengthAdjust="spacingAndGlyphs"
text-anchor="middle" opacity="0">3 4 - +</text>
</g>
<path d="M25594 17205
L25594 16863
L25384 17047
L25384 16968
L25358 16916
L25332 16890
L25279 16863
L25148 16863
L25096 16890
L25069 16916
L25043 16968
L25043 17126
L25069 17178
L25096 17205
" />
<path d="M25411 15971
L25043 15971
" />
<path d="M25621 16102
L25227 16233
L25227 15892
" />
<path d="M25253 15262
L25253 14842
" />
<path d="M25253 14160
L25253 13740
" />
<path d="M25043 13950
L25463 13950
" />
<g transform="rotate(90 26257.6 11047.3)">
<text x="26257.6" y="11322.9"
transform="scale(-1 1) translate(-52515.222835 0)"
textLength="1815.62" font-size="734.908" lengthAdjust="spacingAndGlyphs"
text-anchor="middle" opacity="0">RELÉ</text>
</g>
<path d="M26008 11598
L26270 11782
" />
<path d="M26008 11913
L26559 11913
L26559 11703
L26533 11650
L26506 11624
L26454 11598
L26375 11598
L26323 11624
L26296 11650
L26270 11703
L26270 11913
" />
<path d="M26296 11362
L26296 11178
" />
<path d="M26008 11099
L26008 11362
L26559 11362
L26559 11099
" />
<path d="M26008 10601
L26008 10863
L26559 10863
" />
<path d="M26296 10417
L26296 10233
" />
<path d="M26008 10154
L26008 10417
L26559 10417
L26559 10154
" />
<path d="M26769 10233
L26690 10312
" />
<g transform="rotate(90 25293 11047.3)">
<text x="25293" y="11322.9"
transform="scale(-1 1) translate(-50586.088976 0)"
textLength="3495.41" font-size="734.908" lengthAdjust="spacingAndGlyphs"
text-anchor="middle" opacity="0">5 6 - +</text>
</g>
<path d="M25594 12490
L25594 12753
L25332 12779
L25358 12753
L25384 12700
L25384 12569
L25358 12517
L25332 12490
L25279 12464
L25148 12464
L25096 12490
L25069 12517
L25043 12569
L25043 12700
L25069 12753
L25096 12779
" />
<path d="M25594 11572
L25594 11677
L25568 11729
L25542 11755
L25463 11808
L25358 11834
L25148 11834
L25096 11808
L25069 11782
L25043 11729
L25043 11624
L25069 11572
L25096 11545
L25148 11519
L25279 11519
L25332 11545
L25358 11572
L25384 11624
L25384 11729
L25358 11782
L25332 11808
L25279 11834
" />
<path d="M25253 10863
L25253 10443
" />
<path d="M25253 9761
L25253 9341
" />
<path d="M25043 9551
L25463 9551
" />
<g transform="rotate(90 26257.6 7040.98)">
<text x="26257.6" y="7316.58"
transform="scale(-1 1) translate(-52515.222835 0)"
textLength="1815.62" font-size="734.908" lengthAdjust="spacingAndGlyphs"
text-anchor="middle" opacity="0">RELÉ</text>
</g>
<path d="M26008 7592
L26270 7775
" />
<path d="M26008 7907
L26559 7907
L26559 7697
L26533 7644
L26506 7618
L26454 7592
L26375 7592
L26323 7618
L26296 7644
L26270 7697
L26270 7907
" />
<path d="M26296 7355
L26296 7172
" />
<path d="M26008 7093
L26008 7355
L26559 7355
L26559 7093
" />
<path d="M26008 6594
L26008 6857
L26559 6857
" />
<path d="M26296 6411
L26296 6227
" />
<path d="M26008 6148
L26008 6411
L26559 6411
L26559 6148
" />
<path d="M26769 6227
L26690 6306
" />
<g transform="rotate(90 25293 7040.98)">
<text x="25293" y="7316.58"
transform="scale(-1 1) translate(-50586.088976 0)"
textLength="2550.52" font-size="734.908" lengthAdjust="spacingAndGlyphs"
text-anchor="middle" opacity="0">7 - +</text>
</g>
<path d="M25594 8327
L25594 7959
L25043 8195
" />
<path d="M25253 7329
L25253 6909
" />
<path d="M25253 6227
L25253 5807
" />
<path d="M25043 6017
L25463 6017
" />
</g>
<g style="fill:#000000; fill-opacity:0.0; 
stroke:#000000; stroke-width:147.638; stroke-opacity:1; 
stroke-linecap:round; stroke-linejoin:round;">
<text x="14861.5" y="5568.74"
transform="scale(-1 1) translate(-29723.096850 0)"
textLength="3645.39" font-size="787.402" lengthAdjust="spacingAndGlyphs"
text-anchor="middle" opacity="0">ARDUINO</text>
<path d="M16661 5371
L16380 5371
" />
<path d="M16717 5540
L16520 4950
L16323 5540
" />
<path d="M15789 5540
L15986 5259
" />
<path d="M16127 5540
L16127 4950
L15902 4950
L15845 4978
L15817 5006
L15789 5062
L15789 5146
L15817 5203
L15845 5231
L15902 5259
L16127 5259
" />
<path d="M15536 5540
L15536 4950
L15395 4950
L15311 4978
L15255 5034
L15227 5090
L15199 5203
L15199 5287
L15227 5400
L15255 5456
L15311 5512
L15395 5540
L15536 5540
" />
<path d="M14945 4950
L14945 5428
L14917 5484
L14889 5512
L14833 5540
L14720 5540
L14664 5512
L14636 5484
L14608 5428
L14608 4950
" />
<path d="M14327 5540
L14327 4950
" />
<path d="M14046 5540
L14046 4950
L13708 5540
L13708 4950
" />
<path d="M13314 4950
L13202 4950
L13146 4978
L13089 5034
L13061 5146
L13061 5343
L13089 5456
L13146 5512
L13202 5540
L13314 5540
L13371 5512
L13427 5456
L13455 5343
L13455 5146
L13427 5034
L13371 4978
L13314 4950
" />
<text x="14861.5" y="6602.21"
transform="scale(-1 1) translate(-29723.096850 0)"
textLength="3913.81" font-size="787.402" lengthAdjust="spacingAndGlyphs"
text-anchor="middle" opacity="0">MINI PRO</text>
<path d="M16773 6574
L16773 5983
L16576 6405
L16380 5983
L16380 6574
" />
<path d="M16098 6574
L16098 5983
" />
<path d="M15817 6574
L15817 5983
L15480 6574
L15480 5983
" />
<path d="M15199 6574
L15199 5983
" />
<path d="M14467 6574
L14467 5983
L14242 5983
L14186 6011
L14158 6039
L14130 6096
L14130 6180
L14158 6236
L14186 6264
L14242 6292
L14467 6292
" />
<path d="M13539 6574
L13736 6292
" />
<path d="M13877 6574
L13877 5983
L13652 5983
L13596 6011
L13567 6039
L13539 6096
L13539 6180
L13567 6236
L13596 6264
L13652 6292
L13877 6292
" />
<path d="M13174 5983
L13061 5983
L13005 6011
L12949 6067
L12921 6180
L12921 6377
L12949 6489
L13005 6545
L13061 6574
L13174 6574
L13230 6545
L13286 6489
L13314 6377
L13314 6180
L13286 6067
L13230 6011
L13174 5983
" />
</g>
<g style="fill:#000000; fill-opacity:0.0; 
stroke:#000000; stroke-width:39.3701; stroke-opacity:1; 
stroke-linecap:round; stroke-linejoin:round;">
<text x="7013.91" y="7682.72"
transform="scale(-1 1) translate(-14027.821260 0)"
textLength="782.949" font-size="1049.87" lengthAdjust="spacingAndGlyphs"
text-anchor="middle" opacity="0">+</text>
<path d="M7313 7345
L6713 7345
" />
<path d="M7013 7645
L7013 7045
" />
</g>
<g style="fill:#000000; fill-opacity:0.0; 
stroke:#000000; stroke-width:137.795; stroke-opacity:1; 
stroke-linecap:round; stroke-linejoin:round;">
<text x="6810.37" y="5109.49"
transform="scale(-1 1) translate(-13620.734646 0)"
textLength="1628.61" font-size="734.908" lengthAdjust="spacingAndGlyphs"
text-anchor="middle" opacity="0">GND</text>
<path d="M7230 4558
L7282 4532
L7361 4532
L7440 4558
L7492 4610
L7519 4663
L7545 4768
L7545 4847
L7519 4952
L7492 5004
L7440 5056
L7361 5083
L7309 5083
L7230 5056
L7204 5030
L7204 4847
L7309 4847
" />
<path d="M6967 5083
L6967 4532
L6652 5083
L6652 4532
" />
<path d="M6390 5083
L6390 4532
L6259 4532
L6180 4558
L6127 4610
L6101 4663
L6075 4768
L6075 4847
L6101 4952
L6127 5004
L6180 5056
L6259 5083
L6390 5083
" />
</g>
<g style="fill:#000000; fill-opacity:0.0; 
stroke:#000000; stroke-width:59.0551; stroke-opacity:1; 
stroke-linecap:round; stroke-linejoin:round;">
<circle cx="8112.73" cy="6098.86" r="2430.02" /> 
<path d="M26980 8868
L32480 8868
" />
<path d="M32480 13372
L26980 13372
" />
<path d="M26980 17868
L32480 17868
" />
<path d="M26980 4493
L26980 22418
" />
<path d="M32480 22418
L26980 22418
" />
<path d="M32480 22418
L32480 4500
" />
</g>
<g style="fill:#000000; fill-opacity:0.0; 
stroke:#000000; stroke-width:39.3701; stroke-opacity:1; 
stroke-linecap:round; stroke-linejoin:round;">
<text x="29937.9" y="4855.24"
transform="scale(-1 1) translate(-59875.852756 0)"
textLength="2700.51" font-size="839.895" lengthAdjust="spacingAndGlyphs"
text-anchor="middle" opacity="0">RELES</text>
<path d="M30867 4825
L31077 4525
" />
<path d="M31227 4825
L31227 4195
L30987 4195
L30927 4225
L30897 4255
L30867 4315
L30867 4405
L30897 4465
L30927 4495
L30987 4525
L31227 4525
" />
<path d="M30597 4495
L30387 4495
" />
<path d="M30297 4825
L30597 4825
L30597 4195
L30297 4195
" />
<path d="M29727 4825
L30027 4825
L30027 4195
" />
<path d="M29517 4495
L29308 4495
" />
<path d="M29218 4825
L29517 4825
L29517 4195
L29218 4195
" />
<path d="M28978 4795
L28888 4825
L28738 4825
L28678 4795
L28648 4765
L28618 4705
L28618 4645
L28648 4585
L28678 4555
L28738 4525
L28858 4495
L28918 4465
L28948 4435
L28978 4375
L28978 4315
L28948 4255
L28918 4225
L28858 4195
L28708 4195
L28618 4225
" />
</g>
<g style="fill:#000000; fill-opacity:0.0; 
stroke:#000000; stroke-width:59.0551; stroke-opacity:1; 
stroke-linecap:round; stroke-linejoin:round;">
<path d="M31736 4502
L32480 4500
" />
<path d="M28211 4493
L26980 4493
" />
<g >
</g>
</g>
<g style="fill:#000000; fill-opacity:0.0; 
stroke:#000000; stroke-width:59.0551; stroke-opacity:1; 
stroke-linecap:round; stroke-linejoin:round;">
</g>
<g style="fill:#000000; fill-opacity:0.0; 
stroke:#000000; stroke-width:39.3701; stroke-opacity:1; 
stroke-linecap:round; stroke-linejoin:round;">
<circle cx="21079.3" cy="13819.7" r="131.233" /> 
<path d="M20882 13819
L21276 13819
" />
<path d="M21079 13622
L21079 14016
" />
</g>
<g style="fill:#000000; fill-opacity:0.0; 
stroke:#000000; stroke-width:78.7402; stroke-opacity:1; 
stroke-linecap:round; stroke-linejoin:round;">
<path d="M3346 27598
L3346 39
" />
<path d="M38814 39
L3346 39
" />
<path d="M38814 27598
L38814 39
" />
<path d="M3346 27598
L38814 27598
" />
<circle cx="35923.4" cy="25529.2" r="590.551" /> 
<circle cx="35923.4" cy="2385.87" r="590.551" /> 
<circle cx="6314.3" cy="2385.87" r="590.551" /> 
<circle cx="6314.3" cy="25529.2" r="590.551" /> 
<g >
</g>
<g >
</g>
<g >
</g>
<g >
</g>
<g >
</g>
<g >
</g>
<g >
</g>
<g >
</g>
<g >
</g>
</g> 
</svg>
