<?xml version="1.0" standalone="no"?>
 <!DOCTYPE svg PUBLIC "-//W3C//DTD SVG 1.1//EN" 
 "http://www.w3.org/Graphics/SVG/1.1/DTD/svg11.dtd"> 
<svg
  xmlns:svg="http://www.w3.org/2000/svg"
  xmlns="http://www.w3.org/2000/svg"
  xmlns:xlink="http://www.w3.org/1999/xlink"
  version="1.1"
  width="9.867900cm" height="7.564120cm" viewBox="0 0 38850 29780">
<title>SVG Picture created as OFICINA-TELE-ENCHUFES-RELES-B_Cu.svg date 2021/07/26 19:49:23 </title>
  <desc>Picture generated by PCBNEW </desc>
<g style="fill:#000000; fill-opacity:1;stroke:#000000; stroke-opacity:1;
stroke-linecap:round; stroke-linejoin:round;"
 transform="translate(0 0) scale(1 1)">
</g>
<g style="fill:#000000; fill-opacity:0.0; 
stroke:#000000; stroke-width:-0.000393701; stroke-opacity:1; 
stroke-linecap:round; stroke-linejoin:round;">
</g>
<g style="fill:#000000; fill-opacity:0.0; 
stroke:#000000; stroke-width:196.85; stroke-opacity:1; 
stroke-linecap:round; stroke-linejoin:round;">
<g transform="rotate(-90 33810.8 13522.5)">
<text x="33810.8" y="14113"
transform="scale(-1 1) translate(-67621.522047 0)"
textLength="22762.9" font-size="1574.8" lengthAdjust="spacingAndGlyphs"
text-anchor="middle" opacity="0">OFICINA-TELE-ENCHUFES</text>
</g>
<path d="M33163 2583
L33163 2808
L33220 2920
L33332 3033
L33557 3089
L33951 3089
L34176 3033
L34288 2920
L34345 2808
L34345 2583
L34288 2470
L34176 2358
L33951 2302
L33557 2302
L33332 2358
L33220 2470
L33163 2583
" />
<path d="M33726 3989
L33726 3595
" />
<path d="M34345 3595
L33163 3595
L33163 4158
" />
<path d="M34345 4607
L33163 4607
" />
<path d="M34232 5845
L34288 5789
L34345 5620
L34345 5507
L34288 5339
L34176 5226
L34063 5170
L33838 5114
L33670 5114
L33445 5170
L33332 5226
L33220 5339
L33163 5507
L33163 5620
L33220 5789
L33276 5845
" />
<path d="M34345 6351
L33163 6351
" />
<path d="M34345 6913
L33163 6913
L34345 7588
L33163 7588
" />
<path d="M34007 8095
L34007 8657
" />
<path d="M34345 7982
L33163 8376
L34345 8769
" />
<path d="M33895 9163
L33895 10063
" />
<path d="M33163 10457
L33163 11132
" />
<path d="M34345 10794
L33163 10794
" />
<path d="M33726 11525
L33726 11919
" />
<path d="M34345 12088
L34345 11525
L33163 11525
L33163 12088
" />
<path d="M34345 13156
L34345 12594
L33163 12594
" />
<path d="M33726 13550
L33726 13944
" />
<path d="M34345 14113
L34345 13550
L33163 13550
L33163 14113
" />
<path d="M33895 14619
L33895 15519
" />
<path d="M33726 16081
L33726 16475
" />
<path d="M34345 16643
L34345 16081
L33163 16081
L33163 16643
" />
<path d="M34345 17150
L33163 17150
L34345 17825
L33163 17825
" />
<path d="M34232 19062
L34288 19006
L34345 18837
L34345 18724
L34288 18556
L34176 18443
L34063 18387
L33838 18331
L33670 18331
L33445 18387
L33332 18443
L33220 18556
L33163 18724
L33163 18837
L33220 19006
L33276 19062
" />
<path d="M34345 19568
L33163 19568
" />
<path d="M33726 19568
L33726 20243
" />
<path d="M34345 20243
L33163 20243
" />
<path d="M33163 20805
L34120 20805
L34232 20862
L34288 20918
L34345 21030
L34345 21255
L34288 21368
L34232 21424
L34120 21480
L33163 21480
" />
<path d="M33726 22436
L33726 22043
" />
<path d="M34345 22043
L33163 22043
L33163 22605
" />
<path d="M33726 23055
L33726 23449
" />
<path d="M34345 23618
L34345 23055
L33163 23055
L33163 23618
" />
<path d="M34288 24068
L34345 24236
L34345 24517
L34288 24630
L34232 24686
L34120 24742
L34007 24742
L33895 24686
L33838 24630
L33782 24517
L33726 24293
L33670 24180
L33613 24124
L33501 24068
L33388 24068
L33276 24124
L33220 24180
L33163 24293
L33163 24574
L33220 24742
" />
<g transform="rotate(-90 35779.3 13522.5)">
<text x="35779.3" y="14113"
transform="scale(-1 1) translate(-71558.529921 0)"
textLength="5143.42" font-size="1574.8" lengthAdjust="spacingAndGlyphs"
text-anchor="middle" opacity="0">RELÉS</text>
</g>
<path d="M36313 11778
L35751 11385
" />
<path d="M36313 11104
L35132 11104
L35132 11553
L35188 11666
L35244 11722
L35357 11778
L35526 11778
L35638 11722
L35694 11666
L35751 11553
L35751 11104
" />
<path d="M35694 12285
L35694 12678
" />
<path d="M36313 12847
L36313 12285
L35132 12285
L35132 12847
" />
<path d="M36313 13916
L36313 13353
L35132 13353
" />
<path d="M35694 14309
L35694 14703
" />
<path d="M36313 14872
L36313 14309
L35132 14309
L35132 14872
" />
<path d="M34682 14703
L34851 14534
" />
<path d="M36257 15322
L36313 15490
L36313 15772
L36257 15884
L36201 15940
L36088 15997
L35976 15997
L35863 15940
L35807 15884
L35751 15772
L35694 15547
L35638 15434
L35582 15378
L35469 15322
L35357 15322
L35244 15378
L35188 15434
L35132 15547
L35132 15828
L35188 15997
" />
<text x="20669.4" y="3455.55"
transform="scale(-1 1) translate(-41338.844882 0)"
textLength="17441.9" font-size="2099.74" lengthAdjust="spacingAndGlyphs"
text-anchor="middle" opacity="0">By APACHEBCN</text>
<path d="M28618 2555
L28393 2630
L28318 2705
L28243 2855
L28243 3080
L28318 3230
L28393 3305
L28543 3380
L29143 3380
L29143 1805
L28618 1805
L28468 1880
L28393 1955
L28318 2105
L28318 2255
L28393 2405
L28468 2480
L28618 2555
L29143 2555
" />
<path d="M27718 2330
L27343 3380
" />
<path d="M26968 2330
L27343 3380
L27493 3755
L27568 3830
L27718 3905
" />
<path d="M25243 2930
L24493 2930
" />
<path d="M25393 3380
L24868 1805
L24343 3380
" />
<path d="M23819 3380
L23819 1805
L23219 1805
L23069 1880
L22994 1955
L22919 2105
L22919 2330
L22994 2480
L23069 2555
L23219 2630
L23819 2630
" />
<path d="M22319 2930
L21569 2930
" />
<path d="M22469 3380
L21944 1805
L21419 3380
" />
<path d="M19994 3230
L20069 3305
L20294 3380
L20444 3380
L20669 3305
L20819 3155
L20894 3005
L20969 2705
L20969 2480
L20894 2180
L20819 2030
L20669 1880
L20444 1805
L20294 1805
L20069 1880
L19994 1955
" />
<path d="M19319 3380
L19319 1805
" />
<path d="M19319 2555
L18419 2555
" />
<path d="M18419 3380
L18419 1805
" />
<path d="M17669 2555
L17144 2555
" />
<path d="M16919 3380
L17669 3380
L17669 1805
L16919 1805
" />
<path d="M15720 2555
L15495 2630
L15420 2705
L15345 2855
L15345 3080
L15420 3230
L15495 3305
L15645 3380
L16244 3380
L16244 1805
L15720 1805
L15570 1880
L15495 1955
L15420 2105
L15420 2255
L15495 2405
L15570 2480
L15720 2555
L16244 2555
" />
<path d="M13770 3230
L13845 3305
L14070 3380
L14220 3380
L14445 3305
L14595 3155
L14670 3005
L14745 2705
L14745 2480
L14670 2180
L14595 2030
L14445 1880
L14220 1805
L14070 1805
L13845 1880
L13770 1955
" />
<path d="M13095 3380
L13095 1805
L12195 3380
L12195 1805
" />
</g>
<g style="fill:#000000; fill-opacity:0.0; 
stroke:#000000; stroke-width:98.4252; stroke-opacity:1; 
stroke-linecap:round; stroke-linejoin:round;">
<text x="19427.7" y="23855.9"
transform="scale(-1 1) translate(-38855.380315 0)"
textLength="2533.75" font-size="839.895" lengthAdjust="spacingAndGlyphs"
text-anchor="middle" opacity="0">ATRÁS</text>
<path d="M20702 23645
L20402 23645
" />
<path d="M20762 23825
L20552 23196
L20342 23825
" />
<path d="M20222 23196
L19862 23196
" />
<path d="M20042 23825
L20042 23196
" />
<path d="M19292 23825
L19502 23525
" />
<path d="M19652 23825
L19652 23196
L19412 23196
L19352 23226
L19322 23256
L19292 23316
L19292 23406
L19322 23465
L19352 23495
L19412 23525
L19652 23525
" />
<path d="M19052 23645
L18752 23645
" />
<path d="M19112 23825
L18902 23196
L18692 23825
" />
<path d="M18842 22956
L18932 23046
" />
<path d="M18512 23795
L18422 23825
L18272 23825
L18212 23795
L18182 23765
L18152 23705
L18152 23645
L18182 23585
L18212 23555
L18272 23525
L18392 23495
L18452 23465
L18482 23435
L18512 23376
L18512 23316
L18482 23256
L18452 23226
L18392 23196
L18242 23196
L18152 23226
" />
<g >
</g>
<g style="fill:#000000; fill-opacity:1.0; 
stroke:#000000; stroke-width:0; stroke-opacity:1; 
stroke-linecap:round; stroke-linejoin:round;">
<circle cx="28119.4" cy="8118.15" r="334.646" /> 
<circle cx="28119.4" cy="7118.15" r="334.646" /> 
<path style="fill:#000000; fill-opacity:1.0; 
stroke:#000000; stroke-width:0; stroke-opacity:1; 
stroke-linecap:round; stroke-linejoin:round;fill-rule:evenodd;"
d="M 27784.8,6452.8
27784.8,5783.5
28454.1,5783.5
28454.1,6452.8
Z" /> 
</g>
<g >
</g>
<g style="fill:#000000; fill-opacity:1.0; 
stroke:#000000; stroke-width:0; stroke-opacity:1; 
stroke-linecap:round; stroke-linejoin:round;">
<circle cx="17859.5" cy="15532.2" r="334.646" /> 
<circle cx="17859.5" cy="14532.2" r="334.646" /> 
<circle cx="17859.5" cy="13532.2" r="334.646" /> 
<circle cx="17859.5" cy="12532.2" r="334.646" /> 
<circle cx="17859.5" cy="11532.2" r="334.646" /> 
<circle cx="17859.5" cy="10532.2" r="334.646" /> 
<circle cx="17859.5" cy="9532.21" r="334.646" /> 
<circle cx="17859.5" cy="8532.21" r="334.646" /> 
<circle cx="17859.5" cy="16532.2" r="334.646" /> 
</g>
<g >
</g>
<g style="fill:#000000; fill-opacity:1.0; 
stroke:#000000; stroke-width:0; stroke-opacity:1; 
stroke-linecap:round; stroke-linejoin:round;">
<circle cx="28119.4" cy="21618.2" r="334.646" /> 
<circle cx="28119.4" cy="20618.2" r="334.646" /> 
<circle cx="28119.4" cy="19618.2" r="334.646" /> 
<path style="fill:#000000; fill-opacity:1.0; 
stroke:#000000; stroke-width:0; stroke-opacity:1; 
stroke-linecap:round; stroke-linejoin:round;fill-rule:evenodd;"
d="M 27784.8,18952.8
27784.8,18283.5
28454.1,18283.5
28454.1,18952.8
Z" /> 
</g>
<g >
</g>
<g style="fill:#000000; fill-opacity:1.0; 
stroke:#000000; stroke-width:0; stroke-opacity:1; 
stroke-linecap:round; stroke-linejoin:round;">
<path style="fill:#000000; fill-opacity:1.0; 
stroke:#000000; stroke-width:0; stroke-opacity:1; 
stroke-linecap:round; stroke-linejoin:round;fill-rule:evenodd;"
d="M 8712.14,12235.9
8721.7,12237.4
8731.06,12239.7
8740.16,12243
8748.89,12247.1
8757.18,12252.1
8764.93,12257.8
8772.09,12264.3
8778.58,12271.5
8784.33,12279.2
8789.3,12287.5
8793.43,12296.2
8796.68,12305.3
8799.03,12314.7
8800.44,12324.3
8800.92,12333.9
8800.92,12806.3
8800.44,12816
8799.03,12825.5
8796.68,12834.9
8793.43,12844
8789.3,12852.7
8784.33,12861
8778.58,12868.8
8772.09,12875.9
8764.93,12882.4
8757.18,12888.2
8748.89,12893.1
8740.16,12897.3
8731.06,12900.5
8721.7,12902.9
8712.14,12904.3
8702.49,12904.8
8131.63,12904.8
8121.98,12904.3
8112.43,12902.9
8103.06,12900.5
8093.96,12897.3
8085.23,12893.1
8076.94,12888.2
8069.19,12882.4
8062.03,12875.9
8055.54,12868.8
8049.79,12861
8044.82,12852.7
8040.69,12844
8037.44,12834.9
8035.09,12825.5
8033.68,12816
8033.2,12806.3
8033.2,12333.9
8033.68,12324.3
8035.09,12314.7
8037.44,12305.3
8040.69,12296.2
8044.82,12287.5
8049.79,12279.2
8055.54,12271.5
8062.03,12264.3
8069.19,12257.8
8076.94,12252.1
8085.23,12247.1
8093.96,12243
8103.06,12239.7
8112.43,12237.4
8121.98,12235.9
8131.63,12235.5
8702.49,12235.5
Z" /> 
</g>
<g style="fill:#000000; fill-opacity:1.0; 
stroke:#000000; stroke-width:669.291; stroke-opacity:1; 
stroke-linecap:round; stroke-linejoin:round;">
</g>
<g style="fill:#000000; fill-opacity:0.0; 
stroke:#000000; stroke-width:669.291; stroke-opacity:1; 
stroke-linecap:round; stroke-linejoin:round;">
<path d="M8466 13554
L8367 13554
" />
<path d="M8466 14538
L8367 14538
" />
<path d="M8466 15522
L8367 15522
" />
<path d="M8466 16507
L8367 16507
" />
<path d="M8466 17491
L8367 17491
" />
</g>
<g >
</g>
<g style="fill:#000000; fill-opacity:0.0; 
stroke:#000000; stroke-width:669.291; stroke-opacity:1; 
stroke-linecap:round; stroke-linejoin:round;">
</g>
<g style="fill:#000000; fill-opacity:0.0; 
stroke:#000000; stroke-width:0; stroke-opacity:1; 
stroke-linecap:round; stroke-linejoin:round;">
</g>
<g style="fill:#000000; fill-opacity:1.0; 
stroke:#000000; stroke-width:0; stroke-opacity:1; 
stroke-linecap:round; stroke-linejoin:round;">
<path style="fill:#000000; fill-opacity:1.0; 
stroke:#000000; stroke-width:0; stroke-opacity:1; 
stroke-linecap:round; stroke-linejoin:round;fill-rule:evenodd;"
d="M 27784.8,14452.8
27784.8,13783.5
28454.1,13783.5
28454.1,14452.8
Z" /> 
<circle cx="28119.4" cy="15118.1" r="334.646" /> 
<circle cx="28119.4" cy="16118.1" r="334.646" /> 
<circle cx="28119.4" cy="17118.2" r="334.646" /> 
</g>
<g >
</g>
<g style="fill:#000000; fill-opacity:1.0; 
stroke:#000000; stroke-width:0; stroke-opacity:1; 
stroke-linecap:round; stroke-linejoin:round;">
<path style="fill:#000000; fill-opacity:1.0; 
stroke:#000000; stroke-width:0; stroke-opacity:1; 
stroke-linecap:round; stroke-linejoin:round;fill-rule:evenodd;"
d="M 27784.8,9952.8
27784.8,9283.5
28454.1,9283.5
28454.1,9952.8
Z" /> 
<circle cx="28119.4" cy="10618.1" r="334.646" /> 
<circle cx="28119.4" cy="11618.1" r="334.646" /> 
<circle cx="28119.4" cy="12618.1" r="334.646" /> 
</g>
<g >
</g>
<g style="fill:#000000; fill-opacity:1.0; 
stroke:#000000; stroke-width:0; stroke-opacity:1; 
stroke-linecap:round; stroke-linejoin:round;">
<circle cx="11859.5" cy="8540.08" r="334.646" /> 
<circle cx="11859.5" cy="9540.08" r="334.646" /> 
<circle cx="11859.5" cy="10540.1" r="334.646" /> 
<circle cx="11859.5" cy="11540.1" r="334.646" /> 
<circle cx="11859.5" cy="12540.1" r="334.646" /> 
<circle cx="11859.5" cy="13540.1" r="334.646" /> 
<circle cx="11859.5" cy="14540.1" r="334.646" /> 
<circle cx="11859.5" cy="15540.1" r="334.646" /> 
<circle cx="11859.5" cy="16540.1" r="334.646" /> 
<circle cx="11859.5" cy="17540.1" r="334.646" /> 
<circle cx="11859.5" cy="18540.1" r="334.646" /> 
<path style="fill:#000000; fill-opacity:1.0; 
stroke:#000000; stroke-width:0; stroke-opacity:1; 
stroke-linecap:round; stroke-linejoin:round;fill-rule:evenodd;"
d="M 12194.1,19205.4
12194.1,19874.7
11524.8,19874.7
11524.8,19205.4
Z" /> 
</g>
<g >
</g>
<g style="fill:#000000; fill-opacity:1.0; 
stroke:#000000; stroke-width:0; stroke-opacity:1; 
stroke-linecap:round; stroke-linejoin:round;">
<path style="fill:#000000; fill-opacity:1.0; 
stroke:#000000; stroke-width:0; stroke-opacity:1; 
stroke-linecap:round; stroke-linejoin:round;fill-rule:evenodd;"
d="M 7720.6,4205.95
8508.01,4205.95
8508.01,4993.35
7720.6,4993.35
Z" /> 
<circle cx="8114.3" cy="7591.77" r="393.701" /> 
</g>
<g style="fill:#000000; fill-opacity:1.0; 
stroke:#000000; stroke-width:39.3701; stroke-opacity:1; 
stroke-linecap:round; stroke-linejoin:round;">
</g>
<g >
</g>
<g >
</g>
<g style="fill:#000000; fill-opacity:1.0; 
stroke:#000000; stroke-width:39.3701; stroke-opacity:1; 
stroke-linecap:round; stroke-linejoin:round;">
</g>
<g style="fill:#000000; fill-opacity:1.0; 
stroke:#000000; stroke-width:472.441; stroke-opacity:1; 
stroke-linecap:round; stroke-linejoin:round;">
</g>
<g style="fill:#000000; fill-opacity:0.0; 
stroke:#000000; stroke-width:472.441; stroke-opacity:1; 
stroke-linecap:round; stroke-linejoin:round;">
<path d="M27646 19618
L28119 19618
" />
<path d="M27448 19420
L27646 19618
" />
<path d="M28119 15118
L28790 15789
" />
<path d="M28790 15789
L28790 17440
" />
<path d="M28790 17440
L28441 17789
" />
<path d="M28441 17789
L27674 17789
" />
<path d="M27674 17789
L27448 18014
" />
<path d="M27448 18014
L27448 19420
" />
<path d="M27646 15118
L28119 15118
" />
<path d="M27448 14920
L27646 15118
" />
<path d="M28119 10618
L28790 11289
" />
<path d="M28790 11289
L28790 12940
" />
<path d="M28790 12940
L28441 13289
" />
<path d="M28441 13289
L27674 13289
" />
<path d="M27674 13289
L27448 13514
" />
<path d="M27448 13514
L27448 14920
" />
<path d="M27646 10618
L28119 10618
" />
<path d="M27674 8789
L27448 9014
" />
<path d="M27448 9014
L27448 10420
" />
<path d="M27448 10420
L27646 10618
" />
<path d="M28441 8789
L27674 8789
" />
<path d="M28790 8440
L28441 8789
" />
<path d="M28790 8440
L28790 7171
" />
<path d="M28737 7118
L28119 7118
" />
</g>
<g style="fill:#000000; fill-opacity:0.0; 
stroke:#000000; stroke-width:393.701; stroke-opacity:1; 
stroke-linecap:round; stroke-linejoin:round;">
<path d="M28790 7171
L28737 7118
" />
</g>
<g style="fill:#000000; fill-opacity:0.0; 
stroke:#000000; stroke-width:590.551; stroke-opacity:1; 
stroke-linecap:round; stroke-linejoin:round;">
<path d="M9391 16485
L9946 17039
" />
<path d="M8417 16485
L9391 16485
" />
<path d="M9946 17039
L9946 17908
" />
<path d="M10577 18540
L11859 18540
" />
<path d="M9946 17908
L10577 18540
" />
<path d="M11927 7118
L9505 7118
" />
<path d="M28119 7118
L11927 7118
" />
<path d="M8114 5727
L8114 4599
" />
<path d="M9505 7118
L8114 5727
" />
<path d="M18634 16532
L17859 16532
" />
<path d="M24770 22668
L18634 16532
" />
<path d="M28849 22488
L28669 22668
" />
<path d="M28849 19874
L28849 22488
" />
<path d="M28592 19618
L28849 19874
" />
<path d="M28669 22668
L24770 22668
" />
<path d="M28119 19618
L28592 19618
" />
<path d="M8319 16485
L6732 14897
" />
<path d="M8417 16485
L8319 16485
" />
<path d="M6732 5981
L8114 4599
" />
<path d="M6732 14897
L6732 5981
" />
<path d="M29044 6118
L29719 6793
" />
<path d="M28119 6118
L29044 6118
" />
<path d="M29719 14205
L29632 14118
" />
<path d="M29632 14118
L28119 14118
" />
<path d="M29672 9618
L28119 9618
" />
<path d="M29719 9665
L29719 14205
" />
<path d="M29719 9665
L29672 9618
" />
<path d="M29719 6793
L29719 9665
" />
<path d="M29719 18921
L29416 18618
" />
<path d="M29416 18618
L28119 18618
" />
<path d="M29719 14205
L29719 18921
" />
<path d="M8417 17469
L8417 17843
" />
<path d="M8417 18794
L8417 17469
" />
<path d="M10503 20880
L8417 18794
" />
<path d="M11859 16540
L13035 16540
" />
<path d="M13685 17190
L13685 20880
" />
<path d="M13035 16540
L13685 17190
" />
<path d="M13685 20880
L10503 20880
" />
<path d="M21627 20880
L13685 20880
" />
<path d="M24414 23668
L21627 20880
" />
<path d="M29069 23668
L24414 23668
" />
<path d="M29719 23017
L29069 23668
" />
<path d="M29719 18921
L29719 23017
" />
<path d="M11859 10540
L9610 10540
" />
<path d="M8114 9043
L8114 7591
" />
<path d="M9610 10540
L8114 9043
" />
<path d="M28119 21618
L24932 21618
" />
<path d="M18846 15532
L17859 15532
" />
<path d="M24932 21618
L18846 15532
" />
<path d="M17859 9532
L19357 9532
" />
<path d="M19357 9532
L20771 8118
" />
<path d="M20771 8118
L22934 8118
" />
<path d="M28119 8118
L22934 8118
" />
</g>
<g style="fill:#000000; fill-opacity:0.0; 
stroke:#000000; stroke-width:472.441; stroke-opacity:1; 
stroke-linecap:round; stroke-linejoin:round;">
<path d="M28071 11631
L28130 11572
" />
</g>
<g style="fill:#000000; fill-opacity:0.0; 
stroke:#000000; stroke-width:590.551; stroke-opacity:1; 
stroke-linecap:round; stroke-linejoin:round;">
<path d="M26623 11618
L28119 11618
" />
<path d="M25537 10532
L26623 11618
" />
<path d="M17859 10532
L25537 10532
" />
</g>
<g style="fill:#000000; fill-opacity:0.0; 
stroke:#000000; stroke-width:472.441; stroke-opacity:1; 
stroke-linecap:round; stroke-linejoin:round;">
<path d="M28071 12631
L28130 12572
" />
</g>
<g style="fill:#000000; fill-opacity:0.0; 
stroke:#000000; stroke-width:590.551; stroke-opacity:1; 
stroke-linecap:round; stroke-linejoin:round;">
<path d="M26462 12618
L28119 12618
" />
<path d="M25376 11532
L26462 12618
" />
<path d="M17859 11532
L25376 11532
" />
<path d="M28119 16118
L27134 16118
" />
<path d="M17859 12532
L23548 12532
" />
<path d="M23548 12532
L24125 13109
" />
<path d="M27134 16118
L24125 13109
" />
<path d="M17859 13532
L19075 13532
" />
<path d="M22661 17118
L19222 13679
" />
<path d="M23772 17118
L22661 17118
" />
<path d="M19075 13532
L19222 13679
" />
<path d="M23772 17118
L28119 17118
" />
<path d="M28119 20618
L25056 20618
" />
<path d="M18970 14532
L17859 14532
" />
<path d="M25056 20618
L18970 14532
" />
<path d="M11851 12548
L11859 12540
" />
<path d="M8417 12548
L11851 12548
" />
<path d="M11851 13532
L11859 13540
" />
<path d="M8417 13532
L11851 13532
" />
<path d="M11835 14516
L11859 14540
" />
<path d="M8417 14516
L11835 14516
" />
<path d="M11820 15500
L11859 15540
" />
<path d="M8417 15500
L11820 15500
" />
</g>
<g >
</g>
</g>
<g style="fill:#FFFFFF; fill-opacity:0.0; 
stroke:#FFFFFF; stroke-width:590.551; stroke-opacity:1; 
stroke-linecap:round; stroke-linejoin:round;">
</g>
<g style="fill:#FFFFFF; fill-opacity:1.0; 
stroke:#FFFFFF; stroke-width:0; stroke-opacity:1; 
stroke-linecap:round; stroke-linejoin:round;">
<circle cx="28119.4" cy="8118.15" r="196.85" /> 
</g>
<g style="fill:#FFFFFF; fill-opacity:1.0; 
stroke:#FFFFFF; stroke-width:39.3701; stroke-opacity:1; 
stroke-linecap:round; stroke-linejoin:round;">
</g>
<g style="fill:#FFFFFF; fill-opacity:1.0; 
stroke:#FFFFFF; stroke-width:0; stroke-opacity:1; 
stroke-linecap:round; stroke-linejoin:round;">
<circle cx="28119.4" cy="7118.15" r="196.85" /> 
</g>
<g style="fill:#FFFFFF; fill-opacity:1.0; 
stroke:#FFFFFF; stroke-width:39.3701; stroke-opacity:1; 
stroke-linecap:round; stroke-linejoin:round;">
</g>
<g style="fill:#FFFFFF; fill-opacity:1.0; 
stroke:#FFFFFF; stroke-width:0; stroke-opacity:1; 
stroke-linecap:round; stroke-linejoin:round;">
<circle cx="28119.4" cy="6118.15" r="196.85" /> 
</g>
<g style="fill:#FFFFFF; fill-opacity:1.0; 
stroke:#FFFFFF; stroke-width:39.3701; stroke-opacity:1; 
stroke-linecap:round; stroke-linejoin:round;">
</g>
<g style="fill:#FFFFFF; fill-opacity:1.0; 
stroke:#FFFFFF; stroke-width:0; stroke-opacity:1; 
stroke-linecap:round; stroke-linejoin:round;">
<circle cx="17859.5" cy="15532.2" r="196.85" /> 
</g>
<g style="fill:#FFFFFF; fill-opacity:1.0; 
stroke:#FFFFFF; stroke-width:39.3701; stroke-opacity:1; 
stroke-linecap:round; stroke-linejoin:round;">
</g>
<g style="fill:#FFFFFF; fill-opacity:1.0; 
stroke:#FFFFFF; stroke-width:0; stroke-opacity:1; 
stroke-linecap:round; stroke-linejoin:round;">
<circle cx="17859.5" cy="14532.2" r="196.85" /> 
</g>
<g style="fill:#FFFFFF; fill-opacity:1.0; 
stroke:#FFFFFF; stroke-width:39.3701; stroke-opacity:1; 
stroke-linecap:round; stroke-linejoin:round;">
</g>
<g style="fill:#FFFFFF; fill-opacity:1.0; 
stroke:#FFFFFF; stroke-width:0; stroke-opacity:1; 
stroke-linecap:round; stroke-linejoin:round;">
<circle cx="17859.5" cy="13532.2" r="196.85" /> 
</g>
<g style="fill:#FFFFFF; fill-opacity:1.0; 
stroke:#FFFFFF; stroke-width:39.3701; stroke-opacity:1; 
stroke-linecap:round; stroke-linejoin:round;">
</g>
<g style="fill:#FFFFFF; fill-opacity:1.0; 
stroke:#FFFFFF; stroke-width:0; stroke-opacity:1; 
stroke-linecap:round; stroke-linejoin:round;">
<circle cx="17859.5" cy="12532.2" r="196.85" /> 
</g>
<g style="fill:#FFFFFF; fill-opacity:1.0; 
stroke:#FFFFFF; stroke-width:39.3701; stroke-opacity:1; 
stroke-linecap:round; stroke-linejoin:round;">
</g>
<g style="fill:#FFFFFF; fill-opacity:1.0; 
stroke:#FFFFFF; stroke-width:0; stroke-opacity:1; 
stroke-linecap:round; stroke-linejoin:round;">
<circle cx="17859.5" cy="11532.2" r="196.85" /> 
</g>
<g style="fill:#FFFFFF; fill-opacity:1.0; 
stroke:#FFFFFF; stroke-width:39.3701; stroke-opacity:1; 
stroke-linecap:round; stroke-linejoin:round;">
</g>
<g style="fill:#FFFFFF; fill-opacity:1.0; 
stroke:#FFFFFF; stroke-width:0; stroke-opacity:1; 
stroke-linecap:round; stroke-linejoin:round;">
<circle cx="17859.5" cy="10532.2" r="196.85" /> 
</g>
<g style="fill:#FFFFFF; fill-opacity:1.0; 
stroke:#FFFFFF; stroke-width:39.3701; stroke-opacity:1; 
stroke-linecap:round; stroke-linejoin:round;">
</g>
<g style="fill:#FFFFFF; fill-opacity:1.0; 
stroke:#FFFFFF; stroke-width:0; stroke-opacity:1; 
stroke-linecap:round; stroke-linejoin:round;">
<circle cx="17859.5" cy="9532.21" r="196.85" /> 
</g>
<g style="fill:#FFFFFF; fill-opacity:1.0; 
stroke:#FFFFFF; stroke-width:39.3701; stroke-opacity:1; 
stroke-linecap:round; stroke-linejoin:round;">
</g>
<g style="fill:#FFFFFF; fill-opacity:1.0; 
stroke:#FFFFFF; stroke-width:0; stroke-opacity:1; 
stroke-linecap:round; stroke-linejoin:round;">
<circle cx="17859.5" cy="8532.21" r="196.85" /> 
</g>
<g style="fill:#FFFFFF; fill-opacity:1.0; 
stroke:#FFFFFF; stroke-width:39.3701; stroke-opacity:1; 
stroke-linecap:round; stroke-linejoin:round;">
</g>
<g style="fill:#FFFFFF; fill-opacity:1.0; 
stroke:#FFFFFF; stroke-width:0; stroke-opacity:1; 
stroke-linecap:round; stroke-linejoin:round;">
<circle cx="17859.5" cy="16532.2" r="196.85" /> 
</g>
<g style="fill:#FFFFFF; fill-opacity:1.0; 
stroke:#FFFFFF; stroke-width:39.3701; stroke-opacity:1; 
stroke-linecap:round; stroke-linejoin:round;">
</g>
<g style="fill:#FFFFFF; fill-opacity:1.0; 
stroke:#FFFFFF; stroke-width:0; stroke-opacity:1; 
stroke-linecap:round; stroke-linejoin:round;">
<circle cx="28119.4" cy="21618.2" r="196.85" /> 
</g>
<g style="fill:#FFFFFF; fill-opacity:1.0; 
stroke:#FFFFFF; stroke-width:39.3701; stroke-opacity:1; 
stroke-linecap:round; stroke-linejoin:round;">
</g>
<g style="fill:#FFFFFF; fill-opacity:1.0; 
stroke:#FFFFFF; stroke-width:0; stroke-opacity:1; 
stroke-linecap:round; stroke-linejoin:round;">
<circle cx="28119.4" cy="20618.2" r="196.85" /> 
</g>
<g style="fill:#FFFFFF; fill-opacity:1.0; 
stroke:#FFFFFF; stroke-width:39.3701; stroke-opacity:1; 
stroke-linecap:round; stroke-linejoin:round;">
</g>
<g style="fill:#FFFFFF; fill-opacity:1.0; 
stroke:#FFFFFF; stroke-width:0; stroke-opacity:1; 
stroke-linecap:round; stroke-linejoin:round;">
<circle cx="28119.4" cy="19618.2" r="196.85" /> 
</g>
<g style="fill:#FFFFFF; fill-opacity:1.0; 
stroke:#FFFFFF; stroke-width:39.3701; stroke-opacity:1; 
stroke-linecap:round; stroke-linejoin:round;">
</g>
<g style="fill:#FFFFFF; fill-opacity:1.0; 
stroke:#FFFFFF; stroke-width:0; stroke-opacity:1; 
stroke-linecap:round; stroke-linejoin:round;">
<circle cx="28119.4" cy="18618.2" r="196.85" /> 
</g>
<g style="fill:#FFFFFF; fill-opacity:1.0; 
stroke:#FFFFFF; stroke-width:39.3701; stroke-opacity:1; 
stroke-linecap:round; stroke-linejoin:round;">
</g>
<g style="fill:#FFFFFF; fill-opacity:1.0; 
stroke:#FFFFFF; stroke-width:0; stroke-opacity:1; 
stroke-linecap:round; stroke-linejoin:round;">
<circle cx="8417.06" cy="12570.1" r="187.008" /> 
</g>
<g style="fill:#FFFFFF; fill-opacity:1.0; 
stroke:#FFFFFF; stroke-width:39.3701; stroke-opacity:1; 
stroke-linecap:round; stroke-linejoin:round;">
</g>
<g style="fill:#FFFFFF; fill-opacity:1.0; 
stroke:#FFFFFF; stroke-width:0; stroke-opacity:1; 
stroke-linecap:round; stroke-linejoin:round;">
<circle cx="8417.06" cy="13554.4" r="187.008" /> 
</g>
<g style="fill:#FFFFFF; fill-opacity:1.0; 
stroke:#FFFFFF; stroke-width:39.3701; stroke-opacity:1; 
stroke-linecap:round; stroke-linejoin:round;">
</g>
<g style="fill:#FFFFFF; fill-opacity:1.0; 
stroke:#FFFFFF; stroke-width:0; stroke-opacity:1; 
stroke-linecap:round; stroke-linejoin:round;">
<circle cx="8417.06" cy="14538.6" r="187.008" /> 
</g>
<g style="fill:#FFFFFF; fill-opacity:1.0; 
stroke:#FFFFFF; stroke-width:39.3701; stroke-opacity:1; 
stroke-linecap:round; stroke-linejoin:round;">
</g>
<g style="fill:#FFFFFF; fill-opacity:1.0; 
stroke:#FFFFFF; stroke-width:0; stroke-opacity:1; 
stroke-linecap:round; stroke-linejoin:round;">
<circle cx="8417.06" cy="15522.9" r="187.008" /> 
</g>
<g style="fill:#FFFFFF; fill-opacity:1.0; 
stroke:#FFFFFF; stroke-width:39.3701; stroke-opacity:1; 
stroke-linecap:round; stroke-linejoin:round;">
</g>
<g style="fill:#FFFFFF; fill-opacity:1.0; 
stroke:#FFFFFF; stroke-width:0; stroke-opacity:1; 
stroke-linecap:round; stroke-linejoin:round;">
<circle cx="8417.06" cy="16507.1" r="187.008" /> 
</g>
<g style="fill:#FFFFFF; fill-opacity:1.0; 
stroke:#FFFFFF; stroke-width:39.3701; stroke-opacity:1; 
stroke-linecap:round; stroke-linejoin:round;">
</g>
<g style="fill:#FFFFFF; fill-opacity:1.0; 
stroke:#FFFFFF; stroke-width:0; stroke-opacity:1; 
stroke-linecap:round; stroke-linejoin:round;">
<circle cx="8417.06" cy="17491.4" r="187.008" /> 
</g>
<g style="fill:#FFFFFF; fill-opacity:1.0; 
stroke:#FFFFFF; stroke-width:39.3701; stroke-opacity:1; 
stroke-linecap:round; stroke-linejoin:round;">
</g>
<g style="fill:#FFFFFF; fill-opacity:1.0; 
stroke:#FFFFFF; stroke-width:0; stroke-opacity:1; 
stroke-linecap:round; stroke-linejoin:round;">
<circle cx="28119.4" cy="14118.1" r="196.85" /> 
</g>
<g style="fill:#FFFFFF; fill-opacity:1.0; 
stroke:#FFFFFF; stroke-width:39.3701; stroke-opacity:1; 
stroke-linecap:round; stroke-linejoin:round;">
</g>
<g style="fill:#FFFFFF; fill-opacity:1.0; 
stroke:#FFFFFF; stroke-width:0; stroke-opacity:1; 
stroke-linecap:round; stroke-linejoin:round;">
<circle cx="28119.4" cy="15118.1" r="196.85" /> 
</g>
<g style="fill:#FFFFFF; fill-opacity:1.0; 
stroke:#FFFFFF; stroke-width:39.3701; stroke-opacity:1; 
stroke-linecap:round; stroke-linejoin:round;">
</g>
<g style="fill:#FFFFFF; fill-opacity:1.0; 
stroke:#FFFFFF; stroke-width:0; stroke-opacity:1; 
stroke-linecap:round; stroke-linejoin:round;">
<circle cx="28119.4" cy="16118.1" r="196.85" /> 
</g>
<g style="fill:#FFFFFF; fill-opacity:1.0; 
stroke:#FFFFFF; stroke-width:39.3701; stroke-opacity:1; 
stroke-linecap:round; stroke-linejoin:round;">
</g>
<g style="fill:#FFFFFF; fill-opacity:1.0; 
stroke:#FFFFFF; stroke-width:0; stroke-opacity:1; 
stroke-linecap:round; stroke-linejoin:round;">
<circle cx="28119.4" cy="17118.2" r="196.85" /> 
</g>
<g style="fill:#FFFFFF; fill-opacity:1.0; 
stroke:#FFFFFF; stroke-width:39.3701; stroke-opacity:1; 
stroke-linecap:round; stroke-linejoin:round;">
</g>
<g style="fill:#FFFFFF; fill-opacity:1.0; 
stroke:#FFFFFF; stroke-width:0; stroke-opacity:1; 
stroke-linecap:round; stroke-linejoin:round;">
<circle cx="28119.4" cy="9618.15" r="196.85" /> 
</g>
<g style="fill:#FFFFFF; fill-opacity:1.0; 
stroke:#FFFFFF; stroke-width:39.3701; stroke-opacity:1; 
stroke-linecap:round; stroke-linejoin:round;">
</g>
<g style="fill:#FFFFFF; fill-opacity:1.0; 
stroke:#FFFFFF; stroke-width:0; stroke-opacity:1; 
stroke-linecap:round; stroke-linejoin:round;">
<circle cx="28119.4" cy="10618.1" r="196.85" /> 
</g>
<g style="fill:#FFFFFF; fill-opacity:1.0; 
stroke:#FFFFFF; stroke-width:39.3701; stroke-opacity:1; 
stroke-linecap:round; stroke-linejoin:round;">
</g>
<g style="fill:#FFFFFF; fill-opacity:1.0; 
stroke:#FFFFFF; stroke-width:0; stroke-opacity:1; 
stroke-linecap:round; stroke-linejoin:round;">
<circle cx="28119.4" cy="11618.1" r="196.85" /> 
</g>
<g style="fill:#FFFFFF; fill-opacity:1.0; 
stroke:#FFFFFF; stroke-width:39.3701; stroke-opacity:1; 
stroke-linecap:round; stroke-linejoin:round;">
</g>
<g style="fill:#FFFFFF; fill-opacity:1.0; 
stroke:#FFFFFF; stroke-width:0; stroke-opacity:1; 
stroke-linecap:round; stroke-linejoin:round;">
<circle cx="28119.4" cy="12618.1" r="196.85" /> 
</g>
<g style="fill:#FFFFFF; fill-opacity:1.0; 
stroke:#FFFFFF; stroke-width:39.3701; stroke-opacity:1; 
stroke-linecap:round; stroke-linejoin:round;">
</g>
<g style="fill:#FFFFFF; fill-opacity:1.0; 
stroke:#FFFFFF; stroke-width:0; stroke-opacity:1; 
stroke-linecap:round; stroke-linejoin:round;">
<circle cx="11859.5" cy="8540.08" r="196.85" /> 
</g>
<g style="fill:#FFFFFF; fill-opacity:1.0; 
stroke:#FFFFFF; stroke-width:39.3701; stroke-opacity:1; 
stroke-linecap:round; stroke-linejoin:round;">
</g>
<g style="fill:#FFFFFF; fill-opacity:1.0; 
stroke:#FFFFFF; stroke-width:0; stroke-opacity:1; 
stroke-linecap:round; stroke-linejoin:round;">
<circle cx="11859.5" cy="9540.08" r="196.85" /> 
</g>
<g style="fill:#FFFFFF; fill-opacity:1.0; 
stroke:#FFFFFF; stroke-width:39.3701; stroke-opacity:1; 
stroke-linecap:round; stroke-linejoin:round;">
</g>
<g style="fill:#FFFFFF; fill-opacity:1.0; 
stroke:#FFFFFF; stroke-width:0; stroke-opacity:1; 
stroke-linecap:round; stroke-linejoin:round;">
<circle cx="11859.5" cy="10540.1" r="196.85" /> 
</g>
<g style="fill:#FFFFFF; fill-opacity:1.0; 
stroke:#FFFFFF; stroke-width:39.3701; stroke-opacity:1; 
stroke-linecap:round; stroke-linejoin:round;">
</g>
<g style="fill:#FFFFFF; fill-opacity:1.0; 
stroke:#FFFFFF; stroke-width:0; stroke-opacity:1; 
stroke-linecap:round; stroke-linejoin:round;">
<circle cx="11859.5" cy="11540.1" r="196.85" /> 
</g>
<g style="fill:#FFFFFF; fill-opacity:1.0; 
stroke:#FFFFFF; stroke-width:39.3701; stroke-opacity:1; 
stroke-linecap:round; stroke-linejoin:round;">
</g>
<g style="fill:#FFFFFF; fill-opacity:1.0; 
stroke:#FFFFFF; stroke-width:0; stroke-opacity:1; 
stroke-linecap:round; stroke-linejoin:round;">
<circle cx="11859.5" cy="12540.1" r="196.85" /> 
</g>
<g style="fill:#FFFFFF; fill-opacity:1.0; 
stroke:#FFFFFF; stroke-width:39.3701; stroke-opacity:1; 
stroke-linecap:round; stroke-linejoin:round;">
</g>
<g style="fill:#FFFFFF; fill-opacity:1.0; 
stroke:#FFFFFF; stroke-width:0; stroke-opacity:1; 
stroke-linecap:round; stroke-linejoin:round;">
<circle cx="11859.5" cy="13540.1" r="196.85" /> 
</g>
<g style="fill:#FFFFFF; fill-opacity:1.0; 
stroke:#FFFFFF; stroke-width:39.3701; stroke-opacity:1; 
stroke-linecap:round; stroke-linejoin:round;">
</g>
<g style="fill:#FFFFFF; fill-opacity:1.0; 
stroke:#FFFFFF; stroke-width:0; stroke-opacity:1; 
stroke-linecap:round; stroke-linejoin:round;">
<circle cx="11859.5" cy="14540.1" r="196.85" /> 
</g>
<g style="fill:#FFFFFF; fill-opacity:1.0; 
stroke:#FFFFFF; stroke-width:39.3701; stroke-opacity:1; 
stroke-linecap:round; stroke-linejoin:round;">
</g>
<g style="fill:#FFFFFF; fill-opacity:1.0; 
stroke:#FFFFFF; stroke-width:0; stroke-opacity:1; 
stroke-linecap:round; stroke-linejoin:round;">
<circle cx="11859.5" cy="15540.1" r="196.85" /> 
</g>
<g style="fill:#FFFFFF; fill-opacity:1.0; 
stroke:#FFFFFF; stroke-width:39.3701; stroke-opacity:1; 
stroke-linecap:round; stroke-linejoin:round;">
</g>
<g style="fill:#FFFFFF; fill-opacity:1.0; 
stroke:#FFFFFF; stroke-width:0; stroke-opacity:1; 
stroke-linecap:round; stroke-linejoin:round;">
<circle cx="11859.5" cy="16540.1" r="196.85" /> 
</g>
<g style="fill:#FFFFFF; fill-opacity:1.0; 
stroke:#FFFFFF; stroke-width:39.3701; stroke-opacity:1; 
stroke-linecap:round; stroke-linejoin:round;">
</g>
<g style="fill:#FFFFFF; fill-opacity:1.0; 
stroke:#FFFFFF; stroke-width:0; stroke-opacity:1; 
stroke-linecap:round; stroke-linejoin:round;">
<circle cx="11859.5" cy="17540.1" r="196.85" /> 
</g>
<g style="fill:#FFFFFF; fill-opacity:1.0; 
stroke:#FFFFFF; stroke-width:39.3701; stroke-opacity:1; 
stroke-linecap:round; stroke-linejoin:round;">
</g>
<g style="fill:#FFFFFF; fill-opacity:1.0; 
stroke:#FFFFFF; stroke-width:0; stroke-opacity:1; 
stroke-linecap:round; stroke-linejoin:round;">
<circle cx="11859.5" cy="18540.1" r="196.85" /> 
</g>
<g style="fill:#FFFFFF; fill-opacity:1.0; 
stroke:#FFFFFF; stroke-width:39.3701; stroke-opacity:1; 
stroke-linecap:round; stroke-linejoin:round;">
</g>
<g style="fill:#FFFFFF; fill-opacity:1.0; 
stroke:#FFFFFF; stroke-width:0; stroke-opacity:1; 
stroke-linecap:round; stroke-linejoin:round;">
<circle cx="11859.5" cy="19540.1" r="196.85" /> 
</g>
<g style="fill:#FFFFFF; fill-opacity:1.0; 
stroke:#FFFFFF; stroke-width:39.3701; stroke-opacity:1; 
stroke-linecap:round; stroke-linejoin:round;">
</g>
<g style="fill:#FFFFFF; fill-opacity:1.0; 
stroke:#FFFFFF; stroke-width:0; stroke-opacity:1; 
stroke-linecap:round; stroke-linejoin:round;">
<circle cx="8114.3" cy="4599.65" r="196.85" /> 
</g>
<g style="fill:#FFFFFF; fill-opacity:1.0; 
stroke:#FFFFFF; stroke-width:39.3701; stroke-opacity:1; 
stroke-linecap:round; stroke-linejoin:round;">
</g>
<g style="fill:#FFFFFF; fill-opacity:1.0; 
stroke:#FFFFFF; stroke-width:0; stroke-opacity:1; 
stroke-linecap:round; stroke-linejoin:round;">
<circle cx="8114.3" cy="7591.77" r="196.85" /> 
</g>
<g style="fill:#FFFFFF; fill-opacity:1.0; 
stroke:#FFFFFF; stroke-width:39.3701; stroke-opacity:1; 
stroke-linecap:round; stroke-linejoin:round;">
</g>
<g style="fill:#000000; fill-opacity:1.0; 
stroke:#000000; stroke-width:39.3701; stroke-opacity:1; 
stroke-linecap:round; stroke-linejoin:round;">
</g>
<g style="fill:#000000; fill-opacity:0.0; 
stroke:#000000; stroke-width:39.3701; stroke-opacity:1; 
stroke-linecap:round; stroke-linejoin:round;">
<circle cx="21079.3" cy="13819.7" r="131.233" /> 
<path d="M20882 13819
L21276 13819
" />
<path d="M21079 13622
L21079 14016
" />
</g>
<g style="fill:#000000; fill-opacity:0.0; 
stroke:#000000; stroke-width:78.7402; stroke-opacity:1; 
stroke-linecap:round; stroke-linejoin:round;">
<path d="M3346 27598
L3346 39
" />
<path d="M38814 39
L3346 39
" />
<path d="M38814 27598
L38814 39
" />
<path d="M3346 27598
L38814 27598
" />
<circle cx="35923.4" cy="25529.2" r="590.551" /> 
<circle cx="35923.4" cy="2385.87" r="590.551" /> 
<circle cx="6314.3" cy="2385.87" r="590.551" /> 
<circle cx="6314.3" cy="25529.2" r="590.551" /> 
<g >
</g>
<g >
</g>
<g >
</g>
<g >
</g>
<g >
</g>
<g >
</g>
<g >
</g>
<g >
</g>
<g >
</g>
</g> 
</svg>
