<?xml version="1.0" standalone="no"?>
 <!DOCTYPE svg PUBLIC "-//W3C//DTD SVG 1.1//EN" 
 "http://www.w3.org/Graphics/SVG/1.1/DTD/svg11.dtd"> 
<svg
  xmlns:svg="http://www.w3.org/2000/svg"
  xmlns="http://www.w3.org/2000/svg"
  xmlns:xlink="http://www.w3.org/1999/xlink"
  version="1.1"
  width="9.867900cm" height="7.564120cm" viewBox="0 0 38850 29780">
<title>SVG Picture created as OFICINA-TELE-ENCHUFES-RELES-F_Cu.svg date 2021/07/26 19:49:23 </title>
  <desc>Picture generated by PCBNEW </desc>
<g style="fill:#000000; fill-opacity:1;stroke:#000000; stroke-opacity:1;
stroke-linecap:round; stroke-linejoin:round;"
 transform="translate(0 0) scale(1 1)">
</g>
<g style="fill:#000000; fill-opacity:0.0; 
stroke:#000000; stroke-width:-0.000393701; stroke-opacity:1; 
stroke-linecap:round; stroke-linejoin:round;">
</g>
<g style="fill:#000000; fill-opacity:0.0; 
stroke:#000000; stroke-width:196.85; stroke-opacity:1; 
stroke-linecap:round; stroke-linejoin:round;">
<g transform="rotate(-90 33791.1 13502.8)">
<text x="33791.1" y="14093.3"
textLength="22942.1" font-size="1574.8" lengthAdjust="spacingAndGlyphs"
text-anchor="middle" opacity="0">OFICINA-TELE-ENCHUFES</text>
</g>
<path d="M33144 24442
L33144 24217
L33200 24104
L33313 23992
L33537 23935
L33931 23935
L34156 23992
L34269 24104
L34325 24217
L34325 24442
L34269 24554
L34156 24667
L33931 24723
L33537 24723
L33313 24667
L33200 24554
L33144 24442
" />
<path d="M33706 23035
L33706 23429
" />
<path d="M34325 23429
L33144 23429
L33144 22867
" />
<path d="M34325 22417
L33144 22417
" />
<path d="M34212 21179
L34269 21236
L34325 21404
L34325 21517
L34269 21686
L34156 21798
L34044 21854
L33819 21911
L33650 21911
L33425 21854
L33313 21798
L33200 21686
L33144 21517
L33144 21404
L33200 21236
L33256 21179
" />
<path d="M34325 20673
L33144 20673
" />
<path d="M34325 20111
L33144 20111
L34325 19436
L33144 19436
" />
<path d="M33987 18930
L33987 18367
" />
<path d="M34325 19042
L33144 18649
L34325 18255
" />
<path d="M33875 17861
L33875 16961
" />
<path d="M33144 16568
L33144 15893
" />
<path d="M34325 16230
L33144 16230
" />
<path d="M33706 15499
L33706 15105
" />
<path d="M34325 14936
L34325 15499
L33144 15499
L33144 14936
" />
<path d="M34325 13868
L34325 14430
L33144 14430
" />
<path d="M33706 13474
L33706 13080
" />
<path d="M34325 12912
L34325 13474
L33144 13474
L33144 12912
" />
<path d="M33875 12406
L33875 11506
" />
<path d="M33706 10943
L33706 10550
" />
<path d="M34325 10381
L34325 10943
L33144 10943
L33144 10381
" />
<path d="M34325 9875
L33144 9875
L34325 9200
L33144 9200
" />
<path d="M34212 7962
L34269 8019
L34325 8187
L34325 8300
L34269 8469
L34156 8581
L34044 8637
L33819 8694
L33650 8694
L33425 8637
L33313 8581
L33200 8469
L33144 8300
L33144 8187
L33200 8019
L33256 7962
" />
<path d="M34325 7456
L33144 7456
" />
<path d="M33706 7456
L33706 6781
" />
<path d="M34325 6781
L33144 6781
" />
<path d="M33144 6219
L34100 6219
L34212 6163
L34269 6106
L34325 5994
L34325 5769
L34269 5656
L34212 5600
L34100 5544
L33144 5544
" />
<path d="M33706 4588
L33706 4981
" />
<path d="M34325 4981
L33144 4981
L33144 4419
" />
<path d="M33706 3969
L33706 3575
" />
<path d="M34325 3407
L34325 3969
L33144 3969
L33144 3407
" />
<path d="M34269 2957
L34325 2788
L34325 2507
L34269 2394
L34212 2338
L34100 2282
L33987 2282
L33875 2338
L33819 2394
L33762 2507
L33706 2732
L33650 2844
L33594 2900
L33481 2957
L33369 2957
L33256 2900
L33200 2844
L33144 2732
L33144 2451
L33200 2282
" />
<g transform="rotate(-90 35759.6 13502.8)">
<text x="35759.6" y="14093.3"
textLength="5655.23" font-size="1574.8" lengthAdjust="spacingAndGlyphs"
text-anchor="middle" opacity="0">RELÉS</text>
</g>
<path d="M36293 15246
L35731 15640
" />
<path d="M36293 15921
L35112 15921
L35112 15471
L35169 15358
L35225 15302
L35337 15246
L35506 15246
L35618 15302
L35675 15358
L35731 15471
L35731 15921
" />
<path d="M35675 14740
L35675 14346
" />
<path d="M36293 14177
L36293 14740
L35112 14740
L35112 14177
" />
<path d="M36293 13109
L36293 13671
L35112 13671
" />
<path d="M35675 12715
L35675 12321
" />
<path d="M36293 12152
L36293 12715
L35112 12715
L35112 12152
" />
<path d="M34662 12321
L34831 12490
" />
<path d="M36237 11703
L36293 11534
L36293 11253
L36237 11140
L36181 11084
L36068 11028
L35956 11028
L35843 11084
L35787 11140
L35731 11253
L35675 11478
L35618 11590
L35562 11646
L35450 11703
L35337 11703
L35225 11646
L35169 11590
L35112 11478
L35112 11196
L35169 11028
" />
<text x="20669.4" y="3455.55"
textLength="17953.7" font-size="2099.74" lengthAdjust="spacingAndGlyphs"
text-anchor="middle" opacity="0">By APACHEBCN</text>
<path d="M12720 2555
L12945 2630
L13020 2705
L13095 2855
L13095 3080
L13020 3230
L12945 3305
L12795 3380
L12195 3380
L12195 1805
L12720 1805
L12870 1880
L12945 1955
L13020 2105
L13020 2255
L12945 2405
L12870 2480
L12720 2555
L12195 2555
" />
<path d="M13620 2330
L13995 3380
" />
<path d="M14370 2330
L13995 3380
L13845 3755
L13770 3830
L13620 3905
" />
<path d="M16094 2930
L16844 2930
" />
<path d="M15945 3380
L16469 1805
L16994 3380
" />
<path d="M17519 3380
L17519 1805
L18119 1805
L18269 1880
L18344 1955
L18419 2105
L18419 2330
L18344 2480
L18269 2555
L18119 2630
L17519 2630
" />
<path d="M19019 2930
L19769 2930
" />
<path d="M18869 3380
L19394 1805
L19919 3380
" />
<path d="M21344 3230
L21269 3305
L21044 3380
L20894 3380
L20669 3305
L20519 3155
L20444 3005
L20369 2705
L20369 2480
L20444 2180
L20519 2030
L20669 1880
L20894 1805
L21044 1805
L21269 1880
L21344 1955
" />
<path d="M22019 3380
L22019 1805
" />
<path d="M22019 2555
L22919 2555
" />
<path d="M22919 3380
L22919 1805
" />
<path d="M23669 2555
L24193 2555
" />
<path d="M24418 3380
L23669 3380
L23669 1805
L24418 1805
" />
<path d="M25618 2555
L25843 2630
L25918 2705
L25993 2855
L25993 3080
L25918 3230
L25843 3305
L25693 3380
L25093 3380
L25093 1805
L25618 1805
L25768 1880
L25843 1955
L25918 2105
L25918 2255
L25843 2405
L25768 2480
L25618 2555
L25093 2555
" />
<path d="M27568 3230
L27493 3305
L27268 3380
L27118 3380
L26893 3305
L26743 3155
L26668 3005
L26593 2705
L26593 2480
L26668 2180
L26743 2030
L26893 1880
L27118 1805
L27268 1805
L27493 1880
L27568 1955
" />
<path d="M28243 3380
L28243 1805
L29143 3380
L29143 1805
" />
</g>
<g style="fill:#000000; fill-opacity:0.0; 
stroke:#000000; stroke-width:98.4252; stroke-opacity:1; 
stroke-linecap:round; stroke-linejoin:round;">
<text x="19469.4" y="23861.5"
textLength="3705.47" font-size="839.895" lengthAdjust="spacingAndGlyphs"
text-anchor="middle" opacity="0">FRENTE</text>
<path d="M18104 23501
L17894 23501
" />
<path d="M17894 23831
L17894 23201
L18194 23201
" />
<path d="M18794 23831
L18584 23531
" />
<path d="M18434 23831
L18434 23201
L18674 23201
L18734 23231
L18764 23261
L18794 23321
L18794 23411
L18764 23471
L18734 23501
L18674 23531
L18434 23531
" />
<path d="M19064 23501
L19274 23501
" />
<path d="M19364 23831
L19064 23831
L19064 23201
L19364 23201
" />
<path d="M19634 23831
L19634 23201
L19994 23831
L19994 23201
" />
<path d="M20204 23201
L20564 23201
" />
<path d="M20384 23831
L20384 23201
" />
<path d="M20774 23501
L20984 23501
" />
<path d="M21074 23831
L20774 23831
L20774 23201
L21074 23201
" />
<text x="19469.4" y="24904.8"
textLength="6967.1" font-size="839.895" lengthAdjust="spacingAndGlyphs"
text-anchor="middle" opacity="0">COMPONENTES</text>
<path d="M16559 24814
L16529 24844
L16439 24874
L16379 24874
L16289 24844
L16229 24784
L16199 24724
L16169 24604
L16169 24514
L16199 24394
L16229 24334
L16289 24274
L16379 24244
L16439 24244
L16529 24274
L16559 24304
" />
<path d="M16949 24244
L17069 24244
L17129 24274
L17189 24334
L17219 24454
L17219 24664
L17189 24784
L17129 24844
L17069 24874
L16949 24874
L16889 24844
L16829 24784
L16799 24664
L16799 24454
L16829 24334
L16889 24274
L16949 24244
" />
<path d="M17489 24874
L17489 24244
L17699 24694
L17909 24244
L17909 24874
" />
<path d="M18209 24874
L18209 24244
L18449 24244
L18509 24274
L18539 24304
L18569 24364
L18569 24454
L18539 24514
L18509 24544
L18449 24574
L18209 24574
" />
<path d="M18959 24244
L19079 24244
L19139 24274
L19199 24334
L19229 24454
L19229 24664
L19199 24784
L19139 24844
L19079 24874
L18959 24874
L18899 24844
L18839 24784
L18809 24664
L18809 24454
L18839 24334
L18899 24274
L18959 24244
" />
<path d="M19499 24874
L19499 24244
L19859 24874
L19859 24244
" />
<path d="M20159 24544
L20369 24544
" />
<path d="M20459 24874
L20159 24874
L20159 24244
L20459 24244
" />
<path d="M20729 24874
L20729 24244
L21089 24874
L21089 24244
" />
<path d="M21299 24244
L21659 24244
" />
<path d="M21479 24874
L21479 24244
" />
<path d="M21869 24544
L22079 24544
" />
<path d="M22169 24874
L21869 24874
L21869 24244
L22169 24244
" />
<path d="M22409 24844
L22499 24874
L22649 24874
L22709 24844
L22739 24814
L22769 24754
L22769 24694
L22739 24634
L22709 24604
L22649 24574
L22529 24544
L22469 24514
L22439 24484
L22409 24424
L22409 24364
L22439 24304
L22469 24274
L22529 24244
L22679 24244
L22769 24274
" />
<g >
</g>
<g style="fill:#000000; fill-opacity:1.0; 
stroke:#000000; stroke-width:0; stroke-opacity:1; 
stroke-linecap:round; stroke-linejoin:round;">
<circle cx="28119.4" cy="8118.15" r="334.646" /> 
<circle cx="28119.4" cy="7118.15" r="334.646" /> 
<path style="fill:#000000; fill-opacity:1.0; 
stroke:#000000; stroke-width:0; stroke-opacity:1; 
stroke-linecap:round; stroke-linejoin:round;fill-rule:evenodd;"
d="M 27784.8,6452.8
27784.8,5783.5
28454.1,5783.5
28454.1,6452.8
Z" /> 
</g>
<g >
</g>
<g style="fill:#000000; fill-opacity:1.0; 
stroke:#000000; stroke-width:0; stroke-opacity:1; 
stroke-linecap:round; stroke-linejoin:round;">
<circle cx="17859.5" cy="15532.2" r="334.646" /> 
<circle cx="17859.5" cy="14532.2" r="334.646" /> 
<circle cx="17859.5" cy="13532.2" r="334.646" /> 
<circle cx="17859.5" cy="12532.2" r="334.646" /> 
<circle cx="17859.5" cy="11532.2" r="334.646" /> 
<circle cx="17859.5" cy="10532.2" r="334.646" /> 
<circle cx="17859.5" cy="9532.21" r="334.646" /> 
<circle cx="17859.5" cy="8532.21" r="334.646" /> 
<circle cx="17859.5" cy="16532.2" r="334.646" /> 
</g>
<g >
</g>
<g style="fill:#000000; fill-opacity:1.0; 
stroke:#000000; stroke-width:0; stroke-opacity:1; 
stroke-linecap:round; stroke-linejoin:round;">
<circle cx="28119.4" cy="21618.2" r="334.646" /> 
<circle cx="28119.4" cy="20618.2" r="334.646" /> 
<circle cx="28119.4" cy="19618.2" r="334.646" /> 
<path style="fill:#000000; fill-opacity:1.0; 
stroke:#000000; stroke-width:0; stroke-opacity:1; 
stroke-linecap:round; stroke-linejoin:round;fill-rule:evenodd;"
d="M 27784.8,18952.8
27784.8,18283.5
28454.1,18283.5
28454.1,18952.8
Z" /> 
</g>
<g >
</g>
<g style="fill:#000000; fill-opacity:1.0; 
stroke:#000000; stroke-width:0; stroke-opacity:1; 
stroke-linecap:round; stroke-linejoin:round;">
<path style="fill:#000000; fill-opacity:1.0; 
stroke:#000000; stroke-width:0; stroke-opacity:1; 
stroke-linecap:round; stroke-linejoin:round;fill-rule:evenodd;"
d="M 8712.14,12235.9
8721.7,12237.4
8731.06,12239.7
8740.16,12243
8748.89,12247.1
8757.18,12252.1
8764.93,12257.8
8772.09,12264.3
8778.58,12271.5
8784.33,12279.2
8789.3,12287.5
8793.43,12296.2
8796.68,12305.3
8799.03,12314.7
8800.44,12324.3
8800.92,12333.9
8800.92,12806.3
8800.44,12816
8799.03,12825.5
8796.68,12834.9
8793.43,12844
8789.3,12852.7
8784.33,12861
8778.58,12868.8
8772.09,12875.9
8764.93,12882.4
8757.18,12888.2
8748.89,12893.1
8740.16,12897.3
8731.06,12900.5
8721.7,12902.9
8712.14,12904.3
8702.49,12904.8
8131.63,12904.8
8121.98,12904.3
8112.43,12902.9
8103.06,12900.5
8093.96,12897.3
8085.23,12893.1
8076.94,12888.2
8069.19,12882.4
8062.03,12875.9
8055.54,12868.8
8049.79,12861
8044.82,12852.7
8040.69,12844
8037.44,12834.9
8035.09,12825.5
8033.68,12816
8033.2,12806.3
8033.2,12333.9
8033.68,12324.3
8035.09,12314.7
8037.44,12305.3
8040.69,12296.2
8044.82,12287.5
8049.79,12279.2
8055.54,12271.5
8062.03,12264.3
8069.19,12257.8
8076.94,12252.1
8085.23,12247.1
8093.96,12243
8103.06,12239.7
8112.43,12237.4
8121.98,12235.9
8131.63,12235.5
8702.49,12235.5
Z" /> 
</g>
<g style="fill:#000000; fill-opacity:1.0; 
stroke:#000000; stroke-width:669.291; stroke-opacity:1; 
stroke-linecap:round; stroke-linejoin:round;">
</g>
<g style="fill:#000000; fill-opacity:0.0; 
stroke:#000000; stroke-width:669.291; stroke-opacity:1; 
stroke-linecap:round; stroke-linejoin:round;">
<path d="M8466 13554
L8367 13554
" />
<path d="M8466 14538
L8367 14538
" />
<path d="M8466 15522
L8367 15522
" />
<path d="M8466 16507
L8367 16507
" />
<path d="M8466 17491
L8367 17491
" />
</g>
<g >
</g>
<g style="fill:#000000; fill-opacity:0.0; 
stroke:#000000; stroke-width:669.291; stroke-opacity:1; 
stroke-linecap:round; stroke-linejoin:round;">
</g>
<g style="fill:#000000; fill-opacity:0.0; 
stroke:#000000; stroke-width:0; stroke-opacity:1; 
stroke-linecap:round; stroke-linejoin:round;">
</g>
<g style="fill:#000000; fill-opacity:1.0; 
stroke:#000000; stroke-width:0; stroke-opacity:1; 
stroke-linecap:round; stroke-linejoin:round;">
<path style="fill:#000000; fill-opacity:1.0; 
stroke:#000000; stroke-width:0; stroke-opacity:1; 
stroke-linecap:round; stroke-linejoin:round;fill-rule:evenodd;"
d="M 27784.8,14452.8
27784.8,13783.5
28454.1,13783.5
28454.1,14452.8
Z" /> 
<circle cx="28119.4" cy="15118.1" r="334.646" /> 
<circle cx="28119.4" cy="16118.1" r="334.646" /> 
<circle cx="28119.4" cy="17118.2" r="334.646" /> 
</g>
<g >
</g>
<g style="fill:#000000; fill-opacity:1.0; 
stroke:#000000; stroke-width:0; stroke-opacity:1; 
stroke-linecap:round; stroke-linejoin:round;">
<path style="fill:#000000; fill-opacity:1.0; 
stroke:#000000; stroke-width:0; stroke-opacity:1; 
stroke-linecap:round; stroke-linejoin:round;fill-rule:evenodd;"
d="M 27784.8,9952.8
27784.8,9283.5
28454.1,9283.5
28454.1,9952.8
Z" /> 
<circle cx="28119.4" cy="10618.1" r="334.646" /> 
<circle cx="28119.4" cy="11618.1" r="334.646" /> 
<circle cx="28119.4" cy="12618.1" r="334.646" /> 
</g>
<g >
</g>
<g style="fill:#000000; fill-opacity:1.0; 
stroke:#000000; stroke-width:0; stroke-opacity:1; 
stroke-linecap:round; stroke-linejoin:round;">
<circle cx="11859.5" cy="8540.08" r="334.646" /> 
<circle cx="11859.5" cy="9540.08" r="334.646" /> 
<circle cx="11859.5" cy="10540.1" r="334.646" /> 
<circle cx="11859.5" cy="11540.1" r="334.646" /> 
<circle cx="11859.5" cy="12540.1" r="334.646" /> 
<circle cx="11859.5" cy="13540.1" r="334.646" /> 
<circle cx="11859.5" cy="14540.1" r="334.646" /> 
<circle cx="11859.5" cy="15540.1" r="334.646" /> 
<circle cx="11859.5" cy="16540.1" r="334.646" /> 
<circle cx="11859.5" cy="17540.1" r="334.646" /> 
<circle cx="11859.5" cy="18540.1" r="334.646" /> 
<path style="fill:#000000; fill-opacity:1.0; 
stroke:#000000; stroke-width:0; stroke-opacity:1; 
stroke-linecap:round; stroke-linejoin:round;fill-rule:evenodd;"
d="M 12194.1,19205.4
12194.1,19874.7
11524.8,19874.7
11524.8,19205.4
Z" /> 
</g>
<g >
</g>
<g style="fill:#000000; fill-opacity:1.0; 
stroke:#000000; stroke-width:0; stroke-opacity:1; 
stroke-linecap:round; stroke-linejoin:round;">
<path style="fill:#000000; fill-opacity:1.0; 
stroke:#000000; stroke-width:0; stroke-opacity:1; 
stroke-linecap:round; stroke-linejoin:round;fill-rule:evenodd;"
d="M 7720.6,4205.95
8508.01,4205.95
8508.01,4993.35
7720.6,4993.35
Z" /> 
<circle cx="8114.3" cy="7591.77" r="393.701" /> 
</g>
<g style="fill:#000000; fill-opacity:1.0; 
stroke:#000000; stroke-width:39.3701; stroke-opacity:1; 
stroke-linecap:round; stroke-linejoin:round;">
</g>
<g >
</g>
<g >
</g>
<g >
</g>
</g>
<g style="fill:#FFFFFF; fill-opacity:1.0; 
stroke:#FFFFFF; stroke-width:39.3701; stroke-opacity:1; 
stroke-linecap:round; stroke-linejoin:round;">
</g>
<g style="fill:#FFFFFF; fill-opacity:1.0; 
stroke:#FFFFFF; stroke-width:0; stroke-opacity:1; 
stroke-linecap:round; stroke-linejoin:round;">
<circle cx="28119.4" cy="8118.15" r="196.85" /> 
</g>
<g style="fill:#FFFFFF; fill-opacity:1.0; 
stroke:#FFFFFF; stroke-width:39.3701; stroke-opacity:1; 
stroke-linecap:round; stroke-linejoin:round;">
</g>
<g style="fill:#FFFFFF; fill-opacity:1.0; 
stroke:#FFFFFF; stroke-width:0; stroke-opacity:1; 
stroke-linecap:round; stroke-linejoin:round;">
<circle cx="28119.4" cy="7118.15" r="196.85" /> 
</g>
<g style="fill:#FFFFFF; fill-opacity:1.0; 
stroke:#FFFFFF; stroke-width:39.3701; stroke-opacity:1; 
stroke-linecap:round; stroke-linejoin:round;">
</g>
<g style="fill:#FFFFFF; fill-opacity:1.0; 
stroke:#FFFFFF; stroke-width:0; stroke-opacity:1; 
stroke-linecap:round; stroke-linejoin:round;">
<circle cx="28119.4" cy="6118.15" r="196.85" /> 
</g>
<g style="fill:#FFFFFF; fill-opacity:1.0; 
stroke:#FFFFFF; stroke-width:39.3701; stroke-opacity:1; 
stroke-linecap:round; stroke-linejoin:round;">
</g>
<g style="fill:#FFFFFF; fill-opacity:1.0; 
stroke:#FFFFFF; stroke-width:0; stroke-opacity:1; 
stroke-linecap:round; stroke-linejoin:round;">
<circle cx="17859.5" cy="15532.2" r="196.85" /> 
</g>
<g style="fill:#FFFFFF; fill-opacity:1.0; 
stroke:#FFFFFF; stroke-width:39.3701; stroke-opacity:1; 
stroke-linecap:round; stroke-linejoin:round;">
</g>
<g style="fill:#FFFFFF; fill-opacity:1.0; 
stroke:#FFFFFF; stroke-width:0; stroke-opacity:1; 
stroke-linecap:round; stroke-linejoin:round;">
<circle cx="17859.5" cy="14532.2" r="196.85" /> 
</g>
<g style="fill:#FFFFFF; fill-opacity:1.0; 
stroke:#FFFFFF; stroke-width:39.3701; stroke-opacity:1; 
stroke-linecap:round; stroke-linejoin:round;">
</g>
<g style="fill:#FFFFFF; fill-opacity:1.0; 
stroke:#FFFFFF; stroke-width:0; stroke-opacity:1; 
stroke-linecap:round; stroke-linejoin:round;">
<circle cx="17859.5" cy="13532.2" r="196.85" /> 
</g>
<g style="fill:#FFFFFF; fill-opacity:1.0; 
stroke:#FFFFFF; stroke-width:39.3701; stroke-opacity:1; 
stroke-linecap:round; stroke-linejoin:round;">
</g>
<g style="fill:#FFFFFF; fill-opacity:1.0; 
stroke:#FFFFFF; stroke-width:0; stroke-opacity:1; 
stroke-linecap:round; stroke-linejoin:round;">
<circle cx="17859.5" cy="12532.2" r="196.85" /> 
</g>
<g style="fill:#FFFFFF; fill-opacity:1.0; 
stroke:#FFFFFF; stroke-width:39.3701; stroke-opacity:1; 
stroke-linecap:round; stroke-linejoin:round;">
</g>
<g style="fill:#FFFFFF; fill-opacity:1.0; 
stroke:#FFFFFF; stroke-width:0; stroke-opacity:1; 
stroke-linecap:round; stroke-linejoin:round;">
<circle cx="17859.5" cy="11532.2" r="196.85" /> 
</g>
<g style="fill:#FFFFFF; fill-opacity:1.0; 
stroke:#FFFFFF; stroke-width:39.3701; stroke-opacity:1; 
stroke-linecap:round; stroke-linejoin:round;">
</g>
<g style="fill:#FFFFFF; fill-opacity:1.0; 
stroke:#FFFFFF; stroke-width:0; stroke-opacity:1; 
stroke-linecap:round; stroke-linejoin:round;">
<circle cx="17859.5" cy="10532.2" r="196.85" /> 
</g>
<g style="fill:#FFFFFF; fill-opacity:1.0; 
stroke:#FFFFFF; stroke-width:39.3701; stroke-opacity:1; 
stroke-linecap:round; stroke-linejoin:round;">
</g>
<g style="fill:#FFFFFF; fill-opacity:1.0; 
stroke:#FFFFFF; stroke-width:0; stroke-opacity:1; 
stroke-linecap:round; stroke-linejoin:round;">
<circle cx="17859.5" cy="9532.21" r="196.85" /> 
</g>
<g style="fill:#FFFFFF; fill-opacity:1.0; 
stroke:#FFFFFF; stroke-width:39.3701; stroke-opacity:1; 
stroke-linecap:round; stroke-linejoin:round;">
</g>
<g style="fill:#FFFFFF; fill-opacity:1.0; 
stroke:#FFFFFF; stroke-width:0; stroke-opacity:1; 
stroke-linecap:round; stroke-linejoin:round;">
<circle cx="17859.5" cy="8532.21" r="196.85" /> 
</g>
<g style="fill:#FFFFFF; fill-opacity:1.0; 
stroke:#FFFFFF; stroke-width:39.3701; stroke-opacity:1; 
stroke-linecap:round; stroke-linejoin:round;">
</g>
<g style="fill:#FFFFFF; fill-opacity:1.0; 
stroke:#FFFFFF; stroke-width:0; stroke-opacity:1; 
stroke-linecap:round; stroke-linejoin:round;">
<circle cx="17859.5" cy="16532.2" r="196.85" /> 
</g>
<g style="fill:#FFFFFF; fill-opacity:1.0; 
stroke:#FFFFFF; stroke-width:39.3701; stroke-opacity:1; 
stroke-linecap:round; stroke-linejoin:round;">
</g>
<g style="fill:#FFFFFF; fill-opacity:1.0; 
stroke:#FFFFFF; stroke-width:0; stroke-opacity:1; 
stroke-linecap:round; stroke-linejoin:round;">
<circle cx="28119.4" cy="21618.2" r="196.85" /> 
</g>
<g style="fill:#FFFFFF; fill-opacity:1.0; 
stroke:#FFFFFF; stroke-width:39.3701; stroke-opacity:1; 
stroke-linecap:round; stroke-linejoin:round;">
</g>
<g style="fill:#FFFFFF; fill-opacity:1.0; 
stroke:#FFFFFF; stroke-width:0; stroke-opacity:1; 
stroke-linecap:round; stroke-linejoin:round;">
<circle cx="28119.4" cy="20618.2" r="196.85" /> 
</g>
<g style="fill:#FFFFFF; fill-opacity:1.0; 
stroke:#FFFFFF; stroke-width:39.3701; stroke-opacity:1; 
stroke-linecap:round; stroke-linejoin:round;">
</g>
<g style="fill:#FFFFFF; fill-opacity:1.0; 
stroke:#FFFFFF; stroke-width:0; stroke-opacity:1; 
stroke-linecap:round; stroke-linejoin:round;">
<circle cx="28119.4" cy="19618.2" r="196.85" /> 
</g>
<g style="fill:#FFFFFF; fill-opacity:1.0; 
stroke:#FFFFFF; stroke-width:39.3701; stroke-opacity:1; 
stroke-linecap:round; stroke-linejoin:round;">
</g>
<g style="fill:#FFFFFF; fill-opacity:1.0; 
stroke:#FFFFFF; stroke-width:0; stroke-opacity:1; 
stroke-linecap:round; stroke-linejoin:round;">
<circle cx="28119.4" cy="18618.2" r="196.85" /> 
</g>
<g style="fill:#FFFFFF; fill-opacity:1.0; 
stroke:#FFFFFF; stroke-width:39.3701; stroke-opacity:1; 
stroke-linecap:round; stroke-linejoin:round;">
</g>
<g style="fill:#FFFFFF; fill-opacity:1.0; 
stroke:#FFFFFF; stroke-width:0; stroke-opacity:1; 
stroke-linecap:round; stroke-linejoin:round;">
<circle cx="8417.06" cy="12570.1" r="187.008" /> 
</g>
<g style="fill:#FFFFFF; fill-opacity:1.0; 
stroke:#FFFFFF; stroke-width:39.3701; stroke-opacity:1; 
stroke-linecap:round; stroke-linejoin:round;">
</g>
<g style="fill:#FFFFFF; fill-opacity:1.0; 
stroke:#FFFFFF; stroke-width:0; stroke-opacity:1; 
stroke-linecap:round; stroke-linejoin:round;">
<circle cx="8417.06" cy="13554.4" r="187.008" /> 
</g>
<g style="fill:#FFFFFF; fill-opacity:1.0; 
stroke:#FFFFFF; stroke-width:39.3701; stroke-opacity:1; 
stroke-linecap:round; stroke-linejoin:round;">
</g>
<g style="fill:#FFFFFF; fill-opacity:1.0; 
stroke:#FFFFFF; stroke-width:0; stroke-opacity:1; 
stroke-linecap:round; stroke-linejoin:round;">
<circle cx="8417.06" cy="14538.6" r="187.008" /> 
</g>
<g style="fill:#FFFFFF; fill-opacity:1.0; 
stroke:#FFFFFF; stroke-width:39.3701; stroke-opacity:1; 
stroke-linecap:round; stroke-linejoin:round;">
</g>
<g style="fill:#FFFFFF; fill-opacity:1.0; 
stroke:#FFFFFF; stroke-width:0; stroke-opacity:1; 
stroke-linecap:round; stroke-linejoin:round;">
<circle cx="8417.06" cy="15522.9" r="187.008" /> 
</g>
<g style="fill:#FFFFFF; fill-opacity:1.0; 
stroke:#FFFFFF; stroke-width:39.3701; stroke-opacity:1; 
stroke-linecap:round; stroke-linejoin:round;">
</g>
<g style="fill:#FFFFFF; fill-opacity:1.0; 
stroke:#FFFFFF; stroke-width:0; stroke-opacity:1; 
stroke-linecap:round; stroke-linejoin:round;">
<circle cx="8417.06" cy="16507.1" r="187.008" /> 
</g>
<g style="fill:#FFFFFF; fill-opacity:1.0; 
stroke:#FFFFFF; stroke-width:39.3701; stroke-opacity:1; 
stroke-linecap:round; stroke-linejoin:round;">
</g>
<g style="fill:#FFFFFF; fill-opacity:1.0; 
stroke:#FFFFFF; stroke-width:0; stroke-opacity:1; 
stroke-linecap:round; stroke-linejoin:round;">
<circle cx="8417.06" cy="17491.4" r="187.008" /> 
</g>
<g style="fill:#FFFFFF; fill-opacity:1.0; 
stroke:#FFFFFF; stroke-width:39.3701; stroke-opacity:1; 
stroke-linecap:round; stroke-linejoin:round;">
</g>
<g style="fill:#FFFFFF; fill-opacity:1.0; 
stroke:#FFFFFF; stroke-width:0; stroke-opacity:1; 
stroke-linecap:round; stroke-linejoin:round;">
<circle cx="28119.4" cy="14118.1" r="196.85" /> 
</g>
<g style="fill:#FFFFFF; fill-opacity:1.0; 
stroke:#FFFFFF; stroke-width:39.3701; stroke-opacity:1; 
stroke-linecap:round; stroke-linejoin:round;">
</g>
<g style="fill:#FFFFFF; fill-opacity:1.0; 
stroke:#FFFFFF; stroke-width:0; stroke-opacity:1; 
stroke-linecap:round; stroke-linejoin:round;">
<circle cx="28119.4" cy="15118.1" r="196.85" /> 
</g>
<g style="fill:#FFFFFF; fill-opacity:1.0; 
stroke:#FFFFFF; stroke-width:39.3701; stroke-opacity:1; 
stroke-linecap:round; stroke-linejoin:round;">
</g>
<g style="fill:#FFFFFF; fill-opacity:1.0; 
stroke:#FFFFFF; stroke-width:0; stroke-opacity:1; 
stroke-linecap:round; stroke-linejoin:round;">
<circle cx="28119.4" cy="16118.1" r="196.85" /> 
</g>
<g style="fill:#FFFFFF; fill-opacity:1.0; 
stroke:#FFFFFF; stroke-width:39.3701; stroke-opacity:1; 
stroke-linecap:round; stroke-linejoin:round;">
</g>
<g style="fill:#FFFFFF; fill-opacity:1.0; 
stroke:#FFFFFF; stroke-width:0; stroke-opacity:1; 
stroke-linecap:round; stroke-linejoin:round;">
<circle cx="28119.4" cy="17118.2" r="196.85" /> 
</g>
<g style="fill:#FFFFFF; fill-opacity:1.0; 
stroke:#FFFFFF; stroke-width:39.3701; stroke-opacity:1; 
stroke-linecap:round; stroke-linejoin:round;">
</g>
<g style="fill:#FFFFFF; fill-opacity:1.0; 
stroke:#FFFFFF; stroke-width:0; stroke-opacity:1; 
stroke-linecap:round; stroke-linejoin:round;">
<circle cx="28119.4" cy="9618.15" r="196.85" /> 
</g>
<g style="fill:#FFFFFF; fill-opacity:1.0; 
stroke:#FFFFFF; stroke-width:39.3701; stroke-opacity:1; 
stroke-linecap:round; stroke-linejoin:round;">
</g>
<g style="fill:#FFFFFF; fill-opacity:1.0; 
stroke:#FFFFFF; stroke-width:0; stroke-opacity:1; 
stroke-linecap:round; stroke-linejoin:round;">
<circle cx="28119.4" cy="10618.1" r="196.85" /> 
</g>
<g style="fill:#FFFFFF; fill-opacity:1.0; 
stroke:#FFFFFF; stroke-width:39.3701; stroke-opacity:1; 
stroke-linecap:round; stroke-linejoin:round;">
</g>
<g style="fill:#FFFFFF; fill-opacity:1.0; 
stroke:#FFFFFF; stroke-width:0; stroke-opacity:1; 
stroke-linecap:round; stroke-linejoin:round;">
<circle cx="28119.4" cy="11618.1" r="196.85" /> 
</g>
<g style="fill:#FFFFFF; fill-opacity:1.0; 
stroke:#FFFFFF; stroke-width:39.3701; stroke-opacity:1; 
stroke-linecap:round; stroke-linejoin:round;">
</g>
<g style="fill:#FFFFFF; fill-opacity:1.0; 
stroke:#FFFFFF; stroke-width:0; stroke-opacity:1; 
stroke-linecap:round; stroke-linejoin:round;">
<circle cx="28119.4" cy="12618.1" r="196.85" /> 
</g>
<g style="fill:#FFFFFF; fill-opacity:1.0; 
stroke:#FFFFFF; stroke-width:39.3701; stroke-opacity:1; 
stroke-linecap:round; stroke-linejoin:round;">
</g>
<g style="fill:#FFFFFF; fill-opacity:1.0; 
stroke:#FFFFFF; stroke-width:0; stroke-opacity:1; 
stroke-linecap:round; stroke-linejoin:round;">
<circle cx="11859.5" cy="8540.08" r="196.85" /> 
</g>
<g style="fill:#FFFFFF; fill-opacity:1.0; 
stroke:#FFFFFF; stroke-width:39.3701; stroke-opacity:1; 
stroke-linecap:round; stroke-linejoin:round;">
</g>
<g style="fill:#FFFFFF; fill-opacity:1.0; 
stroke:#FFFFFF; stroke-width:0; stroke-opacity:1; 
stroke-linecap:round; stroke-linejoin:round;">
<circle cx="11859.5" cy="9540.08" r="196.85" /> 
</g>
<g style="fill:#FFFFFF; fill-opacity:1.0; 
stroke:#FFFFFF; stroke-width:39.3701; stroke-opacity:1; 
stroke-linecap:round; stroke-linejoin:round;">
</g>
<g style="fill:#FFFFFF; fill-opacity:1.0; 
stroke:#FFFFFF; stroke-width:0; stroke-opacity:1; 
stroke-linecap:round; stroke-linejoin:round;">
<circle cx="11859.5" cy="10540.1" r="196.85" /> 
</g>
<g style="fill:#FFFFFF; fill-opacity:1.0; 
stroke:#FFFFFF; stroke-width:39.3701; stroke-opacity:1; 
stroke-linecap:round; stroke-linejoin:round;">
</g>
<g style="fill:#FFFFFF; fill-opacity:1.0; 
stroke:#FFFFFF; stroke-width:0; stroke-opacity:1; 
stroke-linecap:round; stroke-linejoin:round;">
<circle cx="11859.5" cy="11540.1" r="196.85" /> 
</g>
<g style="fill:#FFFFFF; fill-opacity:1.0; 
stroke:#FFFFFF; stroke-width:39.3701; stroke-opacity:1; 
stroke-linecap:round; stroke-linejoin:round;">
</g>
<g style="fill:#FFFFFF; fill-opacity:1.0; 
stroke:#FFFFFF; stroke-width:0; stroke-opacity:1; 
stroke-linecap:round; stroke-linejoin:round;">
<circle cx="11859.5" cy="12540.1" r="196.85" /> 
</g>
<g style="fill:#FFFFFF; fill-opacity:1.0; 
stroke:#FFFFFF; stroke-width:39.3701; stroke-opacity:1; 
stroke-linecap:round; stroke-linejoin:round;">
</g>
<g style="fill:#FFFFFF; fill-opacity:1.0; 
stroke:#FFFFFF; stroke-width:0; stroke-opacity:1; 
stroke-linecap:round; stroke-linejoin:round;">
<circle cx="11859.5" cy="13540.1" r="196.85" /> 
</g>
<g style="fill:#FFFFFF; fill-opacity:1.0; 
stroke:#FFFFFF; stroke-width:39.3701; stroke-opacity:1; 
stroke-linecap:round; stroke-linejoin:round;">
</g>
<g style="fill:#FFFFFF; fill-opacity:1.0; 
stroke:#FFFFFF; stroke-width:0; stroke-opacity:1; 
stroke-linecap:round; stroke-linejoin:round;">
<circle cx="11859.5" cy="14540.1" r="196.85" /> 
</g>
<g style="fill:#FFFFFF; fill-opacity:1.0; 
stroke:#FFFFFF; stroke-width:39.3701; stroke-opacity:1; 
stroke-linecap:round; stroke-linejoin:round;">
</g>
<g style="fill:#FFFFFF; fill-opacity:1.0; 
stroke:#FFFFFF; stroke-width:0; stroke-opacity:1; 
stroke-linecap:round; stroke-linejoin:round;">
<circle cx="11859.5" cy="15540.1" r="196.85" /> 
</g>
<g style="fill:#FFFFFF; fill-opacity:1.0; 
stroke:#FFFFFF; stroke-width:39.3701; stroke-opacity:1; 
stroke-linecap:round; stroke-linejoin:round;">
</g>
<g style="fill:#FFFFFF; fill-opacity:1.0; 
stroke:#FFFFFF; stroke-width:0; stroke-opacity:1; 
stroke-linecap:round; stroke-linejoin:round;">
<circle cx="11859.5" cy="16540.1" r="196.85" /> 
</g>
<g style="fill:#FFFFFF; fill-opacity:1.0; 
stroke:#FFFFFF; stroke-width:39.3701; stroke-opacity:1; 
stroke-linecap:round; stroke-linejoin:round;">
</g>
<g style="fill:#FFFFFF; fill-opacity:1.0; 
stroke:#FFFFFF; stroke-width:0; stroke-opacity:1; 
stroke-linecap:round; stroke-linejoin:round;">
<circle cx="11859.5" cy="17540.1" r="196.85" /> 
</g>
<g style="fill:#FFFFFF; fill-opacity:1.0; 
stroke:#FFFFFF; stroke-width:39.3701; stroke-opacity:1; 
stroke-linecap:round; stroke-linejoin:round;">
</g>
<g style="fill:#FFFFFF; fill-opacity:1.0; 
stroke:#FFFFFF; stroke-width:0; stroke-opacity:1; 
stroke-linecap:round; stroke-linejoin:round;">
<circle cx="11859.5" cy="18540.1" r="196.85" /> 
</g>
<g style="fill:#FFFFFF; fill-opacity:1.0; 
stroke:#FFFFFF; stroke-width:39.3701; stroke-opacity:1; 
stroke-linecap:round; stroke-linejoin:round;">
</g>
<g style="fill:#FFFFFF; fill-opacity:1.0; 
stroke:#FFFFFF; stroke-width:0; stroke-opacity:1; 
stroke-linecap:round; stroke-linejoin:round;">
<circle cx="11859.5" cy="19540.1" r="196.85" /> 
</g>
<g style="fill:#FFFFFF; fill-opacity:1.0; 
stroke:#FFFFFF; stroke-width:39.3701; stroke-opacity:1; 
stroke-linecap:round; stroke-linejoin:round;">
</g>
<g style="fill:#FFFFFF; fill-opacity:1.0; 
stroke:#FFFFFF; stroke-width:0; stroke-opacity:1; 
stroke-linecap:round; stroke-linejoin:round;">
<circle cx="8114.3" cy="4599.65" r="196.85" /> 
</g>
<g style="fill:#FFFFFF; fill-opacity:1.0; 
stroke:#FFFFFF; stroke-width:39.3701; stroke-opacity:1; 
stroke-linecap:round; stroke-linejoin:round;">
</g>
<g style="fill:#FFFFFF; fill-opacity:1.0; 
stroke:#FFFFFF; stroke-width:0; stroke-opacity:1; 
stroke-linecap:round; stroke-linejoin:round;">
<circle cx="8114.3" cy="7591.77" r="196.85" /> 
</g>
<g style="fill:#FFFFFF; fill-opacity:1.0; 
stroke:#FFFFFF; stroke-width:39.3701; stroke-opacity:1; 
stroke-linecap:round; stroke-linejoin:round;">
</g>
<g style="fill:#000000; fill-opacity:1.0; 
stroke:#000000; stroke-width:39.3701; stroke-opacity:1; 
stroke-linecap:round; stroke-linejoin:round;">
</g>
<g style="fill:#000000; fill-opacity:0.0; 
stroke:#000000; stroke-width:39.3701; stroke-opacity:1; 
stroke-linecap:round; stroke-linejoin:round;">
<circle cx="21079.3" cy="13819.7" r="131.233" /> 
<path d="M20882 13819
L21276 13819
" />
<path d="M21079 13622
L21079 14016
" />
</g>
<g style="fill:#000000; fill-opacity:0.0; 
stroke:#000000; stroke-width:78.7402; stroke-opacity:1; 
stroke-linecap:round; stroke-linejoin:round;">
<path d="M3346 27598
L3346 39
" />
<path d="M38814 39
L3346 39
" />
<path d="M38814 27598
L38814 39
" />
<path d="M3346 27598
L38814 27598
" />
<circle cx="35923.4" cy="25529.2" r="590.551" /> 
<circle cx="35923.4" cy="2385.87" r="590.551" /> 
<circle cx="6314.3" cy="2385.87" r="590.551" /> 
<circle cx="6314.3" cy="25529.2" r="590.551" /> 
<g >
</g>
<g >
</g>
<g >
</g>
<g >
</g>
<g >
</g>
<g >
</g>
<g >
</g>
<g >
</g>
<g >
</g>
</g> 
</svg>
