%TF.GenerationSoftware,KiCad,Pcbnew,5.1.10*%
%TF.CreationDate,2021-07-26T03:00:59+02:00*%
%TF.ProjectId,OFICINA-TELE-ENCHUFES-RELES,4f464943-494e-4412-9d54-454c452d454e,rev?*%
%TF.SameCoordinates,Original*%
%TF.FileFunction,Copper,L2,Bot*%
%TF.FilePolarity,Positive*%
%FSLAX45Y45*%
G04 Gerber Fmt 4.5, Leading zero omitted, Abs format (unit mm)*
G04 Created by KiCad (PCBNEW 5.1.10) date 2021-07-26 03:00:59*
%MOMM*%
%LPD*%
G01*
G04 APERTURE LIST*
%TA.AperFunction,Profile*%
%ADD10C,0.100000*%
%TD*%
%TA.AperFunction,Profile*%
%ADD11C,0.200000*%
%TD*%
%TA.AperFunction,NonConductor*%
%ADD12C,0.500000*%
%TD*%
%TA.AperFunction,NonConductor*%
%ADD13C,0.250000*%
%TD*%
%TA.AperFunction,ComponentPad*%
%ADD14O,1.700000X1.700000*%
%TD*%
%TA.AperFunction,ComponentPad*%
%ADD15R,1.700000X1.700000*%
%TD*%
%TA.AperFunction,ComponentPad*%
%ADD16O,1.950000X1.700000*%
%TD*%
%TA.AperFunction,ComponentPad*%
%ADD17R,2.000000X2.000000*%
%TD*%
%TA.AperFunction,ComponentPad*%
%ADD18C,2.000000*%
%TD*%
%TA.AperFunction,Conductor*%
%ADD19C,1.200000*%
%TD*%
%TA.AperFunction,Conductor*%
%ADD20C,1.000000*%
%TD*%
%TA.AperFunction,Conductor*%
%ADD21C,1.500000*%
%TD*%
G04 APERTURE END LIST*
D10*
X16113533Y-8260100D02*
G75*
G03*
X16113533Y-8260100I-33333J0D01*
G01*
X16030200Y-8260100D02*
X16130200Y-8260100D01*
X16080200Y-8210100D02*
X16080200Y-8310100D01*
D11*
X11576020Y-11759890D02*
X11576020Y-4759890D01*
X20585020Y-4759890D02*
X11576020Y-4759890D01*
X20585020Y-11759890D02*
X20585020Y-4759890D01*
X11576020Y-11759890D02*
X20585020Y-11759890D01*
X20000600Y-11234300D02*
G75*
G03*
X20000600Y-11234300I-150000J0D01*
G01*
X20000600Y-5355900D02*
G75*
G03*
X20000600Y-5355900I-150000J0D01*
G01*
X12479900Y-5355900D02*
G75*
G03*
X12479900Y-5355900I-150000J0D01*
G01*
X12479900Y-11234300D02*
G75*
G03*
X12479900Y-11234300I-150000J0D01*
G01*
D12*
X19149714Y-5406029D02*
X19149714Y-5463171D01*
X19164000Y-5491743D01*
X19192571Y-5520314D01*
X19249714Y-5534600D01*
X19349714Y-5534600D01*
X19406857Y-5520314D01*
X19435429Y-5491743D01*
X19449714Y-5463171D01*
X19449714Y-5406029D01*
X19435429Y-5377457D01*
X19406857Y-5348886D01*
X19349714Y-5334600D01*
X19249714Y-5334600D01*
X19192571Y-5348886D01*
X19164000Y-5377457D01*
X19149714Y-5406029D01*
X19292571Y-5763171D02*
X19292571Y-5663171D01*
X19449714Y-5663171D02*
X19149714Y-5663171D01*
X19149714Y-5806028D01*
X19449714Y-5920314D02*
X19149714Y-5920314D01*
X19421143Y-6234600D02*
X19435429Y-6220314D01*
X19449714Y-6177457D01*
X19449714Y-6148886D01*
X19435429Y-6106028D01*
X19406857Y-6077457D01*
X19378286Y-6063171D01*
X19321143Y-6048886D01*
X19278286Y-6048886D01*
X19221143Y-6063171D01*
X19192571Y-6077457D01*
X19164000Y-6106028D01*
X19149714Y-6148886D01*
X19149714Y-6177457D01*
X19164000Y-6220314D01*
X19178286Y-6234600D01*
X19449714Y-6363171D02*
X19149714Y-6363171D01*
X19449714Y-6506028D02*
X19149714Y-6506028D01*
X19449714Y-6677457D01*
X19149714Y-6677457D01*
X19364000Y-6806028D02*
X19364000Y-6948886D01*
X19449714Y-6777457D02*
X19149714Y-6877457D01*
X19449714Y-6977457D01*
X19335429Y-7077457D02*
X19335429Y-7306028D01*
X19149714Y-7406028D02*
X19149714Y-7577457D01*
X19449714Y-7491743D02*
X19149714Y-7491743D01*
X19292571Y-7677457D02*
X19292571Y-7777457D01*
X19449714Y-7820314D02*
X19449714Y-7677457D01*
X19149714Y-7677457D01*
X19149714Y-7820314D01*
X19449714Y-8091743D02*
X19449714Y-7948886D01*
X19149714Y-7948886D01*
X19292571Y-8191743D02*
X19292571Y-8291743D01*
X19449714Y-8334600D02*
X19449714Y-8191743D01*
X19149714Y-8191743D01*
X19149714Y-8334600D01*
X19335429Y-8463171D02*
X19335429Y-8691743D01*
X19292571Y-8834600D02*
X19292571Y-8934600D01*
X19449714Y-8977457D02*
X19449714Y-8834600D01*
X19149714Y-8834600D01*
X19149714Y-8977457D01*
X19449714Y-9106029D02*
X19149714Y-9106029D01*
X19449714Y-9277457D01*
X19149714Y-9277457D01*
X19421143Y-9591743D02*
X19435429Y-9577457D01*
X19449714Y-9534600D01*
X19449714Y-9506029D01*
X19435429Y-9463171D01*
X19406857Y-9434600D01*
X19378286Y-9420314D01*
X19321143Y-9406029D01*
X19278286Y-9406029D01*
X19221143Y-9420314D01*
X19192571Y-9434600D01*
X19164000Y-9463171D01*
X19149714Y-9506029D01*
X19149714Y-9534600D01*
X19164000Y-9577457D01*
X19178286Y-9591743D01*
X19449714Y-9720314D02*
X19149714Y-9720314D01*
X19292571Y-9720314D02*
X19292571Y-9891743D01*
X19449714Y-9891743D02*
X19149714Y-9891743D01*
X19149714Y-10034600D02*
X19392571Y-10034600D01*
X19421143Y-10048886D01*
X19435429Y-10063171D01*
X19449714Y-10091743D01*
X19449714Y-10148886D01*
X19435429Y-10177457D01*
X19421143Y-10191743D01*
X19392571Y-10206029D01*
X19149714Y-10206029D01*
X19292571Y-10448886D02*
X19292571Y-10348886D01*
X19449714Y-10348886D02*
X19149714Y-10348886D01*
X19149714Y-10491743D01*
X19292571Y-10606029D02*
X19292571Y-10706029D01*
X19449714Y-10748886D02*
X19449714Y-10606029D01*
X19149714Y-10606029D01*
X19149714Y-10748886D01*
X19435429Y-10863171D02*
X19449714Y-10906029D01*
X19449714Y-10977457D01*
X19435429Y-11006029D01*
X19421143Y-11020314D01*
X19392571Y-11034600D01*
X19364000Y-11034600D01*
X19335429Y-11020314D01*
X19321143Y-11006029D01*
X19306857Y-10977457D01*
X19292571Y-10920314D01*
X19278286Y-10891743D01*
X19264000Y-10877457D01*
X19235429Y-10863171D01*
X19206857Y-10863171D01*
X19178286Y-10877457D01*
X19164000Y-10891743D01*
X19149714Y-10920314D01*
X19149714Y-10991743D01*
X19164000Y-11034600D01*
X19949714Y-7741743D02*
X19806857Y-7641743D01*
X19949714Y-7570314D02*
X19649714Y-7570314D01*
X19649714Y-7684600D01*
X19664000Y-7713171D01*
X19678286Y-7727457D01*
X19706857Y-7741743D01*
X19749714Y-7741743D01*
X19778286Y-7727457D01*
X19792571Y-7713171D01*
X19806857Y-7684600D01*
X19806857Y-7570314D01*
X19792571Y-7870314D02*
X19792571Y-7970314D01*
X19949714Y-8013171D02*
X19949714Y-7870314D01*
X19649714Y-7870314D01*
X19649714Y-8013171D01*
X19949714Y-8284600D02*
X19949714Y-8141743D01*
X19649714Y-8141743D01*
X19792571Y-8384600D02*
X19792571Y-8484600D01*
X19949714Y-8527457D02*
X19949714Y-8384600D01*
X19649714Y-8384600D01*
X19649714Y-8527457D01*
X19535429Y-8484600D02*
X19578286Y-8441743D01*
X19935429Y-8641743D02*
X19949714Y-8684600D01*
X19949714Y-8756029D01*
X19935429Y-8784600D01*
X19921143Y-8798886D01*
X19892571Y-8813171D01*
X19864000Y-8813171D01*
X19835429Y-8798886D01*
X19821143Y-8784600D01*
X19806857Y-8756029D01*
X19792571Y-8698886D01*
X19778286Y-8670314D01*
X19764000Y-8656029D01*
X19735429Y-8641743D01*
X19706857Y-8641743D01*
X19678286Y-8656029D01*
X19664000Y-8670314D01*
X19649714Y-8698886D01*
X19649714Y-8770314D01*
X19664000Y-8813171D01*
X17995148Y-5399029D02*
X17938005Y-5418076D01*
X17918957Y-5437124D01*
X17899910Y-5475219D01*
X17899910Y-5532362D01*
X17918957Y-5570457D01*
X17938005Y-5589505D01*
X17976100Y-5608552D01*
X18128481Y-5608552D01*
X18128481Y-5208552D01*
X17995148Y-5208552D01*
X17957052Y-5227600D01*
X17938005Y-5246648D01*
X17918957Y-5284743D01*
X17918957Y-5322838D01*
X17938005Y-5360933D01*
X17957052Y-5379981D01*
X17995148Y-5399029D01*
X18128481Y-5399029D01*
X17766576Y-5341886D02*
X17671338Y-5608552D01*
X17576100Y-5341886D02*
X17671338Y-5608552D01*
X17709433Y-5703790D01*
X17728481Y-5722838D01*
X17766576Y-5741886D01*
X17138005Y-5494267D02*
X16947529Y-5494267D01*
X17176100Y-5608552D02*
X17042767Y-5208552D01*
X16909433Y-5608552D01*
X16776100Y-5608552D02*
X16776100Y-5208552D01*
X16623719Y-5208552D01*
X16585624Y-5227600D01*
X16566576Y-5246648D01*
X16547528Y-5284743D01*
X16547528Y-5341886D01*
X16566576Y-5379981D01*
X16585624Y-5399029D01*
X16623719Y-5418076D01*
X16776100Y-5418076D01*
X16395148Y-5494267D02*
X16204671Y-5494267D01*
X16433243Y-5608552D02*
X16299909Y-5208552D01*
X16166576Y-5608552D01*
X15804671Y-5570457D02*
X15823719Y-5589505D01*
X15880862Y-5608552D01*
X15918957Y-5608552D01*
X15976100Y-5589505D01*
X16014195Y-5551410D01*
X16033243Y-5513314D01*
X16052290Y-5437124D01*
X16052290Y-5379981D01*
X16033243Y-5303790D01*
X16014195Y-5265695D01*
X15976100Y-5227600D01*
X15918957Y-5208552D01*
X15880862Y-5208552D01*
X15823719Y-5227600D01*
X15804671Y-5246648D01*
X15633243Y-5608552D02*
X15633243Y-5208552D01*
X15633243Y-5399029D02*
X15404671Y-5399029D01*
X15404671Y-5608552D02*
X15404671Y-5208552D01*
X15214195Y-5399029D02*
X15080862Y-5399029D01*
X15023719Y-5608552D02*
X15214195Y-5608552D01*
X15214195Y-5208552D01*
X15023719Y-5208552D01*
X14718957Y-5399029D02*
X14661814Y-5418076D01*
X14642767Y-5437124D01*
X14623719Y-5475219D01*
X14623719Y-5532362D01*
X14642767Y-5570457D01*
X14661814Y-5589505D01*
X14699909Y-5608552D01*
X14852290Y-5608552D01*
X14852290Y-5208552D01*
X14718957Y-5208552D01*
X14680862Y-5227600D01*
X14661814Y-5246648D01*
X14642767Y-5284743D01*
X14642767Y-5322838D01*
X14661814Y-5360933D01*
X14680862Y-5379981D01*
X14718957Y-5399029D01*
X14852290Y-5399029D01*
X14223719Y-5570457D02*
X14242767Y-5589505D01*
X14299909Y-5608552D01*
X14338005Y-5608552D01*
X14395148Y-5589505D01*
X14433243Y-5551410D01*
X14452290Y-5513314D01*
X14471338Y-5437124D01*
X14471338Y-5379981D01*
X14452290Y-5303790D01*
X14433243Y-5265695D01*
X14395148Y-5227600D01*
X14338005Y-5208552D01*
X14299909Y-5208552D01*
X14242767Y-5227600D01*
X14223719Y-5246648D01*
X14052290Y-5608552D02*
X14052290Y-5208552D01*
X13823719Y-5608552D01*
X13823719Y-5208552D01*
D13*
X15984509Y-10755967D02*
X15908319Y-10755967D01*
X15999748Y-10801681D02*
X15946414Y-10641681D01*
X15893081Y-10801681D01*
X15862605Y-10641681D02*
X15771176Y-10641681D01*
X15816890Y-10801681D02*
X15816890Y-10641681D01*
X15626414Y-10801681D02*
X15679748Y-10725490D01*
X15717843Y-10801681D02*
X15717843Y-10641681D01*
X15656890Y-10641681D01*
X15641652Y-10649300D01*
X15634033Y-10656919D01*
X15626414Y-10672157D01*
X15626414Y-10695014D01*
X15634033Y-10710252D01*
X15641652Y-10717871D01*
X15656890Y-10725490D01*
X15717843Y-10725490D01*
X15565462Y-10755967D02*
X15489271Y-10755967D01*
X15580700Y-10801681D02*
X15527367Y-10641681D01*
X15474033Y-10801681D01*
X15512128Y-10580729D02*
X15534986Y-10603586D01*
X15428319Y-10794062D02*
X15405462Y-10801681D01*
X15367367Y-10801681D01*
X15352128Y-10794062D01*
X15344509Y-10786443D01*
X15336890Y-10771205D01*
X15336890Y-10755967D01*
X15344509Y-10740729D01*
X15352128Y-10733110D01*
X15367367Y-10725490D01*
X15397843Y-10717871D01*
X15413081Y-10710252D01*
X15420700Y-10702633D01*
X15428319Y-10687395D01*
X15428319Y-10672157D01*
X15420700Y-10656919D01*
X15413081Y-10649300D01*
X15397843Y-10641681D01*
X15359748Y-10641681D01*
X15336890Y-10649300D01*
D14*
%TO.P,RELE-7,3*%
%TO.N,/RELE7*%
X17868400Y-6811900D03*
%TO.P,RELE-7,2*%
%TO.N,GND*%
X17868400Y-6557900D03*
D15*
%TO.P,RELE-7,1*%
%TO.N,VCC*%
X17868400Y-6303900D03*
%TD*%
D14*
%TO.P,ARDUINO_L1,5*%
%TO.N,/RELE1*%
X15262370Y-8695070D03*
%TO.P,ARDUINO_L1,6*%
%TO.N,/RELE2*%
X15262370Y-8441070D03*
%TO.P,ARDUINO_L1,7*%
%TO.N,/RELE3*%
X15262370Y-8187070D03*
%TO.P,ARDUINO_L1,8*%
%TO.N,/RELE4*%
X15262370Y-7933070D03*
%TO.P,ARDUINO_L1,9*%
%TO.N,/RELE5*%
X15262370Y-7679070D03*
%TO.P,ARDUINO_L1,10*%
%TO.N,/RELE6*%
X15262370Y-7425070D03*
%TO.P,ARDUINO_L1,11*%
%TO.N,/RELE7*%
X15262370Y-7171070D03*
%TO.P,ARDUINO_L1,12*%
%TO.N,Net-(ARDUINO_L1-Pad12)*%
X15262370Y-6917070D03*
%TO.P,ARDUINO_L1,4*%
%TO.N,GND*%
X15262370Y-8949070D03*
%TD*%
%TO.P,RELE-1-2,4*%
%TO.N,/RELE1*%
X17868400Y-10240900D03*
%TO.P,RELE-1-2,3*%
%TO.N,/RELE2*%
X17868400Y-9986900D03*
%TO.P,RELE-1-2,2*%
%TO.N,GND*%
X17868400Y-9732900D03*
D15*
%TO.P,RELE-1-2,1*%
%TO.N,VCC*%
X17868400Y-9478900D03*
%TD*%
%TO.P,INTERFAZ-CONECTOR1,1*%
%TO.N,/LOAD*%
%TA.AperFunction,ComponentPad*%
G36*
G01*
X12791500Y-7857700D02*
X12936500Y-7857700D01*
G75*
G02*
X12961500Y-7882700I0J-25000D01*
G01*
X12961500Y-8002700D01*
G75*
G02*
X12936500Y-8027700I-25000J0D01*
G01*
X12791500Y-8027700D01*
G75*
G02*
X12766500Y-8002700I0J25000D01*
G01*
X12766500Y-7882700D01*
G75*
G02*
X12791500Y-7857700I25000J0D01*
G01*
G37*
%TD.AperFunction*%
D16*
%TO.P,INTERFAZ-CONECTOR1,2*%
%TO.N,/LATCH*%
X12864000Y-8192700D03*
%TO.P,INTERFAZ-CONECTOR1,3*%
%TO.N,/DATA*%
X12864000Y-8442700D03*
%TO.P,INTERFAZ-CONECTOR1,4*%
%TO.N,/CLOCK*%
X12864000Y-8692700D03*
%TO.P,INTERFAZ-CONECTOR1,5*%
%TO.N,GND*%
X12864000Y-8942700D03*
%TO.P,INTERFAZ-CONECTOR1,6*%
%TO.N,VCC*%
X12864000Y-9192700D03*
%TD*%
D15*
%TO.P,RELE-3-4,1*%
%TO.N,VCC*%
X17868400Y-8335900D03*
D14*
%TO.P,RELE-3-4,2*%
%TO.N,GND*%
X17868400Y-8589900D03*
%TO.P,RELE-3-4,3*%
%TO.N,/RELE4*%
X17868400Y-8843900D03*
%TO.P,RELE-3-4,4*%
%TO.N,/RELE3*%
X17868400Y-9097900D03*
%TD*%
D15*
%TO.P,RELE-5-6,1*%
%TO.N,VCC*%
X17868400Y-7192900D03*
D14*
%TO.P,RELE-5-6,2*%
%TO.N,GND*%
X17868400Y-7446900D03*
%TO.P,RELE-5-6,3*%
%TO.N,/RELE6*%
X17868400Y-7700900D03*
%TO.P,RELE-5-6,4*%
%TO.N,/RELE5*%
X17868400Y-7954900D03*
%TD*%
%TO.P,ARDUINO_R1,12*%
%TO.N,/10*%
X13738370Y-6919070D03*
%TO.P,ARDUINO_R1,11*%
%TO.N,/11*%
X13738370Y-7173070D03*
%TO.P,ARDUINO_R1,10*%
%TO.N,/12*%
X13738370Y-7427070D03*
%TO.P,ARDUINO_R1,9*%
%TO.N,/13*%
X13738370Y-7681070D03*
%TO.P,ARDUINO_R1,8*%
%TO.N,/LOAD*%
X13738370Y-7935070D03*
%TO.P,ARDUINO_R1,7*%
%TO.N,/LATCH*%
X13738370Y-8189070D03*
%TO.P,ARDUINO_R1,6*%
%TO.N,/DATA*%
X13738370Y-8443070D03*
%TO.P,ARDUINO_R1,5*%
%TO.N,/CLOCK*%
X13738370Y-8697070D03*
%TO.P,ARDUINO_R1,4*%
%TO.N,VCC*%
X13738370Y-8951070D03*
%TO.P,ARDUINO_R1,3*%
%TO.N,Net-(ARDUINO_R1-Pad3)*%
X13738370Y-9205070D03*
%TO.P,ARDUINO_R1,2*%
%TO.N,GND*%
X13738370Y-9459070D03*
D15*
%TO.P,ARDUINO_R1,1*%
%TO.N,/RAW9V*%
X13738370Y-9713070D03*
%TD*%
D17*
%TO.P,BUZZER1,1*%
%TO.N,GND*%
X12787100Y-5918200D03*
D18*
%TO.P,BUZZER1,2*%
%TO.N,/12*%
X12787100Y-6678200D03*
%TD*%
D19*
%TO.N,GND*%
X17748192Y-9732900D02*
X17868400Y-9732900D01*
X17698000Y-9682708D02*
X17748192Y-9732900D01*
X17868400Y-8589900D02*
X18038800Y-8760300D01*
X18038800Y-8760300D02*
X18038800Y-9179692D01*
X18038800Y-9179692D02*
X17950192Y-9268300D01*
X17950192Y-9268300D02*
X17755280Y-9268300D01*
X17755280Y-9268300D02*
X17698000Y-9325580D01*
X17698000Y-9325580D02*
X17698000Y-9682708D01*
X17748192Y-8589900D02*
X17868400Y-8589900D01*
X17698000Y-8539708D02*
X17748192Y-8589900D01*
X17868400Y-7446900D02*
X18038800Y-7617300D01*
X18038800Y-7617300D02*
X18038800Y-8036692D01*
X18038800Y-8036692D02*
X17950192Y-8125300D01*
X17950192Y-8125300D02*
X17755280Y-8125300D01*
X17755280Y-8125300D02*
X17698000Y-8182580D01*
X17698000Y-8182580D02*
X17698000Y-8539708D01*
X17748192Y-7446900D02*
X17868400Y-7446900D01*
X17755280Y-6982300D02*
X17698000Y-7039580D01*
X17698000Y-7039580D02*
X17698000Y-7396708D01*
X17698000Y-7396708D02*
X17748192Y-7446900D01*
X17950192Y-6982300D02*
X17755280Y-6982300D01*
X18038800Y-6893692D02*
X17950192Y-6982300D01*
X18038800Y-6893692D02*
X18038800Y-6571400D01*
X18025300Y-6557900D02*
X17868400Y-6557900D01*
D20*
X18038800Y-6571400D02*
X18025300Y-6557900D01*
D21*
X13111500Y-8937100D02*
X13252400Y-9078000D01*
X12864000Y-8937100D02*
X13111500Y-8937100D01*
X13252400Y-9078000D02*
X13252400Y-9298700D01*
X13412770Y-9459070D02*
X13738370Y-9459070D01*
X13252400Y-9298700D02*
X13412770Y-9459070D01*
X13755700Y-6557900D02*
X13140400Y-6557900D01*
X17868400Y-6557900D02*
X13755700Y-6557900D01*
X12787100Y-6204600D02*
X12787100Y-5918200D01*
X13140400Y-6557900D02*
X12787100Y-6204600D01*
X15459170Y-8949070D02*
X15262370Y-8949070D01*
X17017700Y-10507600D02*
X15459170Y-8949070D01*
X18053800Y-10461900D02*
X18008100Y-10507600D01*
X18053800Y-9798092D02*
X18053800Y-10461900D01*
X17988608Y-9732900D02*
X18053800Y-9798092D01*
X18008100Y-10507600D02*
X17017700Y-10507600D01*
X17868400Y-9732900D02*
X17988608Y-9732900D01*
X12839303Y-8937100D02*
X12436000Y-8533797D01*
X12864000Y-8937100D02*
X12839303Y-8937100D01*
X12436000Y-6269300D02*
X12787100Y-5918200D01*
X12436000Y-8533797D02*
X12436000Y-6269300D01*
%TO.N,VCC*%
X18103400Y-6303900D02*
X18274941Y-6475441D01*
X17868400Y-6303900D02*
X18103400Y-6303900D01*
X18274941Y-8358000D02*
X18252841Y-8335900D01*
X18252841Y-8335900D02*
X17868400Y-8335900D01*
X18262841Y-7192900D02*
X17868400Y-7192900D01*
X18274941Y-7205000D02*
X18274941Y-8358000D01*
X18274941Y-7205000D02*
X18262841Y-7192900D01*
X18274941Y-6475441D02*
X18274941Y-7205000D01*
X18274941Y-9556000D02*
X18197841Y-9478900D01*
X18197841Y-9478900D02*
X17868400Y-9478900D01*
X18274941Y-8358000D02*
X18274941Y-9556000D01*
X12864000Y-9187100D02*
X12864000Y-9282100D01*
X12864000Y-9523600D02*
X12864000Y-9187100D01*
X13394000Y-10053600D02*
X12864000Y-9523600D01*
X13738370Y-8951070D02*
X14037170Y-8951070D01*
X14202300Y-9116200D02*
X14202300Y-10053600D01*
X14037170Y-8951070D02*
X14202300Y-9116200D01*
X14202300Y-10053600D02*
X13394000Y-10053600D01*
X16219400Y-10053600D02*
X14202300Y-10053600D01*
X16927400Y-10761600D02*
X16219400Y-10053600D01*
X18109700Y-10761600D02*
X16927400Y-10761600D01*
X18274941Y-10596359D02*
X18109700Y-10761600D01*
X18274941Y-9556000D02*
X18274941Y-10596359D01*
%TO.N,/12*%
X13738370Y-7427070D02*
X13167170Y-7427070D01*
X12787100Y-7047000D02*
X12787100Y-6678200D01*
X13167170Y-7427070D02*
X12787100Y-7047000D01*
%TO.N,/RELE1*%
X17868400Y-10240900D02*
X17059000Y-10240900D01*
X15513170Y-8695070D02*
X15262370Y-8695070D01*
X17059000Y-10240900D02*
X15513170Y-8695070D01*
%TO.N,/RELE7*%
X15262370Y-7171070D02*
X15642830Y-7171070D01*
X15642830Y-7171070D02*
X16002000Y-6811900D01*
X16002000Y-6811900D02*
X16551500Y-6811900D01*
X17868400Y-6811900D02*
X16551500Y-6811900D01*
D19*
%TO.N,/RELE6*%
X17856230Y-7704370D02*
X17871200Y-7689400D01*
D21*
X17488500Y-7700900D02*
X17868400Y-7700900D01*
X17212670Y-7425070D02*
X17488500Y-7700900D01*
X15262370Y-7425070D02*
X17212670Y-7425070D01*
D19*
%TO.N,/RELE5*%
X17856230Y-7958370D02*
X17871200Y-7943400D01*
D21*
X17447500Y-7954900D02*
X17868400Y-7954900D01*
X17171670Y-7679070D02*
X17447500Y-7954900D01*
X15262370Y-7679070D02*
X17171670Y-7679070D01*
%TO.N,/RELE4*%
X17868400Y-8843900D02*
X17618200Y-8843900D01*
X15262370Y-7933070D02*
X16707370Y-7933070D01*
X16707370Y-7933070D02*
X16854050Y-8079750D01*
X17618200Y-8843900D02*
X16854050Y-8079750D01*
%TO.N,/RELE3*%
X15262370Y-8187070D02*
X15571370Y-8187070D01*
X16482200Y-9097900D02*
X15608700Y-8224400D01*
X16764400Y-9097900D02*
X16482200Y-9097900D01*
X15571370Y-8187070D02*
X15608700Y-8224400D01*
X16764400Y-9097900D02*
X17868400Y-9097900D01*
%TO.N,/RELE2*%
X17868400Y-9986900D02*
X17090400Y-9986900D01*
X15544570Y-8441070D02*
X15262370Y-8441070D01*
X17090400Y-9986900D02*
X15544570Y-8441070D01*
%TO.N,/LOAD*%
X13736340Y-7937100D02*
X13738370Y-7935070D01*
X12864000Y-7937100D02*
X13736340Y-7937100D01*
%TO.N,/LATCH*%
X13736400Y-8187100D02*
X13738370Y-8189070D01*
X12864000Y-8187100D02*
X13736400Y-8187100D01*
%TO.N,/DATA*%
X13732400Y-8437100D02*
X13738370Y-8443070D01*
X12864000Y-8437100D02*
X13732400Y-8437100D01*
%TO.N,/CLOCK*%
X13728400Y-8687100D02*
X13738370Y-8697070D01*
X12864000Y-8687100D02*
X13728400Y-8687100D01*
%TD*%
M02*
