M48
; DRILL file {KiCad 5.1.10} date Wed Jul 21 15:39:01 2021
; FORMAT={-:-/ absolute / inch / decimal}
; #@! TF.CreationDate,2021-07-21T15:39:01+02:00
; #@! TF.GenerationSoftware,Kicad,Pcbnew,5.1.10
; #@! TF.FileFunction,Plated,1,2,PTH
FMAT,2
INCH
T1C0.0374
T2C0.0394
%
G90
G05
T1
X5.0646Y-3.127
X5.0646Y-3.2255
X5.0646Y-3.3239
X5.0646Y-3.4223
X5.0646Y-3.5207
X5.0646Y-3.6192
T2
X5.0343Y-2.33
X5.0343Y-2.6292
X5.4088Y-2.724
X5.4088Y-2.824
X5.4088Y-2.924
X5.4088Y-3.024
X5.4088Y-3.124
X5.4088Y-3.224
X5.4088Y-3.324
X5.4088Y-3.424
X5.4088Y-3.524
X5.4088Y-3.624
X5.4088Y-3.724
X5.4088Y-3.824
X6.0088Y-2.7233
X6.0088Y-2.8233
X6.0088Y-2.9233
X6.0088Y-3.0233
X6.0088Y-3.1233
X6.0088Y-3.2233
X6.0088Y-3.3233
X6.0088Y-3.4233
X6.0088Y-3.5233
X7.0348Y-2.4819
X7.0348Y-2.5819
X7.0348Y-2.6819
X7.0348Y-2.8319
X7.0348Y-2.9319
X7.0348Y-3.0319
X7.0348Y-3.1319
X7.0348Y-3.2819
X7.0348Y-3.3819
X7.0348Y-3.4819
X7.0348Y-3.5819
X7.0348Y-3.7319
X7.0348Y-3.8319
X7.0348Y-3.9319
X7.0348Y-4.0319
T0
M30
