%TF.GenerationSoftware,KiCad,Pcbnew,5.1.10*%
%TF.CreationDate,2021-07-26T03:00:59+02:00*%
%TF.ProjectId,OFICINA-TELE-ENCHUFES-RELES,4f464943-494e-4412-9d54-454c452d454e,rev?*%
%TF.SameCoordinates,Original*%
%TF.FileFunction,Copper,L1,Top*%
%TF.FilePolarity,Positive*%
%FSLAX45Y45*%
G04 Gerber Fmt 4.5, Leading zero omitted, Abs format (unit mm)*
G04 Created by KiCad (PCBNEW 5.1.10) date 2021-07-26 03:00:59*
%MOMM*%
%LPD*%
G01*
G04 APERTURE LIST*
%TA.AperFunction,Profile*%
%ADD10C,0.100000*%
%TD*%
%TA.AperFunction,Profile*%
%ADD11C,0.200000*%
%TD*%
%TA.AperFunction,NonConductor*%
%ADD12C,0.500000*%
%TD*%
%TA.AperFunction,NonConductor*%
%ADD13C,0.250000*%
%TD*%
%TA.AperFunction,ComponentPad*%
%ADD14O,1.700000X1.700000*%
%TD*%
%TA.AperFunction,ComponentPad*%
%ADD15R,1.700000X1.700000*%
%TD*%
%TA.AperFunction,ComponentPad*%
%ADD16O,1.950000X1.700000*%
%TD*%
%TA.AperFunction,ComponentPad*%
%ADD17R,2.000000X2.000000*%
%TD*%
%TA.AperFunction,ComponentPad*%
%ADD18C,2.000000*%
%TD*%
G04 APERTURE END LIST*
D10*
X16113533Y-8260100D02*
G75*
G03*
X16113533Y-8260100I-33333J0D01*
G01*
X16030200Y-8260100D02*
X16130200Y-8260100D01*
X16080200Y-8210100D02*
X16080200Y-8310100D01*
D11*
X11576020Y-11759890D02*
X11576020Y-4759890D01*
X20585020Y-4759890D02*
X11576020Y-4759890D01*
X20585020Y-11759890D02*
X20585020Y-4759890D01*
X11576020Y-11759890D02*
X20585020Y-11759890D01*
X20000600Y-11234300D02*
G75*
G03*
X20000600Y-11234300I-150000J0D01*
G01*
X20000600Y-5355900D02*
G75*
G03*
X20000600Y-5355900I-150000J0D01*
G01*
X12479900Y-5355900D02*
G75*
G03*
X12479900Y-5355900I-150000J0D01*
G01*
X12479900Y-11234300D02*
G75*
G03*
X12479900Y-11234300I-150000J0D01*
G01*
D12*
X19144714Y-10958171D02*
X19144714Y-10901029D01*
X19159000Y-10872457D01*
X19187571Y-10843886D01*
X19244714Y-10829600D01*
X19344714Y-10829600D01*
X19401857Y-10843886D01*
X19430429Y-10872457D01*
X19444714Y-10901029D01*
X19444714Y-10958171D01*
X19430429Y-10986743D01*
X19401857Y-11015314D01*
X19344714Y-11029600D01*
X19244714Y-11029600D01*
X19187571Y-11015314D01*
X19159000Y-10986743D01*
X19144714Y-10958171D01*
X19287571Y-10601029D02*
X19287571Y-10701029D01*
X19444714Y-10701029D02*
X19144714Y-10701029D01*
X19144714Y-10558171D01*
X19444714Y-10443886D02*
X19144714Y-10443886D01*
X19416143Y-10129600D02*
X19430429Y-10143886D01*
X19444714Y-10186743D01*
X19444714Y-10215314D01*
X19430429Y-10258171D01*
X19401857Y-10286743D01*
X19373286Y-10301029D01*
X19316143Y-10315314D01*
X19273286Y-10315314D01*
X19216143Y-10301029D01*
X19187571Y-10286743D01*
X19159000Y-10258171D01*
X19144714Y-10215314D01*
X19144714Y-10186743D01*
X19159000Y-10143886D01*
X19173286Y-10129600D01*
X19444714Y-10001029D02*
X19144714Y-10001029D01*
X19444714Y-9858171D02*
X19144714Y-9858171D01*
X19444714Y-9686743D01*
X19144714Y-9686743D01*
X19359000Y-9558171D02*
X19359000Y-9415314D01*
X19444714Y-9586743D02*
X19144714Y-9486743D01*
X19444714Y-9386743D01*
X19330429Y-9286743D02*
X19330429Y-9058171D01*
X19144714Y-8958171D02*
X19144714Y-8786743D01*
X19444714Y-8872457D02*
X19144714Y-8872457D01*
X19287571Y-8686743D02*
X19287571Y-8586743D01*
X19444714Y-8543886D02*
X19444714Y-8686743D01*
X19144714Y-8686743D01*
X19144714Y-8543886D01*
X19444714Y-8272457D02*
X19444714Y-8415314D01*
X19144714Y-8415314D01*
X19287571Y-8172457D02*
X19287571Y-8072457D01*
X19444714Y-8029600D02*
X19444714Y-8172457D01*
X19144714Y-8172457D01*
X19144714Y-8029600D01*
X19330429Y-7901028D02*
X19330429Y-7672457D01*
X19287571Y-7529600D02*
X19287571Y-7429600D01*
X19444714Y-7386743D02*
X19444714Y-7529600D01*
X19144714Y-7529600D01*
X19144714Y-7386743D01*
X19444714Y-7258171D02*
X19144714Y-7258171D01*
X19444714Y-7086743D01*
X19144714Y-7086743D01*
X19416143Y-6772457D02*
X19430429Y-6786743D01*
X19444714Y-6829600D01*
X19444714Y-6858171D01*
X19430429Y-6901028D01*
X19401857Y-6929600D01*
X19373286Y-6943886D01*
X19316143Y-6958171D01*
X19273286Y-6958171D01*
X19216143Y-6943886D01*
X19187571Y-6929600D01*
X19159000Y-6901028D01*
X19144714Y-6858171D01*
X19144714Y-6829600D01*
X19159000Y-6786743D01*
X19173286Y-6772457D01*
X19444714Y-6643886D02*
X19144714Y-6643886D01*
X19287571Y-6643886D02*
X19287571Y-6472457D01*
X19444714Y-6472457D02*
X19144714Y-6472457D01*
X19144714Y-6329600D02*
X19387571Y-6329600D01*
X19416143Y-6315314D01*
X19430429Y-6301028D01*
X19444714Y-6272457D01*
X19444714Y-6215314D01*
X19430429Y-6186743D01*
X19416143Y-6172457D01*
X19387571Y-6158171D01*
X19144714Y-6158171D01*
X19287571Y-5915314D02*
X19287571Y-6015314D01*
X19444714Y-6015314D02*
X19144714Y-6015314D01*
X19144714Y-5872457D01*
X19287571Y-5758171D02*
X19287571Y-5658171D01*
X19444714Y-5615314D02*
X19444714Y-5758171D01*
X19144714Y-5758171D01*
X19144714Y-5615314D01*
X19430429Y-5501029D02*
X19444714Y-5458171D01*
X19444714Y-5386743D01*
X19430429Y-5358171D01*
X19416143Y-5343886D01*
X19387571Y-5329600D01*
X19359000Y-5329600D01*
X19330429Y-5343886D01*
X19316143Y-5358171D01*
X19301857Y-5386743D01*
X19287571Y-5443886D01*
X19273286Y-5472457D01*
X19259000Y-5486743D01*
X19230429Y-5501029D01*
X19201857Y-5501029D01*
X19173286Y-5486743D01*
X19159000Y-5472457D01*
X19144714Y-5443886D01*
X19144714Y-5372457D01*
X19159000Y-5329600D01*
X19944714Y-8622457D02*
X19801857Y-8722457D01*
X19944714Y-8793886D02*
X19644714Y-8793886D01*
X19644714Y-8679600D01*
X19659000Y-8651029D01*
X19673286Y-8636743D01*
X19701857Y-8622457D01*
X19744714Y-8622457D01*
X19773286Y-8636743D01*
X19787571Y-8651029D01*
X19801857Y-8679600D01*
X19801857Y-8793886D01*
X19787571Y-8493886D02*
X19787571Y-8393886D01*
X19944714Y-8351028D02*
X19944714Y-8493886D01*
X19644714Y-8493886D01*
X19644714Y-8351028D01*
X19944714Y-8079600D02*
X19944714Y-8222457D01*
X19644714Y-8222457D01*
X19787571Y-7979600D02*
X19787571Y-7879600D01*
X19944714Y-7836743D02*
X19944714Y-7979600D01*
X19644714Y-7979600D01*
X19644714Y-7836743D01*
X19530429Y-7879600D02*
X19573286Y-7922457D01*
X19930429Y-7722457D02*
X19944714Y-7679600D01*
X19944714Y-7608171D01*
X19930429Y-7579600D01*
X19916143Y-7565314D01*
X19887571Y-7551028D01*
X19859000Y-7551028D01*
X19830429Y-7565314D01*
X19816143Y-7579600D01*
X19801857Y-7608171D01*
X19787571Y-7665314D01*
X19773286Y-7693886D01*
X19759000Y-7708171D01*
X19730429Y-7722457D01*
X19701857Y-7722457D01*
X19673286Y-7708171D01*
X19659000Y-7693886D01*
X19644714Y-7665314D01*
X19644714Y-7593886D01*
X19659000Y-7551028D01*
X13957052Y-5399029D02*
X14014195Y-5418076D01*
X14033243Y-5437124D01*
X14052290Y-5475219D01*
X14052290Y-5532362D01*
X14033243Y-5570457D01*
X14014195Y-5589505D01*
X13976100Y-5608552D01*
X13823719Y-5608552D01*
X13823719Y-5208552D01*
X13957052Y-5208552D01*
X13995148Y-5227600D01*
X14014195Y-5246648D01*
X14033243Y-5284743D01*
X14033243Y-5322838D01*
X14014195Y-5360933D01*
X13995148Y-5379981D01*
X13957052Y-5399029D01*
X13823719Y-5399029D01*
X14185624Y-5341886D02*
X14280862Y-5608552D01*
X14376100Y-5341886D02*
X14280862Y-5608552D01*
X14242767Y-5703790D01*
X14223719Y-5722838D01*
X14185624Y-5741886D01*
X14814195Y-5494267D02*
X15004671Y-5494267D01*
X14776100Y-5608552D02*
X14909433Y-5208552D01*
X15042767Y-5608552D01*
X15176100Y-5608552D02*
X15176100Y-5208552D01*
X15328481Y-5208552D01*
X15366576Y-5227600D01*
X15385624Y-5246648D01*
X15404671Y-5284743D01*
X15404671Y-5341886D01*
X15385624Y-5379981D01*
X15366576Y-5399029D01*
X15328481Y-5418076D01*
X15176100Y-5418076D01*
X15557052Y-5494267D02*
X15747528Y-5494267D01*
X15518957Y-5608552D02*
X15652290Y-5208552D01*
X15785624Y-5608552D01*
X16147528Y-5570457D02*
X16128481Y-5589505D01*
X16071338Y-5608552D01*
X16033243Y-5608552D01*
X15976100Y-5589505D01*
X15938005Y-5551410D01*
X15918957Y-5513314D01*
X15899909Y-5437124D01*
X15899909Y-5379981D01*
X15918957Y-5303790D01*
X15938005Y-5265695D01*
X15976100Y-5227600D01*
X16033243Y-5208552D01*
X16071338Y-5208552D01*
X16128481Y-5227600D01*
X16147528Y-5246648D01*
X16318957Y-5608552D02*
X16318957Y-5208552D01*
X16318957Y-5399029D02*
X16547528Y-5399029D01*
X16547528Y-5608552D02*
X16547528Y-5208552D01*
X16738005Y-5399029D02*
X16871338Y-5399029D01*
X16928481Y-5608552D02*
X16738005Y-5608552D01*
X16738005Y-5208552D01*
X16928481Y-5208552D01*
X17233243Y-5399029D02*
X17290386Y-5418076D01*
X17309433Y-5437124D01*
X17328481Y-5475219D01*
X17328481Y-5532362D01*
X17309433Y-5570457D01*
X17290386Y-5589505D01*
X17252290Y-5608552D01*
X17099910Y-5608552D01*
X17099910Y-5208552D01*
X17233243Y-5208552D01*
X17271338Y-5227600D01*
X17290386Y-5246648D01*
X17309433Y-5284743D01*
X17309433Y-5322838D01*
X17290386Y-5360933D01*
X17271338Y-5379981D01*
X17233243Y-5399029D01*
X17099910Y-5399029D01*
X17728481Y-5570457D02*
X17709433Y-5589505D01*
X17652290Y-5608552D01*
X17614195Y-5608552D01*
X17557052Y-5589505D01*
X17518957Y-5551410D01*
X17499910Y-5513314D01*
X17480862Y-5437124D01*
X17480862Y-5379981D01*
X17499910Y-5303790D01*
X17518957Y-5265695D01*
X17557052Y-5227600D01*
X17614195Y-5208552D01*
X17652290Y-5208552D01*
X17709433Y-5227600D01*
X17728481Y-5246648D01*
X17899910Y-5608552D02*
X17899910Y-5208552D01*
X18128481Y-5608552D01*
X18128481Y-5208552D01*
D13*
X15324633Y-10719271D02*
X15271300Y-10719271D01*
X15271300Y-10803081D02*
X15271300Y-10643081D01*
X15347490Y-10643081D01*
X15499871Y-10803081D02*
X15446538Y-10726890D01*
X15408443Y-10803081D02*
X15408443Y-10643081D01*
X15469395Y-10643081D01*
X15484633Y-10650700D01*
X15492252Y-10658319D01*
X15499871Y-10673557D01*
X15499871Y-10696414D01*
X15492252Y-10711652D01*
X15484633Y-10719271D01*
X15469395Y-10726890D01*
X15408443Y-10726890D01*
X15568443Y-10719271D02*
X15621776Y-10719271D01*
X15644633Y-10803081D02*
X15568443Y-10803081D01*
X15568443Y-10643081D01*
X15644633Y-10643081D01*
X15713205Y-10803081D02*
X15713205Y-10643081D01*
X15804633Y-10803081D01*
X15804633Y-10643081D01*
X15857967Y-10643081D02*
X15949395Y-10643081D01*
X15903681Y-10803081D02*
X15903681Y-10643081D01*
X16002728Y-10719271D02*
X16056062Y-10719271D01*
X16078919Y-10803081D02*
X16002728Y-10803081D01*
X16002728Y-10643081D01*
X16078919Y-10643081D01*
X14932252Y-11052843D02*
X14924633Y-11060462D01*
X14901776Y-11068081D01*
X14886538Y-11068081D01*
X14863681Y-11060462D01*
X14848443Y-11045224D01*
X14840824Y-11029986D01*
X14833205Y-10999510D01*
X14833205Y-10976652D01*
X14840824Y-10946176D01*
X14848443Y-10930938D01*
X14863681Y-10915700D01*
X14886538Y-10908081D01*
X14901776Y-10908081D01*
X14924633Y-10915700D01*
X14932252Y-10923319D01*
X15031300Y-10908081D02*
X15061776Y-10908081D01*
X15077014Y-10915700D01*
X15092252Y-10930938D01*
X15099871Y-10961414D01*
X15099871Y-11014748D01*
X15092252Y-11045224D01*
X15077014Y-11060462D01*
X15061776Y-11068081D01*
X15031300Y-11068081D01*
X15016062Y-11060462D01*
X15000824Y-11045224D01*
X14993205Y-11014748D01*
X14993205Y-10961414D01*
X15000824Y-10930938D01*
X15016062Y-10915700D01*
X15031300Y-10908081D01*
X15168443Y-11068081D02*
X15168443Y-10908081D01*
X15221776Y-11022367D01*
X15275109Y-10908081D01*
X15275109Y-11068081D01*
X15351300Y-11068081D02*
X15351300Y-10908081D01*
X15412252Y-10908081D01*
X15427490Y-10915700D01*
X15435109Y-10923319D01*
X15442728Y-10938557D01*
X15442728Y-10961414D01*
X15435109Y-10976652D01*
X15427490Y-10984271D01*
X15412252Y-10991890D01*
X15351300Y-10991890D01*
X15541776Y-10908081D02*
X15572252Y-10908081D01*
X15587490Y-10915700D01*
X15602728Y-10930938D01*
X15610348Y-10961414D01*
X15610348Y-11014748D01*
X15602728Y-11045224D01*
X15587490Y-11060462D01*
X15572252Y-11068081D01*
X15541776Y-11068081D01*
X15526538Y-11060462D01*
X15511300Y-11045224D01*
X15503681Y-11014748D01*
X15503681Y-10961414D01*
X15511300Y-10930938D01*
X15526538Y-10915700D01*
X15541776Y-10908081D01*
X15678919Y-11068081D02*
X15678919Y-10908081D01*
X15770348Y-11068081D01*
X15770348Y-10908081D01*
X15846538Y-10984271D02*
X15899871Y-10984271D01*
X15922728Y-11068081D02*
X15846538Y-11068081D01*
X15846538Y-10908081D01*
X15922728Y-10908081D01*
X15991300Y-11068081D02*
X15991300Y-10908081D01*
X16082728Y-11068081D01*
X16082728Y-10908081D01*
X16136062Y-10908081D02*
X16227490Y-10908081D01*
X16181776Y-11068081D02*
X16181776Y-10908081D01*
X16280824Y-10984271D02*
X16334157Y-10984271D01*
X16357014Y-11068081D02*
X16280824Y-11068081D01*
X16280824Y-10908081D01*
X16357014Y-10908081D01*
X16417967Y-11060462D02*
X16440824Y-11068081D01*
X16478919Y-11068081D01*
X16494157Y-11060462D01*
X16501776Y-11052843D01*
X16509395Y-11037605D01*
X16509395Y-11022367D01*
X16501776Y-11007129D01*
X16494157Y-10999510D01*
X16478919Y-10991890D01*
X16448443Y-10984271D01*
X16433205Y-10976652D01*
X16425586Y-10969033D01*
X16417967Y-10953795D01*
X16417967Y-10938557D01*
X16425586Y-10923319D01*
X16433205Y-10915700D01*
X16448443Y-10908081D01*
X16486538Y-10908081D01*
X16509395Y-10915700D01*
D14*
%TO.P,RELE-7,3*%
%TO.N,/RELE7*%
X17868400Y-6811900D03*
%TO.P,RELE-7,2*%
%TO.N,GND*%
X17868400Y-6557900D03*
D15*
%TO.P,RELE-7,1*%
%TO.N,VCC*%
X17868400Y-6303900D03*
%TD*%
D14*
%TO.P,ARDUINO_L1,5*%
%TO.N,/RELE1*%
X15262370Y-8695070D03*
%TO.P,ARDUINO_L1,6*%
%TO.N,/RELE2*%
X15262370Y-8441070D03*
%TO.P,ARDUINO_L1,7*%
%TO.N,/RELE3*%
X15262370Y-8187070D03*
%TO.P,ARDUINO_L1,8*%
%TO.N,/RELE4*%
X15262370Y-7933070D03*
%TO.P,ARDUINO_L1,9*%
%TO.N,/RELE5*%
X15262370Y-7679070D03*
%TO.P,ARDUINO_L1,10*%
%TO.N,/RELE6*%
X15262370Y-7425070D03*
%TO.P,ARDUINO_L1,11*%
%TO.N,/RELE7*%
X15262370Y-7171070D03*
%TO.P,ARDUINO_L1,12*%
%TO.N,Net-(ARDUINO_L1-Pad12)*%
X15262370Y-6917070D03*
%TO.P,ARDUINO_L1,4*%
%TO.N,GND*%
X15262370Y-8949070D03*
%TD*%
%TO.P,RELE-1-2,4*%
%TO.N,/RELE1*%
X17868400Y-10240900D03*
%TO.P,RELE-1-2,3*%
%TO.N,/RELE2*%
X17868400Y-9986900D03*
%TO.P,RELE-1-2,2*%
%TO.N,GND*%
X17868400Y-9732900D03*
D15*
%TO.P,RELE-1-2,1*%
%TO.N,VCC*%
X17868400Y-9478900D03*
%TD*%
%TO.P,INTERFAZ-CONECTOR1,1*%
%TO.N,/LOAD*%
%TA.AperFunction,ComponentPad*%
G36*
G01*
X12791500Y-7857700D02*
X12936500Y-7857700D01*
G75*
G02*
X12961500Y-7882700I0J-25000D01*
G01*
X12961500Y-8002700D01*
G75*
G02*
X12936500Y-8027700I-25000J0D01*
G01*
X12791500Y-8027700D01*
G75*
G02*
X12766500Y-8002700I0J25000D01*
G01*
X12766500Y-7882700D01*
G75*
G02*
X12791500Y-7857700I25000J0D01*
G01*
G37*
%TD.AperFunction*%
D16*
%TO.P,INTERFAZ-CONECTOR1,2*%
%TO.N,/LATCH*%
X12864000Y-8192700D03*
%TO.P,INTERFAZ-CONECTOR1,3*%
%TO.N,/DATA*%
X12864000Y-8442700D03*
%TO.P,INTERFAZ-CONECTOR1,4*%
%TO.N,/CLOCK*%
X12864000Y-8692700D03*
%TO.P,INTERFAZ-CONECTOR1,5*%
%TO.N,GND*%
X12864000Y-8942700D03*
%TO.P,INTERFAZ-CONECTOR1,6*%
%TO.N,VCC*%
X12864000Y-9192700D03*
%TD*%
D15*
%TO.P,RELE-3-4,1*%
%TO.N,VCC*%
X17868400Y-8335900D03*
D14*
%TO.P,RELE-3-4,2*%
%TO.N,GND*%
X17868400Y-8589900D03*
%TO.P,RELE-3-4,3*%
%TO.N,/RELE4*%
X17868400Y-8843900D03*
%TO.P,RELE-3-4,4*%
%TO.N,/RELE3*%
X17868400Y-9097900D03*
%TD*%
D15*
%TO.P,RELE-5-6,1*%
%TO.N,VCC*%
X17868400Y-7192900D03*
D14*
%TO.P,RELE-5-6,2*%
%TO.N,GND*%
X17868400Y-7446900D03*
%TO.P,RELE-5-6,3*%
%TO.N,/RELE6*%
X17868400Y-7700900D03*
%TO.P,RELE-5-6,4*%
%TO.N,/RELE5*%
X17868400Y-7954900D03*
%TD*%
%TO.P,ARDUINO_R1,12*%
%TO.N,/10*%
X13738370Y-6919070D03*
%TO.P,ARDUINO_R1,11*%
%TO.N,/11*%
X13738370Y-7173070D03*
%TO.P,ARDUINO_R1,10*%
%TO.N,/12*%
X13738370Y-7427070D03*
%TO.P,ARDUINO_R1,9*%
%TO.N,/13*%
X13738370Y-7681070D03*
%TO.P,ARDUINO_R1,8*%
%TO.N,/LOAD*%
X13738370Y-7935070D03*
%TO.P,ARDUINO_R1,7*%
%TO.N,/LATCH*%
X13738370Y-8189070D03*
%TO.P,ARDUINO_R1,6*%
%TO.N,/DATA*%
X13738370Y-8443070D03*
%TO.P,ARDUINO_R1,5*%
%TO.N,/CLOCK*%
X13738370Y-8697070D03*
%TO.P,ARDUINO_R1,4*%
%TO.N,VCC*%
X13738370Y-8951070D03*
%TO.P,ARDUINO_R1,3*%
%TO.N,Net-(ARDUINO_R1-Pad3)*%
X13738370Y-9205070D03*
%TO.P,ARDUINO_R1,2*%
%TO.N,GND*%
X13738370Y-9459070D03*
D15*
%TO.P,ARDUINO_R1,1*%
%TO.N,/RAW9V*%
X13738370Y-9713070D03*
%TD*%
D17*
%TO.P,BUZZER1,1*%
%TO.N,GND*%
X12787100Y-5918200D03*
D18*
%TO.P,BUZZER1,2*%
%TO.N,/12*%
X12787100Y-6678200D03*
%TD*%
M02*
