%TF.GenerationSoftware,KiCad,Pcbnew,5.1.10*%
%TF.CreationDate,2021-07-27T03:07:11+02:00*%
%TF.ProjectId,OFICINA-TELE-ENCHUFES-INTERFAZ,4f464943-494e-4412-9d54-454c452d454e,rev?*%
%TF.SameCoordinates,Original*%
%TF.FileFunction,Copper,L1,Top*%
%TF.FilePolarity,Positive*%
%FSLAX46Y46*%
G04 Gerber Fmt 4.6, Leading zero omitted, Abs format (unit mm)*
G04 Created by KiCad (PCBNEW 5.1.10) date 2021-07-27 03:07:11*
%MOMM*%
%LPD*%
G01*
G04 APERTURE LIST*
%TA.AperFunction,NonConductor*%
%ADD10C,0.450000*%
%TD*%
%TA.AperFunction,NonConductor*%
%ADD11C,0.375000*%
%TD*%
%TA.AperFunction,ComponentPad*%
%ADD12O,1.600000X1.600000*%
%TD*%
%TA.AperFunction,ComponentPad*%
%ADD13R,1.600000X1.600000*%
%TD*%
%TA.AperFunction,ComponentPad*%
%ADD14O,3.048000X1.850000*%
%TD*%
%TA.AperFunction,ComponentPad*%
%ADD15O,1.950000X1.700000*%
%TD*%
%TA.AperFunction,ViaPad*%
%ADD16C,0.800000*%
%TD*%
%TA.AperFunction,Conductor*%
%ADD17C,1.200000*%
%TD*%
G04 APERTURE END LIST*
D10*
X127069714Y-78288476D02*
X127507809Y-78288476D01*
X127726857Y-78398000D01*
X127945904Y-78617047D01*
X128055428Y-79055142D01*
X128055428Y-79821809D01*
X127945904Y-80259904D01*
X127726857Y-80478952D01*
X127507809Y-80588476D01*
X127069714Y-80588476D01*
X126850666Y-80478952D01*
X126631619Y-80259904D01*
X126522095Y-79821809D01*
X126522095Y-79055142D01*
X126631619Y-78617047D01*
X126850666Y-78398000D01*
X127069714Y-78288476D01*
X129807809Y-79383714D02*
X129041142Y-79383714D01*
X129041142Y-80588476D02*
X129041142Y-78288476D01*
X130136380Y-78288476D01*
X131012571Y-80588476D02*
X131012571Y-78288476D01*
X133422095Y-80369428D02*
X133312571Y-80478952D01*
X132984000Y-80588476D01*
X132764952Y-80588476D01*
X132436380Y-80478952D01*
X132217333Y-80259904D01*
X132107809Y-80040857D01*
X131998285Y-79602761D01*
X131998285Y-79274190D01*
X132107809Y-78836095D01*
X132217333Y-78617047D01*
X132436380Y-78398000D01*
X132764952Y-78288476D01*
X132984000Y-78288476D01*
X133312571Y-78398000D01*
X133422095Y-78507523D01*
X134407809Y-80588476D02*
X134407809Y-78288476D01*
X135503047Y-80588476D02*
X135503047Y-78288476D01*
X136817333Y-80588476D01*
X136817333Y-78288476D01*
X137803047Y-79931333D02*
X138898285Y-79931333D01*
X137584000Y-80588476D02*
X138350666Y-78288476D01*
X139117333Y-80588476D01*
X139884000Y-79712285D02*
X141636380Y-79712285D01*
X142403047Y-78288476D02*
X143717333Y-78288476D01*
X143060190Y-80588476D02*
X143060190Y-78288476D01*
X144484000Y-79383714D02*
X145250666Y-79383714D01*
X145579238Y-80588476D02*
X144484000Y-80588476D01*
X144484000Y-78288476D01*
X145579238Y-78288476D01*
X147660190Y-80588476D02*
X146564952Y-80588476D01*
X146564952Y-78288476D01*
X148426857Y-79383714D02*
X149193523Y-79383714D01*
X149522095Y-80588476D02*
X148426857Y-80588476D01*
X148426857Y-78288476D01*
X149522095Y-78288476D01*
X150507809Y-79712285D02*
X152260190Y-79712285D01*
X153355428Y-79383714D02*
X154122095Y-79383714D01*
X154450666Y-80588476D02*
X153355428Y-80588476D01*
X153355428Y-78288476D01*
X154450666Y-78288476D01*
X155436380Y-80588476D02*
X155436380Y-78288476D01*
X156750666Y-80588476D01*
X156750666Y-78288476D01*
X159160190Y-80369428D02*
X159050666Y-80478952D01*
X158722095Y-80588476D01*
X158503047Y-80588476D01*
X158174476Y-80478952D01*
X157955428Y-80259904D01*
X157845904Y-80040857D01*
X157736380Y-79602761D01*
X157736380Y-79274190D01*
X157845904Y-78836095D01*
X157955428Y-78617047D01*
X158174476Y-78398000D01*
X158503047Y-78288476D01*
X158722095Y-78288476D01*
X159050666Y-78398000D01*
X159160190Y-78507523D01*
X160145904Y-80588476D02*
X160145904Y-78288476D01*
X160145904Y-79383714D02*
X161460190Y-79383714D01*
X161460190Y-80588476D02*
X161460190Y-78288476D01*
X162555428Y-78288476D02*
X162555428Y-80150380D01*
X162664952Y-80369428D01*
X162774476Y-80478952D01*
X162993523Y-80588476D01*
X163431619Y-80588476D01*
X163650666Y-80478952D01*
X163760190Y-80369428D01*
X163869714Y-80150380D01*
X163869714Y-78288476D01*
X165731619Y-79383714D02*
X164964952Y-79383714D01*
X164964952Y-80588476D02*
X164964952Y-78288476D01*
X166060190Y-78288476D01*
X166936380Y-79383714D02*
X167703047Y-79383714D01*
X168031619Y-80588476D02*
X166936380Y-80588476D01*
X166936380Y-78288476D01*
X168031619Y-78288476D01*
X168907809Y-80478952D02*
X169236380Y-80588476D01*
X169784000Y-80588476D01*
X170003047Y-80478952D01*
X170112571Y-80369428D01*
X170222095Y-80150380D01*
X170222095Y-79931333D01*
X170112571Y-79712285D01*
X170003047Y-79602761D01*
X169784000Y-79493238D01*
X169345904Y-79383714D01*
X169126857Y-79274190D01*
X169017333Y-79164666D01*
X168907809Y-78945619D01*
X168907809Y-78726571D01*
X169017333Y-78507523D01*
X169126857Y-78398000D01*
X169345904Y-78288476D01*
X169893523Y-78288476D01*
X170222095Y-78398000D01*
X172960190Y-80588476D02*
X172960190Y-78288476D01*
X174055428Y-80588476D02*
X174055428Y-78288476D01*
X175369714Y-80588476D01*
X175369714Y-78288476D01*
X176136380Y-78288476D02*
X177450666Y-78288476D01*
X176793523Y-80588476D02*
X176793523Y-78288476D01*
X178217333Y-79383714D02*
X178984000Y-79383714D01*
X179312571Y-80588476D02*
X178217333Y-80588476D01*
X178217333Y-78288476D01*
X179312571Y-78288476D01*
X181612571Y-80588476D02*
X180845904Y-79493238D01*
X180298285Y-80588476D02*
X180298285Y-78288476D01*
X181174476Y-78288476D01*
X181393523Y-78398000D01*
X181503047Y-78507523D01*
X181612571Y-78726571D01*
X181612571Y-79055142D01*
X181503047Y-79274190D01*
X181393523Y-79383714D01*
X181174476Y-79493238D01*
X180298285Y-79493238D01*
X183364952Y-79383714D02*
X182598285Y-79383714D01*
X182598285Y-80588476D02*
X182598285Y-78288476D01*
X183693523Y-78288476D01*
X184460190Y-79931333D02*
X185555428Y-79931333D01*
X184241142Y-80588476D02*
X185007809Y-78288476D01*
X185774476Y-80588476D01*
X186322095Y-78288476D02*
X187855428Y-78288476D01*
X186322095Y-80588476D01*
X187855428Y-80588476D01*
X182777142Y-88696428D02*
X183034285Y-88782142D01*
X183120000Y-88867857D01*
X183205714Y-89039285D01*
X183205714Y-89296428D01*
X183120000Y-89467857D01*
X183034285Y-89553571D01*
X182862857Y-89639285D01*
X182177142Y-89639285D01*
X182177142Y-87839285D01*
X182777142Y-87839285D01*
X182948571Y-87925000D01*
X183034285Y-88010714D01*
X183120000Y-88182142D01*
X183120000Y-88353571D01*
X183034285Y-88525000D01*
X182948571Y-88610714D01*
X182777142Y-88696428D01*
X182177142Y-88696428D01*
X184320000Y-88782142D02*
X184320000Y-89639285D01*
X183720000Y-87839285D02*
X184320000Y-88782142D01*
X184920000Y-87839285D01*
X175920000Y-92275000D02*
X176777142Y-92275000D01*
X175748571Y-92789285D02*
X176348571Y-90989285D01*
X176948571Y-92789285D01*
X177548571Y-92789285D02*
X177548571Y-90989285D01*
X178234285Y-90989285D01*
X178405714Y-91075000D01*
X178491428Y-91160714D01*
X178577142Y-91332142D01*
X178577142Y-91589285D01*
X178491428Y-91760714D01*
X178405714Y-91846428D01*
X178234285Y-91932142D01*
X177548571Y-91932142D01*
X179262857Y-92275000D02*
X180120000Y-92275000D01*
X179091428Y-92789285D02*
X179691428Y-90989285D01*
X180291428Y-92789285D01*
X181920000Y-92617857D02*
X181834285Y-92703571D01*
X181577142Y-92789285D01*
X181405714Y-92789285D01*
X181148571Y-92703571D01*
X180977142Y-92532142D01*
X180891428Y-92360714D01*
X180805714Y-92017857D01*
X180805714Y-91760714D01*
X180891428Y-91417857D01*
X180977142Y-91246428D01*
X181148571Y-91075000D01*
X181405714Y-90989285D01*
X181577142Y-90989285D01*
X181834285Y-91075000D01*
X181920000Y-91160714D01*
X182691428Y-92789285D02*
X182691428Y-90989285D01*
X182691428Y-91846428D02*
X183720000Y-91846428D01*
X183720000Y-92789285D02*
X183720000Y-90989285D01*
X184577142Y-91846428D02*
X185177142Y-91846428D01*
X185434285Y-92789285D02*
X184577142Y-92789285D01*
X184577142Y-90989285D01*
X185434285Y-90989285D01*
X186805714Y-91846428D02*
X187062857Y-91932142D01*
X187148571Y-92017857D01*
X187234285Y-92189285D01*
X187234285Y-92446428D01*
X187148571Y-92617857D01*
X187062857Y-92703571D01*
X186891428Y-92789285D01*
X186205714Y-92789285D01*
X186205714Y-90989285D01*
X186805714Y-90989285D01*
X186977142Y-91075000D01*
X187062857Y-91160714D01*
X187148571Y-91332142D01*
X187148571Y-91503571D01*
X187062857Y-91675000D01*
X186977142Y-91760714D01*
X186805714Y-91846428D01*
X186205714Y-91846428D01*
X189034285Y-92617857D02*
X188948571Y-92703571D01*
X188691428Y-92789285D01*
X188520000Y-92789285D01*
X188262857Y-92703571D01*
X188091428Y-92532142D01*
X188005714Y-92360714D01*
X187920000Y-92017857D01*
X187920000Y-91760714D01*
X188005714Y-91417857D01*
X188091428Y-91246428D01*
X188262857Y-91075000D01*
X188520000Y-90989285D01*
X188691428Y-90989285D01*
X188948571Y-91075000D01*
X189034285Y-91160714D01*
X189805714Y-92789285D02*
X189805714Y-90989285D01*
X190834285Y-92789285D01*
X190834285Y-90989285D01*
D11*
X109250642Y-110213000D02*
X109250642Y-109713000D01*
X108464928Y-109713000D02*
X109964928Y-109713000D01*
X109964928Y-110427285D01*
X108464928Y-111855857D02*
X109179214Y-111355857D01*
X108464928Y-110998714D02*
X109964928Y-110998714D01*
X109964928Y-111570142D01*
X109893500Y-111713000D01*
X109822071Y-111784428D01*
X109679214Y-111855857D01*
X109464928Y-111855857D01*
X109322071Y-111784428D01*
X109250642Y-111713000D01*
X109179214Y-111570142D01*
X109179214Y-110998714D01*
X109250642Y-112498714D02*
X109250642Y-112998714D01*
X108464928Y-113213000D02*
X108464928Y-112498714D01*
X109964928Y-112498714D01*
X109964928Y-113213000D01*
X108464928Y-113855857D02*
X109964928Y-113855857D01*
X108464928Y-114713000D01*
X109964928Y-114713000D01*
X109964928Y-115213000D02*
X109964928Y-116070142D01*
X108464928Y-115641571D02*
X109964928Y-115641571D01*
X109250642Y-116570142D02*
X109250642Y-117070142D01*
X108464928Y-117284428D02*
X108464928Y-116570142D01*
X109964928Y-116570142D01*
X109964928Y-117284428D01*
X105839928Y-108677285D02*
X107339928Y-108677285D01*
X105839928Y-109391571D02*
X107339928Y-109391571D01*
X105839928Y-110248714D01*
X107339928Y-110248714D01*
X107339928Y-110748714D02*
X107339928Y-111605857D01*
X105839928Y-111177285D02*
X107339928Y-111177285D01*
X106625642Y-112105857D02*
X106625642Y-112605857D01*
X105839928Y-112820142D02*
X105839928Y-112105857D01*
X107339928Y-112105857D01*
X107339928Y-112820142D01*
X105839928Y-114320142D02*
X106554214Y-113820142D01*
X105839928Y-113463000D02*
X107339928Y-113463000D01*
X107339928Y-114034428D01*
X107268500Y-114177285D01*
X107197071Y-114248714D01*
X107054214Y-114320142D01*
X106839928Y-114320142D01*
X106697071Y-114248714D01*
X106625642Y-114177285D01*
X106554214Y-114034428D01*
X106554214Y-113463000D01*
X106625642Y-115463000D02*
X106625642Y-114963000D01*
X105839928Y-114963000D02*
X107339928Y-114963000D01*
X107339928Y-115677285D01*
X106268500Y-116177285D02*
X106268500Y-116891571D01*
X105839928Y-116034428D02*
X107339928Y-116534428D01*
X105839928Y-117034428D01*
X107339928Y-117391571D02*
X107339928Y-118391571D01*
X105839928Y-117391571D01*
X105839928Y-118391571D01*
%TO.P,RD2,2*%
%TO.N,/RD2*%
%TA.AperFunction,SMDPad,CuDef*%
G36*
G01*
X132115436Y-72197997D02*
X132115436Y-73448003D01*
G75*
G02*
X131865439Y-73698000I-249997J0D01*
G01*
X131240433Y-73698000D01*
G75*
G02*
X130990436Y-73448003I0J249997D01*
G01*
X130990436Y-72197997D01*
G75*
G02*
X131240433Y-71948000I249997J0D01*
G01*
X131865439Y-71948000D01*
G75*
G02*
X132115436Y-72197997I0J-249997D01*
G01*
G37*
%TD.AperFunction*%
%TO.P,RD2,1*%
%TO.N,Net-(D2-Pad2)*%
%TA.AperFunction,SMDPad,CuDef*%
G36*
G01*
X135040436Y-72197997D02*
X135040436Y-73448003D01*
G75*
G02*
X134790439Y-73698000I-249997J0D01*
G01*
X134165433Y-73698000D01*
G75*
G02*
X133915436Y-73448003I0J249997D01*
G01*
X133915436Y-72197997D01*
G75*
G02*
X134165433Y-71948000I249997J0D01*
G01*
X134790439Y-71948000D01*
G75*
G02*
X135040436Y-72197997I0J-249997D01*
G01*
G37*
%TD.AperFunction*%
%TD*%
D12*
%TO.P,U1,16*%
%TO.N,VCC*%
X143937436Y-125363000D03*
%TO.P,U1,8*%
%TO.N,GND*%
X136317436Y-107583000D03*
%TO.P,U1,15*%
X143937436Y-122823000D03*
%TO.P,U1,7*%
%TO.N,/DATA_IN*%
X136317436Y-110123000D03*
%TO.P,U1,14*%
%TO.N,/SW4*%
X143937436Y-120283000D03*
%TO.P,U1,6*%
%TO.N,/SW_ALL_OFF1*%
X136317436Y-112663000D03*
%TO.P,U1,13*%
%TO.N,/SW3*%
X143937436Y-117743000D03*
%TO.P,U1,5*%
%TO.N,/SW7*%
X136317436Y-115203000D03*
%TO.P,U1,12*%
%TO.N,/SW2*%
X143937436Y-115203000D03*
%TO.P,U1,4*%
%TO.N,/SW6*%
X136317436Y-117743000D03*
%TO.P,U1,11*%
%TO.N,/SW1*%
X143937436Y-112663000D03*
%TO.P,U1,3*%
%TO.N,/SW5*%
X136317436Y-120283000D03*
%TO.P,U1,10*%
%TO.N,Net-(U1-Pad10)*%
X143937436Y-110123000D03*
%TO.P,U1,2*%
%TO.N,/CLOCK*%
X136317436Y-122823000D03*
%TO.P,U1,9*%
%TO.N,Net-(U1-Pad9)*%
X143937436Y-107583000D03*
D13*
%TO.P,U1,1*%
%TO.N,/LOAD*%
X136317436Y-125363000D03*
%TD*%
D12*
%TO.P,U2,16*%
%TO.N,VCC*%
X173045000Y-125363000D03*
%TO.P,U2,8*%
%TO.N,GND*%
X165425000Y-107583000D03*
%TO.P,U2,15*%
%TO.N,/RD1*%
X173045000Y-122823000D03*
%TO.P,U2,7*%
%TO.N,Net-(U2-Pad7)*%
X165425000Y-110123000D03*
%TO.P,U2,14*%
%TO.N,/DATA*%
X173045000Y-120283000D03*
%TO.P,U2,6*%
%TO.N,/RD7*%
X165425000Y-112663000D03*
%TO.P,U2,13*%
%TO.N,GND*%
X173045000Y-117743000D03*
%TO.P,U2,5*%
%TO.N,/RD6*%
X165425000Y-115203000D03*
%TO.P,U2,12*%
%TO.N,/LATCH*%
X173045000Y-115203000D03*
%TO.P,U2,4*%
%TO.N,/RD5*%
X165425000Y-117743000D03*
%TO.P,U2,11*%
%TO.N,/CLOCK*%
X173045000Y-112663000D03*
%TO.P,U2,3*%
%TO.N,/RD4*%
X165425000Y-120283000D03*
%TO.P,U2,10*%
%TO.N,VCC*%
X173045000Y-110123000D03*
%TO.P,U2,2*%
%TO.N,/RD3*%
X165425000Y-122823000D03*
%TO.P,U2,9*%
%TO.N,Net-(U2-Pad9)*%
X173045000Y-107583000D03*
D13*
%TO.P,U2,1*%
%TO.N,/RD2*%
X165425000Y-125363000D03*
%TD*%
%TO.P,D1,2*%
%TO.N,Net-(D1-Pad2)*%
%TA.AperFunction,SMDPad,CuDef*%
G36*
G01*
X118867000Y-72198000D02*
X118867000Y-73448000D01*
G75*
G02*
X118617000Y-73698000I-250000J0D01*
G01*
X117867000Y-73698000D01*
G75*
G02*
X117617000Y-73448000I0J250000D01*
G01*
X117617000Y-72198000D01*
G75*
G02*
X117867000Y-71948000I250000J0D01*
G01*
X118617000Y-71948000D01*
G75*
G02*
X118867000Y-72198000I0J-250000D01*
G01*
G37*
%TD.AperFunction*%
%TO.P,D1,1*%
%TO.N,GND*%
%TA.AperFunction,SMDPad,CuDef*%
G36*
G01*
X121667000Y-72198000D02*
X121667000Y-73448000D01*
G75*
G02*
X121417000Y-73698000I-250000J0D01*
G01*
X120667000Y-73698000D01*
G75*
G02*
X120417000Y-73448000I0J250000D01*
G01*
X120417000Y-72198000D01*
G75*
G02*
X120667000Y-71948000I250000J0D01*
G01*
X121417000Y-71948000D01*
G75*
G02*
X121667000Y-72198000I0J-250000D01*
G01*
G37*
%TD.AperFunction*%
%TD*%
%TO.P,RD6,2*%
%TO.N,/RD6*%
%TA.AperFunction,SMDPad,CuDef*%
G36*
G01*
X150051000Y-99102003D02*
X150051000Y-97851997D01*
G75*
G02*
X150300997Y-97602000I249997J0D01*
G01*
X150926003Y-97602000D01*
G75*
G02*
X151176000Y-97851997I0J-249997D01*
G01*
X151176000Y-99102003D01*
G75*
G02*
X150926003Y-99352000I-249997J0D01*
G01*
X150300997Y-99352000D01*
G75*
G02*
X150051000Y-99102003I0J249997D01*
G01*
G37*
%TD.AperFunction*%
%TO.P,RD6,1*%
%TO.N,Net-(D6-Pad2)*%
%TA.AperFunction,SMDPad,CuDef*%
G36*
G01*
X147126000Y-99102003D02*
X147126000Y-97851997D01*
G75*
G02*
X147375997Y-97602000I249997J0D01*
G01*
X148001003Y-97602000D01*
G75*
G02*
X148251000Y-97851997I0J-249997D01*
G01*
X148251000Y-99102003D01*
G75*
G02*
X148001003Y-99352000I-249997J0D01*
G01*
X147375997Y-99352000D01*
G75*
G02*
X147126000Y-99102003I0J249997D01*
G01*
G37*
%TD.AperFunction*%
%TD*%
D14*
%TO.P,SW1,1*%
%TO.N,VCC*%
X126300000Y-61393000D03*
%TO.P,SW1,2*%
%TO.N,/SW1*%
X126300000Y-66393000D03*
%TO.P,SW1,1*%
%TO.N,VCC*%
X113800000Y-61393000D03*
%TO.P,SW1,2*%
%TO.N,/SW1*%
X113800000Y-66393000D03*
%TD*%
%TO.P,SWR7,2*%
%TO.N,/SW7*%
%TA.AperFunction,SMDPad,CuDef*%
G36*
G01*
X139316000Y-114577997D02*
X139316000Y-115828003D01*
G75*
G02*
X139066003Y-116078000I-249997J0D01*
G01*
X138440997Y-116078000D01*
G75*
G02*
X138191000Y-115828003I0J249997D01*
G01*
X138191000Y-114577997D01*
G75*
G02*
X138440997Y-114328000I249997J0D01*
G01*
X139066003Y-114328000D01*
G75*
G02*
X139316000Y-114577997I0J-249997D01*
G01*
G37*
%TD.AperFunction*%
%TO.P,SWR7,1*%
%TO.N,GND*%
%TA.AperFunction,SMDPad,CuDef*%
G36*
G01*
X142241000Y-114577997D02*
X142241000Y-115828003D01*
G75*
G02*
X141991003Y-116078000I-249997J0D01*
G01*
X141365997Y-116078000D01*
G75*
G02*
X141116000Y-115828003I0J249997D01*
G01*
X141116000Y-114577997D01*
G75*
G02*
X141365997Y-114328000I249997J0D01*
G01*
X141991003Y-114328000D01*
G75*
G02*
X142241000Y-114577997I0J-249997D01*
G01*
G37*
%TD.AperFunction*%
%TD*%
D15*
%TO.P,J1,6*%
%TO.N,VCC*%
X191760000Y-115770000D03*
%TO.P,J1,5*%
%TO.N,GND*%
X191760000Y-113270000D03*
%TO.P,J1,4*%
%TO.N,/CLOCK*%
X191760000Y-110770000D03*
%TO.P,J1,3*%
%TO.N,/DATA*%
X191760000Y-108270000D03*
%TO.P,J1,2*%
%TO.N,/LATCH*%
X191760000Y-105770000D03*
%TO.P,J1,1*%
%TO.N,/LOAD*%
%TA.AperFunction,ComponentPad*%
G36*
G01*
X191035000Y-102420000D02*
X192485000Y-102420000D01*
G75*
G02*
X192735000Y-102670000I0J-250000D01*
G01*
X192735000Y-103870000D01*
G75*
G02*
X192485000Y-104120000I-250000J0D01*
G01*
X191035000Y-104120000D01*
G75*
G02*
X190785000Y-103870000I0J250000D01*
G01*
X190785000Y-102670000D01*
G75*
G02*
X191035000Y-102420000I250000J0D01*
G01*
G37*
%TD.AperFunction*%
%TD*%
%TO.P,SWR8,2*%
%TO.N,/SW_ALL_OFF1*%
%TA.AperFunction,SMDPad,CuDef*%
G36*
G01*
X139316000Y-112037997D02*
X139316000Y-113288003D01*
G75*
G02*
X139066003Y-113538000I-249997J0D01*
G01*
X138440997Y-113538000D01*
G75*
G02*
X138191000Y-113288003I0J249997D01*
G01*
X138191000Y-112037997D01*
G75*
G02*
X138440997Y-111788000I249997J0D01*
G01*
X139066003Y-111788000D01*
G75*
G02*
X139316000Y-112037997I0J-249997D01*
G01*
G37*
%TD.AperFunction*%
%TO.P,SWR8,1*%
%TO.N,GND*%
%TA.AperFunction,SMDPad,CuDef*%
G36*
G01*
X142241000Y-112037997D02*
X142241000Y-113288003D01*
G75*
G02*
X141991003Y-113538000I-249997J0D01*
G01*
X141365997Y-113538000D01*
G75*
G02*
X141116000Y-113288003I0J249997D01*
G01*
X141116000Y-112037997D01*
G75*
G02*
X141365997Y-111788000I249997J0D01*
G01*
X141991003Y-111788000D01*
G75*
G02*
X142241000Y-112037997I0J-249997D01*
G01*
G37*
%TD.AperFunction*%
%TD*%
%TO.P,SWR6,2*%
%TO.N,/SW6*%
%TA.AperFunction,SMDPad,CuDef*%
G36*
G01*
X139316000Y-117117997D02*
X139316000Y-118368003D01*
G75*
G02*
X139066003Y-118618000I-249997J0D01*
G01*
X138440997Y-118618000D01*
G75*
G02*
X138191000Y-118368003I0J249997D01*
G01*
X138191000Y-117117997D01*
G75*
G02*
X138440997Y-116868000I249997J0D01*
G01*
X139066003Y-116868000D01*
G75*
G02*
X139316000Y-117117997I0J-249997D01*
G01*
G37*
%TD.AperFunction*%
%TO.P,SWR6,1*%
%TO.N,GND*%
%TA.AperFunction,SMDPad,CuDef*%
G36*
G01*
X142241000Y-117117997D02*
X142241000Y-118368003D01*
G75*
G02*
X141991003Y-118618000I-249997J0D01*
G01*
X141365997Y-118618000D01*
G75*
G02*
X141116000Y-118368003I0J249997D01*
G01*
X141116000Y-117117997D01*
G75*
G02*
X141365997Y-116868000I249997J0D01*
G01*
X141991003Y-116868000D01*
G75*
G02*
X142241000Y-117117997I0J-249997D01*
G01*
G37*
%TD.AperFunction*%
%TD*%
%TO.P,SWR5,1*%
%TO.N,GND*%
%TA.AperFunction,SMDPad,CuDef*%
G36*
G01*
X142241000Y-119657997D02*
X142241000Y-120908003D01*
G75*
G02*
X141991003Y-121158000I-249997J0D01*
G01*
X141365997Y-121158000D01*
G75*
G02*
X141116000Y-120908003I0J249997D01*
G01*
X141116000Y-119657997D01*
G75*
G02*
X141365997Y-119408000I249997J0D01*
G01*
X141991003Y-119408000D01*
G75*
G02*
X142241000Y-119657997I0J-249997D01*
G01*
G37*
%TD.AperFunction*%
%TO.P,SWR5,2*%
%TO.N,/SW5*%
%TA.AperFunction,SMDPad,CuDef*%
G36*
G01*
X139316000Y-119657997D02*
X139316000Y-120908003D01*
G75*
G02*
X139066003Y-121158000I-249997J0D01*
G01*
X138440997Y-121158000D01*
G75*
G02*
X138191000Y-120908003I0J249997D01*
G01*
X138191000Y-119657997D01*
G75*
G02*
X138440997Y-119408000I249997J0D01*
G01*
X139066003Y-119408000D01*
G75*
G02*
X139316000Y-119657997I0J-249997D01*
G01*
G37*
%TD.AperFunction*%
%TD*%
%TO.P,SWR4,2*%
%TO.N,/SW4*%
%TA.AperFunction,SMDPad,CuDef*%
G36*
G01*
X148267439Y-123050564D02*
X147017433Y-123050564D01*
G75*
G02*
X146767436Y-122800567I0J249997D01*
G01*
X146767436Y-122175561D01*
G75*
G02*
X147017433Y-121925564I249997J0D01*
G01*
X148267439Y-121925564D01*
G75*
G02*
X148517436Y-122175561I0J-249997D01*
G01*
X148517436Y-122800567D01*
G75*
G02*
X148267439Y-123050564I-249997J0D01*
G01*
G37*
%TD.AperFunction*%
%TO.P,SWR4,1*%
%TO.N,GND*%
%TA.AperFunction,SMDPad,CuDef*%
G36*
G01*
X148267439Y-125975564D02*
X147017433Y-125975564D01*
G75*
G02*
X146767436Y-125725567I0J249997D01*
G01*
X146767436Y-125100561D01*
G75*
G02*
X147017433Y-124850564I249997J0D01*
G01*
X148267439Y-124850564D01*
G75*
G02*
X148517436Y-125100561I0J-249997D01*
G01*
X148517436Y-125725567D01*
G75*
G02*
X148267439Y-125975564I-249997J0D01*
G01*
G37*
%TD.AperFunction*%
%TD*%
%TO.P,SWR3,2*%
%TO.N,/SW3*%
%TA.AperFunction,SMDPad,CuDef*%
G36*
G01*
X150807439Y-123050564D02*
X149557433Y-123050564D01*
G75*
G02*
X149307436Y-122800567I0J249997D01*
G01*
X149307436Y-122175561D01*
G75*
G02*
X149557433Y-121925564I249997J0D01*
G01*
X150807439Y-121925564D01*
G75*
G02*
X151057436Y-122175561I0J-249997D01*
G01*
X151057436Y-122800567D01*
G75*
G02*
X150807439Y-123050564I-249997J0D01*
G01*
G37*
%TD.AperFunction*%
%TO.P,SWR3,1*%
%TO.N,GND*%
%TA.AperFunction,SMDPad,CuDef*%
G36*
G01*
X150807439Y-125975564D02*
X149557433Y-125975564D01*
G75*
G02*
X149307436Y-125725567I0J249997D01*
G01*
X149307436Y-125100561D01*
G75*
G02*
X149557433Y-124850564I249997J0D01*
G01*
X150807439Y-124850564D01*
G75*
G02*
X151057436Y-125100561I0J-249997D01*
G01*
X151057436Y-125725567D01*
G75*
G02*
X150807439Y-125975564I-249997J0D01*
G01*
G37*
%TD.AperFunction*%
%TD*%
%TO.P,SWR2,2*%
%TO.N,/SW2*%
%TA.AperFunction,SMDPad,CuDef*%
G36*
G01*
X153347439Y-123050564D02*
X152097433Y-123050564D01*
G75*
G02*
X151847436Y-122800567I0J249997D01*
G01*
X151847436Y-122175561D01*
G75*
G02*
X152097433Y-121925564I249997J0D01*
G01*
X153347439Y-121925564D01*
G75*
G02*
X153597436Y-122175561I0J-249997D01*
G01*
X153597436Y-122800567D01*
G75*
G02*
X153347439Y-123050564I-249997J0D01*
G01*
G37*
%TD.AperFunction*%
%TO.P,SWR2,1*%
%TO.N,GND*%
%TA.AperFunction,SMDPad,CuDef*%
G36*
G01*
X153347439Y-125975564D02*
X152097433Y-125975564D01*
G75*
G02*
X151847436Y-125725567I0J249997D01*
G01*
X151847436Y-125100561D01*
G75*
G02*
X152097433Y-124850564I249997J0D01*
G01*
X153347439Y-124850564D01*
G75*
G02*
X153597436Y-125100561I0J-249997D01*
G01*
X153597436Y-125725567D01*
G75*
G02*
X153347439Y-125975564I-249997J0D01*
G01*
G37*
%TD.AperFunction*%
%TD*%
%TO.P,SWR1,2*%
%TO.N,/SW1*%
%TA.AperFunction,SMDPad,CuDef*%
G36*
G01*
X155887439Y-123050564D02*
X154637433Y-123050564D01*
G75*
G02*
X154387436Y-122800567I0J249997D01*
G01*
X154387436Y-122175561D01*
G75*
G02*
X154637433Y-121925564I249997J0D01*
G01*
X155887439Y-121925564D01*
G75*
G02*
X156137436Y-122175561I0J-249997D01*
G01*
X156137436Y-122800567D01*
G75*
G02*
X155887439Y-123050564I-249997J0D01*
G01*
G37*
%TD.AperFunction*%
%TO.P,SWR1,1*%
%TO.N,GND*%
%TA.AperFunction,SMDPad,CuDef*%
G36*
G01*
X155887439Y-125975564D02*
X154637433Y-125975564D01*
G75*
G02*
X154387436Y-125725567I0J249997D01*
G01*
X154387436Y-125100561D01*
G75*
G02*
X154637433Y-124850564I249997J0D01*
G01*
X155887439Y-124850564D01*
G75*
G02*
X156137436Y-125100561I0J-249997D01*
G01*
X156137436Y-125725567D01*
G75*
G02*
X155887439Y-125975564I-249997J0D01*
G01*
G37*
%TD.AperFunction*%
%TD*%
%TO.P,RDATA1,2*%
%TO.N,/DATA*%
%TA.AperFunction,SMDPad,CuDef*%
G36*
G01*
X127184436Y-127022003D02*
X127184436Y-125771997D01*
G75*
G02*
X127434433Y-125522000I249997J0D01*
G01*
X128059439Y-125522000D01*
G75*
G02*
X128309436Y-125771997I0J-249997D01*
G01*
X128309436Y-127022003D01*
G75*
G02*
X128059439Y-127272000I-249997J0D01*
G01*
X127434433Y-127272000D01*
G75*
G02*
X127184436Y-127022003I0J249997D01*
G01*
G37*
%TD.AperFunction*%
%TO.P,RDATA1,1*%
%TO.N,/DATA_IN*%
%TA.AperFunction,SMDPad,CuDef*%
G36*
G01*
X124259436Y-127022003D02*
X124259436Y-125771997D01*
G75*
G02*
X124509433Y-125522000I249997J0D01*
G01*
X125134439Y-125522000D01*
G75*
G02*
X125384436Y-125771997I0J-249997D01*
G01*
X125384436Y-127022003D01*
G75*
G02*
X125134439Y-127272000I-249997J0D01*
G01*
X124509433Y-127272000D01*
G75*
G02*
X124259436Y-127022003I0J249997D01*
G01*
G37*
%TD.AperFunction*%
%TD*%
%TO.P,RD7,2*%
%TO.N,/RD7*%
%TA.AperFunction,SMDPad,CuDef*%
G36*
G01*
X171035000Y-99102003D02*
X171035000Y-97851997D01*
G75*
G02*
X171284997Y-97602000I249997J0D01*
G01*
X171910003Y-97602000D01*
G75*
G02*
X172160000Y-97851997I0J-249997D01*
G01*
X172160000Y-99102003D01*
G75*
G02*
X171910003Y-99352000I-249997J0D01*
G01*
X171284997Y-99352000D01*
G75*
G02*
X171035000Y-99102003I0J249997D01*
G01*
G37*
%TD.AperFunction*%
%TO.P,RD7,1*%
%TO.N,Net-(D7-Pad2)*%
%TA.AperFunction,SMDPad,CuDef*%
G36*
G01*
X168110000Y-99102003D02*
X168110000Y-97851997D01*
G75*
G02*
X168359997Y-97602000I249997J0D01*
G01*
X168985003Y-97602000D01*
G75*
G02*
X169235000Y-97851997I0J-249997D01*
G01*
X169235000Y-99102003D01*
G75*
G02*
X168985003Y-99352000I-249997J0D01*
G01*
X168359997Y-99352000D01*
G75*
G02*
X168110000Y-99102003I0J249997D01*
G01*
G37*
%TD.AperFunction*%
%TD*%
%TO.P,RD5,2*%
%TO.N,/RD5*%
%TA.AperFunction,SMDPad,CuDef*%
G36*
G01*
X128962436Y-99082003D02*
X128962436Y-97831997D01*
G75*
G02*
X129212433Y-97582000I249997J0D01*
G01*
X129837439Y-97582000D01*
G75*
G02*
X130087436Y-97831997I0J-249997D01*
G01*
X130087436Y-99082003D01*
G75*
G02*
X129837439Y-99332000I-249997J0D01*
G01*
X129212433Y-99332000D01*
G75*
G02*
X128962436Y-99082003I0J249997D01*
G01*
G37*
%TD.AperFunction*%
%TO.P,RD5,1*%
%TO.N,Net-(D5-Pad2)*%
%TA.AperFunction,SMDPad,CuDef*%
G36*
G01*
X126037436Y-99082003D02*
X126037436Y-97831997D01*
G75*
G02*
X126287433Y-97582000I249997J0D01*
G01*
X126912439Y-97582000D01*
G75*
G02*
X127162436Y-97831997I0J-249997D01*
G01*
X127162436Y-99082003D01*
G75*
G02*
X126912439Y-99332000I-249997J0D01*
G01*
X126287433Y-99332000D01*
G75*
G02*
X126037436Y-99082003I0J249997D01*
G01*
G37*
%TD.AperFunction*%
%TD*%
%TO.P,RD4,2*%
%TO.N,/RD4*%
%TA.AperFunction,SMDPad,CuDef*%
G36*
G01*
X174787436Y-72197997D02*
X174787436Y-73448003D01*
G75*
G02*
X174537439Y-73698000I-249997J0D01*
G01*
X173912433Y-73698000D01*
G75*
G02*
X173662436Y-73448003I0J249997D01*
G01*
X173662436Y-72197997D01*
G75*
G02*
X173912433Y-71948000I249997J0D01*
G01*
X174537439Y-71948000D01*
G75*
G02*
X174787436Y-72197997I0J-249997D01*
G01*
G37*
%TD.AperFunction*%
%TO.P,RD4,1*%
%TO.N,Net-(D4-Pad2)*%
%TA.AperFunction,SMDPad,CuDef*%
G36*
G01*
X177712436Y-72197997D02*
X177712436Y-73448003D01*
G75*
G02*
X177462439Y-73698000I-249997J0D01*
G01*
X176837433Y-73698000D01*
G75*
G02*
X176587436Y-73448003I0J249997D01*
G01*
X176587436Y-72197997D01*
G75*
G02*
X176837433Y-71948000I249997J0D01*
G01*
X177462439Y-71948000D01*
G75*
G02*
X177712436Y-72197997I0J-249997D01*
G01*
G37*
%TD.AperFunction*%
%TD*%
%TO.P,RD3,2*%
%TO.N,/RD3*%
%TA.AperFunction,SMDPad,CuDef*%
G36*
G01*
X153451436Y-72197997D02*
X153451436Y-73448003D01*
G75*
G02*
X153201439Y-73698000I-249997J0D01*
G01*
X152576433Y-73698000D01*
G75*
G02*
X152326436Y-73448003I0J249997D01*
G01*
X152326436Y-72197997D01*
G75*
G02*
X152576433Y-71948000I249997J0D01*
G01*
X153201439Y-71948000D01*
G75*
G02*
X153451436Y-72197997I0J-249997D01*
G01*
G37*
%TD.AperFunction*%
%TO.P,RD3,1*%
%TO.N,Net-(D3-Pad2)*%
%TA.AperFunction,SMDPad,CuDef*%
G36*
G01*
X156376436Y-72197997D02*
X156376436Y-73448003D01*
G75*
G02*
X156126439Y-73698000I-249997J0D01*
G01*
X155501433Y-73698000D01*
G75*
G02*
X155251436Y-73448003I0J249997D01*
G01*
X155251436Y-72197997D01*
G75*
G02*
X155501433Y-71948000I249997J0D01*
G01*
X156126439Y-71948000D01*
G75*
G02*
X156376436Y-72197997I0J-249997D01*
G01*
G37*
%TD.AperFunction*%
%TD*%
%TO.P,RD1,2*%
%TO.N,/RD1*%
%TA.AperFunction,SMDPad,CuDef*%
G36*
G01*
X111160436Y-72197997D02*
X111160436Y-73448003D01*
G75*
G02*
X110910439Y-73698000I-249997J0D01*
G01*
X110285433Y-73698000D01*
G75*
G02*
X110035436Y-73448003I0J249997D01*
G01*
X110035436Y-72197997D01*
G75*
G02*
X110285433Y-71948000I249997J0D01*
G01*
X110910439Y-71948000D01*
G75*
G02*
X111160436Y-72197997I0J-249997D01*
G01*
G37*
%TD.AperFunction*%
%TO.P,RD1,1*%
%TO.N,Net-(D1-Pad2)*%
%TA.AperFunction,SMDPad,CuDef*%
G36*
G01*
X114085436Y-72197997D02*
X114085436Y-73448003D01*
G75*
G02*
X113835439Y-73698000I-249997J0D01*
G01*
X113210433Y-73698000D01*
G75*
G02*
X112960436Y-73448003I0J249997D01*
G01*
X112960436Y-72197997D01*
G75*
G02*
X113210433Y-71948000I249997J0D01*
G01*
X113835439Y-71948000D01*
G75*
G02*
X114085436Y-72197997I0J-249997D01*
G01*
G37*
%TD.AperFunction*%
%TD*%
%TO.P,D7,2*%
%TO.N,Net-(D7-Pad2)*%
%TA.AperFunction,SMDPad,CuDef*%
G36*
G01*
X163089000Y-99102000D02*
X163089000Y-97852000D01*
G75*
G02*
X163339000Y-97602000I250000J0D01*
G01*
X164089000Y-97602000D01*
G75*
G02*
X164339000Y-97852000I0J-250000D01*
G01*
X164339000Y-99102000D01*
G75*
G02*
X164089000Y-99352000I-250000J0D01*
G01*
X163339000Y-99352000D01*
G75*
G02*
X163089000Y-99102000I0J250000D01*
G01*
G37*
%TD.AperFunction*%
%TO.P,D7,1*%
%TO.N,GND*%
%TA.AperFunction,SMDPad,CuDef*%
G36*
G01*
X160289000Y-99102000D02*
X160289000Y-97852000D01*
G75*
G02*
X160539000Y-97602000I250000J0D01*
G01*
X161289000Y-97602000D01*
G75*
G02*
X161539000Y-97852000I0J-250000D01*
G01*
X161539000Y-99102000D01*
G75*
G02*
X161289000Y-99352000I-250000J0D01*
G01*
X160539000Y-99352000D01*
G75*
G02*
X160289000Y-99102000I0J250000D01*
G01*
G37*
%TD.AperFunction*%
%TD*%
%TO.P,D6,2*%
%TO.N,Net-(D6-Pad2)*%
%TA.AperFunction,SMDPad,CuDef*%
G36*
G01*
X141753000Y-99102000D02*
X141753000Y-97852000D01*
G75*
G02*
X142003000Y-97602000I250000J0D01*
G01*
X142753000Y-97602000D01*
G75*
G02*
X143003000Y-97852000I0J-250000D01*
G01*
X143003000Y-99102000D01*
G75*
G02*
X142753000Y-99352000I-250000J0D01*
G01*
X142003000Y-99352000D01*
G75*
G02*
X141753000Y-99102000I0J250000D01*
G01*
G37*
%TD.AperFunction*%
%TO.P,D6,1*%
%TO.N,GND*%
%TA.AperFunction,SMDPad,CuDef*%
G36*
G01*
X138953000Y-99102000D02*
X138953000Y-97852000D01*
G75*
G02*
X139203000Y-97602000I250000J0D01*
G01*
X139953000Y-97602000D01*
G75*
G02*
X140203000Y-97852000I0J-250000D01*
G01*
X140203000Y-99102000D01*
G75*
G02*
X139953000Y-99352000I-250000J0D01*
G01*
X139203000Y-99352000D01*
G75*
G02*
X138953000Y-99102000I0J250000D01*
G01*
G37*
%TD.AperFunction*%
%TD*%
%TO.P,D5,2*%
%TO.N,Net-(D5-Pad2)*%
%TA.AperFunction,SMDPad,CuDef*%
G36*
G01*
X120417000Y-99102000D02*
X120417000Y-97852000D01*
G75*
G02*
X120667000Y-97602000I250000J0D01*
G01*
X121417000Y-97602000D01*
G75*
G02*
X121667000Y-97852000I0J-250000D01*
G01*
X121667000Y-99102000D01*
G75*
G02*
X121417000Y-99352000I-250000J0D01*
G01*
X120667000Y-99352000D01*
G75*
G02*
X120417000Y-99102000I0J250000D01*
G01*
G37*
%TD.AperFunction*%
%TO.P,D5,1*%
%TO.N,GND*%
%TA.AperFunction,SMDPad,CuDef*%
G36*
G01*
X117617000Y-99102000D02*
X117617000Y-97852000D01*
G75*
G02*
X117867000Y-97602000I250000J0D01*
G01*
X118617000Y-97602000D01*
G75*
G02*
X118867000Y-97852000I0J-250000D01*
G01*
X118867000Y-99102000D01*
G75*
G02*
X118617000Y-99352000I-250000J0D01*
G01*
X117867000Y-99352000D01*
G75*
G02*
X117617000Y-99102000I0J250000D01*
G01*
G37*
%TD.AperFunction*%
%TD*%
%TO.P,D4,2*%
%TO.N,Net-(D4-Pad2)*%
%TA.AperFunction,SMDPad,CuDef*%
G36*
G01*
X182367000Y-72198000D02*
X182367000Y-73448000D01*
G75*
G02*
X182117000Y-73698000I-250000J0D01*
G01*
X181367000Y-73698000D01*
G75*
G02*
X181117000Y-73448000I0J250000D01*
G01*
X181117000Y-72198000D01*
G75*
G02*
X181367000Y-71948000I250000J0D01*
G01*
X182117000Y-71948000D01*
G75*
G02*
X182367000Y-72198000I0J-250000D01*
G01*
G37*
%TD.AperFunction*%
%TO.P,D4,1*%
%TO.N,GND*%
%TA.AperFunction,SMDPad,CuDef*%
G36*
G01*
X185167000Y-72198000D02*
X185167000Y-73448000D01*
G75*
G02*
X184917000Y-73698000I-250000J0D01*
G01*
X184167000Y-73698000D01*
G75*
G02*
X183917000Y-73448000I0J250000D01*
G01*
X183917000Y-72198000D01*
G75*
G02*
X184167000Y-71948000I250000J0D01*
G01*
X184917000Y-71948000D01*
G75*
G02*
X185167000Y-72198000I0J-250000D01*
G01*
G37*
%TD.AperFunction*%
%TD*%
%TO.P,D3,2*%
%TO.N,Net-(D3-Pad2)*%
%TA.AperFunction,SMDPad,CuDef*%
G36*
G01*
X161539000Y-72198000D02*
X161539000Y-73448000D01*
G75*
G02*
X161289000Y-73698000I-250000J0D01*
G01*
X160539000Y-73698000D01*
G75*
G02*
X160289000Y-73448000I0J250000D01*
G01*
X160289000Y-72198000D01*
G75*
G02*
X160539000Y-71948000I250000J0D01*
G01*
X161289000Y-71948000D01*
G75*
G02*
X161539000Y-72198000I0J-250000D01*
G01*
G37*
%TD.AperFunction*%
%TO.P,D3,1*%
%TO.N,GND*%
%TA.AperFunction,SMDPad,CuDef*%
G36*
G01*
X164339000Y-72198000D02*
X164339000Y-73448000D01*
G75*
G02*
X164089000Y-73698000I-250000J0D01*
G01*
X163339000Y-73698000D01*
G75*
G02*
X163089000Y-73448000I0J250000D01*
G01*
X163089000Y-72198000D01*
G75*
G02*
X163339000Y-71948000I250000J0D01*
G01*
X164089000Y-71948000D01*
G75*
G02*
X164339000Y-72198000I0J-250000D01*
G01*
G37*
%TD.AperFunction*%
%TD*%
%TO.P,D2,2*%
%TO.N,Net-(D2-Pad2)*%
%TA.AperFunction,SMDPad,CuDef*%
G36*
G01*
X140203000Y-72198000D02*
X140203000Y-73448000D01*
G75*
G02*
X139953000Y-73698000I-250000J0D01*
G01*
X139203000Y-73698000D01*
G75*
G02*
X138953000Y-73448000I0J250000D01*
G01*
X138953000Y-72198000D01*
G75*
G02*
X139203000Y-71948000I250000J0D01*
G01*
X139953000Y-71948000D01*
G75*
G02*
X140203000Y-72198000I0J-250000D01*
G01*
G37*
%TD.AperFunction*%
%TO.P,D2,1*%
%TO.N,GND*%
%TA.AperFunction,SMDPad,CuDef*%
G36*
G01*
X143003000Y-72198000D02*
X143003000Y-73448000D01*
G75*
G02*
X142753000Y-73698000I-250000J0D01*
G01*
X142003000Y-73698000D01*
G75*
G02*
X141753000Y-73448000I0J250000D01*
G01*
X141753000Y-72198000D01*
G75*
G02*
X142003000Y-71948000I250000J0D01*
G01*
X142753000Y-71948000D01*
G75*
G02*
X143003000Y-72198000I0J-250000D01*
G01*
G37*
%TD.AperFunction*%
%TD*%
D14*
%TO.P,SW_ALL_OFF1,1*%
%TO.N,VCC*%
X113784436Y-119920000D03*
%TO.P,SW_ALL_OFF1,2*%
%TO.N,/SW_ALL_OFF1*%
X113784436Y-114920000D03*
%TO.P,SW_ALL_OFF1,1*%
%TO.N,VCC*%
X126284436Y-119920000D03*
%TO.P,SW_ALL_OFF1,2*%
%TO.N,/SW_ALL_OFF1*%
X126284436Y-114920000D03*
%TD*%
%TO.P,SW7,2*%
%TO.N,/SW7*%
X155964000Y-92047000D03*
%TO.P,SW7,1*%
%TO.N,VCC*%
X155964000Y-87047000D03*
%TO.P,SW7,2*%
%TO.N,/SW7*%
X168464000Y-92047000D03*
%TO.P,SW7,1*%
%TO.N,VCC*%
X168464000Y-87047000D03*
%TD*%
%TO.P,SW6,1*%
%TO.N,VCC*%
X147128000Y-87047000D03*
%TO.P,SW6,2*%
%TO.N,/SW6*%
X147128000Y-92047000D03*
%TO.P,SW6,1*%
%TO.N,VCC*%
X134628000Y-87047000D03*
%TO.P,SW6,2*%
%TO.N,/SW6*%
X134628000Y-92047000D03*
%TD*%
%TO.P,SW5,1*%
%TO.N,VCC*%
X126300000Y-87047000D03*
%TO.P,SW5,2*%
%TO.N,/SW5*%
X126300000Y-92047000D03*
%TO.P,SW5,1*%
%TO.N,VCC*%
X113800000Y-87047000D03*
%TO.P,SW5,2*%
%TO.N,/SW5*%
X113800000Y-92047000D03*
%TD*%
%TO.P,SW4,1*%
%TO.N,VCC*%
X189292000Y-61393000D03*
%TO.P,SW4,2*%
%TO.N,/SW4*%
X189292000Y-66393000D03*
%TO.P,SW4,1*%
%TO.N,VCC*%
X176792000Y-61393000D03*
%TO.P,SW4,2*%
%TO.N,/SW4*%
X176792000Y-66393000D03*
%TD*%
%TO.P,SW3,2*%
%TO.N,/SW3*%
X155964000Y-66393000D03*
%TO.P,SW3,1*%
%TO.N,VCC*%
X155964000Y-61393000D03*
%TO.P,SW3,2*%
%TO.N,/SW3*%
X168464000Y-66393000D03*
%TO.P,SW3,1*%
%TO.N,VCC*%
X168464000Y-61393000D03*
%TD*%
%TO.P,SW2,1*%
%TO.N,VCC*%
X147128000Y-61393000D03*
%TO.P,SW2,2*%
%TO.N,/SW2*%
X147128000Y-66393000D03*
%TO.P,SW2,1*%
%TO.N,VCC*%
X134628000Y-61393000D03*
%TO.P,SW2,2*%
%TO.N,/SW2*%
X134628000Y-66393000D03*
%TD*%
D16*
%TO.N,/CLOCK*%
X132507436Y-122823000D03*
X178971436Y-112663000D03*
%TO.N,VCC*%
X140254436Y-125254000D03*
X176594436Y-110123000D03*
X176467436Y-125363000D03*
%TO.N,/SW1*%
X147493436Y-112681000D03*
%TO.N,/SW4*%
X147620436Y-120047000D03*
%TO.N,/SW3*%
X147493436Y-117761000D03*
%TO.N,/SW5*%
X129477000Y-110395000D03*
%TO.N,/SW6*%
X129459436Y-117761000D03*
%TO.N,/SW7*%
X129459436Y-115094000D03*
%TO.N,/SW_ALL_OFF1*%
X129459436Y-112681000D03*
%TO.N,/SW2*%
X147493436Y-115221000D03*
%TO.N,/LOAD*%
X132531000Y-125363000D03*
X184069436Y-103283000D03*
%TD*%
D17*
%TO.N,Net-(D1-Pad2)*%
X118242000Y-72823000D02*
X113522936Y-72823000D01*
%TO.N,GND*%
X143891000Y-72823000D02*
X146399000Y-70315000D01*
X142378000Y-72823000D02*
X143891000Y-72823000D01*
X146399000Y-70315000D02*
X166805000Y-70315000D01*
X163714000Y-72823000D02*
X165605000Y-72823000D01*
X165605000Y-72823000D02*
X168113000Y-70315000D01*
X166805000Y-70315000D02*
X168113000Y-70315000D01*
X186011000Y-72823000D02*
X188051500Y-70782500D01*
X184542000Y-72823000D02*
X186011000Y-72823000D01*
X187584000Y-70315000D02*
X188051500Y-70782500D01*
X168113000Y-70315000D02*
X184068000Y-70315000D01*
X184068000Y-70315000D02*
X187584000Y-70315000D01*
X139578000Y-98477000D02*
X138393000Y-98477000D01*
X136224000Y-96308000D02*
X136224000Y-96198000D01*
X138393000Y-98477000D02*
X136224000Y-96308000D01*
X116746398Y-98477000D02*
X118242000Y-98477000D01*
X116570001Y-98300603D02*
X116746398Y-98477000D01*
X116570001Y-97340999D02*
X116570001Y-98300603D01*
X117713000Y-96198000D02*
X116570001Y-97340999D01*
X136224000Y-96198000D02*
X117713000Y-96198000D01*
X146399000Y-70315000D02*
X128423000Y-70315000D01*
X128423000Y-70315000D02*
X125933264Y-70315000D01*
X123379000Y-72823000D02*
X123402132Y-72846132D01*
X121042000Y-72823000D02*
X123379000Y-72823000D01*
X125933264Y-70315000D02*
X123402132Y-72846132D01*
X192620000Y-70315000D02*
X188485000Y-70315000D01*
X195411990Y-73106990D02*
X192620000Y-70315000D01*
X184068000Y-70315000D02*
X188485000Y-70315000D01*
X139948000Y-96198000D02*
X139948000Y-92282000D01*
X136224000Y-96198000D02*
X139948000Y-96198000D01*
X139948000Y-92282000D02*
X142850000Y-89380000D01*
X142850000Y-89380000D02*
X158540000Y-89380000D01*
X162532000Y-93372000D02*
X162532000Y-96198000D01*
X158540000Y-89380000D02*
X162532000Y-93372000D01*
X160914000Y-98477000D02*
X159947000Y-98477000D01*
X158860000Y-96956000D02*
X159618000Y-96198000D01*
X158860000Y-97390000D02*
X158860000Y-96956000D01*
X159618000Y-96198000D02*
X162532000Y-96198000D01*
X159947000Y-98477000D02*
X158860000Y-97390000D01*
X141678500Y-108944500D02*
X140317000Y-107583000D01*
X141678500Y-112663000D02*
X141678500Y-108944500D01*
%TO.N,Net-(D6-Pad2)*%
X142378000Y-98477000D02*
X147688500Y-98477000D01*
%TO.N,Net-(D7-Pad2)*%
X163714000Y-98477000D02*
X168672500Y-98477000D01*
%TO.N,GND*%
X141678500Y-120283000D02*
X141678500Y-122106064D01*
X142395436Y-122823000D02*
X143937436Y-122823000D01*
X141678500Y-122106064D02*
X142395436Y-122823000D01*
X141678500Y-120283000D02*
X141678500Y-117743000D01*
X141678500Y-117743000D02*
X141678500Y-115203000D01*
X141678500Y-115203000D02*
X141678500Y-112663000D01*
X147642436Y-126731001D02*
X147874436Y-126963001D01*
X147642436Y-125413064D02*
X147642436Y-126731001D01*
X143937436Y-122823000D02*
X145443436Y-122823000D01*
X145443436Y-122823000D02*
X145842436Y-123222000D01*
X145842436Y-123222000D02*
X145842436Y-126143000D01*
X146662437Y-126963001D02*
X148959435Y-126963001D01*
X148959435Y-126963001D02*
X147874436Y-126963001D01*
X150182436Y-126673000D02*
X150472437Y-126963001D01*
X150182436Y-125413064D02*
X150182436Y-126673000D01*
X150472437Y-126963001D02*
X148959435Y-126963001D01*
X152722436Y-126673000D02*
X153012437Y-126963001D01*
X152722436Y-125413064D02*
X152722436Y-126673000D01*
X153012437Y-126963001D02*
X150472437Y-126963001D01*
X155262436Y-126546000D02*
X155679437Y-126963001D01*
X155262436Y-125413064D02*
X155262436Y-126546000D01*
X155679437Y-126963001D02*
X153012437Y-126963001D01*
X146662437Y-126963001D02*
X145842436Y-126143000D01*
X178735436Y-119920000D02*
X176558436Y-117743000D01*
X193467436Y-119920000D02*
X178735436Y-119920000D01*
X173045000Y-117743000D02*
X176558436Y-117743000D01*
X195411990Y-77033554D02*
X195411990Y-73106990D01*
X162532000Y-96198000D02*
X164230436Y-96198000D01*
X195411990Y-117975446D02*
X193467436Y-119920000D01*
X195411990Y-77033554D02*
X195411990Y-96893446D01*
X194910436Y-113270000D02*
X195411990Y-112768446D01*
X191760000Y-113270000D02*
X194910436Y-113270000D01*
X195411990Y-112768446D02*
X195411990Y-117975446D01*
X195411990Y-96893446D02*
X195411990Y-100274554D01*
X136317436Y-107583000D02*
X140317000Y-107583000D01*
X135136461Y-106402025D02*
X136317436Y-107583000D01*
X115589722Y-106402025D02*
X135136461Y-106402025D01*
X109202990Y-100015292D02*
X115589722Y-106402025D01*
X109202990Y-87045274D02*
X109202990Y-100015292D01*
X123402132Y-72846132D02*
X109202990Y-87045274D01*
X164230436Y-96198000D02*
X173174436Y-96198000D01*
X195411990Y-101953621D02*
X195411990Y-102227446D01*
X193678349Y-100219980D02*
X195411990Y-101953621D01*
X195411990Y-102227446D02*
X195411990Y-112768446D01*
X195411990Y-100274554D02*
X195411990Y-102227446D01*
X183195456Y-100219980D02*
X193678349Y-100219980D01*
X165425000Y-107583000D02*
X165425000Y-103258436D01*
X165425000Y-103258436D02*
X167131416Y-101552020D01*
X175941436Y-98965000D02*
X177196416Y-100219980D01*
X173174436Y-96198000D02*
X175941436Y-98965000D01*
X180453544Y-100219980D02*
X180528456Y-100219980D01*
X179121504Y-101552020D02*
X180453544Y-100219980D01*
X170908456Y-101552020D02*
X179121504Y-101552020D01*
X180528456Y-100219980D02*
X183195456Y-100219980D01*
X177196416Y-100219980D02*
X180528456Y-100219980D01*
X167131416Y-101552020D02*
X170908456Y-101552020D01*
%TO.N,Net-(D2-Pad2)*%
X134477936Y-72823000D02*
X139578000Y-72823000D01*
%TO.N,Net-(D3-Pad2)*%
X155813936Y-72823000D02*
X160914000Y-72823000D01*
%TO.N,Net-(D4-Pad2)*%
X177149936Y-72823000D02*
X181742000Y-72823000D01*
%TO.N,Net-(D5-Pad2)*%
X121062000Y-98457000D02*
X121042000Y-98477000D01*
X126599936Y-98457000D02*
X121062000Y-98457000D01*
%TO.N,/LATCH*%
X169086446Y-107193639D02*
X169086446Y-114843010D01*
X169086446Y-114843010D02*
X169446436Y-115203000D01*
X171697096Y-104582989D02*
X169086446Y-107193639D01*
X178078337Y-104582989D02*
X171697096Y-104582989D01*
X179265348Y-105770000D02*
X178078337Y-104582989D01*
X169446436Y-115203000D02*
X173045000Y-115203000D01*
X191760000Y-105770000D02*
X179265348Y-105770000D01*
X191760000Y-105770000D02*
X183000436Y-105770000D01*
%TO.N,/CLOCK*%
X132507436Y-122823000D02*
X134120000Y-122823000D01*
X136317436Y-122823000D02*
X132507436Y-122823000D01*
X173045000Y-112663000D02*
X178971436Y-112663000D01*
X182285436Y-110770000D02*
X191760000Y-110770000D01*
X177498435Y-105982999D02*
X182285436Y-110770000D01*
X172276999Y-105982999D02*
X177498435Y-105982999D01*
X170486456Y-107773542D02*
X172276999Y-105982999D01*
X170486456Y-111792000D02*
X170486456Y-107773542D01*
X171357456Y-112663000D02*
X170486456Y-111792000D01*
X173045000Y-112663000D02*
X171357456Y-112663000D01*
%TO.N,VCC*%
X143937436Y-125363000D02*
X140363436Y-125363000D01*
X173045000Y-110123000D02*
X176594436Y-110123000D01*
X173045000Y-125363000D02*
X176467436Y-125363000D01*
X191737000Y-115708000D02*
X191778000Y-115749000D01*
X184556436Y-115708000D02*
X191737000Y-115708000D01*
X178971436Y-110123000D02*
X184556436Y-115708000D01*
X176594436Y-110123000D02*
X178971436Y-110123000D01*
%TO.N,/SW1*%
X143937436Y-112663000D02*
X147983436Y-112663000D01*
X155262436Y-119307000D02*
X148618436Y-112663000D01*
X155262436Y-122488064D02*
X155262436Y-119307000D01*
X148618436Y-112663000D02*
X147983436Y-112663000D01*
%TO.N,/SW3*%
X143994349Y-117686087D02*
X143937436Y-117743000D01*
%TO.N,/SW4*%
X147642436Y-120069000D02*
X147620436Y-120047000D01*
X147642436Y-122488064D02*
X147642436Y-120069000D01*
%TO.N,/SW3*%
X143937436Y-117743000D02*
X148491436Y-117743000D01*
X150182436Y-119434000D02*
X148491436Y-117743000D01*
X150182436Y-122488064D02*
X150182436Y-119434000D01*
%TO.N,/SW4*%
X147384436Y-120283000D02*
X147620436Y-120047000D01*
X143937436Y-120283000D02*
X147384436Y-120283000D01*
%TO.N,/SW5*%
X136317436Y-120283000D02*
X138753500Y-120283000D01*
X136317436Y-120283000D02*
X132398436Y-120283000D01*
X120696436Y-111993912D02*
X122295348Y-110395000D01*
X129459436Y-110395000D02*
X129471416Y-110383020D01*
X129471416Y-110383020D02*
X129477000Y-110383020D01*
X122295348Y-110395000D02*
X129459436Y-110395000D01*
X136317436Y-120283000D02*
X131636436Y-120283000D01*
X131636436Y-120283000D02*
X129078436Y-122841000D01*
X129078436Y-122841000D02*
X122220436Y-122841000D01*
X120696436Y-121317000D02*
X120696436Y-116237000D01*
X122220436Y-122841000D02*
X120696436Y-121317000D01*
X120696436Y-116237000D02*
X120696436Y-111993912D01*
%TO.N,/SW6*%
X136317436Y-117743000D02*
X138753500Y-117743000D01*
X129477436Y-117743000D02*
X129459436Y-117761000D01*
X136317436Y-117743000D02*
X129477436Y-117743000D01*
%TO.N,/SW7*%
X136317436Y-115203000D02*
X138753500Y-115203000D01*
X129568436Y-115203000D02*
X129459436Y-115094000D01*
X136317436Y-115203000D02*
X129568436Y-115203000D01*
%TO.N,/SW_ALL_OFF1*%
X136317436Y-112663000D02*
X138753500Y-112663000D01*
X129477436Y-112663000D02*
X129459436Y-112681000D01*
X136317436Y-112663000D02*
X129477436Y-112663000D01*
%TO.N,/SW2*%
X152722436Y-119434000D02*
X148491436Y-115203000D01*
X152722436Y-122488064D02*
X152722436Y-119434000D01*
X143937436Y-115203000D02*
X148491436Y-115203000D01*
%TO.N,/RD1*%
X189512436Y-122823000D02*
X173045000Y-122823000D01*
X192544349Y-122823000D02*
X189512436Y-122823000D01*
X196812000Y-118555349D02*
X192544349Y-122823000D01*
X196812000Y-72527087D02*
X196812000Y-118555349D01*
X110741446Y-68914990D02*
X193199903Y-68914990D01*
X193199903Y-68914990D02*
X196812000Y-72527087D01*
X108885436Y-70771000D02*
X110741446Y-68914990D01*
X108885436Y-72041000D02*
X108885436Y-70771000D01*
X109667436Y-72823000D02*
X108885436Y-72041000D01*
X110597936Y-72823000D02*
X109667436Y-72823000D01*
%TO.N,/RD2*%
X144132451Y-105002015D02*
X164493436Y-125363000D01*
X110603000Y-90897436D02*
X110603000Y-99435389D01*
X111806436Y-89694000D02*
X110603000Y-90897436D01*
X110603000Y-99435389D02*
X116169625Y-105002015D01*
X117878175Y-89694000D02*
X111806436Y-89694000D01*
X120254982Y-87317193D02*
X117878175Y-89694000D01*
X164493436Y-125363000D02*
X165425000Y-125363000D01*
X120254982Y-77973194D02*
X120254982Y-87317193D01*
X116169625Y-105002015D02*
X144132451Y-105002015D01*
X125405175Y-72823000D02*
X120254982Y-77973194D01*
X131552936Y-72823000D02*
X125405175Y-72823000D01*
%TO.N,/RD3*%
X116749528Y-103602005D02*
X144712354Y-103602005D01*
X112911262Y-99763738D02*
X116749528Y-103602005D01*
X112911262Y-96640826D02*
X112911262Y-99763738D01*
X121654989Y-87897099D02*
X112911262Y-96640826D01*
X121654991Y-78553096D02*
X121654989Y-87897099D01*
X125696086Y-74512001D02*
X121654991Y-78553096D01*
X151199936Y-74512000D02*
X125696086Y-74512001D01*
X163933348Y-122823000D02*
X165425000Y-122823000D01*
X145532461Y-104422113D02*
X163933348Y-122823000D01*
X144712354Y-103602005D02*
X145532461Y-104422113D01*
X152888936Y-72823000D02*
X151199936Y-74512000D01*
%TO.N,/RD4*%
X163373260Y-120283000D02*
X165425000Y-120283000D01*
X145292255Y-102201995D02*
X163373260Y-120283000D01*
X117329431Y-102201995D02*
X145292255Y-102201995D01*
X114409218Y-97122782D02*
X114409218Y-99281782D01*
X122234892Y-89297108D02*
X114409218Y-97122782D01*
X123055000Y-88477001D02*
X122234892Y-89297108D01*
X123055000Y-79132999D02*
X123055000Y-88477001D01*
X114409218Y-99281782D02*
X117329431Y-102201995D01*
X126275989Y-75912010D02*
X123055000Y-79132999D01*
X171135926Y-75912010D02*
X126275989Y-75912010D01*
X174224936Y-72823000D02*
X171135926Y-75912010D01*
%TO.N,/RD5*%
X162813172Y-117743000D02*
X165425000Y-117743000D01*
X146692265Y-101622093D02*
X162813172Y-117743000D01*
X133718451Y-100801985D02*
X145872158Y-100801985D01*
X131373466Y-98457000D02*
X133718451Y-100801985D01*
X145872158Y-100801985D02*
X146692265Y-101622093D01*
X129524936Y-98457000D02*
X131373466Y-98457000D01*
%TO.N,/RD6*%
X152085436Y-98477000D02*
X150613500Y-98477000D01*
X152085436Y-105035352D02*
X152085436Y-98477000D01*
X162253084Y-115203000D02*
X152085436Y-105035352D01*
X165425000Y-115203000D02*
X162253084Y-115203000D01*
%TO.N,/RD7*%
X161717436Y-111411000D02*
X162969436Y-112663000D01*
X161717436Y-100743000D02*
X161717436Y-111411000D01*
X162308426Y-100152010D02*
X161717436Y-100743000D01*
X173000436Y-99279000D02*
X172127426Y-100152010D01*
X172127426Y-100152010D02*
X162308426Y-100152010D01*
X173000436Y-98477000D02*
X173000436Y-99279000D01*
X162969436Y-112663000D02*
X165425000Y-112663000D01*
X171597500Y-98477000D02*
X173000436Y-98477000D01*
%TO.N,/DATA_IN*%
X119296426Y-124107990D02*
X121585436Y-126397000D01*
X119296426Y-111414009D02*
X119296426Y-124107990D01*
X121585436Y-126397000D02*
X124821936Y-126397000D01*
X122908401Y-107802035D02*
X119296426Y-111414009D01*
X131819471Y-107802035D02*
X122908401Y-107802035D01*
X134140436Y-110123000D02*
X131819471Y-107802035D01*
X136317436Y-110123000D02*
X134140436Y-110123000D01*
%TO.N,/DATA*%
X135113425Y-128363011D02*
X132695447Y-128363011D01*
X133330447Y-128363011D02*
X135113425Y-128363011D01*
X127746936Y-126397000D02*
X129205436Y-126397000D01*
X129205436Y-126397000D02*
X131171447Y-128363011D01*
X133330447Y-128363011D02*
X131171447Y-128363011D01*
X168339436Y-120283000D02*
X167686436Y-120936000D01*
X173045000Y-120283000D02*
X168339436Y-120283000D01*
X167686436Y-126651000D02*
X167686436Y-120936000D01*
X167686436Y-128048000D02*
X167686436Y-126651000D01*
X167371425Y-128363011D02*
X167686436Y-128048000D01*
X135113425Y-128363011D02*
X167371425Y-128363011D01*
X193535010Y-106494990D02*
X191760000Y-108270000D01*
X193098446Y-101619990D02*
X193535010Y-102056554D01*
X193535010Y-102056554D02*
X193535010Y-106494990D01*
X181033446Y-101619990D02*
X193098446Y-101619990D01*
X179470457Y-103182979D02*
X181033446Y-101619990D01*
X167686436Y-106613736D02*
X171117193Y-103182979D01*
X171117193Y-103182979D02*
X179470457Y-103182979D01*
X167686436Y-120936000D02*
X167686436Y-106613736D01*
%TO.N,/LOAD*%
X136317436Y-125363000D02*
X132531000Y-125363000D01*
X184082436Y-103270000D02*
X184069436Y-103283000D01*
X191760000Y-103270000D02*
X184082436Y-103270000D01*
%TD*%
M02*
