M48
; DRILL file {KiCad 5.1.10} date Tue Jul 27 03:07:13 2021
; FORMAT={-:-/ absolute / inch / decimal}
; #@! TF.CreationDate,2021-07-27T03:07:13+02:00
; #@! TF.GenerationSoftware,Kicad,Pcbnew,5.1.10
; #@! TF.FileFunction,Plated,1,2,PTH
FMAT,2
INCH
T1C0.0157
T2C0.0315
T3C0.0374
T4C0.0512
%
G90
G05
T1
X5.0968Y-4.4363
X5.0968Y-4.5313
X5.0968Y-4.6363
X5.0975Y-4.3463
X5.2168Y-4.8356
X5.2178Y-4.9356
X5.5218Y-4.9313
X5.8068Y-4.4363
X5.8068Y-4.5363
X5.8068Y-4.6363
X5.8118Y-4.7263
X6.9475Y-4.9356
X6.9525Y-4.3356
X7.0461Y-4.4356
X7.2468Y-4.0663
T2
X5.3668Y-4.2356
X5.3668Y-4.3356
X5.3668Y-4.4356
X5.3668Y-4.5356
X5.3668Y-4.6356
X5.3668Y-4.7356
X5.3668Y-4.8356
X5.3668Y-4.9356
X5.6668Y-4.2356
X5.6668Y-4.3356
X5.6668Y-4.4356
X5.6668Y-4.5356
X5.6668Y-4.6356
X5.6668Y-4.7356
X5.6668Y-4.8356
X5.6668Y-4.9356
X6.5128Y-4.2356
X6.5128Y-4.3356
X6.5128Y-4.4356
X6.5128Y-4.5356
X6.5128Y-4.6356
X6.5128Y-4.7356
X6.5128Y-4.8356
X6.5128Y-4.9356
X6.8128Y-4.2356
X6.8128Y-4.3356
X6.8128Y-4.4356
X6.8128Y-4.5356
X6.8128Y-4.6356
X6.8128Y-4.7356
X6.8128Y-4.8356
X6.8128Y-4.9356
T3
X7.5496Y-4.0657
X7.5496Y-4.1642
X7.5496Y-4.2626
X7.5496Y-4.361
X7.5496Y-4.4594
X7.5496Y-4.5579
T4
X4.4797Y-4.5244
X4.4797Y-4.7213
X4.4803Y-2.417
X4.4803Y-2.6139
X4.4803Y-3.427
X4.4803Y-3.6239
X4.9718Y-4.5244
X4.9718Y-4.7213
X4.9724Y-2.417
X4.9724Y-2.6139
X4.9724Y-3.427
X4.9724Y-3.6239
X5.3003Y-2.417
X5.3003Y-2.6139
X5.3003Y-3.427
X5.3003Y-3.6239
X5.7924Y-2.417
X5.7924Y-2.6139
X5.7924Y-3.427
X5.7924Y-3.6239
X6.1403Y-2.417
X6.1403Y-2.6139
X6.1403Y-3.427
X6.1403Y-3.6239
X6.6324Y-2.417
X6.6324Y-2.6139
X6.6324Y-3.427
X6.6324Y-3.6239
X6.9603Y-2.417
X6.9603Y-2.6139
X7.4524Y-2.417
X7.4524Y-2.6139
T0
M30
