%TF.GenerationSoftware,KiCad,Pcbnew,5.1.10*%
%TF.CreationDate,2021-07-27T03:07:11+02:00*%
%TF.ProjectId,OFICINA-TELE-ENCHUFES-INTERFAZ,4f464943-494e-4412-9d54-454c452d454e,rev?*%
%TF.SameCoordinates,Original*%
%TF.FileFunction,Copper,L2,Bot*%
%TF.FilePolarity,Positive*%
%FSLAX46Y46*%
G04 Gerber Fmt 4.6, Leading zero omitted, Abs format (unit mm)*
G04 Created by KiCad (PCBNEW 5.1.10) date 2021-07-27 03:07:11*
%MOMM*%
%LPD*%
G01*
G04 APERTURE LIST*
%TA.AperFunction,NonConductor*%
%ADD10C,0.450000*%
%TD*%
%TA.AperFunction,NonConductor*%
%ADD11C,0.375000*%
%TD*%
%TA.AperFunction,ComponentPad*%
%ADD12O,1.600000X1.600000*%
%TD*%
%TA.AperFunction,ComponentPad*%
%ADD13R,1.600000X1.600000*%
%TD*%
%TA.AperFunction,ComponentPad*%
%ADD14O,3.048000X1.850000*%
%TD*%
%TA.AperFunction,ComponentPad*%
%ADD15O,1.950000X1.700000*%
%TD*%
%TA.AperFunction,ViaPad*%
%ADD16C,0.800000*%
%TD*%
%TA.AperFunction,Conductor*%
%ADD17C,1.200000*%
%TD*%
%TA.AperFunction,Conductor*%
%ADD18C,0.800000*%
%TD*%
G04 APERTURE END LIST*
D10*
X187198285Y-78288476D02*
X186760190Y-78288476D01*
X186541142Y-78398000D01*
X186322095Y-78617047D01*
X186212571Y-79055142D01*
X186212571Y-79821809D01*
X186322095Y-80259904D01*
X186541142Y-80478952D01*
X186760190Y-80588476D01*
X187198285Y-80588476D01*
X187417333Y-80478952D01*
X187636380Y-80259904D01*
X187745904Y-79821809D01*
X187745904Y-79055142D01*
X187636380Y-78617047D01*
X187417333Y-78398000D01*
X187198285Y-78288476D01*
X184460190Y-79383714D02*
X185226857Y-79383714D01*
X185226857Y-80588476D02*
X185226857Y-78288476D01*
X184131619Y-78288476D01*
X183255428Y-80588476D02*
X183255428Y-78288476D01*
X180845904Y-80369428D02*
X180955428Y-80478952D01*
X181284000Y-80588476D01*
X181503047Y-80588476D01*
X181831619Y-80478952D01*
X182050666Y-80259904D01*
X182160190Y-80040857D01*
X182269714Y-79602761D01*
X182269714Y-79274190D01*
X182160190Y-78836095D01*
X182050666Y-78617047D01*
X181831619Y-78398000D01*
X181503047Y-78288476D01*
X181284000Y-78288476D01*
X180955428Y-78398000D01*
X180845904Y-78507523D01*
X179860190Y-80588476D02*
X179860190Y-78288476D01*
X178764952Y-80588476D02*
X178764952Y-78288476D01*
X177450666Y-80588476D01*
X177450666Y-78288476D01*
X176464952Y-79931333D02*
X175369714Y-79931333D01*
X176684000Y-80588476D02*
X175917333Y-78288476D01*
X175150666Y-80588476D01*
X174384000Y-79712285D02*
X172631619Y-79712285D01*
X171864952Y-78288476D02*
X170550666Y-78288476D01*
X171207809Y-80588476D02*
X171207809Y-78288476D01*
X169784000Y-79383714D02*
X169017333Y-79383714D01*
X168688761Y-80588476D02*
X169784000Y-80588476D01*
X169784000Y-78288476D01*
X168688761Y-78288476D01*
X166607809Y-80588476D02*
X167703047Y-80588476D01*
X167703047Y-78288476D01*
X165841142Y-79383714D02*
X165074476Y-79383714D01*
X164745904Y-80588476D02*
X165841142Y-80588476D01*
X165841142Y-78288476D01*
X164745904Y-78288476D01*
X163760190Y-79712285D02*
X162007809Y-79712285D01*
X160912571Y-79383714D02*
X160145904Y-79383714D01*
X159817333Y-80588476D02*
X160912571Y-80588476D01*
X160912571Y-78288476D01*
X159817333Y-78288476D01*
X158831619Y-80588476D02*
X158831619Y-78288476D01*
X157517333Y-80588476D01*
X157517333Y-78288476D01*
X155107809Y-80369428D02*
X155217333Y-80478952D01*
X155545904Y-80588476D01*
X155764952Y-80588476D01*
X156093523Y-80478952D01*
X156312571Y-80259904D01*
X156422095Y-80040857D01*
X156531619Y-79602761D01*
X156531619Y-79274190D01*
X156422095Y-78836095D01*
X156312571Y-78617047D01*
X156093523Y-78398000D01*
X155764952Y-78288476D01*
X155545904Y-78288476D01*
X155217333Y-78398000D01*
X155107809Y-78507523D01*
X154122095Y-80588476D02*
X154122095Y-78288476D01*
X154122095Y-79383714D02*
X152807809Y-79383714D01*
X152807809Y-80588476D02*
X152807809Y-78288476D01*
X151712571Y-78288476D02*
X151712571Y-80150380D01*
X151603047Y-80369428D01*
X151493523Y-80478952D01*
X151274476Y-80588476D01*
X150836380Y-80588476D01*
X150617333Y-80478952D01*
X150507809Y-80369428D01*
X150398285Y-80150380D01*
X150398285Y-78288476D01*
X148536380Y-79383714D02*
X149303047Y-79383714D01*
X149303047Y-80588476D02*
X149303047Y-78288476D01*
X148207809Y-78288476D01*
X147331619Y-79383714D02*
X146564952Y-79383714D01*
X146236380Y-80588476D02*
X147331619Y-80588476D01*
X147331619Y-78288476D01*
X146236380Y-78288476D01*
X145360190Y-80478952D02*
X145031619Y-80588476D01*
X144484000Y-80588476D01*
X144264952Y-80478952D01*
X144155428Y-80369428D01*
X144045904Y-80150380D01*
X144045904Y-79931333D01*
X144155428Y-79712285D01*
X144264952Y-79602761D01*
X144484000Y-79493238D01*
X144922095Y-79383714D01*
X145141142Y-79274190D01*
X145250666Y-79164666D01*
X145360190Y-78945619D01*
X145360190Y-78726571D01*
X145250666Y-78507523D01*
X145141142Y-78398000D01*
X144922095Y-78288476D01*
X144374476Y-78288476D01*
X144045904Y-78398000D01*
X141307809Y-80588476D02*
X141307809Y-78288476D01*
X140212571Y-80588476D02*
X140212571Y-78288476D01*
X138898285Y-80588476D01*
X138898285Y-78288476D01*
X138131619Y-78288476D02*
X136817333Y-78288476D01*
X137474476Y-80588476D02*
X137474476Y-78288476D01*
X136050666Y-79383714D02*
X135284000Y-79383714D01*
X134955428Y-80588476D02*
X136050666Y-80588476D01*
X136050666Y-78288476D01*
X134955428Y-78288476D01*
X132655428Y-80588476D02*
X133422095Y-79493238D01*
X133969714Y-80588476D02*
X133969714Y-78288476D01*
X133093523Y-78288476D01*
X132874476Y-78398000D01*
X132764952Y-78507523D01*
X132655428Y-78726571D01*
X132655428Y-79055142D01*
X132764952Y-79274190D01*
X132874476Y-79383714D01*
X133093523Y-79493238D01*
X133969714Y-79493238D01*
X130903047Y-79383714D02*
X131669714Y-79383714D01*
X131669714Y-80588476D02*
X131669714Y-78288476D01*
X130574476Y-78288476D01*
X129807809Y-79931333D02*
X128712571Y-79931333D01*
X130026857Y-80588476D02*
X129260190Y-78288476D01*
X128493523Y-80588476D01*
X127945904Y-78288476D02*
X126412571Y-78288476D01*
X127945904Y-80588476D01*
X126412571Y-80588476D01*
X183902857Y-88586428D02*
X183645714Y-88672142D01*
X183560000Y-88757857D01*
X183474285Y-88929285D01*
X183474285Y-89186428D01*
X183560000Y-89357857D01*
X183645714Y-89443571D01*
X183817142Y-89529285D01*
X184502857Y-89529285D01*
X184502857Y-87729285D01*
X183902857Y-87729285D01*
X183731428Y-87815000D01*
X183645714Y-87900714D01*
X183560000Y-88072142D01*
X183560000Y-88243571D01*
X183645714Y-88415000D01*
X183731428Y-88500714D01*
X183902857Y-88586428D01*
X184502857Y-88586428D01*
X182360000Y-88672142D02*
X182360000Y-89529285D01*
X182960000Y-87729285D02*
X182360000Y-88672142D01*
X181760000Y-87729285D01*
X190760000Y-92165000D02*
X189902857Y-92165000D01*
X190931428Y-92679285D02*
X190331428Y-90879285D01*
X189731428Y-92679285D01*
X189131428Y-92679285D02*
X189131428Y-90879285D01*
X188445714Y-90879285D01*
X188274285Y-90965000D01*
X188188571Y-91050714D01*
X188102857Y-91222142D01*
X188102857Y-91479285D01*
X188188571Y-91650714D01*
X188274285Y-91736428D01*
X188445714Y-91822142D01*
X189131428Y-91822142D01*
X187417142Y-92165000D02*
X186560000Y-92165000D01*
X187588571Y-92679285D02*
X186988571Y-90879285D01*
X186388571Y-92679285D01*
X184760000Y-92507857D02*
X184845714Y-92593571D01*
X185102857Y-92679285D01*
X185274285Y-92679285D01*
X185531428Y-92593571D01*
X185702857Y-92422142D01*
X185788571Y-92250714D01*
X185874285Y-91907857D01*
X185874285Y-91650714D01*
X185788571Y-91307857D01*
X185702857Y-91136428D01*
X185531428Y-90965000D01*
X185274285Y-90879285D01*
X185102857Y-90879285D01*
X184845714Y-90965000D01*
X184760000Y-91050714D01*
X183988571Y-92679285D02*
X183988571Y-90879285D01*
X183988571Y-91736428D02*
X182960000Y-91736428D01*
X182960000Y-92679285D02*
X182960000Y-90879285D01*
X182102857Y-91736428D02*
X181502857Y-91736428D01*
X181245714Y-92679285D02*
X182102857Y-92679285D01*
X182102857Y-90879285D01*
X181245714Y-90879285D01*
X179874285Y-91736428D02*
X179617142Y-91822142D01*
X179531428Y-91907857D01*
X179445714Y-92079285D01*
X179445714Y-92336428D01*
X179531428Y-92507857D01*
X179617142Y-92593571D01*
X179788571Y-92679285D01*
X180474285Y-92679285D01*
X180474285Y-90879285D01*
X179874285Y-90879285D01*
X179702857Y-90965000D01*
X179617142Y-91050714D01*
X179531428Y-91222142D01*
X179531428Y-91393571D01*
X179617142Y-91565000D01*
X179702857Y-91650714D01*
X179874285Y-91736428D01*
X180474285Y-91736428D01*
X177645714Y-92507857D02*
X177731428Y-92593571D01*
X177988571Y-92679285D01*
X178160000Y-92679285D01*
X178417142Y-92593571D01*
X178588571Y-92422142D01*
X178674285Y-92250714D01*
X178760000Y-91907857D01*
X178760000Y-91650714D01*
X178674285Y-91307857D01*
X178588571Y-91136428D01*
X178417142Y-90965000D01*
X178160000Y-90879285D01*
X177988571Y-90879285D01*
X177731428Y-90965000D01*
X177645714Y-91050714D01*
X176874285Y-92679285D02*
X176874285Y-90879285D01*
X175845714Y-92679285D01*
X175845714Y-90879285D01*
D11*
X122977714Y-125842500D02*
X122263428Y-125842500D01*
X123120571Y-126271071D02*
X122620571Y-124771071D01*
X122120571Y-126271071D01*
X121834857Y-124771071D02*
X120977714Y-124771071D01*
X121406285Y-126271071D02*
X121406285Y-124771071D01*
X119620571Y-126271071D02*
X120120571Y-125556785D01*
X120477714Y-126271071D02*
X120477714Y-124771071D01*
X119906285Y-124771071D01*
X119763428Y-124842500D01*
X119692000Y-124913928D01*
X119620571Y-125056785D01*
X119620571Y-125271071D01*
X119692000Y-125413928D01*
X119763428Y-125485357D01*
X119906285Y-125556785D01*
X120477714Y-125556785D01*
X119049142Y-125842500D02*
X118334857Y-125842500D01*
X119192000Y-126271071D02*
X118692000Y-124771071D01*
X118192000Y-126271071D01*
X118549142Y-124199642D02*
X118763428Y-124413928D01*
X117763428Y-126199642D02*
X117549142Y-126271071D01*
X117192000Y-126271071D01*
X117049142Y-126199642D01*
X116977714Y-126128214D01*
X116906285Y-125985357D01*
X116906285Y-125842500D01*
X116977714Y-125699642D01*
X117049142Y-125628214D01*
X117192000Y-125556785D01*
X117477714Y-125485357D01*
X117620571Y-125413928D01*
X117692000Y-125342500D01*
X117763428Y-125199642D01*
X117763428Y-125056785D01*
X117692000Y-124913928D01*
X117620571Y-124842500D01*
X117477714Y-124771071D01*
X117120571Y-124771071D01*
X116906285Y-124842500D01*
X126870571Y-128753214D02*
X126942000Y-128824642D01*
X127156285Y-128896071D01*
X127299142Y-128896071D01*
X127513428Y-128824642D01*
X127656285Y-128681785D01*
X127727714Y-128538928D01*
X127799142Y-128253214D01*
X127799142Y-128038928D01*
X127727714Y-127753214D01*
X127656285Y-127610357D01*
X127513428Y-127467500D01*
X127299142Y-127396071D01*
X127156285Y-127396071D01*
X126942000Y-127467500D01*
X126870571Y-127538928D01*
X125942000Y-127396071D02*
X125656285Y-127396071D01*
X125513428Y-127467500D01*
X125370571Y-127610357D01*
X125299142Y-127896071D01*
X125299142Y-128396071D01*
X125370571Y-128681785D01*
X125513428Y-128824642D01*
X125656285Y-128896071D01*
X125942000Y-128896071D01*
X126084857Y-128824642D01*
X126227714Y-128681785D01*
X126299142Y-128396071D01*
X126299142Y-127896071D01*
X126227714Y-127610357D01*
X126084857Y-127467500D01*
X125942000Y-127396071D01*
X124656285Y-128896071D02*
X124656285Y-127396071D01*
X124156285Y-128467500D01*
X123656285Y-127396071D01*
X123656285Y-128896071D01*
X122942000Y-128896071D02*
X122942000Y-127396071D01*
X122370571Y-127396071D01*
X122227714Y-127467500D01*
X122156285Y-127538928D01*
X122084857Y-127681785D01*
X122084857Y-127896071D01*
X122156285Y-128038928D01*
X122227714Y-128110357D01*
X122370571Y-128181785D01*
X122942000Y-128181785D01*
X121156285Y-127396071D02*
X120870571Y-127396071D01*
X120727714Y-127467500D01*
X120584857Y-127610357D01*
X120513428Y-127896071D01*
X120513428Y-128396071D01*
X120584857Y-128681785D01*
X120727714Y-128824642D01*
X120870571Y-128896071D01*
X121156285Y-128896071D01*
X121299142Y-128824642D01*
X121442000Y-128681785D01*
X121513428Y-128396071D01*
X121513428Y-127896071D01*
X121442000Y-127610357D01*
X121299142Y-127467500D01*
X121156285Y-127396071D01*
X119870571Y-128896071D02*
X119870571Y-127396071D01*
X119013428Y-128896071D01*
X119013428Y-127396071D01*
X118299142Y-128110357D02*
X117799142Y-128110357D01*
X117584857Y-128896071D02*
X118299142Y-128896071D01*
X118299142Y-127396071D01*
X117584857Y-127396071D01*
X116942000Y-128896071D02*
X116942000Y-127396071D01*
X116084857Y-128896071D01*
X116084857Y-127396071D01*
X115584857Y-127396071D02*
X114727714Y-127396071D01*
X115156285Y-128896071D02*
X115156285Y-127396071D01*
X114227714Y-128110357D02*
X113727714Y-128110357D01*
X113513428Y-128896071D02*
X114227714Y-128896071D01*
X114227714Y-127396071D01*
X113513428Y-127396071D01*
X112942000Y-128824642D02*
X112727714Y-128896071D01*
X112370571Y-128896071D01*
X112227714Y-128824642D01*
X112156285Y-128753214D01*
X112084857Y-128610357D01*
X112084857Y-128467500D01*
X112156285Y-128324642D01*
X112227714Y-128253214D01*
X112370571Y-128181785D01*
X112656285Y-128110357D01*
X112799142Y-128038928D01*
X112870571Y-127967500D01*
X112942000Y-127824642D01*
X112942000Y-127681785D01*
X112870571Y-127538928D01*
X112799142Y-127467500D01*
X112656285Y-127396071D01*
X112299142Y-127396071D01*
X112084857Y-127467500D01*
D12*
%TO.P,U1,16*%
%TO.N,VCC*%
X143937436Y-125363000D03*
%TO.P,U1,8*%
%TO.N,GND*%
X136317436Y-107583000D03*
%TO.P,U1,15*%
X143937436Y-122823000D03*
%TO.P,U1,7*%
%TO.N,/DATA_IN*%
X136317436Y-110123000D03*
%TO.P,U1,14*%
%TO.N,/SW4*%
X143937436Y-120283000D03*
%TO.P,U1,6*%
%TO.N,/SW_ALL_OFF1*%
X136317436Y-112663000D03*
%TO.P,U1,13*%
%TO.N,/SW3*%
X143937436Y-117743000D03*
%TO.P,U1,5*%
%TO.N,/SW7*%
X136317436Y-115203000D03*
%TO.P,U1,12*%
%TO.N,/SW2*%
X143937436Y-115203000D03*
%TO.P,U1,4*%
%TO.N,/SW6*%
X136317436Y-117743000D03*
%TO.P,U1,11*%
%TO.N,/SW1*%
X143937436Y-112663000D03*
%TO.P,U1,3*%
%TO.N,/SW5*%
X136317436Y-120283000D03*
%TO.P,U1,10*%
%TO.N,Net-(U1-Pad10)*%
X143937436Y-110123000D03*
%TO.P,U1,2*%
%TO.N,/CLOCK*%
X136317436Y-122823000D03*
%TO.P,U1,9*%
%TO.N,Net-(U1-Pad9)*%
X143937436Y-107583000D03*
D13*
%TO.P,U1,1*%
%TO.N,/LOAD*%
X136317436Y-125363000D03*
%TD*%
D12*
%TO.P,U2,16*%
%TO.N,VCC*%
X173045000Y-125363000D03*
%TO.P,U2,8*%
%TO.N,GND*%
X165425000Y-107583000D03*
%TO.P,U2,15*%
%TO.N,/RD1*%
X173045000Y-122823000D03*
%TO.P,U2,7*%
%TO.N,Net-(U2-Pad7)*%
X165425000Y-110123000D03*
%TO.P,U2,14*%
%TO.N,/DATA*%
X173045000Y-120283000D03*
%TO.P,U2,6*%
%TO.N,/RD7*%
X165425000Y-112663000D03*
%TO.P,U2,13*%
%TO.N,GND*%
X173045000Y-117743000D03*
%TO.P,U2,5*%
%TO.N,/RD6*%
X165425000Y-115203000D03*
%TO.P,U2,12*%
%TO.N,/LATCH*%
X173045000Y-115203000D03*
%TO.P,U2,4*%
%TO.N,/RD5*%
X165425000Y-117743000D03*
%TO.P,U2,11*%
%TO.N,/CLOCK*%
X173045000Y-112663000D03*
%TO.P,U2,3*%
%TO.N,/RD4*%
X165425000Y-120283000D03*
%TO.P,U2,10*%
%TO.N,VCC*%
X173045000Y-110123000D03*
%TO.P,U2,2*%
%TO.N,/RD3*%
X165425000Y-122823000D03*
%TO.P,U2,9*%
%TO.N,Net-(U2-Pad9)*%
X173045000Y-107583000D03*
D13*
%TO.P,U2,1*%
%TO.N,/RD2*%
X165425000Y-125363000D03*
%TD*%
D14*
%TO.P,SW1,1*%
%TO.N,VCC*%
X126300000Y-61393000D03*
%TO.P,SW1,2*%
%TO.N,/SW1*%
X126300000Y-66393000D03*
%TO.P,SW1,1*%
%TO.N,VCC*%
X113800000Y-61393000D03*
%TO.P,SW1,2*%
%TO.N,/SW1*%
X113800000Y-66393000D03*
%TD*%
D15*
%TO.P,J1,6*%
%TO.N,VCC*%
X191760000Y-115770000D03*
%TO.P,J1,5*%
%TO.N,GND*%
X191760000Y-113270000D03*
%TO.P,J1,4*%
%TO.N,/CLOCK*%
X191760000Y-110770000D03*
%TO.P,J1,3*%
%TO.N,/DATA*%
X191760000Y-108270000D03*
%TO.P,J1,2*%
%TO.N,/LATCH*%
X191760000Y-105770000D03*
%TO.P,J1,1*%
%TO.N,/LOAD*%
%TA.AperFunction,ComponentPad*%
G36*
G01*
X191035000Y-102420000D02*
X192485000Y-102420000D01*
G75*
G02*
X192735000Y-102670000I0J-250000D01*
G01*
X192735000Y-103870000D01*
G75*
G02*
X192485000Y-104120000I-250000J0D01*
G01*
X191035000Y-104120000D01*
G75*
G02*
X190785000Y-103870000I0J250000D01*
G01*
X190785000Y-102670000D01*
G75*
G02*
X191035000Y-102420000I250000J0D01*
G01*
G37*
%TD.AperFunction*%
%TD*%
D14*
%TO.P,SW_ALL_OFF1,1*%
%TO.N,VCC*%
X113784436Y-119920000D03*
%TO.P,SW_ALL_OFF1,2*%
%TO.N,/SW_ALL_OFF1*%
X113784436Y-114920000D03*
%TO.P,SW_ALL_OFF1,1*%
%TO.N,VCC*%
X126284436Y-119920000D03*
%TO.P,SW_ALL_OFF1,2*%
%TO.N,/SW_ALL_OFF1*%
X126284436Y-114920000D03*
%TD*%
%TO.P,SW7,2*%
%TO.N,/SW7*%
X155964000Y-92047000D03*
%TO.P,SW7,1*%
%TO.N,VCC*%
X155964000Y-87047000D03*
%TO.P,SW7,2*%
%TO.N,/SW7*%
X168464000Y-92047000D03*
%TO.P,SW7,1*%
%TO.N,VCC*%
X168464000Y-87047000D03*
%TD*%
%TO.P,SW6,1*%
%TO.N,VCC*%
X147128000Y-87047000D03*
%TO.P,SW6,2*%
%TO.N,/SW6*%
X147128000Y-92047000D03*
%TO.P,SW6,1*%
%TO.N,VCC*%
X134628000Y-87047000D03*
%TO.P,SW6,2*%
%TO.N,/SW6*%
X134628000Y-92047000D03*
%TD*%
%TO.P,SW5,1*%
%TO.N,VCC*%
X126300000Y-87047000D03*
%TO.P,SW5,2*%
%TO.N,/SW5*%
X126300000Y-92047000D03*
%TO.P,SW5,1*%
%TO.N,VCC*%
X113800000Y-87047000D03*
%TO.P,SW5,2*%
%TO.N,/SW5*%
X113800000Y-92047000D03*
%TD*%
%TO.P,SW4,1*%
%TO.N,VCC*%
X189292000Y-61393000D03*
%TO.P,SW4,2*%
%TO.N,/SW4*%
X189292000Y-66393000D03*
%TO.P,SW4,1*%
%TO.N,VCC*%
X176792000Y-61393000D03*
%TO.P,SW4,2*%
%TO.N,/SW4*%
X176792000Y-66393000D03*
%TD*%
%TO.P,SW3,2*%
%TO.N,/SW3*%
X155964000Y-66393000D03*
%TO.P,SW3,1*%
%TO.N,VCC*%
X155964000Y-61393000D03*
%TO.P,SW3,2*%
%TO.N,/SW3*%
X168464000Y-66393000D03*
%TO.P,SW3,1*%
%TO.N,VCC*%
X168464000Y-61393000D03*
%TD*%
%TO.P,SW2,1*%
%TO.N,VCC*%
X147128000Y-61393000D03*
%TO.P,SW2,2*%
%TO.N,/SW2*%
X147128000Y-66393000D03*
%TO.P,SW2,1*%
%TO.N,VCC*%
X134628000Y-61393000D03*
%TO.P,SW2,2*%
%TO.N,/SW2*%
X134628000Y-66393000D03*
%TD*%
D16*
%TO.N,/CLOCK*%
X132507436Y-122823000D03*
X178971436Y-112663000D03*
%TO.N,VCC*%
X140254436Y-125254000D03*
X176594436Y-110123000D03*
X176467436Y-125363000D03*
%TO.N,/SW1*%
X147493436Y-112681000D03*
%TO.N,/SW4*%
X147620436Y-120047000D03*
%TO.N,/SW3*%
X147493436Y-117761000D03*
%TO.N,/SW5*%
X129477000Y-110395000D03*
%TO.N,/SW6*%
X129459436Y-117761000D03*
%TO.N,/SW7*%
X129459436Y-115094000D03*
%TO.N,/SW_ALL_OFF1*%
X129459436Y-112681000D03*
%TO.N,/SW2*%
X147493436Y-115221000D03*
%TO.N,/LOAD*%
X132531000Y-125363000D03*
X184069436Y-103283000D03*
%TD*%
D17*
%TO.N,/CLOCK*%
X135244990Y-127743990D02*
X134120000Y-126619000D01*
D18*
%TO.N,VCC*%
X189292000Y-61393000D02*
X113800000Y-61393000D01*
D17*
X132240400Y-87047000D02*
X134882000Y-87047000D01*
X131072000Y-87047000D02*
X132240400Y-87047000D01*
X126300000Y-87047000D02*
X131072000Y-87047000D01*
X126300000Y-87047000D02*
X113800000Y-87047000D01*
X147128000Y-87047000D02*
X168464000Y-87047000D01*
X134628000Y-87047000D02*
X147128000Y-87047000D01*
X189292000Y-61393000D02*
X176792000Y-61393000D01*
X168464000Y-61393000D02*
X176792000Y-61393000D01*
X168464000Y-61393000D02*
X155964000Y-61393000D01*
X147128000Y-61393000D02*
X155964000Y-61393000D01*
X147128000Y-61393000D02*
X134628000Y-61393000D01*
X134628000Y-61393000D02*
X126300000Y-61393000D01*
X126300000Y-61393000D02*
X113800000Y-61393000D01*
X113800000Y-61393000D02*
X109200000Y-65993000D01*
X113800000Y-87047000D02*
X109753000Y-87047000D01*
X109753000Y-87047000D02*
X109200000Y-87600000D01*
X109200000Y-65993000D02*
X109200000Y-87600000D01*
D18*
%TO.N,/SW1*%
X124972200Y-66393000D02*
X125331600Y-66752400D01*
D17*
X113800000Y-66393000D02*
X126300000Y-66393000D01*
%TO.N,/SW3*%
X155964000Y-66393000D02*
X168464000Y-66393000D01*
%TO.N,/SW4*%
X176792000Y-66393000D02*
X189292000Y-66393000D01*
%TO.N,/CLOCK*%
X132507436Y-122823000D02*
X133960872Y-124276436D01*
X134120000Y-124435564D02*
X133960872Y-124276436D01*
X134120000Y-126619000D02*
X134120000Y-124435564D01*
X172435446Y-127743990D02*
X178023446Y-127743990D01*
X172435446Y-127743990D02*
X135244990Y-127743990D01*
X178971436Y-126796000D02*
X178971436Y-112663000D01*
X178023446Y-127743990D02*
X178971436Y-126796000D01*
%TO.N,VCC*%
X150287436Y-122079000D02*
X153093476Y-119272960D01*
X145969436Y-106585000D02*
X145969436Y-122079000D01*
X145969436Y-122079000D02*
X150287436Y-122079000D01*
X139111436Y-124111000D02*
X139111436Y-108236000D01*
X140254436Y-125254000D02*
X139111436Y-124111000D01*
X153093476Y-119272960D02*
X153093476Y-108223960D01*
X156042314Y-105275122D02*
X153093476Y-108223960D01*
X145080436Y-105696000D02*
X145969436Y-106585000D01*
X141651436Y-105696000D02*
X145080436Y-105696000D01*
X139111436Y-108236000D02*
X141651436Y-105696000D01*
X189292000Y-61942000D02*
X196810000Y-69460000D01*
X189292000Y-61393000D02*
X189292000Y-61942000D01*
X196809998Y-94375263D02*
X191833242Y-99352020D01*
X196810000Y-93215457D02*
X196809998Y-94375263D01*
X196810000Y-90288436D02*
X196810000Y-93215457D01*
X196810000Y-69460000D02*
X196810000Y-90288436D01*
X191833242Y-99352020D02*
X179716153Y-99352020D01*
X173793051Y-105275122D02*
X170647314Y-105275122D01*
X179716153Y-99352020D02*
X173793051Y-105275122D01*
X170647314Y-105275122D02*
X156042314Y-105275122D01*
X173793051Y-105275122D02*
X174250558Y-105275122D01*
X176594436Y-107619000D02*
X176594436Y-110123000D01*
X174250558Y-105275122D02*
X176594436Y-107619000D01*
X176594436Y-110123000D02*
X176594436Y-125236000D01*
X176594436Y-125236000D02*
X176467436Y-125363000D01*
X113784436Y-119920000D02*
X112314436Y-119920000D01*
X109200000Y-116805564D02*
X109200000Y-106524436D01*
X112314436Y-119920000D02*
X109200000Y-116805564D01*
X109200000Y-87600000D02*
X109200000Y-106524436D01*
X113784436Y-119920000D02*
X126284436Y-119920000D01*
%TO.N,/SW1*%
X113236000Y-84546000D02*
X170845524Y-84546000D01*
X110600010Y-81910010D02*
X113236000Y-84546000D01*
X110600010Y-66868990D02*
X110600010Y-81910010D01*
X111076000Y-66393000D02*
X110600010Y-66868990D01*
X170845524Y-84546000D02*
X172001426Y-85701902D01*
X113800000Y-66393000D02*
X111076000Y-66393000D01*
X172001426Y-85701902D02*
X172001426Y-92237010D01*
X147493436Y-105904349D02*
X147493436Y-112681000D01*
X153722703Y-99675082D02*
X147493436Y-105904349D01*
X171294354Y-99675082D02*
X153722703Y-99675082D01*
X172001426Y-98968010D02*
X171294354Y-99675082D01*
X172001426Y-92237010D02*
X172001426Y-98968010D01*
%TO.N,/SW3*%
X150293456Y-114960980D02*
X147493436Y-117761000D01*
X150293456Y-107064155D02*
X150293456Y-114960980D01*
X154882509Y-102475102D02*
X150293456Y-107064155D01*
X190673436Y-96552000D02*
X178556349Y-96552000D01*
X178556349Y-96552000D02*
X172633247Y-102475102D01*
X194009980Y-93215456D02*
X190673436Y-96552000D01*
X194009980Y-72069980D02*
X194009980Y-93215456D01*
X172633247Y-102475102D02*
X154882509Y-102475102D01*
X190746000Y-68806000D02*
X194009980Y-72069980D01*
X170877000Y-68806000D02*
X190746000Y-68806000D01*
X168464000Y-66393000D02*
X170877000Y-68806000D01*
%TO.N,/SW4*%
X151693466Y-116608970D02*
X148255436Y-120047000D01*
X155462411Y-103875112D02*
X151693466Y-107644057D01*
X191253339Y-97952010D02*
X179136251Y-97952010D01*
X151693466Y-107644057D02*
X151693466Y-116608970D01*
X173213149Y-103875112D02*
X155462411Y-103875112D01*
X194589882Y-94615466D02*
X191253339Y-97952010D01*
X148255436Y-120047000D02*
X147620436Y-120047000D01*
X195409990Y-93795359D02*
X194589882Y-94615466D01*
X195409990Y-70039902D02*
X195409990Y-93795359D01*
X191763088Y-66393000D02*
X195409990Y-70039902D01*
X179136251Y-97952010D02*
X173213149Y-103875112D01*
X189292000Y-66393000D02*
X191763088Y-66393000D01*
%TO.N,/SW5*%
X126300000Y-92047000D02*
X113800000Y-92047000D01*
X126300000Y-92047000D02*
X126300000Y-96567000D01*
X126300000Y-96567000D02*
X129477000Y-99744000D01*
X129477000Y-110395000D02*
X129477000Y-99744000D01*
%TO.N,/SW6*%
X138415000Y-92047000D02*
X147128000Y-92047000D01*
X134628000Y-92047000D02*
X138415000Y-92047000D01*
X129459436Y-117761000D02*
X129459436Y-117195315D01*
X134628000Y-92047000D02*
X134628000Y-92272436D01*
X134628000Y-92272436D02*
X132995010Y-93905426D01*
X129459436Y-117073913D02*
X129459436Y-117195315D01*
X132995010Y-113538339D02*
X129459436Y-117073913D01*
X132995010Y-93905426D02*
X132995010Y-113538339D01*
%TO.N,/SW7*%
X162444800Y-92047000D02*
X155964000Y-92047000D01*
X162444800Y-92047000D02*
X168464000Y-92047000D01*
X130665936Y-113887500D02*
X129459436Y-115094000D01*
X131595000Y-112958436D02*
X130665936Y-113887500D01*
X131595000Y-90209000D02*
X131595000Y-112958436D01*
X132329000Y-89475000D02*
X131595000Y-90209000D01*
X155309000Y-89475000D02*
X132329000Y-89475000D01*
X155964000Y-90130000D02*
X155309000Y-89475000D01*
X155964000Y-92047000D02*
X155964000Y-90130000D01*
%TO.N,/SW_ALL_OFF1*%
X126190436Y-112681000D02*
X123951436Y-114920000D01*
X129459436Y-112681000D02*
X126190436Y-112681000D01*
X123951436Y-114920000D02*
X126284436Y-114920000D01*
X113784436Y-114920000D02*
X123951436Y-114920000D01*
D18*
%TO.N,/SW2*%
X146366000Y-66393000D02*
X133866000Y-66393000D01*
D17*
X134628000Y-66393000D02*
X147128000Y-66393000D01*
X148893446Y-113820990D02*
X147493436Y-115221000D01*
X171425426Y-83145990D02*
X173401436Y-85122000D01*
X113815902Y-83145990D02*
X171425426Y-83145990D01*
X112000020Y-81330108D02*
X113815902Y-83145990D01*
X112000020Y-70479980D02*
X112000020Y-81330108D01*
X113671000Y-68809000D02*
X112000020Y-70479980D01*
X132212000Y-68809000D02*
X113671000Y-68809000D01*
X134628000Y-66393000D02*
X132212000Y-68809000D01*
X173401436Y-93123000D02*
X173401436Y-99727000D01*
X173401436Y-85122000D02*
X173401436Y-93123000D01*
X173401436Y-99727000D02*
X172053344Y-101075092D01*
X154302606Y-101075092D02*
X153482499Y-101895200D01*
X172053344Y-101075092D02*
X154302606Y-101075092D01*
X148893446Y-106484253D02*
X148893446Y-113820990D01*
X153482499Y-101895200D02*
X148893446Y-106484253D01*
%TO.N,/LOAD*%
X134065000Y-129154000D02*
X132528000Y-127617000D01*
X138140000Y-129154000D02*
X134065000Y-129154000D01*
X132528000Y-125366000D02*
X132531000Y-125363000D01*
X132528000Y-127617000D02*
X132528000Y-125366000D01*
X184069436Y-126430000D02*
X181355436Y-129144000D01*
X184069436Y-103283000D02*
X184069436Y-126430000D01*
X138150000Y-129144000D02*
X181355436Y-129144000D01*
%TD*%
M02*
